<svg xmlns="http://www.w3.org/2000/svg" xml:space="preserve" width="483.795" height="534.864" version="1.0" style="shape-rendering:geometricPrecision;text-rendering:geometricPrecision;image-rendering:optimizeQuality;fill-rule:evenodd;clip-rule:evenodd" viewBox="0 0 12800.36 14151.56"><defs><style>.fil1{fill:#000}</style></defs><g id="Layer_x0020_1"><g id="_2665373082960"><path d="M12790.18 4017.2c-27.87-24.41-27.87-24.41-27.87-45.34 0-20.91 6.97-27.87-13.94-41.84-20.96-13.94-66.27-55.79-66.27-55.79l-59.28 3.5s0 10.45-17.44 13.93c-17.43 3.5-48.83-6.95-48.83-6.95l-48.82 6.95-62.77-38.35-90.65 34.87 3.47 34.87-83.68-17.43 45.31-24.41-10.47-55.8 31.44-17.44 3.46-48.81 45.31-38.37 10.47-17.44s-80.21-52.29-76.71-115.07c0 0-90.68 6.99-83.68 83.7 0 0-34.87 20.92-31.37-17.44l3.46-38.34-31.37-17.46 17.41-10.46s13.96-55.79 55.77-55.79l7.03-38.34-38.4-13.97s-13.9 10.47-27.87-10.44c-13.94-20.95-52.31-41.86-52.31-41.86l-20.91-27.91s-66.27 62.78-129.05 97.65c-62.74 34.87-76.71 59.28-76.71 59.28l20.94 38.37-27.9-3.49s0 55.78-34.88 55.78c-34.9 0-80.21-34.86-80.21-34.86s-52.31-10.47-80.21-10.47c-27.87 0-27.87 31.39-73.21 0-45.37-31.38-104.62-55.79-104.62-55.79s-10.44 55.79-41.87 59.28c-31.37 3.48-41.81 17.43-55.78 24.4-13.97 6.99-55.8 24.42-59.27 38.37-3.5 13.96-13.94 55.8-13.94 55.8l-48.84 31.38-3.47 45.33-52.34 13.95-73.21 76.71-69.71 13.96-87.21 48.82-52.31-10.45-3.5 101.11-90.65 69.75-24.4 52.31-73.25 31.38-3.47 45.34 27.88 31.39s-38.34 34.87-59.28 52.29c-20.91 17.44-24.4 34.86-24.4 34.86h-27.91c-13.97 0-41.84 20.93-41.84 20.93s-24.4 6.99-31.37-3.5c-2.17-3.22-5.01-6.76-7.9-10.16-9.66 2.84-97.29 29.35-107.21 59.01l-163.9-6.97s24.44 13.93-3.5 52.3c-27.87 38.36 10.53 38.36 10.53 62.77 0 24.41 55.78 41.85 55.78 66.26 0 24.4 66.24-31.39 73.21-17.44 6.97 13.94 34.91-24.41 34.91-24.41l55.77 69.72s-41.84 55.8-34.87 83.71c6.97 27.9 69.74 80.21 59.28 115.08 0 0-3.51 41.84-52.31 24.41-48.84-17.44-27.87 20.9-34.9 34.87-6.97 13.95-38.34-45.34-41.82-24.4-3.49 20.91 10.44 24.4-27.9 24.4-38.37 0-48.84 6.97-62.78 13.95-13.93 6.99-45.34 10.45-45.34 10.45l3.51-31.37s-55.78-3.5-59.28 20.92c-3.47 24.42-34.87 24.42-34.87 24.42h-66.28c-10.43 0-17.43-17.43-38.34-3.5-20.91 13.94-55.81 13.94-55.81 13.94l-101.11-10.44s-38.34-24.42-73.25-48.84c-34.84-24.4-111.58-13.93-111.58-13.93s52.31 73.21-170.86 94.14c0 0-132.52 6.97-167.36 34.87l13.91-38.37s-41.85 0-62.75-17.43c-20.94-17.42-13.97-31.38-45.37-17.42-31.37 13.95-27.87 45.32-69.68 24.4-41.91-20.92-31.41-27.91-41.91-38.36-10.43-10.46-34.84 3.51-55.74-20.92-20.97-24.4-20.97-17.45-45.34-48.82-24.41-31.37-24.41-27.9-24.41-52.31 0-24.4-3.5-38.37 10.44-41.84 13.97-3.48 27.91-3.48 27.91-38.37 0-34.87-3.51-6.97-31.38-45.32-27.93-38.36-38.37-55.79-17.44-80.2 20.91-24.42 45.31-69.76 41.85-90.68-3.5-20.92-45.37-3.5-31.38-17.44 13.94-13.93 41.81-31.37 38.35-48.8-3.51-17.47-20.94 3.46-24.41-17.47-3.5-20.91-13.94-55.76-20.93-69.71-7-13.96-62.78-24.41-62.78-24.41l-48.84 6.97s-34.84 41.84-41.81 52.31c-6.97 10.43 13.94 17.42-6.97 10.43-20.93-6.95-31.4-34.85-38.37-13.93l-6.97 20.92-69.77 10.48s17.43 10.45 17.43 59.28c0 48.81-34.84 94.15-52.27 118.55-17.44 24.41-27.88 45.34-20.97 55.78 7.03 10.5-13.91 48.83-13.91 66.27 0 17.44-3.5 55.78-3.5 55.78l27.94 20.95s-20.97 45.33 0 66.24c20.9 20.94 45.28 17.43 45.28 31.39 0 13.95 3.5 41.84 3.5 52.31 0 10.47 59.3 55.78 41.87 76.71-17.44 20.91-10.47 76.71-38.37 87.18l-27.91 10.47s-20.9 115.08-48.81 83.68c-27.9-31.37-45.34-45.34-45.34-45.34l-115.08 27.91s-76.68-27.91-90.68-10.44c-13.94 17.44 10.47 73.23-24.37 52.28-34.87-20.93-55.81-27.88-55.81-27.88l-31.37-3.5-34.87-83.68-31.41 34.88s-3.46 41.83-52.28 41.83c-40.72 0-47.45 9.66-48.59 12.89-.13.69-.24 1.05-.24 1.05s.03-.39.24-1.05c1.05-5.61 2.32-32.58-63.02-51.24-73.24-20.92-122.05-38.36-122.05-38.36s-10.44 20.91-45.34 13.95c-34.84-6.98-34.84-31.38-66.25-27.92-31.4 3.51-73.21 48.85-73.21 48.85s-48.84-45.34-62.77-20.93c-13.94 24.41-13.94-3.51-13.94-3.51l10.43-104.62s-41.83-24.4-111.61 24.41c-69.68 48.84-62.71 52.34-94.12 13.97-31.37-38.38-31.37-38.38-59.3-38.38-27.88 0-20.91-55.78-66.25-55.78s-94.12-10.46-94.12-10.46-41.87 3.5-31.4-55.81c10.44-59.27-7-94.13-7-94.13s-38.34-6.97-83.68-13.95c-45.31-6.97-55.8-24.41-69.74-38.37-13.94-13.94-31.37-24.41-31.37-24.41l-38.38-20.9-10.47 34.87s-115.05 6.97-125.52 24.4c-10.43 17.44-20.9 13.96-45.34-3.48-24.4-17.45-52.27-31.39-62.77-31.39-10.47 0-73.21 6.97-73.21 6.97l-55.81 52.31s-6.97-48.81-52.31-52.31c-45.31-3.5-48.81-3.5-66.27-3.5-17.44 0-34.85-10.44-59.25-17.42-24.43-6.99-59.27 3.48-59.27 3.48s41.83-13.93 3.46-52.31c-38.34-38.37-38.34-55.8-55.8-52.3-17.44 3.5-48.81 13.93-69.72 6.97-20.93-6.97-24.43-6.97-41.84-24.41-17.46-17.43-160.42-83.7-160.42-83.7s-13.97 10.46-34.87 24.42c-20.94 13.96-24.44-13.96-38.37-20.91-13.94-6.99-62.78-17.46-62.78-17.46s-24.41-31.37-34.84-41.84c-10.47-10.47-69.78-59.27-90.68-59.27-20.94 0-27.9 38.35-38.37 20.93-10.44-17.47 7-62.77-20.91-87.18-27.9-24.42-55.81-20.93-69.74-31.4-13.97-10.45-48.81-31.38-48.81-31.38s-45.37 3.49-45.37-10.46c0-13.95 7 3.49-20.9-20.94-27.91-24.4-62.78-45.3-90.65-76.71-27.91-31.37-45.34-6.96-41.85 27.91 3.47 34.87-13.96 24.4-20.93 10.46-7-13.95-17.44-27.9-27.9-31.39-10.47-3.48-17.44 6.99-27.91-3.48-10.45-10.46-38.36-52.31-48.82-55.81-10.45-3.48-27.88 3.5-27.88 3.5s3.46-45.34 52.3-108.1c48.8-62.77 31.37-122.05 41.84-122.05 10.47 0 38.37-6.98 38.37-6.98s3.47-6.97-17.44-38.36c-20.93-31.39-24.4-55.79-10.46-73.23 13.93-17.43 10.46-48.82 20.9-48.82 10.47 0 38.37-3.49 34.87-45.34-3.47-41.84 7-62.76 20.94-66.26 13.97-3.47 27.9-10.45 45.34-52.29 17.43-41.86 38.34-45.34 59.28-45.34 20.9 0 31.4-76.72 69.74-76.72 38.37 0 27.9-17.42 27.9-17.42s-24.4-55.81-69.74-52.32c-45.34 3.48-20.94-6.95-41.84-34.87-20.94-27.89 48.81 6.98-20.94-27.89-69.74-34.89-59.28-38.37-94.15-48.81-34.87-10.48-48.81-3.51-69.74-7-20.92-3.48-24.41-31.37-27.9-52.3-3.47-20.91-38.36-73.23-48.81-80.19-10.46-7-62.79-10.48-83.69-24.4-20.93-13.97 3.48-13.97-38.36-45.34-41.84-31.4-73.23-27.9-83.7-10.47-10.48 17.44-59.29-17.43-94.16-48.81-34.87-31.4-17.42-17.43-41.84-45.35-24.4-27.89-27.89-45.33-34.87-66.26-6.97-20.94-17.41-34.86-34.88-52.3-17.43-17.45-10.46-41.85-31.36-31.38-20.94 10.47-13.97 27.9-24.41 38.34-10.48 10.48-31.39 45.34-31.39 45.34l-31.39-45.34s3.47 31.4-24.4-20.9c-27.89-52.33 3.47-66.25 3.47-97.65 0-31.38 13.95-59.28-6.97-97.64-20.92-38.35-34.87-52.32-34.87-80.19 0-27.91-41.84-45.36-41.84-59.28 0-13.97 10.44-27.93 0-41.85-10.47-13.96-38.38-31.39-38.38-31.39s27.91-24.41 24.41-41.84c-3.47-17.47-6.95-52.31-13.92-69.75-6.98-17.43-38.37-20.93-3.52-45.34 34.91-24.43 27.94-45.34 48.84-45.34 20.94 0 52.31 0 66.25-3.46 13.95-3.51 0 38.34 3.5 66.24 3.47 27.9 17.43 27.9 17.43 41.84 0 13.94 6.97 20.9 31.39 34.87 24.42 13.97 38.37 24.4 38.37 13.97 0-10.5 17.43-17.44 24.38-27.94 6.98-10.43 17.45-31.37 38.37-31.37 20.92 0 31.39 10.47 34.87-3.47 3.48-13.96-3.48-41.85 10.48-41.85 13.91 0 31.37 13.95 41.84 17.43 10.44 3.49 27.88-3.48 27.88-20.92 0-17.43 3.5-45.34 41.85-45.34h38.36l-34.87-90.65s-41.84-48.82-52.31-66.25c-10.47-17.44-41.84-31.39-24.42-59.3 17.45-27.89 41.89-66.26 20.92-83.68-20.92-17.43-69.73 10.44-97.62-20.92-27.9-31.39-66.27-41.85-66.27-66.27 0-24.42-13.94-80.2 3.5-80.2 17.42 0 38.34 17.44 38.34 0 0-17.43 10.46-27.91 0-55.79-10.44-27.91-34.84-87.18-41.84-108.12-6.97-20.92 0-48.82 10.46-48.82h76.73c24.42 0 87.17 3.5 87.17 3.5s17.43-3.5 31.4-10.45c13.94-6.99 41.84-27.91 41.84-59.29v-83.69c0-13.96-3.5-38.37-3.5-38.37l69.74 6.97s3.5-27.87 13.94-55.79c10.49-27.89 62.81-62.76 97.66-62.76 34.86 0 34.86-6.97 34.86-34.87s24.41-45.34 27.9-76.72c3.51-31.38 3.51-62.77 10.47-87.17 6.97-24.42 31.37-3.49 34.87-48.83 3.5-45.32 3.5-69.74 10.47-87.19 6.97-17.43 10.46-3.47 13.94-38.35 3.49-34.88-20.91-69.74-34.88-73.22-13.94-3.5-10.45 31.38-38.36 0-27.88-31.39-20.91-66.25-59.27-66.25h-76.69c-52.34 0-97.67-13.96-132.54-41.87-34.87-27.89-31.35-62.75-52.32-52.29-20.92 10.45-52.28 13.94-62.76 31.38-10.45 17.44 0 27.89-45.33 27.89-45.34 0-83.68-6.98-108.08-6.98-24.42 0-52.31 0-87.18 10.47-34.87 10.46-104.63 76.71-104.63 76.71s-38.36-3.48-62.76 6.99c-24.44 10.45-34.87 24.4-55.81 24.4-20.9 0-24.41-6.97-52.31 3.48-27.87 10.48-62.78 38.37-104.61 34.89-41.84-3.5-94.14 10.45-122.06 10.45-27.87 0-6.97-34.86 17.44-41.85 24.41-6.97 45.34-27.9 27.92-38.36-17.44-10.45-10.48-3.48-34.89-24.4-24.4-20.91-10.47 0-48.84-17.43-38.32-17.44 3.52-24.42-52.28-34.88-55.8-10.47-62.77-10.47-90.66-10.47-27.92 0-69.76-34.86-76.72-45.32-6.97-10.46 17.43-52.32-3.49-80.21-20.92-27.89-45.34-55.79-55.79-62.77-10.47-6.98-6.99 41.84-45.34-3.48-38.36-45.34-13.94-48.81-41.85-62.78-27.9-13.95-45.33 17.44-87.17-17.43-41.84-34.87-48.81-52.3-62.78-62.77-13.94-10.45-20.92-69.74-45.34-97.65-24.4-27.88-118.55-48.81-142.95-31.38-24.41 17.46-20.92-24.41-20.92-48.82s34.85-45.33 0-59.27c-34.89-13.96-94.17-10.46-94.17-10.46l-45.34-24.41s-38.34 17.43-62.74 17.43c-24.42 0-27.91 0-48.84-13.96C3270.27 17.46 3238.88 0 3238.88 0s0 34.89-17.44 34.89c-17.43 0-55.79-3.51-73.22 3.47s-66.27 31.4-90.67 31.4c-24.4 0-17.43 31.38-69.74 13.95-52.31-17.44-135.99-10.48-135.99-10.48s132.52 69.75 31.37 76.73c-101.12 6.97-87.18-3.5-135.99-13.96-48.82-10.45-80.21 13.96-104.61 13.96-24.41 0-34.88 31.38-45.34 45.32-10.47 13.96-6.97 59.3-34.88 59.3-27.9 0-66.24 13.93-69.74 45.32-3.47 31.39-45.33 52.32-66.24 55.8-20.94 3.49-48.84-24.41-45.34 6.97 3.49 31.4-13.94 45.34-13.94 90.67 0 45.34-7 80.2 20.91 83.68 27.9 3.5 38.37-10.45 83.71-10.45 45.32 0 76.69-3.48 90.64 24.4 13.96 27.91 52.31 55.8 55.81 73.24 3.47 17.43 27.87 48.81 45.32 48.81 17.44 0 48.83 17.44 76.73 24.42 27.88 6.97 62.77-10.46 83.68 6.97 20.92 17.43 45.34 31.39 24.41 48.82-20.92 17.43-41.84 41.85-41.84 41.85s69.74 76.72 94.15 87.18c24.42 10.46 62.77 10.46 62.77 31.39 0 20.91 13.94 59.28-6.96 76.72-20.94 17.43-13.97 41.83-45.35 41.83-31.37 0-55.8 34.88-80.21 38.36-24.4 3.49-13.95-48.82-24.4 3.49-10.47 52.31-10.47 101.13-20.92 104.61-10.47 3.5-80.2 3.5-80.2 3.5s-31.4 48.81-27.9 76.71c3.48 27.91 24.4 153.43 41.84 216.2 17.43 62.76 13.95 115.09 13.95 160.41 0 45.34-17.42 45.34-20.92 104.62-3.5 59.29-24.4 125.53 6.97 149.95 31.37 24.42 97.63 31.39 135.99 59.28 38.37 27.89 66.26 20.93 76.74 45.34 10.44 24.42 41.84 3.48 55.78 38.35 13.95 34.88-3.47 34.88 31.39 34.88h69.74c17.45 0 38.36 0 41.85-10.47 3.47-10.47 3.47-62.76 3.47-10.47 0 52.31-6.96 59.28 13.96 104.62 20.91 45.34 20.91 34.87 48.82 34.87 27.9 0 27.9 6.98 52.31 17.44 24.42 10.46 20.92-6.97 41.84-6.97 20.93 0 13.95-7 41.84 27.9 27.9 34.87 66.27 24.41 73.24 45.31 6.97 20.94 6.97 69.76 6.97 69.76s-34.87 62.78-62.76 66.26c-27.89 3.47-118.57 10.44-118.57 10.44s-31.37 31.4-38.35 41.85c-6.99 10.48-73.23 34.89-73.23 34.89l-24.41 55.79-38.37 3.49s66.26 111.58 20.94 125.52c0 0 41.84 17.46 17.43 41.87-24.42 24.4-38.37 48.82-38.37 97.65 0 48.8 34.87 41.83 34.87 41.83s62.78 10.44 24.41 13.94c-38.34 3.5-87.17 41.86-108.09 80.2-20.93 38.35-45.34 45.35-55.81 45.35-10.46 0-17.43 27.87-20.9 41.85-3.5 13.93-6.98 17.43-34.89 24.4l-27.89 6.96s13.94 45.33-17.43 59.28c-31.39 13.97-55.81 3.5-66.26 13.97-10.47 10.44 20.92 31.37 6.97 38.37-13.95 6.94-31.38-3.51-27.89 31.36 3.47 34.89 17.43-3.48 24.4 41.85 6.97 45.33-24.4 90.68-24.4 90.68s-41.86-3.51-41.86 34.86c0 38.36-13.95 48.82-52.31 27.89-38.35-20.91-149.94-6.97-149.94 48.81 0 55.8-38.37 191.81-73.23 244.1-34.87 52.32-48.82 59.31-104.62 136.02-55.78 76.71-181.33 129.02-240.61 139.48-59.28 10.45-90.65 66.25-108.1 101.13-17.42 34.87 17.45 59.27-10.45 90.68-27.9 31.37-115.09 62.74-136.02 122.05-20.91 59.27-59.26 108.08-139.48 108.08-80.19 0-111.59 0-163.89 10.47-52.32 10.47-76.72 52.31-132.52 52.31-55.79 0-52.3 10.46-97.63-52.31-45.34-62.76-6.97-80.21-41.84-108.1-34.89-27.89-129.05-27.89-181.34 38.36-52.3 66.25-55.79 122.05-94.17 135.98-38.34 13.95-59.26 94.17-153.42 139.5-94.15 45.33-38.36 87.17-59.28 118.56-20.93 31.39-80.21 66.26-13.95 122.04 66.26 55.8 115.07 80.21 129.04 104.63 13.93 24.42 139.48-41.84 139.48 59.26 0 101.14 17.42 73.24-17.43 108.13-34.88 34.86-59.29-3.48-45.34 83.69 13.94 87.18 41.84 55.78 52.31 108.09 10.46 52.32-3.5 38.37 31.37 55.81 34.87 17.43 55.81 24.4 94.16 24.4 38.36 0 76.73-20.93 69.73 52.29-6.97 73.23 17.44 142.98 66.28 209.25 48.81 66.25 73.21 80.21 90.66 118.55 17.44 38.36 24.41 80.2 41.84 111.59 17.44 31.39 20.92 41.84 0 45.34-20.92 3.48-59.29 13.96-34.88 24.4 24.41 10.47-13.94 62.78 0 62.78 13.96 0 69.75 3.48 69.75 3.48s-45.34 80.22-62.75 73.23c-17.44-6.97-59.3-6.97-62.78 10.47-3.5 17.43-139.49 45.34-136.01-76.72h-101.13l-38.36 24.41h.92-60.21l-76.71 62.77-118.55-6.96-55.79-48.83-108.1-27.92s-24.41 6.99-17.44 20.94c6.97 13.97-24.4-34.87-52.31-20.94-27.9 13.97-38.37 31.39-59.29 13.97-20.92-17.44-24.4-31.4-34.85-20.94-10.47 10.47-24.42 31.4-41.88 6.97-17.42-24.4-13.93-48.8-31.37-17.43l-17.43 31.4s-41.84-94.18-38.36-31.4c3.49 62.77-3.48 111.58-3.48 111.58l-13.96 38.38-153.44 10.46s-31.37-31.39-66.24-24.4c-34.87 6.97-17.44 27.89-45.34 27.89-27.9 0-17.44 34.85-17.44 55.77 0 20.95 12.77 27.92-9.3 45.36 0 0-65.09 37.19-18.6 55.81 46.48 18.58 65.1 41.8 83.68 18.58 18.61-23.25 23.26-74.39 69.76-74.39s106.94-97.65 106.94-41.84c0 55.77-60.44 41.84-60.44 41.84l-46.5 37.19s-32.55 13.95-32.55 46.49c0 32.55 32.55 41.84 18.6 65.1-13.94 23.24 51.13 18.58 32.55 46.5-18.6 27.89 4.64 41.84 23.24 18.59 18.6-23.25 0 32.56 0 32.56s55.79-37.2 18.6 27.87c0 0 13.95 41.87 60.45 65.1 46.48 23.26 79.03 37.22 120.88 88.35 41.83 51.14 92.98 74.39 111.58 65.07 18.61-9.26 4.66 27.9 51.16 27.9 46.49 0 74.39-13.93 102.28-4.64s65.1 9.29 88.34-9.29c23.26-18.58 83.69 0 102.29-18.58 18.6-18.65 0-23.26 41.84-23.26 41.85 0 51.17-27.87 32.55-32.54-18.58-4.66-9.29-41.85 23.26-13.98 32.55 27.92 46.49-69.74 83.68-37.19l37.2 32.54s-65.07 55.78-55.78 111.59c0 0-102.29 83.71-97.65 116.26 0 0-41.85 13.94-60.45 18.58-18.6 4.65-51.13-51.13-88.34-9.26 0 0 32.55 60.42-23.24 65.07-55.81 4.65-23.26-13.94-55.81 4.65-32.55 18.58-46.49 9.28-83.68 9.28-37.2 0-27.91 32.56-46.5 32.56-18.6 0 18.59-27.88-32.55-27.88-51.15 0-55.8 55.78-88.35 27.88-32.54-27.88 13.96-55.81 13.96-55.81s-27.89-32.52-60.44-13.94c-32.55 18.61-37.2-9.32-37.2-9.32l37.2-18.58s4.65-37.2-27.91-4.65c-32.54 32.55-65.09 27.91-37.19 97.68 27.9 69.72 185.98 246.4 227.81 292.92 41.88 46.48 79.05 79 102.3 116.23l23.25 37.19s74.39 97.65 139.5 148.78c65.09 51.13 106.93 97.65 130.19 120.91 23.25 23.23 41.84 32.52 69.73 41.84 27.89 9.29 27.89 13.93 74.39 27.87 46.5 13.96 69.73 13.96 106.95 13.96 37.2 0 37.2 13.94 83.68-4.67 46.49-18.58 134.85-27.87 148.79-41.84 13.94-13.93 69.74-60.42 111.58-60.42s60.45-32.55 102.29-32.55 102.3 4.64 111.6-60.46c9.31-65.09-.01-65.09 32.53-88.32 32.57-23.26 41.86-32.58 41.86-79.06 0-46.49 37.19-32.52 27.89-79.04-9.29-46.52-23.25-41.84-13.94-93 9.29-51.13 37.2-79.04 37.2-79.04l-27.91-9.29s18.62-51.13 41.86-37.19c23.24 13.93 83.67-18.62 60.44-18.62-23.26 0-9.29-51.13 13.93-46.48 23.26 4.64 41.84 46.48 93.01 46.48 51.14 0 88.34-9.26 88.34-9.26s-41.84 83.68-120.9 23.23c0 0-60.45-32.55-60.45 46.52 0 0-32.53 92.97-9.29 92.97 23.24 0 106.94-23.26 125.54-9.32 0 0-65.09 27.9-120.89 27.9 0 0-9.29 60.45-9.29 83.68 0 23.26-51.15 23.26 0 23.26 51.13 0 97.65 23.26 74.38 23.26-23.25 0-69.74 13.94-69.74 13.94s4.65 23.25 23.24 23.25c18.6 0 55.8-13.93 55.8-13.93l-46.49 69.74s-9.29 37.2-18.6 55.78c-9.3 18.58 4.64 41.84 4.64 55.81 0 13.93 37.22 13.93 37.22 13.93l-13.97 27.9 46.5 9.29-32.53 23.26v32.52l65.1 9.33-9.32 18.58-32.55 18.61 13.97 18.58 23.22 18.61-13.93 32.55s-37.2 74.39-32.56 97.62c4.65 23.26-32.54 51.13-32.54 51.13s-13.96 32.58-18.61 60.49c-4.64 27.87-32.52-4.68-32.52 32.54 0 37.17 4.62 51.14-9.31 60.43-13.95 9.29-32.55 55.8-32.55 55.8s0 60.43 4.65 120.88c4.65 60.45-23.25 97.65 13.95 102.29 37.19 4.65 27.88-65.09 41.84-55.8 13.94 9.32 23.26 27.9 23.26 27.9s-60.46 46.48-51.15 65.1c9.31 18.58 13.93 51.16 13.93 51.16s-13.93 32.52-13.93 55.78c0 23.25 13.93 65.09 9.31 83.67-4.67 18.59 9.29 37.2 23.22 9.33 13.97-27.91 41.87-13.97 41.87-13.97s18.58-102.29 27.88-13.94c9.3 88.36-60.45 41.85-46.49 69.75 13.94 27.87 74.39 88.36 23.26 60.45-51.16-27.9-83.71-23.26-74.41 46.49 9.29 69.74 46.51 88.32 46.51 88.32s-46.51-4.64-23.26 41.84c23.26 46.49 37.19 65.1 37.19 65.1s-51.13 13.97-18.58 46.49c32.55 32.58 18.58 23.26 4.65 55.81-13.96 32.54 27.9 32.54 27.9 46.48 0 13.97-4.65 27.91 13.93 69.75 18.6 41.83 27.91 51.13 27.91 83.71 0 32.54-18.61 51.16-9.31 88.35 9.31 37.17 23.25 65.07 27.89 88.33 4.68 23.23 9.31 55.78 9.31 55.78l13.95 74.39v46.51s-18.61 83.68-4.65 204.56c13.94 120.9 41.84 186 41.84 186l-9.29 46.49s-18.61 13.97 13.94 27.9c32.55 13.94 46.52 60.45 83.7 144.13 37.21 83.69 46.5 116.23 88.34 116.23 0 0-55.79 23.26-4.65 23.26 0 0 37.2 60.43 37.2 116.23 0 55.78 4.64 51.17 23.26 79.04 18.58 27.9 46.48 60.45 46.48 60.45l9.29 37.19s-55.77 4.68-41.84 18.62c13.95 13.94 46.49 23.23 46.49 23.23l51.14 27.9s23.26 102.29 51.15 102.29c0 0-13.95 41.84 27.89 83.69 41.85 41.84 23.24 74.38 4.66 83.71-18.6 9.29 13.95-4.65 37.19 51.13 23.25 55.81 37.2 88.35 37.2 130.19 0 41.85 46.49 9.26 23.22 46.49-23.22 37.19 9.33 32.55 4.67 79.03-4.67 46.52-27.89 55.81-27.89 55.81s-32.55-27.9 18.6 32.55c51.14 60.42 23.24 130.2 41.84 162.72 18.59 32.57 27.89 69.74 41.84 102.29 13.95 32.58 69.74 134.84 79.03 195.3 9.31 60.42 27.91 83.68 27.91 125.52 0 41.84 46.48 97.64 60.43 106.94 13.95 9.29 46.51 55.8 46.51 55.8s116.24 60.45 134.82 139.49c18.62 79.04-4.64 88.33 27.91 106.91 32.54 18.64 51.14 55.8 55.8 97.68 4.65 41.84 37.2 260.36 120.88 381.23 83.7 120.91 74.4 83.71 83.7 153.46 9.3 69.72 60.45 111.55 69.75 153.42 9.29 41.85 18.58 106.94 27.89 120.88 9.29 13.97 46.5 55.81 23.25 46.49-23.25-9.26-83.68-4.62-74.39-46.49 9.29-41.81 27.9 4.65 9.29-41.81-18.58-46.51-18.58-120.94-41.84-144.16-23.26-23.26 4.64 51.16 13.94 116.26 9.32 65.07 0 88.32 27.9 167.39 27.9 79 13.96 79 69.74 176.65 55.79 97.65 37.2 41.84 37.2 41.84s27.9-41.84 23.25-4.64c-4.66 37.19-32.54 69.74-4.66 69.74 27.91 0 46.51 9.29 27.91 23.26-18.6 13.9-13.96-9.33 18.6 37.16 32.54 46.52 51.14 74.39 83.69 116.26 32.54 41.84 51.15 69.75 51.15 69.75s51.14-4.68 51.14 27.9c0 32.55 227.83 144.1 269.67 97.65 41.84-46.52 41.84-32.55 92.99-51.16 51.15-18.62 51.15-13.94 120.89-74.39 69.75-60.43 32.55-130.2 32.55-130.2s41.84-23.26 46.5-83.68c4.63-60.42-4.66-79.04 51.13-130.2 55.8-51.16 23.26-32.52 102.3-37.19 79.05-4.65 60.43 9.29 106.94-27.9 46.47-37.2 79.03-41.85 120.88-41.85 41.85 0 60.46-23.25 111.59 9.32 51.16 32.53 60.45 13.94 93 13.94s-4.68-27.9-4.68-27.9l-60.42-13.94s-102.29-13.94-120.87-27.9c-18.62-13.97-55.81-60.46-9.31-130.2 46.47-69.74 92.99-158.07 111.57-176.68 18.61-18.58 51.16-32.55 51.16-32.55s-41.86-32.52-4.64-79.03c37.16-46.49 55.77-51.14 120.87-46.49 65.07 4.64 79.04 4.64 120.88 4.64 41.84 0 51.16-18.58 51.16-18.58s-4.68-362.69-13.95-446.37c-9.31-83.68-4.63-88.35-27.89-134.81-23.26-46.52-13.97-46.52-4.68-102.29 9.31-55.81 4.68-88.36 23.26-120.91 18.58-32.55 18.58-65.1 32.55-88.35 13.94-23.23 27.87-27.91 41.84-46.49 13.97-18.58 37.21-51.13 46.49-69.74 9.32-18.59 32.56-51.14 9.32-65.1 0 0 41.82-4.65 60.42-55.78 18.62-51.16 32.55-106.94 23.26-134.84-9.29-27.87 23.24-55.78 27.88-116.23 4.67-60.46 37.2-79.04 0-116.26-37.17-37.16-65.08-74.36-74.4-97.62-9.27-23.23-13.92-79.04-13.92-79.04s-23.24-125.55 0-55.8c23.23 69.74 37.18 172.03 69.73 172.03 0 0-4.63-18.58-4.63-32.54 0-13.97 23.22-51.13 0-83.69-23.26-32.54-27.92-88.35-27.92-120.9v-88.33c0-18.61-32.53-79.06-32.53-79.06s46.5-27.88 46.5-92.97c0-65.1 9.29-93-9.31-116.24-18.6-23.25-32.53-55.8-32.53-97.64s-46.52-32.52 13.93-185.97c60.44-153.46 93-153.43 93-199.94 0-46.49 46.49-41.85 79.01-41.85 32.54 0 74.42-55.8 125.55-37.19l18.58 79.04 18.61-32.52 4.65 32.52 18.61-41.85s37.19 46.49 41.84 23.26c4.64-23.26-9.29-37.19 41.84-65.1 51.16-27.9 18.61-41.84 65.1-97.61 46.49-55.81 18.61-60.46 74.39-93.04 55.77-32.51 130.19-23.22 158.1-13.93 27.9 9.32 51.13 13.93 111.59-27.9 60.42-41.85 130.19-23.2 134.81-74.37 4.67-51.16 13.93-41.86 13.93-106.94 0-65.09-37.19-79.06 51.16-134.87 88.36-55.78 74.39-55.78 134.85-97.61 60.45-41.85 37.19-60.46 125.55-79.04 88.33-18.61 153.42-60.42 158.07-120.91 4.65-60.42 9.29-92.97 102.29-139.45 92.97-46.52 134.84-83.71 190.62-111.62 55.81-27.87 74.39-37.19 74.39-83.68 0 0 111.59-69.74 139.49-134.84 27.9-65.07 23.26-55.78 60.45-97.65 37.23-41.84 74.39-69.71 74.39-69.71l13.97-23.26s37.19-130.2 111.58-172.04 69.75-74.39 130.2-102.29c60.42-27.9 65.07-55.78 125.49-65.1 60.48-9.29 130.2-51.13 172.07-60.42 41.81-9.32 93-13.97 139.48-55.81 46.46-41.84 46.52-79.07 92.98-116.23 46.51-37.19 116.23-23.26 125.55-60.46 9.29-37.19 13.94-65.09 13.94-65.09s-74.39 13.94 23.25-55.78c97.65-69.74 97.65-116.26 97.65-116.26s-60.45 27.9-79.03 27.9c-18.62 0-41.87 13.94-41.87 13.94s-9.29-55.77 41.87-55.77c51.13 0 65.07 23.25 37.19-27.91-27.93-51.13-130.2-186-.03-278.98 130.2-92.97 204.62-60.45 204.62-60.45s27.87-60.45 41.81-60.45c13.99 0 51.16 27.93 102.29-27.87 51.16-55.81 32.58-93 51.16-97.65 18.62-4.64 111.58-97.65 111.58-97.65s18.59-74.39-9.29-79.03c0 0 79.01-4.65 23.23 106.93 0 0-13.94 27.91 9.33 37.2 23.25 9.29 18.58 65.1 18.58 65.1s37.19-4.65 41.87-23.26c4.61-18.58 37.16-32.55 37.16-32.55l37.23-9.29 18.55-37.2 9.32-23.25 13.94-55.78s27.9 9.29 46.51 0c18.62-9.29 27.91-37.19 46.49-41.84 18.61-4.68 51.13-18.61 51.13-18.61s51.16 23.26 55.81 37.19c4.64 13.97 32.58 23.26 60.45 23.26 27.88 0 32.55 37.2 51.13 37.2 16.89 0 91.23-15.33 104.8-18.17.36-6.66 2.14-10.88 2.14-10.88s-88.33 18.58-106.94 18.58c-18.58 0-23.25-37.2-51.13-37.2-27.87 0-55.81-9.32-60.45-23.26-1.3-3.92-6.37-8.62-12.91-13.3l2.86-5.73s-2.68-10.01-10.8-25.13c-8.14-15.11-7-27.87-29.08-70.89-22.08-42.99-9.32-33.73-16.29-70.92-6.97-37.2-5.79-34.88-20.9-75.57-15.08-40.7 0-48.84 0-84.83 0-36.05-23.26-27.9-32.58-58.12-9.26-30.23 14-63.96 26.76-84.86 12.79-20.91-1.15-12.79-20.94-27.91-19.73-15.11-38.31 1.18-60.42 18.61-22.11 17.45-16.29 0-20.94-27.9-4.61-27.89 1.18-72.07 18.62-98.79 17.46-26.76-17.44-18.59-44.2-36.02-26.73-17.47-31.37-23.26-31.37-23.26l-32.55-1.17 8.15-129.03 49.95-1.17s-5.76-36.04 23.26-73.22c19.94-25.52 13.15-54.66 6.94-70.48l-12.77-1.6-18.34-45.77-4.85-.13-8.14-8.44-1.18-14.22-27.88-4.65-30.22 4.65-18.62-6.99s-30.22-11.61-41.84-13.94c-11.61-2.33-16.25 0-27.93-4.64-11.58-4.65-11.58-4.66-13.9-11.64-2.36-6.97-23.27-2.3-30.23-4.65-7-2.32-34.87-37.19-48.84-44.16-13.94-6.97-20.94-23.26-23.26-34.88-2.29-11.62-27.87-39.53-27.87-39.53l39.52-83.69-4.65-55.8h69.74l27.91 27.92-2.32-20.93 30.22-9.29-4.64-32.55 27.87-4.65-2.32-74.4s39.51-9.31 81.38-11.63c41.81-2.33 51.13 0 76.72 0 25.55 0 46.45-20.92 60.45-60.42 13.93-39.52-2.35-13.97-39.55 6.96-37.2 20.93-65.1-99.97-65.1-99.97-30.22 32.55-60.45 34.87-69.71 32.55-9.32-2.32-34.9-9.29-65.1-37.19-30.22-27.9-16.32-48.81-34.87-79.04-18.62-30.22-86.03-27.92-86.03-27.92l-39.52-11.59c-2.36-65.1 37.19-106.94 37.19-106.94s-23.26-62.78 20.91-76.75c44.19-13.93 53.51-6.95 53.51-48.8 0-41.85 48.81-39.52 48.81-39.52l-7-34.87s-44.16-4.65-62.77-44.17c-18.59-39.53 25.58-39.53 34.9-18.59 9.26 20.91 53.45 34.85 53.45 34.85l-4.67 13.97s32.58 9.29 39.54 11.61c6.97 2.33-6.96 18.59-6.96 18.59h51.13l-4.65 55.8-13.93 27.91 32.51 2.32s18.62 25.55 18.62-4.66 23.25-16.27 23.25-27.89c0-11.65-4.64-16.27 23.23 6.97 27.91 23.26 55.81-6.97 55.81-6.97s-25.58-39.52-53.45-60.44c-27.94-20.92 32.52-30.22 44.16-27.91 11.61 2.32 4.61 20.93 23.26 32.54 18.58 11.62 4.61 13.97 18.58 30.24 13.94 16.28 4.68 27.89 4.68 39.52 0 11.63 13.9 23.23 18.55 32.55 4.67 9.31 55.8 41.84 74.39 51.15 18.61 9.29 58.13 11.61 93 11.61s27.93-34.87 27.93-44.16 2.3-16.29 16.23-39.52c6.94-11.58 23.11-20.24 36.11-27.21 6.4 4.25 32.97 23.03 33.31 39.37.35 18.57-2.12 33.96 8.08 52.55 10.13 18.55 19.58 16.45 19.94 31.52.33 15.05-9.11 31.86-8.39 55 .61 20.08-3.01 48.58-4.01 55.74l-13 20.84s-4.68 60.44-13.94 74.4c-5.19 7.78-6.06 27.16-5.79 45.18.24-14.6 1.6-28.44 5.79-34.73 9.26-13.95 13.94-74.39 13.94-74.39l23.25-37.21-4.55 127.52c3.71 4.73 9.26 12.39 10.41 17.52 1.75 7.84 0 10.45 6.09 32.25 6.1 21.79 8.72 15.68 32.25 23.54 23.56 7.82 27.9-.89 62.81-6.99 34.84-6.1 13.9 6.1 74.96 27.03 61.02 20.91 84.55 30.5 89.77 30.5 5.22 0 41.84 2.62 99.4-.84 57.53-3.52 46.21 0 101.99-1.77 55.78-1.75 62.78-20.04 106.37-8.7 43.59 11.31 38.34 4.34 81.05 4.34 42.72 0 74.15 6.13 128.18 9.59 54.06 3.51 20.9-7.84 40.09-14.81 19.19-6.99 14.81 9.58 35.75 17.44 20.93 7.84 13.06 9.58 46.21-9.61 33.13-19.17 78.46-16.54 122.93-24.4 44.43-7.84 70.59 43.59 70.59 43.59l50.58-.86 18.5 2.32 9.38 1.15 6.09 43.59s16.6 16.57 34 16.57c17.47 0 0 20.92-10.47 38.36-10.44 17.43-38.31-3.5-73.21-38.36-34.87-34.85-24.4 31.39-17.44 41.85 6.97 10.45 17.44 45.35 17.44 45.35l-27.88 45.31s-17.43 41.84-34.87 80.21c-1.05 2.32-1.99 4.37-2.8 6.19-12.7 27.72 1.08-4.93-25.13 14.75-27.88 20.9-27.88 20.9-45.31 41.83-17.41 20.93-38.37 41.84-45.34 55.81-6.97 13.92-31.37-24.42-55.81-17.43-24.4 6.94-59.24 52.28-76.68 73.23-17.46 20.91-27.93 0-66.28 0-38.37 0-48.8 38.34-62.77 62.73-13.93 24.42-6.97 52.33-10.44 80.21-3.49 27.92-24.4 62.77-31.37 80.21-7 17.45 6.97 24.42 34.84 55.81 27.91 31.37 10.47 38.34 24.4 59.26 13.94 20.95 3.51 48.82 27.94 80.21 24.41 31.39 0 41.85 0 69.76 0 27.9 0 31.37 31.34 59.27 31.38 27.9 13.97-24.4 13.97-52.32 0-27.89-10.47-76.71 13.94-94.13 24.43-17.44 24.43 62.77 24.43 73.21 0 10.47 3.47 31.39 3.47 31.39l20.93 27.9c20.91 27.89 62.78 38.37 69.75 24.39 6.97-13.94 59.28-76.68 59.28-108.08 0-31.39-20.94-31.39-20.94-73.23s48.84-45.34 48.84-55.79v-94.18c0-45.31 62.78 24.42 62.78 7v-17.44c0-17.44 45.31-17.44 45.31-17.44s25.18-21.31 42.35-32.15c5.85-3.72 10.77-6.2 13.45-6.2 10.47 0 20.91 52.31 20.91 69.73 0 17.45-27.88 41.87 3.49 69.74 31.38 27.92 31.38 45.34 24.41 69.76-7 24.39-17.44 80.2-17.44 108.1 0 27.89 10.44 45.34 34.88 90.65 24.4 45.34 24.4 45.34 62.74 101.15 38.4 55.77 17.44 52.31 34.9 111.58 17.44 59.28 11.56 142.99 16.99 151.91 5.46 8.94 8.08 13.95 13.54 27.67 4.35 11.01 11.47 18.58 14.12 21.18-3.68 1.12-6.31 3.17-6.31 8.44 0 2.3.22 4.68.52 7.15 3.59-11.67 27.66 1.27 30.89-24.55 3.5-27.9-3.47-83.68 24.4-45.31 27.88 38.34 27.88 69.72 45.34 69.72 17.44 0 41.84 13.96 41.84-7.01 0-20.9 0-38.3 27.87-38.3 27.94 0 31.44-13.97 31.44-31.41 0-17.44 20.9-31.37 34.84-31.37 13.94 0 27.91-24.44 27.91-48.84 0-24.41 13.93-59.28 0-76.71-13.97-17.47-20.94 13.93-31.38-38.38-10.47-52.3-10.47-101.11-10.47-125.52 0-24.41-17.43-34.87-17.43-34.87s-31.4-17.44-24.44-41.84c6.97-24.42 104.65-31.39 111.62-73.24 6.97-41.83 27.9-80.2 27.9-139.49v-115.05c0-27.92-24.4-38.38-24.4-69.76 0-31.41-13.97-59.3-31.4-90.67-17.44-31.39-45.35-97.65-13.97-87.18 31.4 10.45 27.9 45.34 45.37 41.84 17.4-3.5 83.68-6.97 83.68-6.97l13.94-20.91 69.74 41.83s10.47-13.95 41.84-13.95c31.4 0 66.24 31.4 66.24 31.4s45.37 73.2 48.84 31.38c3.5-41.84 6.97-66.28 6.97-80.21 0-13.96 20.94-76.72 24.41-90.67 3.5-13.95 52.33-202.26 101.14-268.51s76.71-111.59 76.71-111.59-10.46-41.85-6.99-55.78c3.5-13.94 13.96-45.34-10.44-45.34-24.41 0-59.28-17.44-59.28-17.44s-24.4-17.43-13.97-66.24c10.47-48.83-13.93-73.25 41.88-73.25 55.77 0 104.61-6.97 76.71-66.24-27.91-59.31 13.94-83.71 20.9-122.05 7-38.37 34.87-69.75 34.87-69.75s6.97-27.89 10.47-45.34c3.47-17.43 10.44-55.78 10.44-55.78s3.53-48.82-13.94-62.77c-17.43-13.97-24.4-41.84-24.4-41.84s17.43-129.03 111.58-136.02c0 0 31.4-69.74 76.72-94.15 45.36-24.4 45.36-13.93 66.27-41.84 20.91-27.9 13.94-48.84 27.88-48.84 13.99 0 0-3.46 34.9-10.43 34.87-7 6.96-17.44 48.77-66.26 41.88-48.83 34.91-69.76 87.25-76.73 52.27-6.97 128.99-48.84 128.99-48.84l13.93-31.36s20.97 27.89 31.4 27.89c10.47 0 48.81-10.45 66.25 0 17.46 10.47 17.46 20.94 17.46 38.37 0 17.44 108.09 59.28 108.09 59.28l20.91-45.34-76.72-90.68-38.34-34.86-13.94-83.68s34.85-41.85 52.28-41.85c17.47 0 59.28-87.18 59.28-87.18l69.77-17.44v-55.79s38.35 0 10.44-24.42z" style="fill:#fff;fill-rule:nonzero"/><path class="fil1" d="M3431.08 2792.14c53.58 0 97.01 43.43 97.01 97.01 0 53.58-43.43 97.01-97.01 97.01-53.58 0-97.01-43.43-97.01-97.01 0-53.58 43.43-97.01 97.01-97.01zM2465.33 9881.91c53.58 0 97.01 43.43 97.01 97.01 0 53.58-43.43 97.01-97.01 97.01-53.58 0-97.01-43.43-97.01-97.01 0-53.58 43.43-97.01 97.01-97.01zM2784.45 8433.61c53.58 0 97.01 43.43 97.01 97.01 0 53.58-43.43 97.01-97.01 97.01-53.58 0-97.01-43.43-97.01-97.01 0-53.58 43.43-97.01 97.01-97.01zM2232.43 8082.72c53.58 0 97.01 43.43 97.01 97.01 0 53.58-43.43 97.01-97.01 97.01-53.58 0-97.01-43.43-97.01-97.01 0-53.58 43.43-97.01 97.01-97.01zM3960.25 9587.54c53.58 0 97.01 43.43 97.01 97.01 0 53.58-43.43 97.01-97.01 97.01-53.58 0-97.01-43.43-97.01-97.01 0-53.58 43.43-97.01 97.01-97.01zM3718.8 11029.54c53.58 0 97.01 43.43 97.01 97.01 0 53.58-43.43 97.01-97.01 97.01-53.58 0-97.01-43.43-97.01-97.01 0-53.58 43.43-97.01 97.01-97.01zM5189.68 10960.07c53.58 0 97.01 43.43 97.01 97.01 0 53.58-43.43 97.01-97.01 97.01-53.58 0-97.01-43.43-97.01-97.01 0-53.58 43.43-97.01 97.01-97.01zM1820.92 6378.84c53.58 0 97.01 43.43 97.01 97.01 0 53.58-43.43 97.01-97.01 97.01-53.58 0-97.01-43.43-97.01-97.01 0-53.58 43.43-97.01 97.01-97.01zM4740.77 8687.96c53.58 0 97.01 43.43 97.01 97.01 0 53.58-43.43 97.01-97.01 97.01-53.58 0-97.01-43.43-97.01-97.01 0-53.58 43.43-97.01 97.01-97.01zM4800.3 7398.11c53.58 0 97.01 43.43 97.01 97.01 0 53.58-43.43 97.01-97.01 97.01-53.58 0-97.01-43.43-97.01-97.01 0-53.58 43.43-97.01 97.01-97.01zM3629.52 6419.15c53.58 0 97.01 43.43 97.01 97.01 0 53.58-43.43 97.01-97.01 97.01-53.58 0-97.01-43.43-97.01-97.01 0-53.58 43.43-97.01 97.01-97.01zM3477.38 4765.5c53.58 0 97.01 43.43 97.01 97.01 0 53.58-43.43 97.01-97.01 97.01-53.58 0-97.01-43.43-97.01-97.01 0-53.58 43.43-97.01 97.01-97.01zM4059.47 3865.92c53.58 0 97.01 43.43 97.01 97.01 0 53.58-43.43 97.01-97.01 97.01-53.58 0-97.01-43.43-97.01-97.01 0-53.58 43.43-97.01 97.01-97.01zM3622.91 3647.63c53.58 0 97.01 43.43 97.01 97.01 0 53.58-43.43 97.01-97.01 97.01-53.58 0-97.01-43.43-97.01-97.01 0-53.58 43.43-97.01 97.01-97.01zM5124.42 3779.93c53.58 0 97.01 43.43 97.01 97.01 0 53.58-43.43 97.01-97.01 97.01-53.58 0-97.01-43.43-97.01-97.01 0-53.58 43.43-97.01 97.01-97.01zM5660.2 4983.78c53.58 0 97.01 43.43 97.01 97.01 0 53.58-43.43 97.01-97.01 97.01-53.58 0-97.01-43.43-97.01-97.01 0-53.58 43.43-97.01 97.01-97.01zM6262.13 5969.36c53.58 0 97.01 43.43 97.01 97.01 0 53.58-43.43 97.01-97.01 97.01-53.58 0-97.01-43.43-97.01-97.01 0-53.58 43.43-97.01 97.01-97.01zM7823.17 6763.11c53.58 0 97.01 43.43 97.01 97.01 0 53.58-43.43 97.01-97.01 97.01-53.58 0-97.01-43.43-97.01-97.01 0-53.58 43.43-97.01 97.01-97.01zM8788.9 6472.07c53.58 0 97.01 43.43 97.01 97.01 0 53.58-43.43 97.01-97.01 97.01-53.58 0-97.01-43.43-97.01-97.01 0-53.58 43.43-97.01 97.01-97.01zM7776.87 5486.49c53.58 0 97.01 43.43 97.01 97.01 0 53.58-43.43 97.01-97.01 97.01-53.58 0-97.01-43.43-97.01-97.01 0-53.58 43.43-97.01 97.01-97.01zM10349.95 5168.99c53.58 0 97.01 43.43 97.01 97.01 0 53.58-43.43 97.01-97.01 97.01-53.58 0-97.01-43.43-97.01-97.01 0-53.58 43.43-97.01 97.01-97.01z"/></g></g></svg>