<svg width="168" height="101" viewBox="0 0 168 101" fill="none" xmlns="http://www.w3.org/2000/svg">
<g clip-path="url(#clip0_229_4051)">
<path d="M12.3015 99.5545C25.5242 81.8356 16.9385 66.1266 12.6998 45.115C2.31211 11.6511 42.7554 -15.3617 83.2003 10.7832C108.291 27.002 131.716 10.5853 150.535 27.628C165.5 41.1811 150.597 69.7808 150.274 82.6691C150.019 92.8286 158.768 99.5545 158.768 99.5545H12.3015Z" fill="#F8E9BE"/>
<path d="M166.917 100.222H1.08161C1.0036 100.222 0.92878 100.191 0.873566 100.136C0.818353 100.081 0.787259 100.006 0.787109 99.9282V99.9282C0.787109 99.8501 0.818137 99.7752 0.873367 99.72C0.928597 99.6648 1.0035 99.6338 1.08161 99.6338H166.917C166.995 99.6338 167.07 99.6648 167.126 99.72C167.181 99.7752 167.212 99.8501 167.212 99.9282C167.212 100.006 167.181 100.081 167.125 100.136C167.07 100.191 166.995 100.222 166.917 100.222Z" fill="black"/>
<path d="M141.267 94.9261C142.168 94.9261 143.061 94.7488 143.894 94.404C144.726 94.0593 145.483 93.554 146.12 92.917C146.758 92.28 147.263 91.5237 147.608 90.6914C147.953 89.859 148.131 88.9669 148.131 88.066V78.7129H134.4V88.066C134.4 88.9672 134.578 89.8595 134.923 90.692C135.268 91.5245 135.774 92.2809 136.412 92.918C137.049 93.5551 137.806 94.0603 138.64 94.4048C139.473 94.7494 140.365 94.9265 141.267 94.9261Z" fill="#704444"/>
<path d="M148.128 100.299H148.889V85.7819H148.128V100.299Z" fill="#425899"/>
<path d="M133.64 100.299H134.4V85.7819H133.64V100.299Z" fill="#425899"/>
<path d="M139.46 100.299H140.221V85.7819H139.46V100.299Z" fill="#425899"/>
<path d="M148.889 95.6869V94.9268H134.365V95.6869H148.889Z" fill="#425899"/>
<path d="M138.98 61.0465C140.263 61.7289 139.249 63.4049 139.775 64.994C140.3 66.5831 142.41 66.5442 141.613 69.3875C141.122 71.1356 139.383 70.041 139.423 72.3198C139.463 74.5986 140.326 74.5405 139.656 75.7112C138.489 77.7515 134.512 76.6101 134.48 74.3319C134.449 72.0536 136.357 71.2783 134.745 70.2187C133.132 69.1591 132.488 68.6769 133.549 67.1617C134.862 65.2861 136.898 65.343 136.329 63.8791C135.76 62.4152 137.284 60.1443 138.98 61.0465Z" fill="#38C4A3"/>
<path d="M138.305 78.6614L137.971 78.7573C135.701 70.8511 137.826 63.4069 137.848 63.333L138.181 63.4306C138.16 63.5039 136.064 70.8557 138.305 78.6614Z" fill="#425899"/>
<path d="M155.999 59.3872C156.945 61.0846 154.588 62.2344 154.024 64.4021C153.46 66.5698 155.986 67.1929 153.025 69.8118C151.201 71.4246 150.753 70.4992 150.23 73.9216C149.771 76.934 147.356 74.2165 145.754 76.0543C143.685 78.4228 140.01 73.6504 141.629 71.0654C143.249 68.4804 145.325 69.0189 144.281 66.6572C143.237 64.2955 144.237 62.4233 146.531 61.4895C149.369 60.3335 150.536 62.7047 150.959 60.6436C151.382 58.5825 154.747 57.1411 155.999 59.3872Z" fill="#06B58C"/>
<path d="M142.44 78.704C145.592 68.2947 153.287 61.5547 153.365 61.4876L153.061 61.1357C152.982 61.2034 145.185 68.0319 141.994 78.5692L142.44 78.704Z" fill="#425899"/>
<path d="M25.5635 33.5347C25.7046 34.389 26.1796 35.1638 26.8318 35.7233C27.484 36.2827 28.3162 36.6295 29.1709 36.6295H37.1907C38.3191 36.6295 39.2094 36.0227 39.6003 35.1187C39.8102 34.6186 39.8712 34.0686 39.7758 33.5347C39.6348 32.6804 39.1597 31.9061 38.5092 31.3467C37.8587 30.7873 37.0249 30.4405 36.1701 30.4405H28.1486C27.7762 30.4383 27.4071 30.5092 27.062 30.6491C25.9816 31.0991 25.3475 32.2219 25.5635 33.5347Z" fill="#61B8FF"/>
<path d="M36.7862 39.7409C36.8576 39.7412 36.9282 39.7245 36.992 39.6923C37.0558 39.66 37.111 39.6131 37.1531 39.5553C37.1952 39.4975 37.2229 39.4306 37.2341 39.36C37.2452 39.2894 37.2394 39.2172 37.2172 39.1493L36.1402 35.8087C36.1109 35.7174 36.0534 35.6379 35.9759 35.5815C35.8984 35.5251 35.805 35.4949 35.7091 35.4951C35.6377 35.4948 35.5672 35.5115 35.5035 35.5437C35.4397 35.5759 35.3846 35.6228 35.3425 35.6805C35.3004 35.7382 35.2726 35.805 35.2614 35.8756C35.2502 35.9461 35.256 36.0182 35.2781 36.0861L36.3551 39.4267C36.3843 39.5181 36.4417 39.5978 36.5192 39.6543C36.5967 39.7107 36.6902 39.7411 36.7862 39.7409Z" fill="#123E80"/>
<path d="M31.4736 39.7406C31.5451 39.7409 31.6157 39.7243 31.6795 39.692C31.7433 39.6598 31.7985 39.6128 31.8406 39.5551C31.8827 39.4973 31.9104 39.4304 31.9216 39.3598C31.9327 39.2892 31.9269 39.217 31.9047 39.1491L30.8277 35.8084C30.7984 35.7172 30.7409 35.6376 30.6634 35.5812C30.5859 35.5249 30.4925 35.4946 30.3966 35.4949C30.3252 35.4946 30.2547 35.5112 30.191 35.5434C30.1272 35.5757 30.0721 35.6226 30.03 35.6802C29.9879 35.7379 29.9601 35.8048 29.9489 35.8753C29.9377 35.9458 29.9435 36.018 29.9656 36.0859L31.0432 39.4265C31.0723 39.5178 31.1297 39.5974 31.2071 39.6538C31.2845 39.7103 31.3778 39.7407 31.4736 39.7406Z" fill="#123E80"/>
<path d="M26.8899 32.2287C27.031 33.083 27.506 33.8578 28.1582 34.4189C28.8104 34.98 29.6425 35.3251 30.4973 35.3251H38.5171C38.8882 35.3282 39.2564 35.2581 39.6003 35.1187C39.8102 34.6186 39.8711 34.0686 39.7758 33.5347C39.6347 32.6804 39.1597 31.9061 38.5092 31.3467C37.8587 30.7873 37.0248 30.4405 36.1701 30.4405H28.1475C27.7751 30.4383 27.4059 30.5092 27.0609 30.6491C26.854 31.1485 26.7947 31.6966 26.8899 32.2287Z" fill="#9EDDFF"/>
<path d="M61.1111 95.3066H59.5996V98.1183H61.1111V95.3066Z" fill="#0D192B"/>
<path d="M49.7751 95.3066H48.2637V98.1183H49.7751V95.3066Z" fill="#0D192B"/>
<path d="M37.1071 95.3066H35.5957V98.1183H37.1071V95.3066Z" fill="#0D192B"/>
<path d="M36.7249 99.931C37.3615 99.931 37.8775 99.1155 37.8775 98.1095C37.8775 97.1036 37.3615 96.2881 36.7249 96.2881C36.0883 96.2881 35.5723 97.1036 35.5723 98.1095C35.5723 99.1155 36.0883 99.931 36.7249 99.931Z" fill="#0D192B"/>
<path d="M37.8421 99.931C38.4787 99.931 38.9947 99.1155 38.9947 98.1095C38.9947 97.1036 38.4787 96.2881 37.8421 96.2881C37.2055 96.2881 36.6895 97.1036 36.6895 98.1095C36.6895 99.1155 37.2055 99.931 37.8421 99.931Z" fill="#0D192B"/>
<path d="M38.2873 99.7838C37.8077 100.158 36.4673 99.9879 36.2799 99.7945L36.2715 96.4341C36.6314 96.1194 37.9003 96.1307 38.2867 96.4172L38.2873 99.7838Z" fill="#0D192B"/>
<path d="M37.952 99.3086C38.3882 99.3086 38.7418 98.7496 38.7418 98.06C38.7418 97.3705 38.3882 96.8115 37.952 96.8115C37.5157 96.8115 37.1621 97.3705 37.1621 98.06C37.1621 98.7496 37.5157 99.3086 37.952 99.3086Z" fill="#1E62CC"/>
<path d="M37.8699 98.8574C38.1357 98.8574 38.3512 98.5168 38.3512 98.0967C38.3512 97.6765 38.1357 97.3359 37.8699 97.3359C37.6041 97.3359 37.3887 97.6765 37.3887 98.0967C37.3887 98.5168 37.6041 98.8574 37.8699 98.8574Z" fill="#0D192B"/>
<path d="M48.7913 99.9312C49.4279 99.9312 49.9439 99.1157 49.9439 98.1098C49.9439 97.1038 49.4279 96.2883 48.7913 96.2883C48.1547 96.2883 47.6387 97.1038 47.6387 98.1098C47.6387 99.1157 48.1547 99.9312 48.7913 99.9312Z" fill="#0D192B"/>
<path d="M47.6741 99.931C48.3107 99.931 48.8267 99.1155 48.8267 98.1095C48.8267 97.1036 48.3107 96.2881 47.6741 96.2881C47.0375 96.2881 46.5215 97.1036 46.5215 98.1095C46.5215 99.1155 47.0375 99.931 47.6741 99.931Z" fill="#0D192B"/>
<path d="M47.2285 99.7838C47.7081 100.158 49.0486 99.9879 49.2359 99.7945L49.2443 96.4341C48.885 96.1194 47.6155 96.1307 47.2291 96.4172L47.2285 99.7838Z" fill="#0D192B"/>
<path d="M47.5652 99.3086C48.0015 99.3086 48.3551 98.7496 48.3551 98.06C48.3551 97.3705 48.0015 96.8115 47.5652 96.8115C47.129 96.8115 46.7754 97.3705 46.7754 98.06C46.7754 98.7496 47.129 99.3086 47.5652 99.3086Z" fill="#1E62CC"/>
<path d="M47.6473 98.8574C47.913 98.8574 48.1285 98.5168 48.1285 98.0967C48.1285 97.6765 47.913 97.3359 47.6473 97.3359C47.3815 97.3359 47.166 97.6765 47.166 98.0967C47.166 98.5168 47.3815 98.8574 47.6473 98.8574Z" fill="#0D192B"/>
<path d="M60.303 99.931C60.9396 99.931 61.4556 99.1155 61.4556 98.1095C61.4556 97.1036 60.9396 96.2881 60.303 96.2881C59.6664 96.2881 59.1504 97.1036 59.1504 98.1095C59.1504 99.1155 59.6664 99.931 60.303 99.931Z" fill="#0D192B"/>
<path d="M59.1858 99.931C59.8224 99.931 60.3384 99.1155 60.3384 98.1095C60.3384 97.1036 59.8224 96.2881 59.1858 96.2881C58.5493 96.2881 58.0332 97.1036 58.0332 98.1095C58.0332 99.1155 58.5493 99.931 59.1858 99.931Z" fill="#0D192B"/>
<path d="M58.7441 99.7838C59.2237 100.158 60.5642 99.9879 60.7515 99.7945L60.76 96.4341C60.4006 96.1194 59.1312 96.1307 58.7447 96.4172L58.7441 99.7838Z" fill="#0D192B"/>
<path d="M59.077 99.3086C59.5132 99.3086 59.8668 98.7496 59.8668 98.06C59.8668 97.3705 59.5132 96.8115 59.077 96.8115C58.6407 96.8115 58.2871 97.3705 58.2871 98.06C58.2871 98.7496 58.6407 99.3086 59.077 99.3086Z" fill="#1E62CC"/>
<path d="M59.1629 98.8574C59.4287 98.8574 59.6441 98.5168 59.6441 98.0967C59.6441 97.6765 59.4287 97.3359 59.1629 97.3359C58.8971 97.3359 58.6816 97.6765 58.6816 98.0967C58.6816 98.5168 58.8971 98.8574 59.1629 98.8574Z" fill="#0D192B"/>
<path d="M50.344 71.9043H48.1426V94.8219H50.344V71.9043Z" fill="#0D192B"/>
<path d="M62.157 95.5838C62.1604 95.5646 62.1745 95.546 62.1745 95.5274C62.1745 94.3139 56.1733 93.3281 48.7701 93.3281C41.3669 93.3281 35.3691 94.3139 35.3691 95.5274C35.3691 95.546 35.3838 95.5646 35.3866 95.5838H62.157Z" fill="#1A56B3"/>
<path d="M47.4116 78.707H50.9902V74.3446H47.4116V78.707Z" fill="#1A56B3"/>
<path d="M47.4116 94.0615H50.9902V89.6991H47.4116V94.0615Z" fill="#1A56B3"/>
<path d="M42.5191 37.6777V37.6822C42.4717 37.6777 42.4243 37.6777 42.377 37.6777H42.5191Z" fill="#4A82DB"/>
<path d="M25.5371 39.8432C25.5375 40.0711 25.5646 40.2982 25.6178 40.5199L33.0356 69.1776C33.0679 69.3173 33.1098 69.4547 33.1609 69.5887C33.4269 70.6501 34.0469 71.5892 34.9187 72.2511C35.7905 72.913 36.862 73.258 37.9564 73.2293L45.7116 73.0286H60.9941C61.8741 73.0324 62.721 72.6932 63.3547 72.0829C63.6637 71.7885 63.91 71.4347 64.0786 71.0426C64.2472 70.6506 64.3347 70.2285 64.3358 69.8018C64.3366 69.4953 64.2879 69.1906 64.1913 68.8996C63.7637 67.5924 62.4204 66.7003 60.9044 66.7003C60.9044 66.7003 54.0316 66.8869 52.0282 64.9629C50.0248 63.0388 45.5046 40.6524 45.5046 40.6524C45.1215 39.061 43.5108 37.7612 41.8622 37.6879C41.8126 37.6834 41.7629 37.6834 41.7155 37.6834C41.7155 37.6834 31.3403 37.5909 28.1594 37.605C27.9185 37.605 27.7171 37.605 27.5659 37.6101C27.4265 37.6101 27.3402 37.6146 27.3081 37.6168C27.3049 37.6173 27.3017 37.6173 27.2985 37.6168C26.2288 37.8508 25.5371 38.7255 25.5371 39.8432ZM35.294 66.5728H35.4881L35.5756 66.9535L35.4526 66.7877L35.294 66.5728Z" fill="#9EDDFF"/>
<path d="M36.0267 73.0361C36.0239 73.0502 36.0098 73.0643 36.0098 73.0784C36.0098 73.9903 41.7317 74.7296 48.7901 74.7296C55.8486 74.7296 61.5699 73.9903 61.5699 73.0784C61.5699 73.0643 61.5564 73.0502 61.5536 73.0361H36.0267Z" fill="#1A56B3"/>
<path d="M25.5371 39.8428C25.5375 40.0708 25.5646 40.2979 25.6178 40.5195L33.0356 69.1772C33.0679 69.317 33.1098 69.4543 33.1609 69.5883C33.4269 70.6498 34.0469 71.5889 34.9187 72.2508C35.7905 72.9126 36.862 73.2577 37.9564 73.229L45.7116 73.0282H60.9941C61.8741 73.0321 62.721 72.6928 63.3547 72.0825C63.6637 71.7882 63.91 71.4343 64.0786 71.0423C64.2472 70.6503 64.3347 70.2282 64.3358 69.8015C64.3366 69.4949 64.2879 69.1902 64.1913 68.8992C63.3169 71.1752 37.773 71.3348 35.9964 68.3883C34.2605 66.8827 30.5459 41.2368 28.1594 37.6035C27.9185 37.6035 27.7171 37.6035 27.5659 37.6086C27.4265 37.6086 27.3402 37.6131 27.3081 37.6154C27.3049 37.6158 27.3017 37.6158 27.2985 37.6154C26.2288 37.8505 25.5371 38.7251 25.5371 39.8428Z" fill="#61B8FF"/>
<path d="M38.4355 41.2723C40.7949 39.5151 48.8921 38.1505 54.0735 40.5787C54.8972 41.358 56.0814 44.1878 56.8216 46.8461L58.869 69.0407H41.3512L38.4355 41.2723Z" fill="#AAE0FF"/>
<path d="M47.829 42.3014C45.0437 42.7063 43.3116 40.7636 42.9043 39.951L44.0253 32.9951L46.2922 34.0062C47.1998 34.0826 48.0917 34.289 48.9405 34.6192L49.6587 38.3292L49.8172 39.1334C50.1788 39.9251 50.6144 41.896 47.829 42.3014Z" fill="#F7A594"/>
<path d="M44.748 34.7617C44.8389 35.6223 45.9718 39.1101 49.7331 38.7475L49.0347 35.1192L44.748 34.7617Z" fill="#E6836F"/>
<path d="M53.5023 30.4161C53.3736 31.5439 53.0599 34.0173 52.6244 35.0509C51.9604 36.6248 49.9079 37.8982 48.5674 37.6816C47.0548 37.3139 45.2387 36.1557 44.4974 34.8152C44.1493 33.8752 43.5829 31.7379 43.5648 30.0388C43.527 26.4935 46.5956 24.4961 49.5169 24.8277C52.4382 25.1593 53.9045 26.8916 53.5023 30.4161Z" fill="#F7A594"/>
<path d="M43.7907 32.4459C43.565 31.2053 44.4909 31.0587 45.068 32.1606C45.1933 31.3288 45.1002 28.7303 46.1535 28.2459C47.3518 27.6758 51.1403 29.4245 54.012 27.9639C54.012 27.9639 53.6413 23.9759 47.7783 24.2133C40.8818 25.2701 43.7907 32.4459 43.7907 32.4459Z" fill="#73382A"/>
<path d="M44.2575 33.3698C44.8152 33.196 45.0847 32.4696 44.8594 31.7474C44.634 31.0252 43.9992 30.5807 43.4415 30.7546C42.8838 30.9284 42.6143 31.6548 42.8396 32.377C43.0649 33.0992 43.6997 33.5437 44.2575 33.3698Z" fill="#F7A594"/>
<path d="M51.2967 35.138C51.071 35.1797 50.6761 35.3663 50.2857 35.5733C49.7187 35.8739 49.163 36.2167 49.163 36.2167C49.163 36.2167 47.484 35.2017 47.5302 33.5742C47.5528 33.599 47.5759 33.6233 47.5996 33.6475C48.9034 34.9908 51.2967 35.138 51.2967 35.138Z" fill="#A65B4A"/>
<path d="M51.2967 35.1389C51.071 35.1806 50.6761 35.3673 50.2857 35.5742C48.5841 35.1851 47.8845 34.2704 47.5996 33.6484C48.9034 34.9917 51.2967 35.1389 51.2967 35.1389Z" fill="white"/>
<path d="M51.2043 34.3495C50.9846 34.3301 50.7737 34.2535 50.5928 34.1273C50.5854 34.1218 50.5791 34.1149 50.5744 34.1069C50.5697 34.099 50.5665 34.0902 50.5652 34.0811C50.5625 34.0626 50.5672 34.0439 50.5784 34.0289C50.5895 34.0139 50.6062 34.004 50.6246 34.0013C50.6431 33.9986 50.6619 34.0034 50.6768 34.0145C50.6994 34.0314 51.232 34.4251 51.7149 34.0523C51.9801 33.8476 51.9113 33.7111 51.7268 33.3452C51.4329 32.7992 51.252 32.1997 51.1948 31.5823C51.1929 31.564 51.1984 31.5457 51.21 31.5314C51.2217 31.5172 51.2385 31.5081 51.2568 31.5062C51.2751 31.5043 51.2935 31.5098 51.3078 31.5215C51.322 31.5331 51.3311 31.5499 51.333 31.5682C51.3888 32.1686 51.5647 32.7515 51.8503 33.2826C52.041 33.6598 52.1561 33.8876 51.8001 34.1623C51.6318 34.2968 51.4194 34.3635 51.2043 34.3495Z" fill="#A65B4A"/>
<path d="M49.3521 30.925C49.3682 30.6642 49.2647 30.4456 49.121 30.4368C48.9773 30.4279 48.8478 30.6322 48.8318 30.893C48.8157 31.1538 48.9192 31.3724 49.0629 31.3812C49.2066 31.3901 49.3361 31.1858 49.3521 30.925Z" fill="#1E1E1E"/>
<path d="M53.0054 31.0995C52.9907 31.3369 52.8722 31.523 52.7413 31.5151C52.6105 31.5072 52.5157 31.3081 52.5309 31.0701C52.5461 30.8322 52.6635 30.6466 52.7944 30.6545C52.9253 30.6624 53.0195 30.8638 53.0054 31.0995Z" fill="#1E1E1E"/>
<path d="M53.2675 28.149C53.2675 28.149 56.1448 27.867 55.2421 25.0638C54.3513 25.9694 53.4446 25.5268 53.4446 25.5268C53.4446 25.5268 54.5013 24.2032 52.7541 22.2656C52.4759 23.4741 50.0765 24.0059 48.7027 23.65C46.5278 23.0861 44.3263 23.8638 44.0928 25.9621C44.0928 25.9621 42.6699 26.3089 43.1653 29.1364C45.3656 29.0591 46.336 27.0561 47.9563 26.7679C49.5766 26.4798 50.9594 28.4755 53.2675 28.149Z" fill="#73382A"/>
<path d="M50.4917 37.2446C50.4917 37.2446 49.4654 37.4854 48.9012 37.4702C48.156 37.4527 46.9785 37.041 46.9785 37.041L48.9334 38.086L50.4917 37.2446Z" fill="#A65B4A"/>
<path d="M48.5808 42.3614L48.3038 43.3579L50.2773 55.7178L49.2352 57.7259L47.3774 55.733L47.6843 43.3731L47.2363 42.7133L47.7599 41.9639L48.5808 42.3614Z" fill="#1951A6"/>
<path d="M49.7636 38.7674C49.7252 40.2336 48.5788 41.0688 47.7562 41.9051C45.3184 41.269 43.4685 39.7763 42.9297 38.3936L41.7793 39.5344C41.9841 41.3192 43.4154 43.1643 45.5903 45.0455C45.9221 44.0869 46.4315 43.2077 47.8809 42.416L51.143 43.3442C51.3275 42.0759 51.4713 40.894 50.73 39.4035L49.7636 38.7674Z" fill="#61B8FF"/>
<path d="M67.8298 99.7895C68.9943 99.7895 68.9943 97.897 67.8298 97.897C67.8298 97.897 63.1968 96.6045 63.0619 96.6045C62.9271 96.6045 57.9787 96.7426 57.9787 96.7426C57.3254 97.6489 57.5431 98.9284 57.612 99.9124L67.8298 99.7895Z" fill="#73382A"/>
<path d="M41.4619 99.8263C41.3767 98.8468 41.2362 97.8019 41.9132 96.9109C43.0669 96.4868 45.2486 95.5073 47.4958 96.7738C47.4958 96.7738 47.5392 97.4077 49.282 98.1272C49.7152 98.6195 49.8901 99.1147 49.6921 99.8263H41.4619Z" fill="#73382A"/>
<path d="M57.79 96.6044L62.6753 71.4926L48.248 69.048V62.1604L59.3505 62.1682C58.8563 62.1682 69.9363 61.403 71.4883 67.4127C73.0404 73.4223 63.6344 96.5305 63.6344 96.5305C62.2911 96.3456 59.1954 97.2777 58.0411 97.6398C57.0543 97.9494 56.7835 97.3883 57.79 96.6044Z" fill="#0D192B"/>
<path d="M56.9014 62.1699L46.0268 71.0442L46.9244 96.7233C44.0584 95.1416 40.9125 98.1574 40.6733 97.81C40.6733 97.81 40.3257 97.6442 40.9029 96.2694C39.8022 90.743 35.7926 70.0207 37.0411 67.7166C38.4837 65.0549 40.9035 62.0137 40.9035 62.0137L56.9014 62.1699Z" fill="#0D192B"/>
<path d="M42.0753 39.2471C42.2446 39.9125 44.2073 59.6434 44.0409 62.6378C43.8745 65.6322 36.5751 66.2908 36.7173 72.4539C36.8679 79.0004 37.0659 81.8358 37.0659 81.8358C34.3579 81.441 32.9091 78.2747 32.513 76.0985C31.8924 72.3203 32.3364 68.0238 35.1522 62.5786C35.1522 62.5786 35.9043 41.9764 36.8414 41.3099C38.5142 40.1206 42.0753 39.2471 42.0753 39.2471Z" fill="white"/>
<path d="M40.6114 48.1094C40.6114 48.1094 39.6754 50.8416 39.6754 51.9739C39.6754 53.1062 45.1581 55.486 45.1581 55.486H36.2012V51.2493L40.6114 48.1094Z" fill="#D9F1FF"/>
<path d="M45.5801 56.3336C45.5801 56.3336 46.6548 55.3631 48.3587 55.2278C50.0625 55.0924 51.5604 58.3338 51.5604 58.3338H45.6636L45.5801 56.3336Z" fill="#F7B28A"/>
<path d="M48.817 55.2676C48.817 55.2676 51.4986 56.0255 51.8726 56.1253C52.0475 56.8319 50.2021 56.5268 49.3485 56.2127C48.408 55.8665 48.817 55.2676 48.817 55.2676Z" fill="#F7B28A"/>
<path d="M37.0515 41.1039C35.4154 42.1189 30.9019 52.7555 30.8579 55.6185C30.8387 56.8806 31.3685 58.1314 33.7674 58.2853C35.0921 58.3705 46.3368 58.4669 46.3368 58.4669L46.1935 55.4855L37.7178 53.0674L40.3068 48.7732C43.4036 47.1801 40.7514 39.1285 37.0515 41.1039Z" fill="white"/>
<path d="M66.1617 41.0566C66.1617 41.0566 65.1236 38.5189 65.2511 37.8264C65.3786 37.134 67.9315 36.2407 68.0579 36.5475C68.1843 36.8543 68.4494 37.6122 66.7783 38.0701C67.8982 39.0992 69.1547 41.1547 66.1617 41.0566Z" fill="#F7A594"/>
<path d="M66.0268 41.1723C66.0268 41.1723 65.8153 38.8828 66.1865 37.9619C66.6813 36.7348 68.1431 35.9453 68.1431 35.9453C68.1431 35.9453 70.7281 37.9754 70.8071 38.3397C70.8861 38.704 68.7326 40.9518 68.7326 40.9518C68.7326 40.9518 67.1281 42.4755 66.0268 41.1723Z" fill="#F7A594"/>
<path d="M66.334 38.1688C66.334 38.1688 66.9642 32.4569 67.8669 32.6227C68.2821 32.6988 67.6976 38.1536 67.6976 38.1536L66.334 38.1688Z" fill="#F7A594"/>
<path d="M65.8723 40.3362C65.8777 40.3377 65.8834 40.3378 65.8888 40.3363C65.8943 40.3348 65.8992 40.3319 65.903 40.3278C65.9069 40.3237 65.9095 40.3187 65.9107 40.3132C65.9118 40.3077 65.9114 40.302 65.9095 40.2967C65.6433 39.5495 65.2077 38.2361 65.2822 37.8312C65.3803 37.2978 67.0526 36.5968 67.7742 36.5218C67.9885 36.4993 68.0247 36.5444 68.0303 36.559C68.1138 36.7615 68.1815 37.004 68.0534 37.2639C67.8932 37.5893 67.4622 37.8498 66.771 38.0382L66.718 38.0523L66.7586 38.0901C67.2235 38.5181 67.7792 39.192 67.9434 39.7982C67.9469 39.8038 67.9521 39.8082 67.9583 39.8106C67.9644 39.813 67.9712 39.8133 67.9776 39.8116C67.984 39.8098 67.9896 39.806 67.9936 39.8007C67.9976 39.7954 67.9998 39.789 67.9998 39.7824C67.8362 39.1807 67.2991 38.5175 66.8365 38.0822C67.5135 37.8905 67.9406 37.6243 68.1042 37.2927C68.2622 36.9724 68.1369 36.6673 68.0833 36.5371C68.0546 36.4677 67.9502 36.4429 67.7634 36.4626C67.03 36.5387 65.3245 37.2453 65.2179 37.8222C65.1411 38.2406 65.5795 39.5658 65.848 40.3187C65.8502 40.3235 65.8536 40.3276 65.8578 40.3307C65.8621 40.3337 65.8671 40.3356 65.8723 40.3362Z" fill="#E6836F"/>
<path d="M68.9781 39.2526L69.004 39.2593L69.0255 39.2638L69.0367 39.2458C69.404 38.6667 70.2779 38.4332 70.2881 38.4309C70.292 38.43 70.2957 38.4282 70.2989 38.4258C70.3021 38.4234 70.3048 38.4204 70.3069 38.4169C70.3089 38.4135 70.3102 38.4096 70.3108 38.4056C70.3113 38.4017 70.3111 38.3976 70.3101 38.3937C70.3079 38.3859 70.3027 38.3792 70.2956 38.3751C70.2886 38.371 70.2802 38.3698 70.2723 38.3717C70.2362 38.3813 69.3831 38.6086 68.9972 39.1945C68.4483 39.0366 67.6759 37.7379 67.668 37.7249C67.666 37.7215 67.6633 37.7185 67.6601 37.7161C67.6569 37.7137 67.6533 37.7119 67.6494 37.7109C67.6455 37.7099 67.6415 37.7097 67.6375 37.7103C67.6336 37.7108 67.6297 37.7122 67.6263 37.7142C67.6228 37.7162 67.6198 37.7189 67.6174 37.7221C67.615 37.7253 67.6133 37.729 67.6123 37.7329C67.6113 37.7367 67.6111 37.7408 67.6116 37.7447C67.6122 37.7487 67.6135 37.7525 67.6156 37.7559C67.6449 37.8101 68.4049 39.0873 68.9781 39.2526Z" fill="#E6836F"/>
<path d="M66.1254 40.4375L65.1895 44.0037L68.0747 44.9291L68.4278 40.8571L66.1254 40.4375Z" fill="#F7A594"/>
<path d="M57.2825 42.1842L63.1827 48.1082L65.8061 41.2949L69.2403 42.376C69.2403 42.376 69.198 52.3302 66.2185 54.4737C61.656 57.26 53.8382 48.7595 53.8382 48.7595C50.7809 44.4861 55.4534 39.7047 57.2825 42.1842Z" fill="white"/>
<path d="M50.7637 39.4913C50.7637 39.4913 52.3394 61.1333 55.1694 62.9638C57.9993 64.7942 67.9988 63.5474 67.9988 63.5474C67.9988 63.5474 58.0219 59.9744 57.8554 57.3122C57.689 54.6499 57.0447 41.9624 57.0447 41.9624C56.1189 40.8272 53.1784 39.4806 50.7637 39.4913Z" fill="white"/>
<mask id="mask0_229_4051" style="mask-type:alpha" maskUnits="userSpaceOnUse" x="37" y="35" width="17" height="20">
<path d="M49.7626 38.8148L50.4018 44.538C50.4018 44.538 47.5036 49.9669 49.4139 51.3829C51.3242 52.7989 53.085 51.2757 53.6001 47.7355C54.1152 44.1952 52.2049 37.6724 50.509 36.4064C48.813 35.1404 42.6522 35.2475 42.0513 35.9772C41.4505 36.7069 35.4369 50.1496 37.8059 52.9054C40.1749 55.6613 47.8128 53.1524 47.8128 53.1524L46.5749 45.1651L43.2158 42.7967C43.2158 42.7967 43.0183 38.4545 43.0415 38.521C43.0646 38.5876 43.5097 36.3923 43.5097 36.3923C45.6198 35.7827 47.217 35.7071 49.2988 36.5473L49.7626 38.8148Z" fill="white"/>
</mask>
<g mask="url(#mask0_229_4051)">
<path d="M51.8862 49.914C52.0546 48.9972 51.7721 48.177 51.2552 48.0821C50.7382 47.9872 50.1825 48.6535 50.014 49.5703C49.8456 50.4872 50.1281 51.3074 50.645 51.4023C51.162 51.4972 51.7177 50.8309 51.8862 49.914Z" fill="#1B658F"/>
<path d="M52.4615 49.8193C52.5722 49.2199 52.3879 48.6835 52.05 48.6211C51.712 48.5588 51.3483 48.9941 51.2376 49.5935C51.1269 50.1928 51.3111 50.7293 51.6491 50.7916C51.987 50.854 52.3508 50.4187 52.4615 49.8193Z" fill="#2997D6"/>
<path d="M51.594 48.4054C51.6318 48.4052 51.6682 48.3904 51.6954 48.364C51.7225 48.3376 51.7384 48.3017 51.7395 48.2638C51.7395 48.2311 51.8219 44.9057 51.3277 41.4246C50.8707 38.2019 48.1852 36.6415 45.8833 36.5558C43.652 36.4723 41.9312 37.6915 41.5002 39.6573C41.1126 41.4297 41.613 44.4506 41.6362 44.5809C41.6393 44.5997 41.6462 44.6178 41.6563 44.634C41.6664 44.6502 41.6796 44.6643 41.6952 44.6754C41.7107 44.6865 41.7283 44.6944 41.747 44.6987C41.7656 44.703 41.7849 44.7036 41.8037 44.7004C41.8226 44.6973 41.8406 44.6905 41.8569 44.6803C41.8731 44.6702 41.8871 44.657 41.8982 44.6415C41.9094 44.6259 41.9173 44.6083 41.9216 44.5897C41.9259 44.5711 41.9265 44.5518 41.9233 44.533C41.9183 44.5019 41.4088 41.4371 41.7846 39.7199C42.184 37.8951 43.7902 36.7661 45.8726 36.8439C48.0571 36.9257 50.6061 38.406 51.0399 41.4636C51.5302 44.9215 51.449 48.2232 51.449 48.2565C51.4484 48.2756 51.4517 48.2946 51.4585 48.3124C51.4654 48.3302 51.4757 48.3465 51.4888 48.3603C51.502 48.3742 51.5177 48.3853 51.5352 48.393C51.5527 48.4007 51.5715 48.4049 51.5906 48.4054H51.594Z" fill="#0D192B"/>
<path d="M40.3811 52.9078L41.3052 52.7894C41.3435 52.7845 41.3783 52.7645 41.4019 52.734C41.4255 52.7034 41.4359 52.6647 41.431 52.6264C41.4261 52.5882 41.4061 52.5534 41.3755 52.5298C41.345 52.5062 41.3063 52.4957 41.268 52.5007L40.5689 52.5909C39.6194 50.1351 39.5653 47.4993 40.4431 46.1459C40.8759 45.4788 41.5151 45.1224 42.341 45.088C42.7137 45.0677 43.0866 45.1248 43.4361 45.2556C43.7857 45.3865 44.1044 45.5882 44.3721 45.8482C46.1165 47.4835 46.3975 51.2561 46.4381 52.0659L45.9089 52.0456C45.8715 52.046 45.8357 52.0607 45.8089 52.0867C45.7821 52.1128 45.7663 52.1481 45.7649 52.1854C45.7634 52.2228 45.7764 52.2592 45.8011 52.2873C45.8258 52.3153 45.8604 52.3328 45.8976 52.336L46.7388 52.3682L46.7354 52.2142C46.7309 52.0242 46.6108 47.5489 44.5712 45.6367C43.9388 45.0434 43.1845 44.7609 42.3286 44.797C41.4022 44.8365 40.6857 45.2369 40.1988 45.988C39.712 46.7391 39.4806 47.8236 39.5325 49.1217C39.5799 50.3059 39.8665 51.617 40.3393 52.8052L40.3811 52.9078Z" fill="#0D192B"/>
<path d="M42.9115 44.6019L42.903 45.3192C42.6335 45.2296 42.3474 45.2015 42.0656 45.2371C41.7838 45.2726 41.5136 45.3708 41.2748 45.5245C41.0666 45.2369 40.9199 45.0203 40.9199 45.0203C40.9199 45.0203 41.5704 44.3149 42.9115 44.6019Z" fill="#1B658F"/>
<path d="M42.3002 44.855L42.1434 44.039C41.9177 43.9149 41.4286 44.0463 41.3535 44.2239L41.5341 45.0185L42.3002 44.855Z" fill="#1B658F"/>
</g>
<path d="M53.9785 55.5063C54.9263 55.4093 56.919 54.1721 57.3946 53.7627L63.1831 58.4387H54.2127L53.9785 55.5063Z" fill="#2B7EAB"/>
<path d="M62.3366 58.4526C62.0935 58.4526 54.8454 54.0332 54.8454 54.0332C53.2533 55.3499 51.585 55.9906 49.9004 56.4648C50.3924 57.4421 51.1139 58.1002 51.9179 58.4678L62.3366 58.4526Z" fill="#69BFF0"/>
<path d="M26.2902 58.4355H35.2324V57.0466H26.2902V58.4355Z" fill="#BAE7FF"/>
<path d="M18.678 58.4355H26.291V57.0466H18.678V58.4355Z" fill="#69BFF0"/>
<path d="M34.0247 57.5H26.8652L30.1883 58.1643L34.0247 57.5Z" fill="#69BFF0"/>
<path d="M30.5512 60.1404H29.0488V99.5255H30.5512V60.1404Z" fill="#1951A6"/>
<path d="M30.5512 60.156H29.0488V63.5373H30.5512V60.156Z" fill="#1951A6"/>
<path d="M97.0927 99.6892H98.5957V92.8511H97.0927V99.6892Z" fill="#1951A6"/>
<path d="M88.0498 99.6892H89.5527V92.8511H88.0498V99.6892Z" fill="#1951A6"/>
<path d="M16.3451 59.7195V99.7458L14.916 99.5196V59.7195H16.3451Z" fill="#1951A6"/>
<path d="M69.2099 99.6892H70.7129V92.8511H69.2099V99.6892Z" fill="#1951A6"/>
<path d="M77.1005 99.6892H78.6035V92.8511H77.1005V99.6892Z" fill="#1951A6"/>
<path d="M10.8073 60.1365L83.3535 60.1365V58.4442L10.8073 58.4442V60.1365Z" fill="#1951A6"/>
<path d="M77.9479 59.9919H68.6621V92.9597H77.9479V59.9919Z" fill="#1951A6"/>
<path d="M99.5013 59.9919H76.6582V92.9597H99.5013V59.9919Z" fill="#1951A6"/>
<path d="M98.8806 61.1355H77.7949V92.9596H98.8806V61.1355Z" fill="#66A1FF"/>
<path d="M26.9909 60.1365L99.5371 60.1365V58.4442L26.9909 58.4442V60.1365Z" fill="#66A1FF"/>
<path d="M86.7516 58.4451H90.7545L89.9652 51.6042H85.9629L86.7516 58.4451Z" fill="#ADADAD"/>
<path d="M85.5879 51.6042L85.5907 51.6319L86.0172 55.3272L86.3772 58.4446H90.38L89.6466 52.0853L89.6443 52.0655L89.5907 51.6042H85.5879Z" fill="#474747"/>
<path d="M80.9366 58.4324H93.6504V57.732H80.9366V58.4324Z" fill="#ADADAD"/>
<path d="M90.2233 57.7312H80.0488V58.4316H90.2233V57.7312Z" fill="#474747"/>
<path d="M85.5918 51.6316L86.0183 55.3269L89.6477 52.085L89.6663 52.0675L89.6454 52.0652L85.5918 51.6316Z" fill="#2B2B2B"/>
<path d="M75.3948 52.044H97.1158C97.3486 52.0401 97.5719 51.9506 97.743 51.7926C97.9141 51.6346 98.021 51.4191 98.0433 51.1874L99.2845 36.1088C99.2957 35.9996 99.2837 35.8892 99.2491 35.785C99.2146 35.6808 99.1583 35.5851 99.0841 35.5042C99.0098 35.4233 98.9192 35.3591 98.8183 35.3157C98.7174 35.2724 98.6084 35.2509 98.4986 35.2528H76.7776C76.5448 35.2564 76.3215 35.3455 76.1502 35.5032C75.9789 35.6609 75.8717 35.8761 75.849 36.1077L74.6078 51.1863C74.5963 51.2957 74.6081 51.4064 74.6426 51.5109C74.6771 51.6154 74.7334 51.7114 74.8079 51.7925C74.8823 51.8736 74.9731 51.9379 75.0743 51.9813C75.1755 52.0247 75.2847 52.046 75.3948 52.044Z" fill="#ADADAD"/>
<path d="M74.9917 52.0249H96.7127C96.9455 52.0211 97.1687 51.9317 97.3397 51.7738C97.5107 51.6159 97.6174 51.4005 97.6396 51.1688L98.8808 36.0903C98.8921 35.9811 98.88 35.8707 98.8455 35.7665C98.811 35.6622 98.7547 35.5665 98.6804 35.4856C98.6062 35.4047 98.5156 35.3405 98.4146 35.2972C98.3137 35.2538 98.2047 35.2324 98.0949 35.2342H76.374C76.1411 35.238 75.9178 35.3274 75.7468 35.4853C75.5757 35.6432 75.4688 35.8586 75.4465 36.0903L74.2053 51.1688C74.194 51.2781 74.2061 51.3885 74.2406 51.4928C74.2752 51.597 74.3315 51.6928 74.4058 51.7737C74.4802 51.8546 74.5708 51.9188 74.6718 51.9621C74.7728 52.0054 74.8819 52.0268 74.9917 52.0249Z" fill="#474747"/>
<path d="M75.4707 50.7915H96.5581L97.7067 36.4099H76.6194L75.4707 50.7915Z" fill="#D9F3FF"/>
<path d="M77.1887 57.7312H70.541V58.4321H77.1887V57.7312Z" fill="#ADADAD"/>
<path d="M63.5879 58.1626V58.4321H70.542V57.7312L63.5879 58.1626Z" fill="#474747"/>
<path d="M79.1973 48.3008L93.6567 48.126C94.2643 48.1187 94.794 47.6044 94.8414 46.9773L95.3797 39.581C95.4254 38.9539 94.9701 38.4531 94.3641 38.4588L79.9048 38.6336C79.2971 38.6409 78.7674 39.1552 78.72 39.7823L78.1812 47.1786C78.1332 47.8057 78.5891 48.3082 79.1973 48.3008Z" fill="#80B2FF"/>
<path d="M80.4478 41.706L84.6944 41.6547C84.7611 41.6517 84.8245 41.6243 84.8724 41.5778C84.9204 41.5312 84.9495 41.4687 84.9544 41.4021C84.958 41.3706 84.9548 41.3387 84.945 41.3086C84.9352 41.2785 84.9191 41.2508 84.8977 41.2274C84.8763 41.204 84.8502 41.1854 84.8211 41.173C84.7919 41.1605 84.7605 41.1544 84.7288 41.1551L80.4828 41.2064C80.4159 41.2093 80.3524 41.2366 80.3043 41.2831C80.2563 41.3297 80.227 41.3923 80.2221 41.459C80.2186 41.4905 80.2218 41.5224 80.2316 41.5525C80.2414 41.5826 80.2575 41.6103 80.2788 41.6337C80.3002 41.6571 80.3264 41.6757 80.3555 41.6881C80.3846 41.7006 80.4161 41.7067 80.4478 41.706Z" fill="#D9F3FF"/>
<path d="M80.3501 43.0716L86.0077 43.0033C86.0745 43.0005 86.1379 42.9731 86.1859 42.9266C86.2339 42.88 86.263 42.8174 86.2678 42.7507C86.2713 42.7192 86.2681 42.6874 86.2583 42.6572C86.2485 42.6271 86.2324 42.5994 86.211 42.576C86.1897 42.5526 86.1635 42.5341 86.1344 42.5216C86.1053 42.5091 86.0738 42.503 86.0421 42.5037L80.3845 42.5719C80.3177 42.5748 80.2543 42.6022 80.2063 42.6487C80.1584 42.6953 80.1292 42.7579 80.1244 42.8246C80.1209 42.8561 80.1241 42.8879 80.1339 42.9181C80.1437 42.9482 80.1598 42.9759 80.1812 42.9993C80.2026 43.0227 80.2287 43.0412 80.2578 43.0537C80.287 43.0662 80.3184 43.0723 80.3501 43.0716Z" fill="#D9F3FF"/>
<path d="M80.2329 44.6796L85.8905 44.6113C85.9574 44.6083 86.0209 44.5809 86.069 44.5342C86.117 44.4876 86.1463 44.4249 86.1512 44.3581C86.1547 44.3267 86.1515 44.2948 86.1417 44.2647C86.1319 44.2345 86.1158 44.2068 86.0944 44.1834C86.0731 44.16 86.0469 44.1415 86.0178 44.129C85.9887 44.1166 85.9572 44.1105 85.9255 44.1111L80.2679 44.1794C80.201 44.1824 80.1375 44.2098 80.0895 44.2565C80.0414 44.3031 80.0122 44.3658 80.0073 44.4326C80.0037 44.464 80.0069 44.4959 80.0167 44.5261C80.0265 44.5562 80.0426 44.5839 80.064 44.6073C80.0854 44.6307 80.1115 44.6492 80.1406 44.6617C80.1698 44.6741 80.2012 44.6802 80.2329 44.6796Z" fill="#D9F3FF"/>
<path d="M80.1157 46.2864L85.7733 46.2182C85.8401 46.2152 85.9035 46.1878 85.9514 46.1413C85.9993 46.0947 86.0285 46.0322 86.0334 45.9656C86.037 45.9341 86.0337 45.9022 86.024 45.8721C86.0142 45.8419 85.9981 45.8143 85.9767 45.7909C85.9553 45.7675 85.9292 45.7489 85.9 45.7364C85.8709 45.724 85.8394 45.7179 85.8078 45.7186L80.1502 45.7868C80.0833 45.7897 80.0199 45.817 79.972 45.8636C79.924 45.9102 79.8949 45.9728 79.8901 46.0394C79.8865 46.0709 79.8897 46.1028 79.8995 46.1329C79.9093 46.163 79.9254 46.1907 79.9468 46.2141C79.9682 46.2375 79.9943 46.2561 80.0235 46.2685C80.0526 46.281 80.0841 46.2871 80.1157 46.2864Z" fill="#D9F3FF"/>
<path d="M91.158 41.8063C90.7185 42.1841 90.4105 44.9146 90.9803 45.6809C91.2415 46.0323 91.6918 46.0356 92.0827 46.1321C92.5459 46.2494 92.9183 46.7665 93.1107 46.5206C93.4655 46.0695 93.5519 44.2452 92.9612 43.0672C92.7558 42.6589 91.597 41.4284 91.158 41.8063Z" fill="#D9F3FF"/>
<path d="M89.3289 41.8063C89.7679 42.1841 90.0765 44.9146 89.5061 45.6809C89.2454 46.0323 88.7946 46.0356 88.4037 46.1321C87.9405 46.2494 87.5681 46.7665 87.3757 46.5206C87.0209 46.0695 86.9351 44.2452 87.5252 43.0672C87.7312 42.6589 88.8894 41.4284 89.3289 41.8063Z" fill="#D9F3FF"/>
<path d="M90.0043 42.8519V39.9607H90.4145V42.8096C90.4145 42.8333 90.4269 43.391 90.9922 43.5151L90.9239 43.8247C90.7718 43.795 90.6286 43.7305 90.5056 43.6362C90.3827 43.5419 90.2833 43.4203 90.2153 43.281C90.1485 43.4251 90.0484 43.5513 89.9234 43.6493C89.7984 43.7473 89.6519 43.8144 89.496 43.845L89.4277 43.5354C89.9383 43.4243 89.9976 42.9585 90.0043 42.8519Z" fill="#D9F3FF"/>
<path d="M100.362 97.5801H101.873V94.7684H100.362V97.5801Z" fill="#0D192B"/>
<path d="M111.698 97.5801H113.209V94.7684H111.698V97.5801Z" fill="#0D192B"/>
<path d="M124.362 97.5801H125.873V94.7684H124.362V97.5801Z" fill="#0D192B"/>
<path d="M124.744 99.3922C125.381 99.3922 125.897 98.5767 125.897 97.5707C125.897 96.5648 125.381 95.7493 124.744 95.7493C124.108 95.7493 123.592 96.5648 123.592 97.5707C123.592 98.5767 124.108 99.3922 124.744 99.3922Z" fill="#0D192B"/>
<path d="M123.627 99.3919C124.264 99.3919 124.78 98.5764 124.78 97.5705C124.78 96.5645 124.264 95.749 123.627 95.749C122.991 95.749 122.475 96.5645 122.475 97.5705C122.475 98.5764 122.991 99.3919 123.627 99.3919Z" fill="#0D192B"/>
<path d="M123.182 99.2452C123.661 99.6196 125.001 99.4499 125.188 99.2564L125.197 95.8961C124.838 95.5814 123.569 95.5927 123.182 95.8786L123.182 99.2452Z" fill="#0D192B"/>
<path d="M123.518 98.7695C123.955 98.7695 124.308 98.2105 124.308 97.521C124.308 96.8314 123.955 96.2725 123.518 96.2725C123.082 96.2725 122.729 96.8314 122.729 97.521C122.729 98.2105 123.082 98.7695 123.518 98.7695Z" fill="#1E62CC"/>
<path d="M123.604 98.3183C123.87 98.3183 124.086 97.9777 124.086 97.5576C124.086 97.1375 123.87 96.7969 123.604 96.7969C123.339 96.7969 123.123 97.1375 123.123 97.5576C123.123 97.9777 123.339 98.3183 123.604 98.3183Z" fill="#0D192B"/>
<path d="M112.678 99.3919C113.315 99.3919 113.831 98.5764 113.831 97.5705C113.831 96.5645 113.315 95.749 112.678 95.749C112.041 95.749 111.525 96.5645 111.525 97.5705C111.525 98.5764 112.041 99.3919 112.678 99.3919Z" fill="#0D192B"/>
<path d="M113.795 99.3919C114.432 99.3919 114.948 98.5764 114.948 97.5705C114.948 96.5645 114.432 95.749 113.795 95.749C113.159 95.749 112.643 96.5645 112.643 97.5705C112.643 98.5764 113.159 99.3919 113.795 99.3919Z" fill="#0D192B"/>
<path d="M114.24 99.2452C113.761 99.6196 112.421 99.4499 112.233 99.2564L112.225 95.8961C112.585 95.5814 113.853 95.5927 114.24 95.8786L114.24 99.2452Z" fill="#0D192B"/>
<path d="M113.905 98.7695C114.341 98.7695 114.695 98.2105 114.695 97.521C114.695 96.8314 114.341 96.2725 113.905 96.2725C113.469 96.2725 113.115 96.8314 113.115 97.521C113.115 98.2105 113.469 98.7695 113.905 98.7695Z" fill="#1E62CC"/>
<path d="M113.823 98.3183C114.089 98.3183 114.304 97.9777 114.304 97.5576C114.304 97.1375 114.089 96.7969 113.823 96.7969C113.557 96.7969 113.342 97.1375 113.342 97.5576C113.342 97.9777 113.557 98.3183 113.823 98.3183Z" fill="#0D192B"/>
<path d="M101.166 99.3919C101.803 99.3919 102.319 98.5764 102.319 97.5705C102.319 96.5645 101.803 95.749 101.166 95.749C100.53 95.749 100.014 96.5645 100.014 97.5705C100.014 98.5764 100.53 99.3919 101.166 99.3919Z" fill="#0D192B"/>
<path d="M102.283 99.3919C102.92 99.3919 103.436 98.5764 103.436 97.5705C103.436 96.5645 102.92 95.749 102.283 95.749C101.647 95.749 101.131 96.5645 101.131 97.5705C101.131 98.5764 101.647 99.3919 102.283 99.3919Z" fill="#0D192B"/>
<path d="M102.729 99.2452C102.249 99.6196 100.909 99.4499 100.721 99.2564L100.713 95.8961C101.073 95.5814 102.342 95.5927 102.728 95.8786L102.729 99.2452Z" fill="#0D192B"/>
<path d="M102.393 98.7695C102.83 98.7695 103.183 98.2105 103.183 97.521C103.183 96.8314 102.83 96.2725 102.393 96.2725C101.957 96.2725 101.604 96.8314 101.604 97.521C101.604 98.2105 101.957 98.7695 102.393 98.7695Z" fill="#1E62CC"/>
<path d="M102.307 98.3183C102.573 98.3183 102.789 97.9777 102.789 97.5576C102.789 97.1375 102.573 96.7969 102.307 96.7969C102.042 96.7969 101.826 97.1375 101.826 97.5576C101.826 97.9777 102.042 98.3183 102.307 98.3183Z" fill="#0D192B"/>
<path d="M111.129 94.2832H113.33V71.3656H111.129V94.2832Z" fill="#0D192B"/>
<path d="M99.3119 95.0447C99.309 95.0261 99.2949 95.0075 99.2949 94.9883C99.2949 93.7754 105.296 92.7891 112.699 92.7891C120.102 92.7891 126.103 93.7725 126.103 94.9883C126.103 95.0075 126.088 95.0261 126.086 95.0447H99.3119Z" fill="#1A56B3"/>
<path d="M114.057 73.8066H110.479V78.1691H114.057V73.8066Z" fill="#1A56B3"/>
<path d="M114.057 89.1602H110.479V93.5226H114.057V89.1602Z" fill="#1A56B3"/>
<path d="M118.955 37.1396V37.1442C119.002 37.1396 119.05 37.1396 119.097 37.1396H118.955Z" fill="#4A82DB"/>
<path d="M134.168 37.0758H134.159C134.128 37.0758 134.041 37.0707 133.901 37.0685C133.75 37.0685 133.549 37.064 133.307 37.064C130.126 37.0499 119.751 37.1418 119.751 37.1418C119.702 37.141 119.653 37.1427 119.604 37.1469C117.956 37.2202 116.346 38.52 115.963 40.1108C115.963 40.1108 111.444 62.4949 109.438 64.4213C107.433 66.3476 100.563 66.1587 100.563 66.1587C99.0468 66.1587 97.7035 67.0525 97.2753 68.358C97.1788 68.649 97.13 68.9537 97.1309 69.2603C97.1318 69.687 97.2193 70.1092 97.388 70.5013C97.5567 70.8933 97.8032 71.2471 98.1125 71.5413C98.7459 72.1518 99.5926 72.4911 100.473 72.487H115.756L125.676 72.6883C126.77 72.7169 127.842 72.3718 128.714 71.71C129.585 71.0481 130.206 70.1091 130.472 69.0477C130.523 68.9137 130.565 68.7763 130.597 68.6366L135.85 39.9789C135.902 39.7581 135.929 39.5319 135.93 39.305C135.932 38.1867 135.242 37.3121 134.168 37.0758ZM128.183 66.2512L128.06 66.4164L128.147 66.0363H128.341L128.183 66.2512Z" fill="#9EDDFF"/>
<path d="M127.613 72.498C127.617 72.5121 127.63 72.5257 127.63 72.5403C127.63 73.4522 119.743 74.1909 112.685 74.1909C105.627 74.1909 99.9043 73.4522 99.9043 72.5403C99.9043 72.5257 99.9184 72.5121 99.9207 72.498H127.613Z" fill="#1A56B3"/>
<path d="M135.932 39.3057C135.931 39.5326 135.905 39.7587 135.852 39.9796C135.654 40.5525 130.749 68.5138 130.475 69.0472C130.209 70.1094 129.588 71.0491 128.716 71.7112C127.843 72.3733 126.771 72.7182 125.676 72.689C119.803 72.499 106.46 72.4522 100.472 72.4877C98.338 72.5317 96.5987 70.4085 97.2751 68.3581C96.5383 71.8347 125.199 72.2604 128.201 67.7045C130.335 66.1075 129.155 35.7643 134.167 37.0765C135.242 37.3128 135.932 38.1874 135.932 39.3057Z" fill="#61B8FF"/>
<path d="M120.314 36.5617C123.126 56.3462 104.345 53.4854 104.889 45.5224C105.357 38.6618 109.511 37.8593 108.428 33.3604C107.24 28.4227 108.999 24.1025 113.682 24.1025C118.267 24.1025 121.012 27.4432 120.033 33.2515C119.839 34.4036 120.195 35.607 120.314 36.5617Z" fill="#0E0E0E"/>
<path d="M102.713 91.9499C102.747 92.1461 103.397 95.939 103.397 95.939L106.007 95.7135L106.385 91.0657L102.713 91.9499Z" fill="#FFA599"/>
<path d="M119.321 60.4549C119.321 60.4549 121.505 66.5886 117.895 67.6398C114.286 68.6909 108.248 69.0896 108.248 69.0896L106.297 93.3538C105.574 93.6414 104.8 93.8975 102.996 93.5298C102.996 93.5298 98.5524 69.1043 99.8365 66.1764C101.121 63.2486 111.14 60.2705 111.14 60.2705L119.321 60.4549Z" fill="#0D192B"/>
<path d="M106.795 96.3485C106.601 96.847 105.097 97.5553 103.413 98.0719C102.263 98.4254 101.028 98.6888 100.072 98.7345C99.4741 98.7632 98.985 98.7074 98.6921 98.5348C98.6921 98.5348 97.9491 96.6141 99.5999 95.5557C101.251 94.4972 103.113 94.2852 103.113 94.2852C103.351 94.6235 103.738 94.8491 104.215 94.9055C104.575 94.9409 104.938 94.8971 105.279 94.7769C105.621 94.6594 105.945 94.4942 106.241 94.2863C106.357 94.415 106.459 94.555 106.547 94.7041C106.563 94.7295 106.578 94.7555 106.593 94.7825C106.81 95.1705 107.009 95.7446 106.795 96.3485Z" fill="white"/>
<path d="M106.673 94.6982L106.595 94.7789L103.415 98.0693C102.264 98.4229 101.03 98.6863 100.073 98.7319C100.008 98.1269 100.035 96.8445 101.201 95.936C101.921 95.3766 103.12 95.0699 104.215 94.9018C104.59 94.8454 104.953 94.8026 105.279 94.7732C105.865 94.7202 106.334 94.7044 106.547 94.7005C106.626 94.6982 106.673 94.6982 106.673 94.6982Z" fill="#DBF2FF"/>
<path d="M105.162 92.5481C105.197 92.7444 105.475 96.535 105.475 96.535L107.716 96.5062L108.359 92.4697L105.162 92.5481Z" fill="#FFA599"/>
<path d="M108.155 94.0674C108.155 94.0674 108.942 95.59 109.114 95.9751C108.237 98.5353 102.244 100.528 101.624 99.7596C101.624 99.7596 100.506 98.0295 101.906 96.658C103.305 95.2866 105.332 94.6516 105.332 94.6516C106.003 95.2798 107.748 95.1084 108.155 94.0674Z" fill="white"/>
<path d="M125.262 61.3228C125.262 61.3228 126.447 66.6665 121.943 68.1152C118.364 69.2661 112.209 71.616 112.209 71.616L108.304 93.3606C108.139 93.823 105.539 93.995 105.207 93.6234C105.207 93.6234 104.3 69.6868 106.1 67.0449C108.864 62.9886 112.61 60.5096 112.61 60.5096C116.402 60.0743 121.93 59.6688 125.262 61.3228Z" fill="#0D192B"/>
<path d="M105.124 93.6276C105.081 92.665 104.102 70.0187 106.031 66.9972C106.566 66.1672 107.166 65.3806 107.824 64.6445L107.958 64.7624C107.305 65.4916 106.711 66.2706 106.18 67.0925C104.281 70.0672 105.291 93.3846 105.301 93.6197L105.124 93.6276Z" fill="#2A518C"/>
<path d="M110.527 41.4566C112.378 39.1869 113.757 40.5374 113.676 43.088C113.594 45.6386 111.87 56.7523 109.805 55.9882C107.739 55.2241 108.204 44.3055 110.527 41.4566Z" fill="#FFA599"/>
<path d="M111.906 51.3206L110.665 59.9779C110.786 60.4228 111.458 60.7995 112.464 61.0955C112.622 61.1429 112.79 61.1875 112.964 61.2303C116.39 62.07 122.693 62.1202 125.433 61.029C125.433 61.029 125.22 59.5628 124.347 57.2113C123.684 55.4242 122.639 53.1251 121.018 50.5683C120.916 49.8093 121.556 48.4706 122.197 46.9356C123.218 44.491 124.239 41.5485 122.258 39.661C119.034 36.5821 110.598 37.4556 110.044 43.5464C109.955 47.4837 111.906 51.3206 111.906 51.3206Z" fill="#FD5655"/>
<path d="M112.012 61.6999C112.068 61.6903 112.417 61.511 112.963 61.2296C115.297 60.0285 121.282 56.9574 124.066 57.206C124.158 57.2145 124.252 57.216 124.344 57.2106C123.681 55.4235 122.637 53.1244 121.016 50.5676C120.913 49.8086 121.553 48.4698 122.194 46.9349L118.551 42.8008C118.551 42.8008 118.564 42.895 118.586 43.0647C118.781 44.5546 119.706 51.8877 119.207 53.0714C118.749 54.1547 113.982 59.3151 112.464 61.0948C112.133 61.4839 111.957 61.7095 112.012 61.6999Z" fill="#E64847"/>
<path d="M112.903 40.1649C113.01 40.8979 113.954 42.8457 113.954 42.8457C113.954 42.8457 117.862 40.4209 117.722 39.4622L117.089 36.8998L116.675 35.2334L112.693 35.8125L112.831 38.6592L112.903 40.1649Z" fill="#FFA599"/>
<path d="M112.831 38.6601L115.612 36.7992L112.693 35.8135L112.831 38.6601Z" fill="#E87C5D"/>
<path d="M109.191 30.6166C108.965 34.1812 110.985 37.1209 113.7 37.1829C116.415 37.2449 118.566 34.4011 118.505 30.8298C118.448 27.4655 116.424 24.8331 113.984 24.7773C111.545 24.7214 109.403 27.2585 109.191 30.6166Z" fill="#FFA599"/>
<path d="M112.525 28.1118C115.915 32.4539 120.799 30.7289 119.674 28.1309C119.674 28.1309 118.365 24.5523 114.409 24.4942C109.463 24.4215 112.525 28.1118 112.525 28.1118Z" fill="#0E0E0E"/>
<path d="M113.472 33.2232C113.345 33.2204 113.222 33.1905 113.152 33.1025C112.983 32.8865 113.443 31.8303 113.537 31.6211C113.539 31.6142 113.543 31.6079 113.548 31.6026C113.553 31.5973 113.559 31.5931 113.566 31.5902C113.573 31.5873 113.58 31.5859 113.587 31.5859C113.594 31.586 113.602 31.5876 113.608 31.5906C113.615 31.5935 113.621 31.5979 113.626 31.6033C113.63 31.6087 113.634 31.615 113.636 31.6219C113.639 31.6288 113.64 31.6361 113.639 31.6433C113.638 31.6506 113.636 31.6576 113.632 31.6639C113.407 32.1608 113.137 32.9153 113.234 33.0377C113.347 33.1803 113.738 33.1002 113.879 33.0568C113.886 33.054 113.893 33.0526 113.9 33.0528C113.908 33.0529 113.915 33.0546 113.922 33.0577C113.928 33.0608 113.934 33.0653 113.939 33.0708C113.944 33.0764 113.947 33.0829 113.949 33.0899C113.952 33.0969 113.952 33.1043 113.951 33.1116C113.95 33.1188 113.948 33.1259 113.944 33.1321C113.941 33.1384 113.935 33.1439 113.929 33.1481C113.923 33.1523 113.917 33.1552 113.909 33.1566C113.767 33.1996 113.62 33.222 113.472 33.2232Z" fill="#BD4A31"/>
<path d="M112.74 34.4486C112.74 34.4486 114.254 34.9105 116.251 33.8779C115.153 35.4608 113.716 36.4488 112.74 34.4486Z" fill="#BD4A31"/>
<path d="M115.951 31.2584C115.945 31.5212 115.835 31.7315 115.704 31.7287C115.574 31.7259 115.474 31.5105 115.479 31.2477C115.484 30.9849 115.595 30.7746 115.725 30.7774C115.856 30.7802 115.957 30.9962 115.951 31.2584Z" fill="#0E0E0E"/>
<path d="M111.408 31.0508C111.402 31.3136 111.291 31.5239 111.161 31.5211C111.032 31.5183 110.93 31.3029 110.936 31.0401C110.941 30.7773 111.052 30.567 111.182 30.5704C111.313 30.5737 111.414 30.7886 111.408 31.0508Z" fill="#0E0E0E"/>
<path d="M112.501 27.2911C112.501 27.2911 111.899 30.5956 109.101 30.8144C107.229 30.9611 109.952 25.3444 111.734 25.4527C112.785 25.517 112.501 27.2911 112.501 27.2911Z" fill="#0E0E0E"/>
<path d="M122.892 40.9628C122.892 40.9628 121.437 39.381 119.095 41.1404C117.177 42.5806 120.419 51.7601 120.419 51.7601L110.861 60.829L111.595 61.7516C111.595 61.7516 123.032 56.9583 124.489 53.1699C124.987 50.7699 124.016 42.637 122.892 40.9628Z" fill="#FFA599"/>
<path d="M111.8 52.6823L112.319 61.6486L111.086 61.8549C111.086 61.8549 108.416 55.7015 108.537 52.2261C108.644 49.1798 112.171 49.9078 111.8 52.6823Z" fill="#FFA599"/>
<path d="M112.445 61.0892C112.445 61.0892 113.799 61.8984 113.147 62.4465C112.495 62.9947 110.15 62.9625 110.82 61.5031C111.491 60.0437 112.445 61.0892 112.445 61.0892Z" fill="#FFA599"/>
<path d="M110.856 60.6762C110.751 60.6553 108.4 62.3223 109.107 63.0447C109.815 63.767 113.358 61.5976 112.658 60.7134C111.958 59.8292 110.856 60.6762 110.856 60.6762Z" fill="#FFA599"/>
</g>
<defs>
<clipPath id="clip0_229_4051">
<rect width="166.425" height="100" fill="white" transform="translate(0.787109 0.298828)"/>
</clipPath>
</defs>
</svg>
