<svg version="1.2" xmlns="http://www.w3.org/2000/svg" viewBox="0 0 160 52" width="160" height="52">
	<defs>
		<linearGradient id="g1" x1="2.9" y1="59.3" x2="24.9" y2="58.2" gradientUnits="userSpaceOnUse">
			<stop offset="0" stop-color="#9a8fdd"/>
			<stop offset=".5" stop-color="#b491d1"/>
			<stop offset="1" stop-color="#d794c6"/>
		</linearGradient>
		<linearGradient id="g2" x1="-3" y1="55.8" x2="28.8" y2="54.1" gradientUnits="userSpaceOnUse">
			<stop offset="0" stop-color="#9a8fdd"/>
			<stop offset=".5" stop-color="#b491d1"/>
			<stop offset="1" stop-color="#d794c6"/>
		</linearGradient>
		<linearGradient id="g3" x1="7.7" y1="52.2" x2="21.3" y2="51.5" gradientUnits="userSpaceOnUse">
			<stop offset="0" stop-color="#9a8fdd"/>
			<stop offset=".5" stop-color="#b491d1"/>
			<stop offset="1" stop-color="#d794c6"/>
		</linearGradient>
	</defs>
	<style>
		.s0 { fill: url(#g1) } 
		.s1 { fill: url(#g2) } 
		.s2 { fill: url(#g3) } 
		.s3 { fill: #1b183b } 
	</style>
	<path id="Layer" class="s0" d="m15.2 54c0 0-16.5-13.1 2.2-28.5 1.6-1.2 2.8-2.8 3.6-4.7 0.8-1.9 1-3.9 0.8-6 0 0-33 15.4-6.6 39.2z"/>
	<path id="Layer" class="s1" d="m14.2 18.8c11.3-8.3 10.2-18.8 10.2-18.8 0 0-43.1 18.8-14.8 49.2 0 0-14.7-15.2 4.6-30.4z"/>
	<path id="Layer" class="s2" d="m11.4 49.2c0 0-4.2-8.2 4.7-14 3.3-2.3 3.3-8.2 3.3-8.2 0 0-16.5 7-8 22.2z"/>
	<path id="Layer" fill-rule="evenodd" class="s3" d="m39.7 20.8v9.1q0 2-1 3-0.9 1.1-2.6 1.1-1.7 0-2.7-1.1-1-1.1-1-3h2.3q0 0.8 0.4 1.3 0.3 0.4 1 0.4 0.6 0 0.9-0.4 0.4-0.5 0.4-1.3v-9.1zm11.3 7.6q0 0.6-0.1 1h-6.7q0.1 1.2 0.7 1.8 0.6 0.6 1.5 0.6 1.3 0 1.9-1.2h2.5q-0.4 1.5-1.6 2.4-1.1 1-2.8 1-1.3 0-2.4-0.7-1-0.6-1.6-1.8-0.6-1.3-0.6-2.8 0-1.7 0.6-2.9 0.6-1.2 1.6-1.8 1.1-0.7 2.4-0.7 1.4 0 2.4 0.6 1.1 0.7 1.6 1.9 0.6 1.1 0.6 2.6zm-2.4-0.7q0-1-0.7-1.6-0.6-0.6-1.5-0.6-0.9 0-1.5 0.6-0.6 0.5-0.7 1.6zm12.7 0.7q0 0.6 0 1h-6.8q0.1 1.2 0.7 1.8 0.6 0.6 1.5 0.6 1.3 0 1.9-1.2h2.5q-0.4 1.5-1.6 2.4-1.1 1-2.7 1-1.4 0-2.4-0.7-1.1-0.6-1.7-1.8-0.6-1.3-0.6-2.8 0-1.7 0.6-2.9 0.6-1.2 1.6-1.8 1.1-0.7 2.5-0.7 1.3 0 2.3 0.6 1.1 0.7 1.6 1.9 0.6 1.1 0.6 2.6zm-2.4-0.7q0-1-0.7-1.6-0.6-0.6-1.5-0.6-0.9 0-1.5 0.6-0.6 0.5-0.7 1.6zm8 3.7l2.3-7.9h2.5l-3.4 10.3h-2.8l-3.5-10.3h2.6zm5.5-2.8q0-1.6 0.5-2.8 0.6-1.2 1.6-1.9 0.9-0.6 2.1-0.6 1.1 0 1.8 0.4 0.8 0.5 1.3 1.2v-1.5h2.3v10.4h-2.3v-1.5q-0.5 0.7-1.3 1.2-0.8 0.5-1.8 0.5-1.2 0-2.1-0.7-1-0.7-1.6-1.9-0.5-1.2-0.5-2.8zm7.3 0q0-0.9-0.4-1.6-0.3-0.7-0.9-1.1-0.5-0.3-1.2-0.3-0.6 0-1.2 0.3-0.5 0.4-0.9 1.1-0.3 0.6-0.3 1.6 0 0.9 0.3 1.6 0.4 0.7 0.9 1.1 0.6 0.4 1.2 0.4 0.7 0 1.2-0.4 0.6-0.4 0.9-1 0.4-0.7 0.4-1.7zm16.1-5.3q1.7 0 2.7 1.2 1.1 1.1 1.1 3.2v6.1h-2.4v-5.7q0-1.2-0.5-1.9-0.6-0.6-1.5-0.6-1 0-1.5 0.6-0.6 0.7-0.6 1.9v5.7h-2.3v-5.7q0-1.2-0.6-1.9-0.5-0.6-1.5-0.6-0.9 0-1.5 0.6-0.6 0.7-0.6 1.9v5.7h-2.3v-10.4h2.3v1.3q0.5-0.7 1.2-1 0.7-0.4 1.6-0.4 1.1 0 1.9 0.5 0.9 0.5 1.3 1.5 0.5-0.9 1.3-1.5 0.9-0.5 1.9-0.5zm19.7-2.6v13.1h-2.4v-5.6h-5v5.6h-2.3v-13.1h2.3v5.4h5v-5.4zm10.9 7.7q0 0.5-0.1 1h-6.7q0.1 1.1 0.7 1.8 0.6 0.6 1.5 0.6 1.3 0 1.9-1.3h2.5q-0.4 1.5-1.6 2.5-1.1 1-2.7 1-1.4 0-2.4-0.7-1.1-0.7-1.7-1.9-0.6-1.2-0.6-2.8 0-1.6 0.6-2.8 0.6-1.2 1.6-1.9 1.1-0.6 2.5-0.6 1.3 0 2.3 0.6 1.1 0.6 1.6 1.8 0.6 1.2 0.6 2.7zm-2.4-0.8q0-1-0.7-1.6-0.6-0.6-1.5-0.6-0.9 0-1.5 0.6-0.6 0.6-0.7 1.6zm3.5 1q0-1.6 0.6-2.8 0.5-1.2 1.5-1.9 1-0.6 2.2-0.6 1 0 1.8 0.4 0.7 0.5 1.2 1.2v-1.5h2.4v10.4h-2.4v-1.5q-0.4 0.7-1.2 1.2-0.8 0.5-1.9 0.5-1.1 0-2.1-0.7-1-0.7-1.5-1.9-0.6-1.2-0.6-2.8zm7.3 0q0-0.9-0.3-1.6-0.4-0.7-0.9-1.1-0.6-0.3-1.2-0.3-0.7 0-1.2 0.3-0.6 0.4-0.9 1.1-0.4 0.6-0.4 1.6 0 0.9 0.4 1.6 0.3 0.7 0.9 1.1 0.5 0.4 1.2 0.4 0.6 0 1.2-0.4 0.5-0.4 0.9-1 0.3-0.7 0.3-1.7zm7-8.6v13.8h-2.4v-13.8zm5.1 5.6v5q0 0.5 0.2 0.8 0.2 0.2 0.8 0.2h1v2.2h-1.4q-3 0-3-3.2v-5h-1.1v-2.2h1.1v-2.5h2.4v2.5h2v2.2zm9-2.3q1.1 0 1.9 0.5 0.8 0.5 1.2 1.5 0.5 1 0.5 2.4v6.1h-2.3v-5.7q0-1.3-0.6-1.9-0.5-0.7-1.5-0.7-0.9 0-1.5 0.7-0.6 0.6-0.6 1.9v5.7h-2.3v-13.8h2.3v4.7q0.5-0.7 1.2-1 0.8-0.4 1.7-0.4z"/>
</svg>