<?xml version="1.0" encoding="UTF-8"?>
<!DOCTYPE svg PUBLIC "-//W3C//DTD SVG 1.0//EN" "http://www.w3.org/TR/2001/REC-SVG-20010904/DTD/svg10.dtd">
<!-- Creator: CorelDRAW 2020 (64-Bit) -->
<svg xmlns="http://www.w3.org/2000/svg" xml:space="preserve" width="11.99mm" height="15.1036mm" version="1.0" style="shape-rendering:geometricPrecision; text-rendering:geometricPrecision; image-rendering:optimizeQuality; fill-rule:evenodd; clip-rule:evenodd"
viewBox="0 0 76.35 96.18"
 xmlns:xlink="http://www.w3.org/1999/xlink"
 xmlns:xodm="http://www.corel.com/coreldraw/odm/2003">
 <defs>
  <style type="text/css">
   <![CDATA[
    .str0 {stroke:black;stroke-width:1.79;stroke-miterlimit:10}
    .fil1 {fill:none;fill-rule:nonzero}
    .fil2 {fill:#2B2A29;fill-rule:nonzero}
    .fil0 {fill:url(#id0)}
   ]]>
  </style>
  <linearGradient id="id0" gradientUnits="userSpaceOnUse" x1="0.9" y1="48.09" x2="75.46" y2="48.09">
   <stop offset="0" style="stop-opacity:1; stop-color:#7A7B7E"/>
   <stop offset="0.341176" style="stop-opacity:1; stop-color:#FEFEFE"/>
   <stop offset="0.709804" style="stop-opacity:1; stop-color:#8F9193"/>
   <stop offset="0.921569" style="stop-opacity:1; stop-color:#C6C7C8"/>
   <stop offset="1" style="stop-opacity:1; stop-color:#FEFEFE"/>
  </linearGradient>
 </defs>
 <g id="Layer_x0020_1">
  <metadata id="CorelCorpID_0Corel-Layer"/>
  <g id="_2531508275680">
   <path class="fil0" d="M60.93 0.9l-45.51 0c-8.02,0 -14.52,6.5 -14.52,14.52l0 65.34c0,8.02 6.5,14.52 14.52,14.52l0 0 45.51 0c8.02,0 14.52,-6.5 14.52,-14.52l0 0 0 -65.34c0,-8.02 -6.5,-14.52 -14.52,-14.52z"/>
   <path class="fil1 str0" d="M61.46 95.28l-46.58 0c-7.73,0 -13.99,-6.26 -13.99,-13.99l0 -66.4c0,-7.73 6.26,-13.99 13.99,-13.99l46.58 0c7.73,0 13.99,6.27 13.99,13.99l0 66.4c0,7.73 -6.26,13.99 -13.99,13.99z"/>
   <path class="fil2" d="M10.39 77.13l0.85 0 1.81 6.93 1.56 -6.93 1.29 0 -2.16 8.83 -1.26 0 -1.63 -6.17 -1.7 6.17 -1.26 0 -2.16 -8.83 1.29 0 1.56 6.93 1.81 -6.93zm8.15 0l1.06 0 3.26 8.83 -1.34 0 -2.45 -7.13 -2.45 7.13 -1.34 0 3.26 -8.83zm-1.76 5.72l4.65 0 0 1.18 -4.65 0 0 -1.18zm7.95 -1.8l3.01 0c0.24,0 0.44,-0.06 0.63,-0.17 0.18,-0.11 0.32,-0.27 0.42,-0.48 0.1,-0.21 0.15,-0.45 0.15,-0.72l0 0c0,-0.27 -0.05,-0.51 -0.15,-0.72 -0.1,-0.21 -0.24,-0.37 -0.42,-0.48 -0.18,-0.11 -0.39,-0.17 -0.63,-0.17l-3.01 0 0 -1.18 2.96 0c0.51,0 0.96,0.11 1.35,0.32 0.39,0.21 0.69,0.51 0.9,0.9 0.21,0.39 0.32,0.83 0.32,1.34l0 0c0,0.51 -0.11,0.95 -0.32,1.34 -0.22,0.39 -0.52,0.68 -0.9,0.9 -0.39,0.21 -0.83,0.31 -1.34,0.31l-2.96 0 0 -1.18zm-0.54 -3.93l1.24 0 0 8.84 -1.24 0 0 -8.84zm2.95 4.83l1.23 -0.28 2.26 4.29 -1.47 0 -2.02 -4.01zm5.7 -0.9l3.01 0c0.24,0 0.44,-0.06 0.63,-0.17 0.18,-0.11 0.32,-0.27 0.42,-0.48 0.1,-0.21 0.15,-0.45 0.15,-0.72l0 0c0,-0.27 -0.05,-0.51 -0.15,-0.72 -0.1,-0.21 -0.24,-0.37 -0.42,-0.48 -0.18,-0.11 -0.39,-0.17 -0.63,-0.17l-3.01 0 0 -1.18 2.96 0c0.51,0 0.96,0.11 1.35,0.32 0.39,0.21 0.69,0.51 0.9,0.9 0.21,0.39 0.32,0.83 0.32,1.34l0 0c0,0.51 -0.11,0.95 -0.32,1.34 -0.22,0.39 -0.52,0.68 -0.9,0.9 -0.39,0.21 -0.83,0.31 -1.34,0.31l-2.96 0 0 -1.18zm-0.54 -3.93l1.24 0 0 8.84 -1.24 0 0 -8.84zm2.95 4.83l1.23 -0.28 2.26 4.29 -1.47 0 -2.02 -4.01zm6.89 -4.82l1.06 0 3.26 8.83 -1.34 0 -2.45 -7.13 -2.45 7.13 -1.34 0 3.26 -8.83zm-1.76 5.72l4.65 0 0 1.18 -4.65 0 0 -1.18zm7.4 -5.72l1.12 0 4.32 6.83 -0.15 0.16 0 -6.99 1.23 0 0 8.83 -1.14 0 -4.31 -6.72 0.15 -0.16 0 6.88 -1.23 0 0 -8.83zm10.98 0.72l1.24 0 0 8.11 -1.24 0 0 -8.11zm-2.5 -0.72l6.23 0 0 1.18 -6.23 0 0 -1.18zm11.34 5.24l0 3.59 -1.24 0 0 -3.59 -2.69 -5.24 1.38 0 1.93 3.99 1.93 -3.99 1.38 0 -2.69 5.24z"/>
   <path class="fil2" d="M6.31 65.41l1.11 0 0 7.93 -1.11 0 0 -7.93zm0.54 6.88l4.56 0 0 1.06 -4.56 0 0 -1.06zm0 -3.41l3.95 0 0 1.06 -3.95 0 0 -1.06zm0 -3.47l4.56 0 0 1.06 -4.56 0 0 -1.06zm9.62 4.45l-0.17 -0.27 -2.58 -4.17 1.25 0 1.91 3.23 0.18 0.29 2.71 4.41 -1.25 0 -2.06 -3.49zm-0.05 -1.05l1.99 -3.4 1.25 0 -2.62 4.29 -2.13 3.64 -1.25 0 2.76 -4.53zm8.03 -2.75l1.11 0 0 7.28 -1.11 0 0 -7.28zm-2.24 -0.65l5.6 0 0 1.06 -5.6 0 0 -1.06zm34.58 0l1.11 0 0 7.93 -1.11 0 0 -7.93zm0.54 6.88l4.56 0 0 1.06 -4.56 0 0 -1.06zm0 -3.41l3.95 0 0 1.06 -3.95 0 0 -1.06zm0 -3.47l4.56 0 0 1.06 -4.56 0 0 -1.06zm8.43 6.88l1.79 0c0.59,0 1.04,-0.15 1.36,-0.46 0.32,-0.3 0.48,-0.73 0.48,-1.29l0 -2.33c0,-0.55 -0.16,-0.98 -0.48,-1.29 -0.32,-0.3 -0.77,-0.45 -1.36,-0.45l-1.79 0 0 -1.06 1.76 0c0.64,0 1.18,0.11 1.63,0.33 0.45,0.22 0.79,0.55 1.03,0.97 0.24,0.43 0.35,0.94 0.35,1.54l0 2.25c0,0.6 -0.12,1.11 -0.35,1.54 -0.24,0.42 -0.58,0.75 -1.03,0.97 -0.45,0.22 -1,0.33 -1.63,0.33l-1.76 0 0 -1.06zm-0.75 -6.88l1.11 0 0 7.93 -1.11 0 0 -7.93zm-34.57 0l1.11 0 0 7.93 -1.11 0 0 -7.93zm0.54 6.88l4.56 0 0 1.06 -4.56 0 0 -1.06zm0 -3.41l3.96 0 0 1.06 -3.96 0 0 -1.06zm0 -3.47l4.56 0 0 1.06 -4.56 0 0 -1.06zm7.68 0l1.01 0 3.88 6.13 -0.13 0.14 0 -6.27 1.1 0 0 7.93 -1.02 0 -3.87 -6.04 0.13 -0.14 0 6.18 -1.1 0 0 -7.93zm10.12 6.88l1.79 0c0.59,0 1.04,-0.15 1.36,-0.46 0.32,-0.3 0.48,-0.73 0.48,-1.29l0 -2.33c0,-0.55 -0.16,-0.98 -0.48,-1.29 -0.32,-0.3 -0.77,-0.45 -1.36,-0.45l-1.79 0 0 -1.06 1.76 0c0.64,0 1.18,0.11 1.63,0.33 0.45,0.22 0.79,0.55 1.03,0.97 0.24,0.43 0.35,0.94 0.35,1.54l0 2.25c0,0.6 -0.12,1.11 -0.35,1.54 -0.24,0.42 -0.58,0.75 -1.03,0.97 -0.45,0.22 -1,0.33 -1.63,0.33l-1.76 0 0 -1.06zm-0.75 -6.88l1.11 0 0 7.93 -1.11 0 0 -7.93z"/>
   <path class="fil2" d="M25.69 48.24l-5.12 0 0 -30.91 -5.19 3.19 0 -5.29 5.19 -3.47 5.12 0 0 36.49zm30.89 0l-5.12 0 0 -30.91 -5.19 3.19 0 -5.29 5.19 -3.47 5.12 0 0 36.49zm-32.9 9.6l0 3.64 -1.26 0 0 -3.64 -2.73 -5.31 1.4 0 1.96 4.04 1.95 -4.04 1.4 0 -2.72 5.31zm3.71 -5.31l1.26 0 0 8.95 -1.26 0 0 -8.95zm0.61 7.75l5.14 0 0 1.19 -5.14 0 0 -1.19zm0 -3.85l4.46 0 0 1.19 -4.46 0 0 -1.19zm0 -3.91l5.14 0 0 1.19 -5.14 0 0 -1.19zm9.36 0l1.07 0 3.3 8.95 -1.35 0 -2.48 -7.22 -2.48 7.22 -1.35 0 3.3 -8.95zm-1.78 5.79l4.71 0 0 1.19 -4.71 0 0 -1.19zm8.05 -1.82l3.05 0c0.24,0 0.45,-0.06 0.63,-0.17 0.19,-0.12 0.33,-0.28 0.43,-0.49 0.1,-0.21 0.15,-0.45 0.15,-0.73l0 0c0,-0.28 -0.05,-0.52 -0.15,-0.73 -0.1,-0.21 -0.24,-0.38 -0.43,-0.49 -0.18,-0.12 -0.39,-0.17 -0.64,-0.17l-3.05 0 0 -1.2 3 0c0.52,0 0.97,0.11 1.36,0.32 0.39,0.21 0.7,0.52 0.91,0.91 0.22,0.39 0.32,0.84 0.32,1.36l0 0c0,0.51 -0.11,0.96 -0.32,1.36 -0.22,0.39 -0.52,0.69 -0.91,0.91 -0.39,0.21 -0.84,0.32 -1.36,0.32l-3 0 0 -1.19zm-0.55 -3.98l1.26 0 0 8.95 -1.26 0 0 -8.95zm2.99 4.89l1.25 -0.28 2.29 4.34 -1.49 0 -2.05 -4.06zm7.79 4.16c-0.43,0 -0.84,-0.04 -1.22,-0.12 -0.39,-0.08 -0.75,-0.2 -1.08,-0.37 -0.33,-0.17 -0.65,-0.37 -0.94,-0.62l0 0 0.78 -0.96 0 0c0.34,0.29 0.72,0.52 1.13,0.66 0.41,0.15 0.86,0.22 1.34,0.22 0.65,0 1.15,-0.12 1.51,-0.36 0.36,-0.24 0.54,-0.58 0.54,-1.02l0 -0.01c0,-0.31 -0.08,-0.56 -0.24,-0.74 -0.16,-0.18 -0.37,-0.32 -0.63,-0.41 -0.26,-0.09 -0.59,-0.17 -0.99,-0.24 -0.01,-0.01 -0.03,-0.01 -0.04,-0.01 -0.02,0 -0.03,-0 -0.04,-0.01l-0.09 -0.02c-0.6,-0.1 -1.09,-0.22 -1.46,-0.35 -0.38,-0.13 -0.7,-0.37 -0.96,-0.71 -0.27,-0.34 -0.4,-0.83 -0.4,-1.46l0 -0.01c0,-0.55 0.12,-1.03 0.37,-1.42 0.25,-0.39 0.61,-0.69 1.09,-0.89 0.48,-0.21 1.05,-0.31 1.72,-0.31 0.32,0 0.63,0.04 0.94,0.1 0.31,0.07 0.62,0.17 0.92,0.31 0.3,0.14 0.6,0.31 0.89,0.52l0 0 -0.71 1 0 0c-0.34,-0.25 -0.68,-0.44 -1.02,-0.56 -0.34,-0.12 -0.68,-0.19 -1.02,-0.19 -0.61,0 -1.09,0.12 -1.43,0.37 -0.34,0.24 -0.51,0.59 -0.51,1.04l0 0.01c0,0.31 0.09,0.55 0.26,0.72 0.17,0.18 0.39,0.31 0.65,0.39 0.26,0.08 0.62,0.17 1.09,0.26 0.02,0.01 0.03,0.01 0.05,0.01 0.01,0 0.03,0.01 0.05,0.01 0.02,0 0.04,0.01 0.07,0.01 0.03,0 0.05,0.01 0.07,0.01 0.54,0.11 0.99,0.24 1.36,0.4 0.36,0.15 0.67,0.4 0.91,0.73 0.24,0.34 0.37,0.8 0.37,1.39l0 0.01c0,0.55 -0.13,1.01 -0.39,1.4 -0.26,0.39 -0.63,0.68 -1.12,0.89 -0.49,0.2 -1.08,0.31 -1.78,0.31zm-10.66 -30.52l0 2.57 -10.74 0 0 -2.57 10.74 0zm-4.02 6.66l-2.7 0 0 -10.74 2.7 0 0 10.74z"/>
  </g>
 </g>
</svg>
