<?xml version="1.0" encoding="UTF-8"?>
<!DOCTYPE svg PUBLIC "-//W3C//DTD SVG 1.0//EN" "http://www.w3.org/TR/2001/REC-SVG-20010904/DTD/svg10.dtd">
<!-- Creator: CorelDRAW 2020 (64-Bit) -->
<svg xmlns="http://www.w3.org/2000/svg" xml:space="preserve" width="10.1707mm" height="12.812mm" version="1.0" style="shape-rendering:geometricPrecision; text-rendering:geometricPrecision; image-rendering:optimizeQuality; fill-rule:evenodd; clip-rule:evenodd"
viewBox="0 0 51.12 64.4"
 xmlns:xlink="http://www.w3.org/1999/xlink"
 xmlns:xodm="http://www.corel.com/coreldraw/odm/2003">
 <defs>
  <style type="text/css">
   <![CDATA[
    .str0 {stroke:black;stroke-width:1.2;stroke-miterlimit:10}
    .fil1 {fill:none;fill-rule:nonzero}
    .fil2 {fill:#2B2A29;fill-rule:nonzero}
    .fil0 {fill:url(#id0)}
   ]]>
  </style>
  <linearGradient id="id0" gradientUnits="userSpaceOnUse" x1="0.6" y1="32.2" x2="50.52" y2="32.2">
   <stop offset="0" style="stop-opacity:1; stop-color:#7A7B7E"/>
   <stop offset="0.341176" style="stop-opacity:1; stop-color:#FEFEFE"/>
   <stop offset="0.709804" style="stop-opacity:1; stop-color:#8F9193"/>
   <stop offset="0.921569" style="stop-opacity:1; stop-color:#C6C7C8"/>
   <stop offset="1" style="stop-opacity:1; stop-color:#FEFEFE"/>
  </linearGradient>
 </defs>
 <g id="Layer_x0020_1">
  <metadata id="CorelCorpID_0Corel-Layer"/>
  <g id="_2531867786288">
   <path class="fil0" d="M40.8 0.6l-30.47 0c-5.37,0 -9.72,4.35 -9.72,9.72l0 43.75c0,5.37 4.35,9.72 9.72,9.72l0 0 30.47 0c5.37,0 9.72,-4.35 9.72,-9.72l0 0 0 -43.75c0,-5.37 -4.35,-9.72 -9.72,-9.72z"/>
   <path class="fil1 str0" d="M41.15 63.8l-31.19 0c-5.17,0 -9.37,-4.19 -9.37,-9.37l0 -44.46c0,-5.17 4.19,-9.37 9.37,-9.37l31.19 0c5.17,0 9.37,4.2 9.37,9.37l0 44.46c0,5.18 -4.19,9.37 -9.37,9.37z"/>
   <path class="fil2" d="M6.95 51.64l0.57 0 1.21 4.64 1.04 -4.64 0.86 0 -1.44 5.91 -0.85 0 -1.09 -4.13 -1.14 4.13 -0.84 0 -1.44 -5.91 0.86 0 1.04 4.64 1.21 -4.64zm5.46 0l0.71 0 2.18 5.91 -0.9 0 -1.64 -4.77 -1.64 4.77 -0.9 0 2.18 -5.91zm-1.18 3.83l3.11 0 0 0.79 -3.11 0 0 -0.79zm5.32 -1.2l2.02 0c0.16,0 0.3,-0.04 0.42,-0.11 0.12,-0.08 0.22,-0.18 0.28,-0.32 0.07,-0.14 0.1,-0.3 0.1,-0.48l0 0c0,-0.18 -0.03,-0.34 -0.1,-0.48 -0.07,-0.14 -0.16,-0.25 -0.28,-0.32 -0.12,-0.08 -0.26,-0.11 -0.42,-0.11l-2.02 0 0 -0.79 1.98 0c0.34,0 0.64,0.07 0.9,0.21 0.26,0.14 0.46,0.34 0.6,0.6 0.14,0.26 0.21,0.56 0.21,0.9l0 0c0,0.34 -0.07,0.64 -0.22,0.9 -0.14,0.26 -0.35,0.46 -0.6,0.6 -0.26,0.14 -0.56,0.21 -0.9,0.21l-1.98 0 0 -0.79zm-0.36 -2.63l0.83 0 0 5.92 -0.83 0 0 -5.92zm1.97 3.23l0.83 -0.19 1.51 2.87 -0.98 0 -1.36 -2.69zm3.82 -0.61l2.02 0c0.16,0 0.3,-0.04 0.42,-0.11 0.12,-0.08 0.22,-0.18 0.28,-0.32 0.07,-0.14 0.1,-0.3 0.1,-0.48l0 0c0,-0.18 -0.03,-0.34 -0.1,-0.48 -0.07,-0.14 -0.16,-0.25 -0.28,-0.32 -0.12,-0.08 -0.26,-0.11 -0.42,-0.11l-2.02 0 0 -0.79 1.98 0c0.34,0 0.64,0.07 0.9,0.21 0.26,0.14 0.46,0.34 0.6,0.6 0.14,0.26 0.21,0.56 0.21,0.9l0 0c0,0.34 -0.07,0.64 -0.22,0.9 -0.14,0.26 -0.35,0.46 -0.6,0.6 -0.26,0.14 -0.56,0.21 -0.9,0.21l-1.98 0 0 -0.79zm-0.36 -2.63l0.83 0 0 5.92 -0.83 0 0 -5.92zm1.97 3.23l0.83 -0.19 1.51 2.87 -0.98 0 -1.36 -2.69zm4.62 -3.23l0.71 0 2.18 5.91 -0.9 0 -1.64 -4.77 -1.64 4.77 -0.9 0 2.18 -5.91zm-1.18 3.83l3.11 0 0 0.79 -3.11 0 0 -0.79zm4.96 -3.83l0.75 0 2.89 4.57 -0.1 0.11 0 -4.68 0.82 0 0 5.91 -0.76 0 -2.88 -4.5 0.1 -0.11 0 4.61 -0.82 0 0 -5.91zm7.35 0.48l0.83 0 0 5.43 -0.83 0 0 -5.43zm-1.67 -0.48l4.17 0 0 0.79 -4.17 0 0 -0.79zm7.59 3.51l0 2.4 -0.83 0 0 -2.4 -1.8 -3.51 0.92 0 1.29 2.67 1.29 -2.67 0.92 0 -1.8 3.51z"/>
   <path class="fil2" d="M16.34 46.14l0 3.02 -1.04 0 0 -3.02 -2.26 -4.41 1.16 0 1.63 3.35 1.62 -3.35 1.16 0 -2.26 4.41zm3.08 -4.41l1.04 0 0 7.43 -1.04 0 0 -7.43zm0.51 6.44l4.27 0 0 0.99 -4.27 0 0 -0.99zm0 -3.19l3.7 0 0 0.99 -3.7 0 0 -0.99zm0 -3.25l4.27 0 0 0.99 -4.27 0 0 -0.99zm7.77 0l0.89 0 2.74 7.43 -1.13 0 -2.06 -6 -2.06 6 -1.12 0 2.74 -7.43zm-1.48 4.81l3.91 0 0 0.99 -3.91 0 0 -0.99zm6.69 -1.51l2.53 0c0.2,0 0.37,-0.05 0.53,-0.14 0.15,-0.1 0.27,-0.23 0.36,-0.41 0.08,-0.18 0.12,-0.38 0.12,-0.61l0 0c0,-0.23 -0.04,-0.43 -0.12,-0.6 -0.08,-0.18 -0.2,-0.31 -0.35,-0.41 -0.15,-0.1 -0.33,-0.14 -0.53,-0.14l-2.53 0 0 -0.99 2.49 0c0.43,0 0.81,0.09 1.13,0.27 0.32,0.18 0.58,0.43 0.76,0.75 0.18,0.32 0.27,0.7 0.27,1.13l0 0c0,0.43 -0.09,0.8 -0.27,1.13 -0.18,0.32 -0.43,0.58 -0.76,0.75 -0.33,0.18 -0.7,0.26 -1.13,0.26l-2.49 0 0 -0.99zm-0.46 -3.3l1.04 0 0 7.44 -1.04 0 0 -7.44zm2.48 4.06l1.04 -0.23 1.9 3.61 -1.24 0 -1.7 -3.37z"/>
   <polygon class="fil2" points="29.73,38.17 25.48,38.17 25.48,12.5 21.17,15.14 21.17,10.75 25.48,7.86 29.73,7.86 "/>
  </g>
 </g>
</svg>
