<?xml version="1.0" encoding="UTF-8"?>
<!DOCTYPE svg PUBLIC "-//W3C//DTD SVG 1.0//EN" "http://www.w3.org/TR/2001/REC-SVG-20010904/DTD/svg10.dtd">
<!-- Creator: CorelDRAW 2020 (64-Bit) -->
<svg xmlns="http://www.w3.org/2000/svg" xml:space="preserve" width="18.6214mm" height="21.862mm" version="1.0" style="shape-rendering:geometricPrecision; text-rendering:geometricPrecision; image-rendering:optimizeQuality; fill-rule:evenodd; clip-rule:evenodd"
viewBox="0 0 201.53 236.6"
 xmlns:xlink="http://www.w3.org/1999/xlink"
 xmlns:xodm="http://www.corel.com/coreldraw/odm/2003">
 <defs>
  <style type="text/css">
   <![CDATA[
    .fil0 {fill:url(#id0)}
   ]]>
  </style>
  <linearGradient id="id0" gradientUnits="userSpaceOnUse" x1="-0" y1="118.3" x2="201.53" y2="118.3">
   <stop offset="0" style="stop-opacity:1; stop-color:#7A7B7E"/>
   <stop offset="0.341176" style="stop-opacity:1; stop-color:#FEFEFE"/>
   <stop offset="0.709804" style="stop-opacity:1; stop-color:#8F9193"/>
   <stop offset="0.921569" style="stop-opacity:1; stop-color:#C6C7C8"/>
   <stop offset="1" style="stop-opacity:1; stop-color:#FEFEFE"/>
  </linearGradient>
 </defs>
 <g id="Layer_x0020_1">
  <metadata id="CorelCorpID_0Corel-Layer"/>
  <path class="fil0" d="M69.61 141.88l64.84 -0.9 -47.97 42.49c-0.95,0.84 -1.81,0.5 -1.92,-0.77l-0.98 -11.09c-15.39,3.34 -30.97,2.8 -43.93,-1.54 -16.92,-5.48 -27.7,-17.9 -34.14,-31.51 -9.57,-20.26 -5.56,-43.94 3.53,-58.09 3.19,-5.08 7.17,-10.39 11.59,-12.9 -1.35,4.75 -1.12,7.08 -1.82,12.05 -0.52,0.93 -1.2,3.25 -1.65,4.19 -6.36,12.86 -7.77,33.61 -1.9,45.5 7.14,14.46 20.37,21.98 33.49,24.67 8.3,1.77 18.98,0.97 27.64,-0.96l-7.62 -9.32c-0.8,-0.99 -0.43,-1.8 0.84,-1.81zm112.79 -9.8c-0.25,0.4 -0.67,0.62 -1.1,0.62l-0.66 -0.19c-4.92,-2.92 -10.58,-5.52 -16.82,-7.73 -0.63,-0.22 -0.98,-0.88 -0.83,-1.53 2.21,-9.15 3.49,-18.85 3.83,-28.83 0.02,-0.7 0.6,-1.25 1.3,-1.25l25.04 0c0.36,0 0.7,0.15 0.95,0.41 0.24,0.26 0.37,0.61 0.35,0.97 -0.88,13.26 -5.04,26.24 -12.05,37.53zm-65.43 -37.61c0,-0.71 0.58,-1.3 1.3,-1.3l39.12 0c0.35,0 0.69,0.14 0.93,0.4 0.25,0.26 0.38,0.6 0.36,0.95 -0.35,9.02 -1.55,17.83 -3.57,26.17 -0.08,0.34 -0.3,0.63 -0.6,0.81l-0.66 0.19 -0.33 -0.04c-11.07,-2.88 -22.95,-4.53 -35.3,-4.9 -0.7,-0.02 -1.26,-0.59 -1.26,-1.3l0 -20.97zm0 -31.69c0,-0.7 0.56,-1.27 1.26,-1.3 12.36,-0.37 24.23,-2.02 35.3,-4.91l0.33 -0.04 0.66 0.18c0.3,0.18 0.52,0.47 0.6,0.81 2.02,8.35 3.22,17.15 3.57,26.17 0.01,0.35 -0.11,0.69 -0.36,0.95 -0.24,0.25 -0.58,0.4 -0.93,0.4l-39.12 0c-0.72,0 -1.3,-0.58 -1.3,-1.3l0 -20.97zm0 -53.48c0,-0.39 0.18,-0.77 0.49,-1.02 0.23,-0.18 0.52,-0.28 0.81,-0.28l0.29 0.03c13.67,3.11 26.22,17.74 33.55,39.13 0.12,0.34 0.09,0.72 -0.09,1.04 -0.17,0.32 -0.47,0.55 -0.82,0.64 -10.26,2.64 -21.32,4.16 -32.89,4.52l-0.04 0c-0.34,0 -0.66,-0.13 -0.9,-0.37 -0.25,-0.24 -0.39,-0.58 -0.39,-0.93l0 -42.77zm28.29 5.85c0.25,-0.32 0.64,-0.5 1.03,-0.5l0.54 0.12c11.26,5.15 21.36,12.93 29.22,22.49 0.24,0.29 0.34,0.68 0.27,1.05 -0.07,0.37 -0.29,0.7 -0.63,0.89 -4.15,2.41 -8.84,4.57 -13.94,6.41l-0.44 0.08 -0.56 -0.13c-0.31,-0.15 -0.55,-0.43 -0.66,-0.76 -3.71,-11.09 -8.7,-20.52 -14.81,-28.04 -0.38,-0.47 -0.39,-1.14 -0.02,-1.61zm36.04 30.37c0.44,0 0.86,0.22 1.1,0.61 7,11.29 11.17,24.26 12.05,37.53 0.02,0.36 -0.1,0.71 -0.35,0.97 -0.24,0.26 -0.59,0.41 -0.95,0.41l-25.04 0c-0.7,0 -1.27,-0.55 -1.3,-1.25 -0.34,-9.98 -1.62,-19.68 -3.83,-28.83 -0.15,-0.65 0.21,-1.31 0.83,-1.53 6.25,-2.21 11.9,-4.82 16.82,-7.73l0.66 -0.18zm-72.45 6.54c0,0.35 -0.14,0.69 -0.39,0.93 -0.24,0.24 -0.57,0.37 -0.9,0.37l-0.04 0c-11.56,-0.37 -22.62,-1.89 -32.89,-4.53 -0.35,-0.09 -0.65,-0.32 -0.82,-0.64 -0.17,-0.32 -0.2,-0.69 -0.09,-1.04 7.34,-21.39 19.88,-36.02 33.55,-39.12l0.29 -0.03c0.29,0 0.58,0.1 0.81,0.28 0.31,0.25 0.49,0.62 0.49,1.02l0 42.77zm0 31.69c0,0.71 -0.58,1.3 -1.3,1.3l-39.12 0c-0.35,0 -0.69,-0.14 -0.94,-0.4 -0.24,-0.26 -0.38,-0.6 -0.36,-0.95 0.35,-9.02 1.55,-17.83 3.57,-26.18 0.08,-0.34 0.29,-0.63 0.59,-0.81l0.67 -0.18 0.33 0.04c11.08,2.89 22.95,4.54 35.3,4.91 0.7,0.02 1.26,0.59 1.26,1.3l0 20.97zm0 31.69c0,0.7 -0.56,1.27 -1.26,1.3 -12.34,0.37 -24.22,2.02 -35.3,4.91l-0.33 0.04 -0.67 -0.19c-0.3,-0.18 -0.51,-0.47 -0.59,-0.81 -2.02,-8.35 -3.22,-17.16 -3.57,-26.18 -0.02,-0.35 0.12,-0.69 0.36,-0.95 0.24,-0.26 0.58,-0.4 0.94,-0.4l39.12 0c0.72,0 1.3,0.58 1.3,1.3l0 20.97zm-64.34 17.25c-0.44,0 -0.86,-0.22 -1.1,-0.62 -7,-11.28 -11.16,-24.26 -12.04,-37.52 -0.02,-0.36 0.1,-0.71 0.35,-0.97 0.25,-0.26 0.59,-0.41 0.95,-0.41l25.04 0c0.7,0 1.27,0.55 1.3,1.25 0.33,9.98 1.62,19.68 3.83,28.83 0.16,0.65 -0.2,1.31 -0.83,1.53 -6.25,2.21 -11.91,4.81 -16.82,7.73l-0.66 0.18zm-1.1 -86.55c0.25,-0.4 0.67,-0.61 1.1,-0.61l0.66 0.18c4.91,2.91 10.57,5.51 16.82,7.73 0.63,0.22 0.98,0.88 0.83,1.53 -2.21,9.15 -3.49,18.85 -3.83,28.83 -0.02,0.7 -0.6,1.25 -1.3,1.25l-25.04 0c-0.36,0 -0.7,-0.15 -0.95,-0.41 -0.24,-0.26 -0.37,-0.61 -0.35,-0.97 0.88,-13.26 5.04,-26.24 12.04,-37.52zm6.36 -8.89c7.86,-9.56 17.97,-17.34 29.23,-22.49l0.54 -0.12c0.39,0 0.77,0.18 1.03,0.5 0.37,0.48 0.36,1.14 -0.02,1.61 -6.11,7.51 -11.09,16.94 -14.8,28.03 -0.11,0.33 -0.35,0.6 -0.67,0.75l-0.56 0.13 -0.44 -0.08c-5.14,-1.86 -9.83,-4.01 -13.95,-6.4 -0.33,-0.19 -0.56,-0.52 -0.63,-0.89 -0.07,-0.38 0.03,-0.76 0.28,-1.06zm63.14 -37.26c-48.94,0 -88.63,39.68 -88.63,88.63 0,14.39 6.03,33.1 15.03,52.36 0.7,1.49 7.89,4.57 12.32,0.9 30.44,-25.24 102.2,-17.15 118.4,-0.95 8.97,8.96 -21.7,39.43 -51.93,52.79 -20.58,9.1 -49.55,-2.18 -47.23,1.09 17.05,24.11 34.1,41.79 42.04,41.79 17.31,0 88.63,-99.03 88.63,-147.98 0,-48.95 -39.68,-88.63 -88.63,-88.63z"/>
 </g>
</svg>
