<svg width="124" height="101" viewBox="0 0 124 101" fill="none" xmlns="http://www.w3.org/2000/svg">
<g clip-path="url(#clip0_368_1227)">
<path d="M44.2618 86.9546C41.4745 86.9844 38.6903 86.7589 35.9441 86.281C30.3265 85.2396 27.0975 83.0842 23.7399 80.5831C18.6049 76.7529 13.317 72.4784 9.41652 67.1524C5.12595 61.2916 3.12945 54.8014 3.78691 48.8783C4.55294 42.0624 7.83822 35.0676 13.5503 28.093C16.2987 24.7474 19.8434 22.6383 23.2734 20.6056C26.0882 18.9328 28.9935 17.2037 31.5168 14.7749C39.5752 7.05229 53.1928 -2.66684 78.2727 2.05802C85.8184 3.47949 92.5438 7.39208 96.8766 12.7643C100.319 14.3728 102.695 17.9918 104.686 21.3616C106.429 24.3151 107.428 27.2666 108.395 30.1216C109.803 34.2554 111.24 38.5299 114.966 43.0094C115.253 43.3552 115.551 43.7091 115.852 44.069C118.882 47.674 122.65 52.1616 123.4 56.6894C124.317 62.2305 122.485 67.5847 118.732 70.3311C116.186 72.1929 112.585 73.0434 108.321 72.7921C106.175 72.6634 104.024 72.2955 101.943 71.9396C100.512 71.6943 99.0299 71.441 97.5622 71.2681C89.3657 70.3251 81.0719 71.788 73.6926 75.4782C69.0824 77.8065 68.9296 79.7346 68.8049 81.2868C68.6702 82.9817 68.5636 84.3207 62.9461 85.2014C55.4587 86.3735 49.3345 86.9546 44.2618 86.9546ZM65.6563 1.01654C48.478 1.01654 38.224 8.63059 31.6635 14.9177C29.1202 17.3585 26.1988 19.0936 23.3759 20.7725C19.8052 22.8956 16.4314 24.9022 13.7151 28.2116C8.02721 35.1642 4.75802 42.1187 3.98797 48.9024C3.3285 54.7733 5.31293 61.2132 9.57334 67.0338C13.4538 72.3357 18.7295 76.6021 23.8484 80.4222C31.0121 85.7643 37.6008 88.9692 62.9039 85.0023C68.3646 84.1458 68.4611 82.9395 68.5938 81.2707C68.7205 79.6622 68.8793 77.6778 73.5901 75.2993C81.0054 71.5934 89.3391 70.1263 97.5742 71.0771C99.046 71.25 100.53 71.5033 101.965 71.7506C104.04 72.1045 106.188 72.4724 108.321 72.5991C112.543 72.8484 116.094 72.012 118.601 70.1763C122.292 67.4761 124.094 62.1964 123.189 56.7296C122.449 52.2561 118.699 47.7926 115.688 44.2077C115.384 43.8458 115.084 43.492 114.799 43.1461C111.049 38.6384 109.595 34.3459 108.192 30.196C107.229 27.349 106.232 24.4076 104.501 21.4721C102.512 18.1044 100.315 14.7468 97.142 13.1242C97.7635 13.9206 98.3343 14.7553 98.8509 15.6234L98.68 15.7259C98.0949 14.7476 97.4426 13.8111 96.7278 12.9232C96.1323 12.6551 95.5094 12.4529 94.87 12.32L94.9102 12.1189C95.4399 12.2296 95.9581 12.3891 96.4584 12.5954C92.1497 7.41419 85.5832 3.64838 78.2244 2.2631C74.0828 1.45847 69.8753 1.04115 65.6563 1.01654Z" fill="#EDF6FB"/>
<path d="M9.81679 62.3042C5.79564 53.6588 6.10325 43.3787 9.84092 34.6186C13.8158 25.2916 22.0813 18.0193 31.3299 12.9124C47.5955 3.91913 67.7395 0.995756 85.9754 5.64622C90.6821 6.85256 95.3125 8.55954 99.1869 11.3341C103.061 14.1087 106.141 18.0294 107.076 22.5089C107.722 25.6112 107.332 28.8261 107.78 31.9586C109.559 44.394 122.033 50.1825 121.866 62.7204C121.764 70.5617 116.035 76.0465 108.029 80.9202C101.006 85.1987 28.863 103.312 9.81679 62.3042Z" fill="#D3DAFA"/>
<path d="M113.963 78.8214L113.233 79.501C112.314 80.3575 111.468 81.1577 110.788 81.8755C104.652 88.3535 102.394 100.035 102.394 100.035H98.7812C98.7812 100.035 98.9461 98.4406 99.4307 95.9656C100.269 91.669 102.06 84.5978 105.593 77.9367C105.724 77.6874 105.856 77.4421 105.995 77.1948C107.805 73.9196 110.049 70.7751 112.831 68.1472C113.172 67.8368 113.541 67.5601 113.935 67.3209C114.069 67.2351 114.212 67.1507 114.363 67.0676C116.456 65.8853 119.653 64.9585 121.026 66.967C121.05 66.9992 121.07 67.0334 121.093 67.0656C123.077 70.2664 118.079 74.9912 113.963 78.8214Z" fill="#78BF84"/>
<path d="M116.633 53.0292C116.577 53.1719 116.518 53.3147 116.458 53.4614C115.419 55.9525 113.613 59.0367 110.839 62.8126C107.897 66.8076 104.765 74.5021 102.692 83.5517C102.691 83.5564 102.691 83.5611 102.692 83.5658C102.607 83.9377 102.523 84.3117 102.442 84.6877L102.428 84.752C101.629 88.45 101.05 92.1922 100.695 95.959C100.581 97.1975 100.494 98.7999 100.43 100.036C100.43 100.141 100.43 99.9278 100.416 100.036H94.9269C94.553 93.5744 95.1441 70.3985 100.305 57.8947C100.366 57.746 100.428 57.5992 100.49 57.4544C100.748 56.8593 101.016 56.293 101.294 55.7555C108.488 42.2263 114.379 44.0539 116.189 45.5016C116.249 45.5498 116.305 45.596 116.358 45.6443L116.372 45.6584C117.767 46.9451 118.103 49.2875 116.633 53.0292Z" fill="#78BF84"/>
<path d="M111.221 95.2993C110.093 96.9461 108.872 98.5276 107.565 100.036H101.793C101.823 99.9678 106.238 84.6814 112.503 85.8335C115.557 86.3924 113.643 91.7385 111.221 95.2993Z" fill="#78BF84"/>
<path d="M116.379 45.6627C113.321 48.1894 110.685 51.1856 108.568 54.5394L108.421 54.7686C102.122 64.7048 99.703 77.2287 98.8324 86.9639C98.8324 87.0464 98.8183 87.1268 98.8123 87.2092C98.439 91.4735 98.3101 95.7557 98.4263 100.035H98.189C98.0704 96.0578 98.0543 85.5947 100.469 74.5828C101.184 71.2819 102.12 68.0328 103.272 64.8577L103.362 64.6124C104.109 62.5865 104.97 60.6043 105.94 58.6751C108.682 53.2466 112.132 48.8233 116.194 45.5059C116.254 45.5541 116.31 45.6004 116.363 45.6486L116.379 45.6627Z" fill="#AECEEA"/>
<path d="M116.631 53.0293C116.575 53.172 116.516 53.3148 116.456 53.4616C114.749 54.6217 111.79 54.8207 109.956 54.8207C109.188 54.8207 108.619 54.7845 108.422 54.7705H108.355L108.376 54.5312L108.577 54.5453C109.606 54.5996 114.566 54.7865 116.631 53.0293Z" fill="#AECEEA"/>
<path d="M103.522 64.7635L103.361 64.9405L103.274 64.86C101.179 62.8756 100.494 59.2666 100.305 57.8954C100.365 57.7466 100.427 57.5998 100.49 57.4551C100.574 58.2352 101.113 62.4051 103.365 64.6147C103.415 64.667 103.467 64.7153 103.522 64.7635Z" fill="#AECEEA"/>
<path d="M102.425 84.7416C102.046 85.3977 101.524 85.9597 100.897 86.3855C100.271 86.8113 99.5558 87.0899 98.8063 87.2005H98.7681L98.75 86.9612L98.8264 86.9512C99.2969 86.8868 101.764 86.4023 102.683 83.5332L102.425 84.7416Z" fill="#AECEEA"/>
<path d="M112.96 85.9614C111.83 86.8179 110.712 88.1429 109.659 89.6809L109.512 89.8961C108.056 92.0574 106.729 94.6109 105.663 96.8848L105.559 97.108C105.072 98.1555 104.642 99.1849 104.282 100.035C104.282 100.049 104.27 100.019 104.264 100.035H104.043C104.968 97.8379 106.373 94.6511 108.026 91.8242L108.207 91.5186C109.582 89.2085 111.118 87.1094 112.686 85.8689C112.78 85.8937 112.871 85.9245 112.96 85.9614Z" fill="#AECEEA"/>
<path d="M110.835 95.8574C110.684 96.0705 110.533 96.2796 110.381 96.4867C109.359 97.11 108.169 97.2688 107.218 97.2688C106.657 97.2694 106.098 97.2155 105.547 97.108L105.469 97.0899L105.525 96.8587L105.652 96.8848C106.273 97.0075 109.05 97.4397 110.835 95.8574Z" fill="#AECEEA"/>
<path d="M114.076 88.2246C114.076 88.3814 114.06 88.5403 114.04 88.7051C113.187 89.7808 111.762 90.002 110.732 90.002C110.319 90.0036 109.907 89.9679 109.5 89.8954C109.509 89.8163 109.523 89.7378 109.54 89.6602L109.647 89.6803C110.224 89.7687 112.992 90.1125 114.076 88.2246Z" fill="#AECEEA"/>
<path d="M108.196 91.517C108.226 91.6778 108.249 91.7723 108.251 91.7783L108.017 91.8366C108.018 91.832 108.018 91.8272 108.017 91.8226C107.963 91.6014 107.436 89.2631 108.448 87.3088C108.649 87.1339 108.834 86.971 109.033 86.8223C107.802 88.477 108.066 90.7509 108.198 91.5149L108.196 91.517Z" fill="#AECEEA"/>
<path d="M54.4109 100.096H50.5204C49.9172 96.0527 48.5742 90.1175 45.5885 85.7927C45.0396 84.9885 44.3399 84.0958 43.5779 83.1287C43.3782 82.8794 43.1771 82.6241 42.9747 82.3627C39.5567 78.042 35.4371 72.724 37.8458 69.9253C37.8759 69.8971 37.898 69.867 37.9242 69.8408C39.5527 68.1037 42.5063 69.4809 44.358 70.9346C44.4887 71.0391 44.6154 71.1356 44.734 71.2442C45.0791 71.5356 45.3956 71.8595 45.679 72.2113C47.967 75.1688 49.6659 78.5466 50.9266 81.9847C51.0211 82.2441 51.1135 82.5034 51.202 82.7628C53.4337 89.2007 54.1797 95.7592 54.4109 100.096Z" fill="#78BF84"/>
<path d="M42.9211 95.2472C44.0249 96.8588 45.2198 98.4061 46.4999 99.8815H52.1496C52.1194 99.8152 47.7987 84.8545 41.6665 85.9804C38.6788 86.5293 40.5506 91.7608 42.9211 95.2472Z" fill="#78BF84"/>
<path d="M41.2344 86.1082C42.3402 86.9486 43.4339 88.2434 44.4654 89.7473L44.6081 89.9584C46.0336 92.0755 47.3325 94.5827 48.3759 96.7944C48.4101 96.8667 48.4443 96.9391 48.4765 97.0115C48.955 98.0369 49.3752 99.0442 49.725 99.8766C49.725 99.8906 49.7391 99.8625 49.7451 99.8766H49.9603C49.0555 97.7253 47.6803 94.6069 46.0638 91.8343L45.8848 91.5327C44.5398 89.2728 43.0359 87.218 41.5018 86.0056C41.41 86.0324 41.3205 86.0667 41.2344 86.1082Z" fill="#AECEEA"/>
<path d="M43.3047 95.8027C43.4515 96.0038 43.6002 96.2169 43.749 96.42C44.7543 97.0232 45.9124 97.186 46.8433 97.186C47.3921 97.1867 47.9396 97.1335 48.4779 97.0272L48.5563 97.0091L48.5 96.7839L48.3774 96.81C47.7682 96.9226 45.0519 97.3448 43.3047 95.8027Z" fill="#AECEEA"/>
<path d="M40.1289 88.3262C40.1289 88.477 40.145 88.6338 40.1651 88.7946C40.9975 89.8482 42.3948 90.0633 43.4021 90.0633C43.8066 90.0651 44.2104 90.0301 44.6085 89.9588C44.599 89.8817 44.5856 89.8052 44.5683 89.7295L44.4657 89.7477C43.8987 89.8401 41.1804 90.1719 40.1289 88.3262Z" fill="#AECEEA"/>
<path d="M45.8828 91.5455C45.8547 91.7043 45.8326 91.7968 45.8305 91.8008L46.0577 91.8591C46.0569 91.8551 46.0569 91.851 46.0577 91.847C46.11 91.6279 46.6267 89.3398 45.6355 87.4238C45.4479 87.2522 45.2569 87.0934 45.0625 86.9473C46.2688 88.5678 46.0095 90.7915 45.8788 91.5414L45.8828 91.5455Z" fill="#AECEEA"/>
<path d="M52.2113 100.099H51.9861C51.218 93.9911 49.997 88.7146 48.3228 84.2699L48.2323 84.0367C45.7312 77.5043 42.2408 72.8137 37.7773 70.029L37.8397 69.9285L37.902 69.834L37.9181 69.844C40.3308 71.358 42.4801 73.4289 44.3318 76.0306L44.4987 76.2658C45.7983 78.1566 46.903 80.1741 47.796 82.2875C48.4369 83.785 48.9966 85.3159 49.4729 86.8736C49.503 86.9601 49.5292 87.0425 49.5533 87.129C50.7234 90.9229 51.6061 95.2678 52.2113 100.099Z" fill="#AECEEA"/>
<path d="M42.9766 82.3652L43.5797 83.1313C44.466 83.6575 45.4494 83.9994 46.4709 84.1366C47.084 84.2324 47.7044 84.2728 48.3247 84.2572H48.4011L48.387 84.024H48.2362C47.5466 84.0421 44.6574 83.9777 42.9766 82.3652Z" fill="#AECEEA"/>
<path d="M44.3396 76.0286C44.3054 76.1311 44.2833 76.1894 44.2812 76.1934L44.4984 76.2819C44.4981 76.2759 44.4981 76.2698 44.4984 76.2638C44.6029 76.0004 45.5238 73.5314 44.7256 71.2374C44.607 71.1348 44.4823 71.0363 44.3516 70.9277C45.2725 72.9846 44.5627 75.3872 44.3396 76.0286Z" fill="#AECEEA"/>
<path d="M49.3516 87.0007L49.5064 87.1756C49.5064 87.1756 49.5285 87.1575 49.5627 87.1233C49.8542 86.8318 51.2053 85.344 51.1993 82.7644C51.1081 82.5057 51.0156 82.2464 50.9218 81.9863C51.2194 84.7468 49.9165 86.4096 49.4843 86.868C49.4426 86.9147 49.3983 86.959 49.3516 87.0007Z" fill="#AECEEA"/>
<path d="M100.85 100.037H100.617C102.803 90.9472 105.656 83.4779 109.098 77.985C112.455 72.6268 116.471 68.9173 121.037 66.959L121.131 67.1781C111.969 71.1068 105.145 82.175 100.85 100.037Z" fill="#AECEEA"/>
<path d="M113.966 78.8223L113.238 79.4998C112.257 79.8984 111.205 80.0927 110.146 80.0708C109.512 80.0726 108.88 80.0167 108.256 79.904L108.18 79.8899L108.23 79.6567L108.383 79.6848C109.084 79.8014 112.012 80.1874 113.966 78.8223Z" fill="#AECEEA"/>
<path d="M113.575 72.2095C113.593 72.3181 113.607 72.3804 113.609 72.3844L113.376 72.4387C113.376 72.432 113.376 72.4253 113.376 72.4186C113.313 72.1371 112.772 69.4993 113.93 67.3178C114.064 67.232 114.207 67.1476 114.359 67.0645C113.108 68.9886 113.45 71.5259 113.575 72.2095Z" fill="#AECEEA"/>
<path d="M106.794 82.5013L106.611 82.6541C106.593 82.6344 106.577 82.6135 106.562 82.5918C106.313 82.252 105.181 80.539 105.593 77.9353C105.724 77.686 105.857 77.4407 105.995 77.1934C105.264 79.9338 106.325 81.8177 106.683 82.3465C106.749 82.447 106.792 82.4993 106.794 82.5013Z" fill="#AECEEA"/>
<path d="M97.4383 15.2081V97.8609C97.4383 98.4155 97.218 98.9473 96.8258 99.3394C96.4337 99.7316 95.9018 99.9519 95.3473 99.9519H54.7196C54.1671 99.9487 53.6383 99.727 53.2488 99.3352C52.8593 98.9434 52.6406 98.4134 52.6406 97.8609V15.2081C52.6404 14.9337 52.6942 14.662 52.7991 14.4084C52.904 14.1548 53.0579 13.9244 53.2519 13.7304C53.4459 13.5364 53.6763 13.3825 53.9299 13.2776C54.1834 13.1727 54.4552 13.1189 54.7296 13.1191H95.3473C95.6218 13.1186 95.8938 13.1723 96.1476 13.277C96.4014 13.3818 96.632 13.5356 96.8263 13.7297C97.0205 13.9238 97.1746 14.1542 97.2796 14.4079C97.3846 14.6616 97.4385 14.9336 97.4383 15.2081Z" fill="#363347"/>
<path d="M95.9559 15.2082V97.8609C95.9559 98.4155 95.7356 98.9473 95.3435 99.3395C94.9513 99.7316 94.4195 99.9519 93.8649 99.9519H53.2452C52.691 99.9514 52.1597 99.7308 51.768 99.3387C51.3763 98.9467 51.1563 98.4151 51.1563 97.8609V15.2082C51.156 14.9337 51.2098 14.662 51.3147 14.4084C51.4196 14.1549 51.5735 13.9245 51.7675 13.7304C51.9615 13.5364 52.1919 13.3825 52.4455 13.2776C52.6991 13.1728 52.9708 13.1189 53.2452 13.1192H93.8589C94.1339 13.1178 94.4066 13.1709 94.6611 13.2753C94.9156 13.3797 95.1469 13.5334 95.3418 13.7276C95.5367 13.9217 95.6913 14.1525 95.7967 14.4066C95.9021 14.6606 95.9562 14.9331 95.9559 15.2082Z" fill="#020A15"/>
<path d="M91.055 92.1814H56.0488C54.5047 92.1814 53.2461 90.8525 53.2461 89.2219V22.3521C53.2461 20.7196 54.5047 19.3926 56.0488 19.3926H91.055C92.5991 19.3926 93.8577 20.7196 93.8577 22.3521V89.2299C93.8597 90.8605 92.5991 92.1814 91.055 92.1814Z" fill="#EEF6FB"/>
<g opacity="0.77">
<path d="M75.7414 19.4004L59.3793 92.1832C59.3793 92.1832 55.8447 92.1832 55.7422 92.1651L72.1043 19.4004H75.7414Z" fill="white"/>
</g>
<g opacity="0.77">
<path d="M90.3158 19.3926L72.9062 92.1915H65.5938L83.0033 19.3926H90.3158Z" fill="white"/>
</g>
<path d="M91.0544 92.2919H68.6103V92.0908H91.0544C92.5442 92.0908 93.7566 90.8081 93.7566 89.2318V70.9355H93.9576V89.2318C93.9576 90.9187 92.6528 92.2919 91.0544 92.2919ZM64.5148 92.2919H58.4609V92.0908H64.5047L64.5148 92.2919Z" fill="#2D313D"/>
<path d="M7.40206 98.0526L7.07031 94.1621H9.92332L9.75041 98.0526H7.40206Z" fill="#F0AB8F"/>
<path d="M7.07812 94.2237L7.26913 96.4052C8.12695 96.4481 8.98688 96.3941 9.83261 96.2443L9.93314 93.9824L7.07812 94.2237Z" fill="#E09B82"/>
<path d="M6.65234 100.134H14.0714C14.0904 99.9188 14.0803 99.7024 14.0412 99.4902L6.75488 99.5325L6.65234 100.134Z" fill="#2D313D"/>
<path d="M6.75391 99.5292L14.0382 99.4809C13.9699 98.727 13.0329 98.3731 12.1402 98.1479L11.9633 98.1057L11.5954 98.0213L11.4184 97.9831C11.1783 97.9375 10.9427 97.8702 10.7147 97.782C10.5841 97.7197 10.4232 97.6292 10.2845 97.5447L10.1538 97.4623C10.0231 97.3819 9.92861 97.3196 9.92861 97.3196C9.4521 97.4744 8.73432 97.9227 7.15803 97.209L7.11179 97.4844L7.08364 97.6392L6.75391 99.5292Z" fill="#2D313D"/>
<path d="M11.9609 98.1074C12.0304 98.2765 12.0719 98.4558 12.0836 98.6382H12.2324C12.2217 98.474 12.19 98.3118 12.1379 98.1557L11.9609 98.1074Z" fill="#2D313D"/>
<path d="M11.4258 97.9863C11.5031 98.1633 11.5487 98.3525 11.5605 98.5453H11.7093C11.6999 98.3687 11.664 98.1945 11.6027 98.0286L11.4258 97.9863Z" fill="#2D313D"/>
<path d="M7.08203 97.6476C7.59607 97.9206 8.16691 98.0693 8.7488 98.0819C9.30705 98.0955 9.85155 97.9078 10.2829 97.5531L10.1522 97.4707C9.87472 97.708 8.86139 98.3855 7.11018 97.4928L7.08203 97.6476Z" fill="#2D313D"/>
<path d="M12.1784 95.4346C9.48017 95.8588 6.97499 96.0378 5.06896 95.4346C5.06896 95.4346 3.4605 77.3555 6.31351 60.7441L12.0316 60.7683C12.0316 60.7683 14.2392 80.7333 12.1784 95.4346Z" fill="#05152E"/>
<path d="M12.7367 44.2576C13.8064 44.1692 14.5121 43.8274 14.8338 43.2524C15.3143 42.3798 14.7614 41.3021 14.7373 41.2559L14.6005 41.3282C14.6005 41.3282 15.1394 42.3798 14.6991 43.178C14.4035 43.7148 13.738 44.0305 12.7227 44.1129L12.7367 44.2576Z" fill="#2D313D"/>
<path d="M24.1093 98.0526L22.8828 94.1621H25.7358L26.6044 98.0526H24.1093Z" fill="#F0AB8F"/>
<path d="M22.8867 94.1265L23.5623 96.2658C24.4333 96.4294 25.3297 96.3999 26.1881 96.1793L25.7015 94.0059H24.6822L22.8867 94.1265Z" fill="#E09B82"/>
<path d="M9.02171 49.252C9.02171 49.252 1.32322 50.6594 2.01687 58.2774C2.30438 61.4421 4.69696 63.6336 4.69696 63.6336L5.57558 60.9575L8.65378 61.993L9.02171 49.252Z" fill="#B7DDFF"/>
<path d="M12.7452 50.2375L12.8497 46.0635L10.431 45.6855L9.22266 49.6866L12.7452 50.2375Z" fill="#F0AB8F"/>
<path d="M11.8999 47.5319C10.4382 46.8623 8.96244 44.4718 10.018 42.1395C10.8544 40.2878 14.0753 41.3353 14.6966 43.1347C15.6637 45.9234 15.2596 49.0679 11.8999 47.5319Z" fill="#F0AB8F"/>
<path d="M25.0234 53.5011C25.138 53.3583 25.5261 52.916 25.5583 52.7351C25.5904 52.5541 25.6347 51.6453 25.8297 51.6735C26.0247 51.7016 25.8699 52.3309 26.0307 52.3269C26.1313 52.3269 26.4751 51.0964 26.6882 51.2211C26.8289 51.3035 26.5213 52.0253 26.6098 52.0253C26.6982 52.0253 26.8893 51.0783 27.1024 51.1909C27.3155 51.3035 26.7505 52.2284 26.8571 52.2766C26.9114 52.3008 27.3235 51.1789 27.4964 51.2714C27.7277 51.4 27.1486 52.2586 27.2491 52.3249C27.2974 52.3591 27.4502 52.0193 27.5648 51.8283C27.6271 51.7217 27.7236 51.7559 27.7196 51.8404C27.6734 52.7089 26.6058 53.7886 26.5555 53.9273C26.4791 54.1284 26.4007 54.3295 26.3203 54.5305L25.0234 53.5011Z" fill="#F0AB8F"/>
<path d="M27.9136 95.2621C25.3099 95.63 22.8751 95.7164 20.76 95.2621C11.9858 78.9764 8.3125 60.5957 8.3125 60.5957H15.0821C23.8402 75.6811 27.9136 95.2621 27.9136 95.2621Z" fill="#05152E"/>
<path d="M22.1794 55.7593L25.0645 52.9746L26.6851 54.3116C26.6851 54.3116 25.9995 61.793 20.9509 61.232C17.3902 60.8299 15.082 53.9618 15.082 53.9618L22.1794 55.7593Z" fill="#AECEEA"/>
<path d="M4.62067 65.5493C10.7429 68.3359 19.6397 65.8971 19.6397 65.8971L19.3682 64.9943L19.328 64.8556L17.0139 57.1491L23.0979 57.0767C23.0979 57.0767 19.0224 51.3546 16.654 49.9593C15.9074 49.5583 15.0985 49.2864 14.2614 49.155L14.0402 49.1168C12.3981 48.8577 10.7228 48.8958 9.0942 49.2294C9.03589 49.2294 8.97959 49.2535 8.9233 49.2656C8.0461 49.4516 7.20259 49.771 6.42214 50.2126C6.42214 50.2126 6.85844 52.6695 6.24722 54.3403C4.8559 58.1363 4.63876 62.6701 4.62469 64.5942C4.62469 64.6485 4.62469 64.7008 4.62469 64.749C4.61061 65.2597 4.62067 65.5493 4.62067 65.5493Z" fill="#B7DDFF"/>
<path d="M9.97266 66.8146L10.2441 66.8367L10.4451 66.8468C15.2082 67.1142 19.6435 65.8958 19.6435 65.8958L19.3721 64.995L19.3319 64.8583L17.5344 58.8447C17.2308 58.535 15.7048 56.05 15.4676 55.0447C15.4676 55.0447 15.367 57.6162 16.1753 59.7273C16.686 61.0583 17.259 63.0367 16.5774 64.2933C15.6948 65.9199 10.0491 66.7925 9.97266 66.8146Z" fill="#9CC0DB"/>
<path d="M20.2684 53.3377L20.1484 53.4355L22.6926 56.5573L22.8127 56.4595L20.2684 53.3377Z" fill="#2D313D"/>
<path d="M13.2766 47.8409C13.7185 47.8878 14.1622 47.7705 14.5232 47.5112L14.4226 47.3926C14.3925 47.4207 13.6184 48.04 12.3457 47.4167L12.2773 47.5554C12.5893 47.7132 12.9284 47.8101 13.2766 47.8409Z" fill="#2D313D"/>
<path d="M4.61328 64.7583C6.96968 65.7274 9.49094 66.0451 11.789 66.0451C14.3501 66.03 16.8981 65.6771 19.3669 64.9956L19.3267 64.8569C17.6157 65.3454 10.5666 67.0785 4.61529 64.6035C4.61328 64.6578 4.61328 64.7101 4.61328 64.7583Z" fill="#2D313D"/>
<path d="M4.6979 65.5496C4.6979 65.4832 4.72001 58.9307 6.30636 54.3647L6.15959 54.3145C4.55113 58.9046 4.53906 65.4832 4.53906 65.5496H4.6979Z" fill="#2D313D"/>
<path d="M8.91406 49.2679C9.20794 49.5498 9.55458 49.771 9.9341 49.9186C10.3136 50.0663 10.7186 50.1376 11.1257 50.1285C12.5994 50.1285 13.9867 49.3242 14.2461 49.1573L14.039 49.1191C13.3393 49.5213 10.8221 50.7839 9.093 49.2317C9.02666 49.2418 8.97036 49.2559 8.91406 49.2679Z" fill="#2D313D"/>
<path d="M23.3086 100.134H30.7276C30.7467 99.9188 30.7365 99.7024 30.6975 99.4902L23.4111 99.5325L23.3086 100.134Z" fill="#2D313D"/>
<path d="M23.4141 99.5292L30.6964 99.4809C30.626 98.727 29.681 98.3731 28.7984 98.1479L28.6215 98.1057L28.2535 98.0213L28.0766 97.9831C27.8364 97.9375 27.6009 97.8702 27.3729 97.782C27.2256 97.7102 27.082 97.631 26.9426 97.5447L26.8119 97.4623C26.6812 97.3819 26.5867 97.3196 26.5867 97.3196C26.1102 97.4744 25.3925 97.9227 23.8162 97.209L23.7699 97.4844L23.7418 97.6392L23.4141 99.5292Z" fill="#2D313D"/>
<path d="M28.6211 98.1074C28.6906 98.2765 28.732 98.4558 28.7437 98.6382H28.8925C28.8819 98.474 28.8501 98.3118 28.798 98.1557L28.6211 98.1074Z" fill="#2D313D"/>
<path d="M28.0742 97.9863C28.1516 98.1633 28.1971 98.3525 28.2089 98.5453H28.3577C28.3484 98.3687 28.3124 98.1945 28.2512 98.0286L28.0742 97.9863Z" fill="#2D313D"/>
<path d="M23.7383 97.6476C24.2517 97.9204 24.8218 98.0691 25.403 98.0819C25.9619 98.0958 26.5072 97.9081 26.9391 97.5531L26.8084 97.4707C26.531 97.708 25.5176 98.3855 23.7664 97.4928L23.7383 97.6476Z" fill="#2D313D"/>
<path d="M15.371 55.7248L15.2539 55.8262L16.0934 56.796L16.2105 56.6947L15.371 55.7248Z" fill="#2D313D"/>
<path d="M5.32422 64.7421H5.47903C5.47903 63.2422 5.65998 61.3603 5.662 61.3402L5.50919 61.3262C5.50718 61.3443 5.32422 63.2282 5.32422 64.7421Z" fill="#2D313D"/>
<path d="M3.74308 52.5751C5.18265 53.7714 8.98666 54.1313 10.8324 51.1898C12.1895 49.0244 12.1131 46.3162 11.9925 45.5482L12.6057 44.3117C12.6057 44.3117 14.8173 43.7326 14.6685 41.2676C14.6685 41.2676 14.4112 41.4124 13.7196 41.2455C13.3355 41.151 12.3664 40.6082 11.3189 40.6665C10.384 40.6424 8.36941 40.9781 7.69989 43.9839C7.14698 46.461 5.0218 46.3966 3.8798 47.2571C1.58171 48.9661 2.11652 51.2321 3.74308 52.5751Z" fill="#2D313D"/>
<path d="M11.5825 44.804C11.5614 44.9389 11.5808 45.0769 11.6382 45.2007C11.6956 45.3245 11.7885 45.4285 11.905 45.4995C12.0216 45.5705 12.1566 45.6054 12.2929 45.5996C12.4293 45.5939 12.5608 45.5478 12.671 45.4672C12.7811 45.3867 12.8649 45.2752 12.9117 45.147C12.9585 45.0188 12.9662 44.8796 12.9338 44.747C12.9014 44.6145 12.8304 44.4945 12.7298 44.4022C12.6292 44.31 12.5035 44.2497 12.3686 44.229C12.2792 44.215 12.188 44.2188 12.1 44.2401C12.0121 44.2614 11.9292 44.2999 11.8562 44.3533C11.7832 44.4067 11.7214 44.4741 11.6744 44.5514C11.6275 44.6287 11.5962 44.7146 11.5825 44.804Z" fill="#F0AB8F"/>
<path d="M2.02401 48.3209C2.33702 47.6451 2.85193 47.0832 3.49776 46.7124C3.87328 46.503 4.273 46.3402 4.68803 46.2278C5.7677 45.88 6.99013 45.488 7.52093 43.7609C8.4096 40.8817 10.4041 40.7711 11.2244 40.8576H11.2606C12.0085 40.8857 12.6801 41.2115 13.1264 41.4286C13.2566 41.496 13.3909 41.5551 13.5285 41.6055L13.5808 41.4447C13.454 41.3948 13.3299 41.3384 13.2088 41.2758C12.7323 41.0506 12.0286 40.7108 11.2445 40.6887H11.2345C10.3679 40.5982 8.2769 40.7209 7.35807 43.7046C6.85543 45.3472 5.72749 45.7152 4.63575 46.059C4.20705 46.176 3.79444 46.3455 3.40729 46.5636C2.7318 46.9522 2.19365 47.5409 1.86719 48.2485L2.02401 48.3209Z" fill="#2D313D"/>
<path d="M6.34766 95.7116C8.03654 95.9488 10.0491 95.7699 12.1783 95.4361C12.9826 89.698 13.0911 83.244 12.9826 77.4013C12.9826 77.4696 11.2293 71.834 11.2293 71.834C11.2293 71.834 11.9913 76.2351 11.73 78.8851C11.4605 81.6215 10.4593 82.4297 10.0733 85.52C9.84807 87.3295 10.7488 88.6806 10.4211 90.5685C10.0753 92.555 8.55326 93.7854 7.06543 95.1205C6.8503 95.3075 6.58289 95.5005 6.34766 95.7116Z" fill="#030D1C"/>
<path d="M13.0719 77.7336L13.2307 77.6773C12.519 75.6305 11.8354 73.5214 11.198 71.4043L11.0352 71.4546C11.6725 73.5717 12.3581 75.6949 13.0719 77.7336Z" fill="#2D313D"/>
<path d="M20.3398 94.4963C20.4746 94.7517 20.6093 95.007 20.742 95.2644C22.8571 95.7167 25.2919 95.6303 27.8956 95.2644C26.4257 88.6849 24.5072 82.2138 22.1534 75.8965C21.9724 77.8085 22.4429 79.801 23.0059 81.6688C23.7458 84.1258 24.6485 86.6269 24.4133 89.1824C24.2504 91.0341 23.2954 93.0025 21.6708 94.0077C21.2545 94.2371 20.8057 94.4018 20.3398 94.4963Z" fill="#030D1C"/>
<path d="M24.7903 83.9206L24.9532 83.8703C22.9426 77.3983 20.6807 71.4973 18.1997 66.3301L18.0469 66.4045C20.5239 71.5636 22.7938 77.4566 24.7903 83.9206Z" fill="#2D313D"/>
<path d="M21.4769 61.3415C21.2975 61.3413 21.1183 61.3312 20.94 61.3114C18.1574 61.0017 16.1267 56.7715 15.3828 54.968L15.5236 54.9097C16.2574 56.6891 18.2539 60.861 20.9521 61.1626C21.483 61.2349 22.023 61.1969 22.5385 61.0509C23.054 60.9049 23.5338 60.6541 23.9479 60.3141C26.1977 58.4785 26.5998 54.3508 26.6038 54.3105L26.7546 54.3226C26.7546 54.3648 26.3425 58.5549 24.0424 60.4307C23.3214 61.0275 22.4127 61.3501 21.4769 61.3415Z" fill="#2D313D"/>
<path d="M32.5049 23.3911V32.6397C32.5052 32.9377 32.4467 33.2329 32.3329 33.5083C32.219 33.7836 32.052 34.0339 31.8414 34.2447C31.6308 34.4555 31.3807 34.6228 31.1054 34.7369C30.8301 34.851 30.535 34.9097 30.237 34.9097H17.5704L14.7717 37.3887V34.9057H14.7093C14.4113 34.9057 14.1163 34.8469 13.841 34.7328C13.5657 34.6187 13.3156 34.4515 13.105 34.2407C12.8943 34.0299 12.7273 33.7796 12.6135 33.5042C12.4996 33.2288 12.4411 32.9337 12.4414 32.6357V23.3871C12.4414 22.7856 12.6803 22.2087 13.1057 21.7834C13.531 21.3581 14.1078 21.1191 14.7093 21.1191H30.237C30.5352 21.1191 30.8304 21.1779 31.1058 21.2922C31.3813 21.4064 31.6315 21.5738 31.8421 21.7848C32.0528 21.9958 32.2197 22.2463 32.3335 22.522C32.4472 22.7976 32.5055 23.0929 32.5049 23.3911Z" fill="white"/>
<path d="M20.8568 29.3184C21.5766 29.1635 22.1576 28.7614 22.3748 28.2668C22.4477 28.0997 22.4793 27.9174 22.4671 27.7355C22.4548 27.5536 22.3991 27.3772 22.3044 27.2213C22.1633 26.9902 21.9703 26.7952 21.7406 26.6517C21.511 26.5083 21.251 26.4204 20.9815 26.395C20.3349 26.3295 19.6859 26.4932 19.1478 26.8574C18.6673 27.1872 18.4944 27.354 18.2812 27.8305L18.5929 27.9713C18.7698 27.5792 18.8804 27.4546 19.3408 27.1429C19.8136 26.8253 20.3826 26.6831 20.9493 26.7408C21.165 26.762 21.3731 26.832 21.5577 26.9456C21.7423 27.0591 21.8987 27.2133 22.0149 27.3963C22.0823 27.5059 22.1225 27.6302 22.1319 27.7586C22.1414 27.887 22.1199 28.0158 22.0692 28.1341C21.8983 28.5242 21.3976 28.8579 20.7925 28.9886L20.8568 29.3184Z" fill="#363347"/>
<path d="M17.0564 30.678C16.6535 30.2407 16.4148 29.6773 16.3809 29.0836C16.3162 28.9591 16.2605 28.8301 16.214 28.6976C16.077 28.3198 16.0274 27.9158 16.0689 27.5161C16.1103 27.1164 16.2417 26.7312 16.4532 26.3895C17.3982 24.8433 19.8712 23.9104 22.101 24.2643C24.2844 24.6121 25.9391 26.118 26.0377 27.8451C26.1301 29.4898 24.7589 31.1525 22.7745 31.7979C22.1531 31.9959 21.5046 32.0956 20.8524 32.0935C19.3404 32.0935 17.8606 31.5808 17.0564 30.678ZM16.7508 26.5684C16.43 27.0824 16.3232 27.7017 16.4532 28.2935C16.6523 27.5547 17.0898 26.9023 17.6978 26.4377C18.2648 25.9894 19.2902 25.539 19.8491 25.4907C20.6252 25.4244 21.7511 25.4385 22.7142 25.8808C23.0932 26.0401 23.4279 26.2888 23.6898 26.6057C23.9517 26.9226 24.133 27.2982 24.2181 27.7004C24.286 28.075 24.2623 28.4605 24.1488 28.8239C24.0354 29.1873 23.8356 29.5179 23.5667 29.7873C22.4327 30.9675 20.0964 31.3958 18.3573 30.7665C17.7994 30.5672 17.2956 30.241 16.8855 29.8135C16.9874 30.0503 17.1281 30.2684 17.3017 30.4589C18.3894 31.6652 20.7438 32.1075 22.6639 31.4823C24.5016 30.8791 25.7743 29.3671 25.6798 27.8753C25.5933 26.3332 24.0251 24.9298 22.0326 24.6121C21.7393 24.5662 21.4428 24.5433 21.1459 24.5438C19.3404 24.5337 17.4827 25.356 16.7408 26.5684H16.7508ZM19.8712 25.8345C19.3766 25.8768 18.4196 26.303 17.9029 26.7092C17.5754 26.9514 17.3008 27.2578 17.0959 27.6097C16.8909 27.9616 16.7598 28.3516 16.7106 28.7559C16.7106 28.8363 16.7106 28.9168 16.7106 28.9952C17.105 29.6766 17.7328 30.1923 18.4779 30.4468C20.0723 31.0319 22.298 30.6237 23.3214 29.5521C23.5526 29.3223 23.7245 29.0397 23.8222 28.7287C23.92 28.4176 23.9406 28.0875 23.8823 27.7667C23.8069 27.4186 23.6485 27.0939 23.4206 26.8201C23.1927 26.5464 22.9021 26.3317 22.5734 26.1944C21.9219 25.9226 21.2204 25.7911 20.5146 25.8084C20.3055 25.8044 20.0924 25.8124 19.8712 25.8345Z" fill="#363347"/>
<path d="M28.0014 29.5224C28.4682 29.1343 28.8223 28.6281 29.0268 28.0567C29.1921 27.6129 29.2371 27.1333 29.1573 26.6665C29.0775 26.1997 28.8758 25.7623 28.5724 25.3987C28.1542 24.894 27.3219 24.4054 26.3467 24.0918L26.2422 24.4195C27.159 24.7131 27.9291 25.1614 28.307 25.6259C28.5733 25.9437 28.7507 26.3263 28.8214 26.7348C28.892 27.1434 28.8533 27.5633 28.7092 27.9521C28.5245 28.466 28.2051 28.9209 27.7843 29.269L28.0014 29.5224Z" fill="#363347"/>
<path d="M25.246 31.0168C26.8545 31.0168 27.9744 30.4458 28.5715 29.7421C28.9535 29.2918 29.1063 28.7167 29.034 27.9829C28.9708 27.4879 28.7875 27.016 28.5002 26.6081C28.2128 26.2001 27.8301 25.8687 27.3853 25.6426L27.2204 25.9422C27.616 26.1422 27.9569 26.4357 28.2134 26.7973C28.4698 27.1589 28.6342 27.5776 28.6922 28.0171C28.7545 28.6524 28.6298 29.145 28.3102 29.521C27.4858 30.4921 25.5396 31.1797 22.5519 30.1985L22.4453 30.5243C23.3468 30.8361 24.2922 31.0024 25.246 31.0168Z" fill="#363347"/>
<path d="M19.0206 30.9345L19.2759 30.7053C20.3074 31.8412 22.6396 32.6736 24.604 32.0322C26.5683 31.3909 27.9455 29.8528 27.8651 28.4454C27.7767 26.9033 26.2084 25.5019 24.2159 25.1822C22.1571 24.8545 19.7786 25.7351 18.916 27.1485C18.7315 27.446 18.6163 27.7812 18.579 28.1293C18.5418 28.4774 18.5835 28.8294 18.7009 29.1591C18.8685 29.5933 19.1301 29.9851 19.4669 30.3063C19.8038 30.6274 20.2075 30.8701 20.6492 31.0169C22.2456 31.604 24.4693 31.1938 25.4926 30.1222C25.7242 29.8926 25.8965 29.6101 25.9946 29.299C26.0927 28.988 26.1136 28.6577 26.0556 28.3368C25.9802 27.9887 25.8218 27.664 25.5939 27.3902C25.366 27.1165 25.0754 26.9018 24.7467 26.7645C23.9028 26.4007 22.9557 26.355 22.0807 26.6358C21.2604 26.9153 20.6733 27.5245 20.613 28.1357C20.8049 27.8637 21.0439 27.6281 21.3187 27.4401C21.8565 27.0732 22.5068 26.9087 23.1543 26.9756C23.4236 27.0013 23.6831 27.0894 23.9124 27.2328C24.1417 27.3762 24.3344 27.5711 24.4753 27.802C24.5698 27.9579 24.6256 28.1341 24.6382 28.316C24.6508 28.4978 24.6198 28.6801 24.5477 28.8475C24.2119 29.6055 23.0518 30.1021 22.0103 29.9332C21.7152 29.8919 21.4314 29.7913 21.176 29.6376C20.9207 29.4838 20.6991 29.28 20.5245 29.0385C20.4438 29.2198 20.4011 29.4158 20.399 29.6143C20.397 29.8128 20.4356 30.0096 20.5124 30.1926C20.6164 30.3929 20.7736 30.5605 20.9668 30.6771L20.7839 30.9686C20.5359 30.8173 20.3347 30.6002 20.2028 30.3413C19.9796 29.8769 20.0018 29.324 20.2933 28.6967C20.2933 28.6726 20.3154 28.6484 20.3255 28.6263C20.2832 28.4855 20.2629 28.339 20.2651 28.192C20.2873 27.42 20.9869 26.6459 21.9701 26.3121C22.9272 25.9996 23.966 26.0512 24.8875 26.4569C25.2662 26.6163 25.6006 26.8651 25.8622 27.182C26.1237 27.4989 26.3046 27.8744 26.3894 28.2765C26.4578 28.6511 26.4343 29.0367 26.3208 29.4002C26.2074 29.7638 26.0073 30.0943 25.7379 30.3635C24.606 31.5437 22.2677 31.982 20.5285 31.3426C20.039 31.1789 19.592 30.9085 19.2196 30.5511C18.8473 30.1937 18.5589 29.7581 18.3752 29.2757C18.2396 28.8974 18.1912 28.4933 18.2337 28.0936C18.2762 27.6939 18.4084 27.309 18.6205 26.9676C19.5675 25.4215 22.0385 24.4886 24.2682 24.8424C26.4517 25.1902 28.1064 26.6962 28.2049 28.4232C28.2934 29.9915 26.7975 31.6824 24.7085 32.362C24.2074 32.5217 23.6843 32.6017 23.1584 32.5992C21.4996 32.5972 19.8691 31.8633 19.0206 30.9345ZM21.5157 27.7175C21.177 27.9548 20.901 28.2708 20.7115 28.6384C20.8468 28.8944 21.0416 29.1142 21.2795 29.2794C21.5174 29.4445 21.7915 29.5501 22.0787 29.5874C22.9613 29.7321 23.9726 29.318 24.2441 28.7027C24.2947 28.5844 24.3163 28.4556 24.3068 28.3272C24.2974 28.1988 24.2572 28.0745 24.1898 27.9648C24.0738 27.7816 23.9175 27.6274 23.7328 27.5138C23.5482 27.4002 23.34 27.3303 23.1242 27.3094C23.0448 27.2996 22.9649 27.2949 22.8849 27.2953C22.3965 27.2992 21.9201 27.4475 21.5157 27.7216V27.7175Z" fill="#363347"/>
<path d="M17.8746 29.3505C17.6384 29.0748 17.4692 28.7482 17.3803 28.3963C17.2914 28.0443 17.2851 27.6766 17.3619 27.3218C17.408 27.0534 17.4842 26.791 17.5891 26.5397C17.4927 25.9117 17.6239 25.2699 17.9591 24.7302C18.8598 23.2564 21.1338 22.4904 23.4882 22.8664C25.8425 23.2423 27.451 24.5733 27.5435 26.1878C27.636 27.8023 26.2648 29.4932 24.2803 30.1386C23.4338 30.3995 22.5523 30.5291 21.6666 30.5226C20.1144 30.5166 18.5964 30.1446 17.8746 29.3505ZM18.2506 24.9031C18.0592 25.214 17.9422 25.5649 17.9088 25.9285C18.3155 25.298 18.875 24.7806 19.5354 24.4246L19.6982 24.7261C18.9296 25.1462 18.3159 25.8015 17.947 26.596C17.9694 26.7092 17.9996 26.8207 18.0375 26.9297C18.2045 27.3643 18.4658 27.7564 18.8028 28.0776C19.1397 28.3989 19.5437 28.6414 19.9857 28.7875C21.5801 29.3746 23.8058 28.9644 24.8292 27.8948C25.0605 27.665 25.2324 27.3824 25.3301 27.0714C25.4278 26.7603 25.4484 26.4302 25.3902 26.1094C25.315 25.7609 25.1568 25.4358 24.9289 25.1617C24.7009 24.8876 24.4102 24.6726 24.0813 24.5351C23.2392 24.1706 22.2935 24.1235 21.4193 24.4024C20.5688 24.692 19.9636 25.3374 19.9475 25.9687H19.6037C19.6238 25.1966 20.3255 24.4225 21.3087 24.0888C22.2653 23.7774 23.303 23.8289 24.224 24.2335C24.6029 24.3936 24.9374 24.6428 25.1993 24.96C25.4611 25.2771 25.6425 25.6528 25.7279 26.0551C25.7957 26.4297 25.7718 26.8152 25.6584 27.1786C25.545 27.542 25.3453 27.8726 25.0765 28.1421C23.9425 29.3203 21.6063 29.7506 19.8671 29.1192C19.3952 28.9609 18.9625 28.7038 18.5978 28.3651C18.2331 28.0264 17.9447 27.6138 17.752 27.1549C17.7299 27.2373 17.7138 27.3178 17.6997 27.4002C17.6318 27.7039 17.6353 28.0193 17.7099 28.3214C17.7846 28.6236 17.9284 28.9042 18.13 29.1414C19.1936 30.3135 22.1994 30.4704 24.1738 29.827C26.0114 29.2238 27.2841 27.7118 27.1896 26.22C27.1092 24.7724 25.5952 23.566 23.4238 23.2202C23.0582 23.1611 22.6884 23.1315 22.318 23.1318C20.5487 23.1116 18.9302 23.7932 18.2506 24.9031Z" fill="#363347"/>
<path d="M20.9258 33.3626C21.0685 33.2379 21.2153 33.1093 21.3721 32.9886C21.9506 32.5276 22.6149 32.1859 23.3264 31.9833C26.5936 31.0886 26.1412 28.8408 26.1231 28.7463L26.4589 28.6699C26.4589 28.6961 27.0098 31.3299 23.4169 32.3151C22.7498 32.5032 22.1266 32.8216 21.5832 33.252C21.4345 33.3686 21.2917 33.4933 21.153 33.6159L20.9258 33.3626Z" fill="#363347"/>
<path d="M14.8749 37.389H14.6739V35.0064H14.5874C14.0945 35.0063 13.6138 34.8524 13.2123 34.5663C12.8109 34.2802 12.5086 33.876 12.3477 33.41L12.5367 33.3457C12.6845 33.7719 12.9614 34.1414 13.329 34.403C13.6965 34.6646 14.1363 34.8052 14.5874 34.8054H14.8749V37.389Z" fill="#2D313D"/>
<path d="M12.4159 31.5367H12.2148V23.3938C12.2159 22.7657 12.4661 22.1636 12.9104 21.7196C13.3548 21.2756 13.9571 21.0259 14.5853 21.0254H18.331V21.2264H14.5853C14.0105 21.227 13.4593 21.4554 13.0526 21.8617C12.6459 22.268 12.417 22.819 12.4159 23.3938V31.5367Z" fill="#2D313D"/>
<path d="M24.0337 21.0254H20.4609V21.2264H24.0337V21.0254Z" fill="#2D313D"/>
<path d="M89.8599 25.0942V26.6665H37.4844V25.0942C37.4976 24.429 37.7736 23.7961 38.2521 23.3339C38.7305 22.8716 39.3726 22.6175 40.0378 22.6272H87.3084C87.9735 22.6175 88.6153 22.8716 89.0935 23.334C89.5716 23.7963 89.8472 24.4292 89.8599 25.0942Z" fill="#5D76AD"/>
<path d="M89.8599 26.666V64.4186C89.8467 65.0832 89.5709 65.7156 89.0928 66.1775C88.6147 66.6394 87.9732 66.8933 87.3084 66.8836H40.0378C39.3728 66.8938 38.7307 66.6402 38.2522 66.1782C37.7737 65.7163 37.4976 65.0836 37.4844 64.4186V26.666H89.8599Z" fill="#AECEEA"/>
<path d="M63.3904 26.4366C63.3904 26.4366 62.4635 25.3569 62.9883 24.617C62.9883 24.617 61.5004 21.2152 64.6128 21.1066C64.6128 21.1066 65.1496 18.0726 70.1157 20.7869C70.1157 20.7869 74.2917 20.0872 72.5767 26.7282C72.828 28.1959 72.9647 29.9451 71.306 29.9772L63.3904 26.4366Z" fill="#2D313D"/>
<path d="M72.0992 34.1499L71.2487 28.0137L66.8777 30.543L66.4756 34.2565L64.3906 34.9984C65.8342 36.8763 71.0557 37.3427 73.4543 34.5259L72.0992 34.1499Z" fill="#F0AB8F"/>
<path d="M66.5625 33.3763C69.138 32.5319 69.6688 30.459 69.6688 30.459L66.7796 31.3456L66.5625 33.3763Z" fill="#2D313D"/>
<path d="M70.6698 26.8279C70.6698 26.8279 71.1383 23.8422 69.4112 22.855C67.6841 21.8678 64.2661 21.8176 63.5805 24.1539C63.1885 25.4788 63.4921 29.0355 63.7957 30.459C64.0691 31.7378 65.0462 32.6988 66.3169 32.6988C69.3328 32.6988 70.5552 28.8787 70.5552 28.8787L70.6698 26.8279Z" fill="#F0AB8F"/>
<path d="M79.6352 66.946H59.7969C60.0924 64.1312 60.3377 61.8914 60.5046 60.5645H79.2753L79.6352 66.946Z" fill="#253B3E"/>
<path d="M72.8692 34.3105C72.8692 34.3105 66.1479 37.4671 65.6754 34.5418L64.5937 34.9037L62.75 62.5028C66.0835 63.6348 70.8928 63.2387 76.0198 62.5028L76.2148 37.0932L74.7833 34.7006L72.8692 34.3105Z" fill="#FEF2B6"/>
<path d="M65.7641 67.05H58.5039L59.2337 56.4563L61.0433 39.282C61.0553 39.4669 65.6817 34.541 65.6817 34.541C65.6817 34.541 65.8043 40.1224 65.9692 43.9907C66.2165 49.8777 65.7641 67.05 65.7641 67.05Z" fill="white"/>
<path d="M71.1937 67.0482C71.1937 67.0482 70.8258 49.5683 70.9926 44.3086C71.1314 40.0261 71.8371 37.0706 72.3337 35.4922C72.4644 35.0801 72.581 34.7584 72.6654 34.5332C72.6916 34.4709 72.7137 34.4166 72.7318 34.3663C72.738 34.3546 72.7434 34.3426 72.7479 34.3301L72.8042 34.1954L72.8384 34.123L73.0716 34.3502L73.1701 34.4467L73.3571 34.6277L76.2061 37.4144L76.6745 37.8728L76.8314 38.0276L79.3828 40.5086L80.9008 49.2566L82.1393 56.3982L83.0521 61.6539L83.0782 61.8107L83.9669 67.0382L71.1937 67.0482Z" fill="white"/>
<path d="M51.7152 43.9482C51.494 43.6969 50.7582 42.9087 50.6858 42.579C50.6134 42.2492 50.4847 40.5845 50.1248 40.6468C49.7649 40.7091 50.0907 41.8532 49.7891 41.8532C49.6021 41.8532 48.8984 39.6234 48.5124 39.8667C48.261 40.0276 48.8702 41.3183 48.7134 41.3525C48.5566 41.3867 48.1444 39.6355 47.7584 39.8526C47.3724 40.0698 48.4681 41.7345 48.2751 41.829C48.1786 41.8753 47.3522 39.8466 47.0406 40.0316C46.6264 40.2809 47.7403 41.821 47.5593 41.9497C47.4709 42.014 47.1753 41.4008 46.9562 41.057C46.8335 40.868 46.6586 40.9363 46.6727 41.0891C46.8094 42.6795 48.83 44.5956 48.9326 44.8469C49.084 45.2209 49.2402 45.5834 49.401 45.9346L51.7152 43.9482Z" fill="#F0AB8F"/>
<path d="M67.5955 35.9084C69.7288 35.9084 72.7667 34.501 72.9236 34.4206L72.817 34.1934C72.7708 34.2155 68.1806 36.3507 66.4274 35.4258C66.256 35.3381 66.1089 35.2095 65.9991 35.0513C65.8893 34.8931 65.8203 34.7103 65.7981 34.5191L65.5508 34.5593C65.5793 34.789 65.6634 35.0084 65.7959 35.1983C65.9283 35.3881 66.105 35.5429 66.3108 35.649C66.7123 35.8363 67.1528 35.9252 67.5955 35.9084Z" fill="#5D567C"/>
<path d="M70.6926 29.1083C70.6926 29.1083 72.2568 29.241 72.2467 27.8617C72.2347 26.6192 70.7207 26.4543 70.3789 27.0796L70.6926 29.1083Z" fill="#F0AB8F"/>
<path d="M62.341 55.04C62.341 55.04 54.2866 60.185 50.8083 51.4732C49.8955 49.1892 48.6992 45.353 48.6992 45.353L51.6226 43.0992L55.8448 47.2329C55.8448 47.2329 57.017 43.829 57.9036 41.1027C59.11 37.4193 61.8665 35.4208 65.7549 34.3652L62.341 55.04Z" fill="white"/>
<path d="M70.9926 26.7253C70.8177 26.7991 70.6716 26.928 70.5765 27.0924C70.4815 27.2567 70.4426 27.4476 70.4659 27.6361C70.4659 27.6361 69.6898 27.7044 69.6616 26.9103C69.6335 26.1161 69.5691 24.8474 69.5691 24.8474C69.5691 24.8474 69.354 23.8421 67.8923 23.7677C67.8923 23.7677 67.3535 25.3541 65.8938 24.8152C65.8938 24.8152 65.0896 26.2749 63.3766 25.4827C63.3766 25.4827 62.8397 22.308 65.6686 21.7672C68.4975 21.2264 70.3714 21.9904 70.5905 22.9735C70.87 24.192 70.9926 26.7253 70.9926 26.7253Z" fill="#2D313D"/>
<path d="M65.7822 43.9525C65.7822 41.6967 64.5416 38.9743 64.3587 38.5863L64.7085 37.8464L63.7032 37.7479C64.037 36.7426 65.0905 35.669 65.1006 35.6569L64.9498 35.5061C64.9015 35.5544 63.7595 36.7124 63.46 37.8142L63.4258 37.9349L64.3868 38.0294L64.1234 38.5863L64.1476 38.6325C64.1617 38.6627 65.5711 41.5801 65.569 43.9525H65.7822Z" fill="#2D313D"/>
<path d="M61.3379 47.5194L60.6094 53.8066L60.8211 53.8312L61.5496 47.544L61.3379 47.5194Z" fill="#433A60"/>
<path d="M65.2439 48.9551C65.1509 48.9551 65.0599 48.9827 64.9825 49.0344C64.9052 49.0861 64.8449 49.1595 64.8092 49.2455C64.7736 49.3315 64.7643 49.4261 64.7825 49.5173C64.8006 49.6086 64.8454 49.6924 64.9112 49.7582C64.977 49.824 65.0609 49.8688 65.1521 49.887C65.2434 49.9051 65.338 49.8958 65.424 49.8602C65.5099 49.8246 65.5834 49.7643 65.6351 49.6869C65.6868 49.6096 65.7144 49.5186 65.7144 49.4256C65.7139 49.3009 65.6641 49.1816 65.576 49.0935C65.4879 49.0053 65.3685 48.9556 65.2439 48.9551ZM65.2439 49.6447C65.2135 49.6476 65.1828 49.6442 65.1538 49.6345C65.1248 49.6249 65.0982 49.6093 65.0756 49.5888C65.053 49.5682 65.0349 49.5432 65.0225 49.5153C65.0102 49.4873 65.0038 49.4571 65.0038 49.4266C65.0038 49.396 65.0102 49.3658 65.0225 49.3379C65.0349 49.3099 65.053 49.2849 65.0756 49.2643C65.0982 49.2438 65.1248 49.2282 65.1538 49.2186C65.1828 49.209 65.2135 49.2055 65.2439 49.2084C65.2982 49.2136 65.3485 49.2389 65.3852 49.2792C65.4218 49.3195 65.4421 49.3721 65.4421 49.4266C65.4421 49.4811 65.4218 49.5336 65.3852 49.5739C65.3485 49.6143 65.2982 49.6395 65.2439 49.6447Z" fill="#323847"/>
<path d="M72.6778 26.7724C72.7421 26.6397 74.254 23.4851 73.096 21.7459C72.5712 20.9618 71.588 20.6019 70.1686 20.6723C69.5916 20.008 68.7807 19.5917 67.9047 19.5102C66.8049 19.4297 65.6729 19.9404 64.543 21.0261L64.6917 21.1789C65.7754 20.1395 66.8491 19.6509 67.8866 19.7233C68.7214 19.8074 69.4914 20.2108 70.0359 20.8492L70.0721 20.8934H70.1263C71.4935 20.815 72.4325 21.1428 72.917 21.8686C74.0067 23.5032 72.5008 26.6497 72.4847 26.6799L72.6778 26.7724Z" fill="#2D313D"/>
<path d="M61.617 42.6455C61.6877 42.0948 61.7226 41.54 61.7215 40.9848C61.7215 39.7684 61.5426 38.1398 60.6901 37.2793L60.5312 37.4361C61.3355 38.2404 61.4983 39.8106 61.4983 40.9848C61.4982 41.5293 61.464 42.0732 61.3958 42.6134L61.617 42.6455Z" fill="#2D313D"/>
<path d="M67.883 57.5299L58.4213 57.4596C58.2695 57.458 58.1235 57.4019 58.0098 57.3015C57.896 57.2011 57.8223 57.063 57.802 56.9127L55.9663 43.1925C55.9546 43.1031 55.9621 43.0123 55.9884 42.926C56.0146 42.8398 56.0591 42.7602 56.1187 42.6926C56.1783 42.6249 56.2518 42.5709 56.334 42.534C56.4163 42.4971 56.5055 42.4783 56.5957 42.4788L66.0574 42.5511C66.2089 42.5522 66.355 42.6079 66.4688 42.708C66.5825 42.8081 66.6563 42.9459 66.6767 43.096L68.5123 56.8182C68.5241 56.9075 68.5166 56.9983 68.4903 57.0844C68.464 57.1705 68.4196 57.25 68.3599 57.3175C68.3002 57.385 68.2268 57.4389 68.1445 57.4755C68.0623 57.5122 67.9731 57.5307 67.883 57.5299Z" fill="#7459C1"/>
<path d="M69.0419 49.8289C68.7222 49.7304 67.6807 49.4469 67.4495 49.2037C67.2183 48.9604 66.223 47.6153 65.9536 47.8546C65.6842 48.0938 66.5568 48.9001 66.3035 49.0609C66.1466 49.1594 64.3753 47.6314 64.1763 48.0415C64.0456 48.311 65.2419 49.0911 65.1232 49.2037C65.0046 49.3162 63.7359 48.0415 63.5148 48.4296C63.2936 48.8176 65.1072 49.658 64.9926 49.837C64.9363 49.9275 63.167 48.6306 63.0001 48.9563C62.7769 49.3886 64.5341 50.1104 64.4477 50.3155C64.4075 50.418 63.8325 50.0501 63.4625 49.8752C63.2615 49.7787 63.1469 49.9295 63.2373 50.0521C64.1903 51.3329 66.9167 51.9018 67.1358 52.0627C67.4595 52.3019 67.7832 52.5271 68.1069 52.7423L69.0419 49.8289Z" fill="#F0AB8F"/>
<path d="M77.0548 50.1897L68.5239 49.0758L67.1406 52.9361C67.1406 52.9361 71.4634 56.8668 76.532 58.2943C78.7034 58.9075 81.5786 59.2292 83.7339 57.5464C88.4588 53.859 86.3275 45.9655 82.2943 39.0491C80.0083 35.1305 72.8446 34.1191 72.8446 34.1191L77.0548 50.1897Z" fill="white"/>
<path d="M71.4202 44.2302C72.158 40.4704 74.0058 38.7574 74.0238 38.7393L74.0842 38.685L73.6258 37.7722L74.631 37.7983L74.621 37.6777C74.4682 36.0692 73.1895 34.9232 73.1352 34.877L72.9924 35.0378C73.0065 35.0479 74.1988 36.1094 74.3998 37.5792L73.2739 37.549L73.8208 38.6387C73.489 38.9685 71.8967 40.6915 71.207 44.1879L71.4202 44.2302Z" fill="#2D313D"/>
<path d="M76.1311 42.6108L76.3523 42.5766C76.2576 41.9902 76.2079 41.3974 76.2035 40.8033C76.2035 36.7379 78.9158 36.6354 79.0304 36.6334V36.4082C79.0002 36.4082 75.9844 36.5107 75.9844 40.8033C75.9871 41.4087 76.0362 42.013 76.1311 42.6108Z" fill="#2D313D"/>
<path d="M68.5417 48.9745L68.5156 49.1738L77.0425 50.2873L77.0685 50.088L68.5417 48.9745Z" fill="#2D313D"/>
<path d="M79.783 58.8902C78.6742 58.8782 77.5722 58.7145 76.5078 58.4036L76.5641 58.2026C78.8401 58.8439 80.7863 58.858 82.3325 58.2408C82.8145 58.0492 83.2667 57.7899 83.6755 57.4707L83.8002 57.6295C83.3761 57.9622 82.907 58.233 82.4068 58.4338C81.569 58.7507 80.6787 58.9056 79.783 58.8902Z" fill="#2D313D"/>
<path d="M76.5097 58.4041C71.4833 56.9847 67.1224 53.062 67.0781 53.0218L67.2128 52.873C67.2571 52.9133 71.5778 56.8057 76.566 58.2091L76.5097 58.4041Z" fill="#2D313D"/>
<path d="M77.2318 45.3311L77.0352 45.373L78.0338 50.059L78.2304 50.0171L77.2318 45.3311Z" fill="#2D313D"/>
<path d="M41.7537 24.6463C41.7541 24.8215 41.7025 24.9928 41.6054 25.1386C41.5084 25.2843 41.3702 25.398 41.2085 25.4653C41.0468 25.5325 40.8687 25.5501 40.6969 25.5161C40.5251 25.482 40.3673 25.3977 40.2435 25.2739C40.1196 25.15 40.0353 24.9922 40.0013 24.8204C39.9672 24.6486 39.9849 24.4706 40.0521 24.3089C40.1193 24.1471 40.233 24.009 40.3788 23.9119C40.5246 23.8149 40.6959 23.7633 40.871 23.7637C41.105 23.7642 41.3292 23.8574 41.4946 24.0228C41.66 24.1882 41.7532 24.4124 41.7537 24.6463Z" fill="white"/>
<path d="M44.3396 24.6463C44.34 24.8215 44.2884 24.9928 44.1914 25.1386C44.0943 25.2843 43.9562 25.398 43.7944 25.4653C43.6327 25.5325 43.4547 25.5501 43.2829 25.5161C43.1111 25.482 42.9533 25.3977 42.8294 25.2739C42.7056 25.15 42.6213 24.9922 42.5872 24.8204C42.5531 24.6486 42.5708 24.4706 42.638 24.3089C42.7052 24.1471 42.8189 24.009 42.9647 23.9119C43.1105 23.8149 43.2818 23.7633 43.457 23.7637C43.6909 23.7642 43.9151 23.8574 44.0805 24.0228C44.2459 24.1882 44.3391 24.4124 44.3396 24.6463Z" fill="white"/>
<path d="M46.9216 24.6463C46.922 24.8214 46.8705 24.9926 46.7735 25.1383C46.6766 25.2841 46.5385 25.3978 46.3769 25.4651C46.2153 25.5323 46.0374 25.5501 45.8656 25.5162C45.6939 25.4823 45.5361 25.3982 45.4122 25.2746C45.2882 25.1509 45.2038 24.9933 45.1695 24.8217C45.1352 24.65 45.1526 24.472 45.2195 24.3102C45.2864 24.1485 45.3998 24.0102 45.5453 23.9129C45.6908 23.8156 45.8619 23.7637 46.037 23.7637C46.2713 23.7637 46.496 23.8566 46.6618 24.0221C46.8277 24.1875 46.9211 24.412 46.9216 24.6463Z" fill="white"/>
<path d="M59.3068 43.1772C59.2086 43.1781 59.1135 43.1429 59.0395 43.0785C58.9654 43.0141 58.9175 42.9247 58.9047 42.8274L58.776 41.9448C58.7705 41.9044 58.7738 41.8634 58.7856 41.8245C58.7973 41.7856 58.8173 41.7496 58.8442 41.7191C58.8711 41.6886 58.9043 41.6642 58.9414 41.6476C58.9786 41.6311 59.0188 41.6227 59.0595 41.6231L63.34 41.6552C63.4085 41.6561 63.4745 41.6815 63.5258 41.7269C63.5771 41.7723 63.6103 41.8346 63.6195 41.9025L63.7281 42.7068C63.7368 42.7644 63.7329 42.8232 63.7167 42.8792C63.7004 42.9352 63.6722 42.987 63.6339 43.031C63.5957 43.0749 63.5483 43.1101 63.4952 43.134C63.442 43.1578 63.3842 43.1699 63.326 43.1692L59.3068 43.1772Z" fill="#2D313D"/>
<path d="M57.8126 48.905L57.6133 48.9316L57.8343 50.5837L58.0336 50.557L57.8126 48.905Z" fill="#2D313D"/>
<path d="M61.0367 56.5379L59.2553 56.5137C59.0795 56.512 58.9103 56.447 58.7785 56.3307C58.6467 56.2144 58.5612 56.0546 58.5375 55.8804L57.9766 51.6864L58.1776 51.6582L58.7386 55.8543C58.7559 55.9804 58.8181 56.0962 58.9137 56.1803C59.0093 56.2645 59.132 56.3115 59.2593 56.3127L61.0427 56.3368L61.0367 56.5379Z" fill="#2D313D"/>
<path d="M62.2762 56.3595L62.2734 56.5605L64.5371 56.5918L64.5399 56.3907L62.2762 56.3595Z" fill="#2D313D"/>
<path d="M61.2597 26.5645H39.5273V26.7655H61.2597V26.5645Z" fill="#2D313D"/>
<path d="M89.9571 25.0932H89.756C89.7439 24.4547 89.479 23.847 89.0196 23.4034C88.5602 22.9599 87.9437 22.7165 87.3051 22.7267H76.0117V22.5257H87.3051C87.997 22.5155 88.6647 22.78 89.1618 23.2613C89.6589 23.7426 89.9449 24.4014 89.9571 25.0932Z" fill="#2D313D"/>
<path d="M37.5839 25.0932H37.3828C37.395 24.401 37.6812 23.7419 38.1788 23.2606C38.6764 22.7792 39.3446 22.5149 40.0368 22.5257H59.8389V22.7268H40.0368C39.3979 22.716 38.7808 22.9591 38.321 23.4028C37.8611 23.8464 37.596 24.4544 37.5839 25.0932Z" fill="#2D313D"/>
<path d="M37.5839 32.9434H37.3828V38.5951H37.5839V32.9434Z" fill="#2D313D"/>
<path d="M89.9603 64.4176H89.7592V26.7655H74.9453V26.5645H89.9603V64.4176Z" fill="#2D313D"/>
<path d="M87.3074 66.9828H40.0368C39.3449 66.9936 38.677 66.7296 38.1795 66.2487C37.682 65.7677 37.3955 65.1092 37.3828 64.4173V42.0879H37.5839V64.4173C37.5966 65.0559 37.8619 65.6633 38.3217 66.1065C38.7815 66.5497 39.3982 66.7926 40.0368 66.7818H87.3074V66.9828Z" fill="#2D313D"/>
<path d="M121.215 99.8967H0.367188V100.299H121.215V99.8967Z" fill="#2D313D"/>
<path d="M29.415 73.0387L26.1367 73.9473L26.2441 74.3348L29.5224 73.4262L29.415 73.0387Z" fill="white"/>
<path d="M105.406 26.88L105.199 27.2246L108.115 28.9772L108.322 28.6326L105.406 26.88Z" fill="#8DBEE2"/>
<path d="M25.7101 13.077L25.4258 13.3613L27.8313 15.7668L28.1156 15.4825L25.7101 13.077Z" fill="#8DBEE2"/>
<g opacity="0.6">
<path d="M25.1866 39.7443L24.8086 39.877L25.9312 43.0747L26.3092 42.942L25.1866 39.7443Z" fill="#DF6659"/>
</g>
<g opacity="0.6">
<path d="M35.2958 73.2901L34.918 73.4277L36.082 76.6243L36.4599 76.4867L35.2958 73.2901Z" fill="#DF6659"/>
</g>
<path d="M73.2276 7.36304L71.2773 10.1504L71.6068 10.3809L73.5571 7.59357L73.2276 7.36304Z" fill="white"/>
<g opacity="0.6">
<path d="M102.123 32.4131L101.008 35.627L101.388 35.7588L102.503 32.545L102.123 32.4131Z" fill="#DF6659"/>
</g>
<path d="M44.0156 2.78495V12.5C44.0154 12.814 44.0771 13.125 44.1973 13.4151C44.3175 13.7051 44.4939 13.9686 44.7162 14.1903C44.9385 14.4121 45.2024 14.5877 45.4927 14.7072C45.7831 14.8267 46.0942 14.8877 46.4082 14.8866H59.7182L62.6557 17.5004V14.8866H62.72C63.0335 14.8869 63.344 14.8253 63.6336 14.7055C63.9233 14.5856 64.1865 14.4099 64.4081 14.1882C64.6298 13.9665 64.8056 13.7033 64.9254 13.4137C65.0453 13.124 65.1068 12.8135 65.1066 12.5V2.78495C65.1066 2.47164 65.0448 2.16139 64.9249 1.87196C64.8049 1.58252 64.6291 1.31956 64.4074 1.09811C64.1858 0.876658 63.9227 0.701056 63.6332 0.581339C63.3436 0.461623 63.0333 0.40014 62.72 0.400404H46.4082C46.0944 0.399346 45.7835 0.460243 45.4932 0.579603C45.203 0.698964 44.9392 0.87444 44.7169 1.09597C44.4946 1.3175 44.3182 1.58073 44.1979 1.87056C44.0776 2.16039 44.0156 2.47113 44.0156 2.78495Z" fill="#D794C6"/>
<path d="M61.4461 3.69727H47.6797V4.09938H61.4461V3.69727Z" fill="white"/>
<path d="M61.4461 6.20898H47.6797V6.6111H61.4461V6.20898Z" fill="white"/>
<path d="M61.4461 8.7207H47.6797V9.12282H61.4461V8.7207Z" fill="white"/>
<path d="M57.4692 11.2285H47.6797V11.6306H57.4692V11.2285Z" fill="white"/>
<path d="M44.119 12.501H43.918V2.78391C43.9182 2.45696 43.983 2.13327 44.1084 1.83136C44.2339 1.52946 44.4177 1.25525 44.6493 1.02444C44.8808 0.793626 45.1556 0.610734 45.4579 0.486228C45.7602 0.361721 46.0841 0.298042 46.4111 0.298835H62.7309V0.499893H46.4111C46.1105 0.4991 45.8128 0.557578 45.5349 0.67198C45.257 0.786383 45.0043 0.954465 44.7914 1.16661C44.5785 1.37875 44.4096 1.63079 44.2942 1.90831C44.1788 2.18582 44.1193 2.48336 44.119 2.78391V12.501Z" fill="#2D313D"/>
<path d="M62.7567 17.7178L59.6523 14.9592L59.785 14.8085L62.5556 17.2694V14.7843H62.7205C63.3259 14.7833 63.9062 14.5423 64.3344 14.1142C64.7625 13.6861 65.0034 13.1057 65.0045 12.5003V2.7832H65.2056V12.5003C65.2025 13.1513 64.9443 13.7751 64.4864 14.2378C64.0286 14.7006 63.4076 14.9653 62.7567 14.9753V17.7178Z" fill="#2D313D"/>
<path d="M57.0001 14.7832H46.4023V14.9843H57.0001V14.7832Z" fill="#2D313D"/>
</g>
<defs>
<clipPath id="clip0_368_1227">
<rect width="123.264" height="100" fill="white" transform="translate(0.367188 0.298828)"/>
</clipPath>
</defs>
</svg>
