<?xml version="1.0" encoding="UTF-8"?>
<!DOCTYPE svg PUBLIC "-//W3C//DTD SVG 1.0//EN" "http://www.w3.org/TR/2001/REC-SVG-20010904/DTD/svg10.dtd">
<!-- Creator: CorelDRAW 2020 (64-Bit) -->
<svg xmlns="http://www.w3.org/2000/svg" xml:space="preserve" width="26.483mm" height="22.7813mm" version="1.0" style="shape-rendering:geometricPrecision; text-rendering:geometricPrecision; image-rendering:optimizeQuality; fill-rule:evenodd; clip-rule:evenodd"
viewBox="0 0 538.76 463.46"
 xmlns:xlink="http://www.w3.org/1999/xlink"
 xmlns:xodm="http://www.corel.com/coreldraw/odm/2003">
 <defs>
  <style type="text/css">
   <![CDATA[
    .fil0 {fill:url(#id0)}
    .fil7 {fill:url(#id1)}
    .fil6 {fill:url(#id2)}
    .fil3 {fill:url(#id3)}
    .fil11 {fill:url(#id4)}
    .fil8 {fill:url(#id5)}
    .fil10 {fill:url(#id6)}
    .fil4 {fill:url(#id7)}
    .fil2 {fill:url(#id8)}
    .fil13 {fill:url(#id9)}
    .fil1 {fill:url(#id10)}
    .fil12 {fill:url(#id11)}
    .fil9 {fill:url(#id12)}
    .fil5 {fill:url(#id13)}
   ]]>
  </style>
  <linearGradient id="id0" gradientUnits="userSpaceOnUse" x1="50.99" y1="231.73" x2="486.62" y2="231.73">
   <stop offset="0" style="stop-opacity:1; stop-color:#7A7B7E"/>
   <stop offset="0.341176" style="stop-opacity:1; stop-color:#FEFEFE"/>
   <stop offset="0.709804" style="stop-opacity:1; stop-color:#8F9193"/>
   <stop offset="0.921569" style="stop-opacity:1; stop-color:#C6C7C8"/>
   <stop offset="1" style="stop-opacity:1; stop-color:#FEFEFE"/>
  </linearGradient>
  <linearGradient id="id1" gradientUnits="userSpaceOnUse" xlink:href="#id0" x1="372.39" y1="143.76" x2="409.7" y2="143.76">
  </linearGradient>
  <linearGradient id="id2" gradientUnits="userSpaceOnUse" xlink:href="#id0" x1="320.63" y1="99.67" x2="357.93" y2="99.67">
  </linearGradient>
  <linearGradient id="id3" gradientUnits="userSpaceOnUse" xlink:href="#id0" x1="249.25" y1="82.76" x2="286.56" y2="82.76">
  </linearGradient>
  <linearGradient id="id4" gradientUnits="userSpaceOnUse" xlink:href="#id0" x1="180.81" y1="370.49" x2="218.11" y2="370.49">
  </linearGradient>
  <linearGradient id="id5" gradientUnits="userSpaceOnUse" xlink:href="#id0" x1="252.18" y1="387.4" x2="289.49" y2="387.4">
  </linearGradient>
  <linearGradient id="id6" gradientUnits="userSpaceOnUse" xlink:href="#id0" x1="374.16" y1="324.1" x2="411.46" y2="324.1">
  </linearGradient>
  <linearGradient id="id7" gradientUnits="userSpaceOnUse" xlink:href="#id0" x1="178.21" y1="101" x2="215.51" y2="101">
  </linearGradient>
  <linearGradient id="id8" gradientUnits="userSpaceOnUse" xlink:href="#id0" x1="181.21" y1="231.73" x2="356.4" y2="231.73">
  </linearGradient>
  <linearGradient id="id9" gradientUnits="userSpaceOnUse" xlink:href="#id0" x1="-0" y1="236.48" x2="538.76" y2="236.48">
  </linearGradient>
  <linearGradient id="id10" gradientUnits="userSpaceOnUse" xlink:href="#id0" x1="72.2" y1="231.73" x2="465.4" y2="231.73">
  </linearGradient>
  <linearGradient id="id11" gradientUnits="userSpaceOnUse" xlink:href="#id0" x1="129.04" y1="326.4" x2="166.34" y2="326.4">
  </linearGradient>
  <linearGradient id="id12" gradientUnits="userSpaceOnUse" xlink:href="#id0" x1="323.23" y1="369.16" x2="360.53" y2="369.16">
  </linearGradient>
  <linearGradient id="id13" gradientUnits="userSpaceOnUse" xlink:href="#id0" x1="127.27" y1="146.05" x2="164.58" y2="146.05">
  </linearGradient>
 </defs>
 <g id="Layer_x0020_1">
  <metadata id="CorelCorpID_0Corel-Layer"/>
  <g id="_2253364807360">
   <path class="fil0" d="M329.41 462.37c-9.52,0.09 -19.37,-1.72 -29.02,-3.49 -9.61,-1.76 -19.56,-3.58 -28.96,-3.5 -9.41,0.09 -19.31,2.1 -28.89,4.04 -15.28,3.1 -31.09,6.3 -45.4,1.8 -15,-4.71 -26.27,-16.65 -37.16,-28.18 -6.78,-7.19 -13.2,-13.98 -20.41,-19.12 -7.34,-5.24 -16.34,-9.33 -25.04,-13.28 -14.37,-6.53 -29.22,-13.28 -38.45,-25.71 -9.13,-12.3 -11.28,-28.42 -13.36,-44.01 -1.27,-9.53 -2.59,-19.39 -5.49,-28.06 -0.28,-0.83 -0.58,-1.66 -0.89,-2.49l0 0 5.96 -0.05 0.26 0.76c3.08,9.19 4.43,19.31 5.74,29.11 2.08,15.57 4.04,30.28 12.3,41.41 8.36,11.27 22.55,17.71 36.26,23.94 8.95,4.06 18.2,8.27 25.98,13.82 7.66,5.47 14.56,12.77 21.23,19.84 10.4,11.02 21.16,22.4 34.76,26.68 12.93,4.07 27.34,1.15 42.6,-1.95 9.84,-1.99 20.01,-4.06 29.96,-4.15l0 0c9.95,-0.09 20.16,1.78 30.03,3.59 15.31,2.81 29.77,5.46 42.63,1.15 13.52,-4.53 24.06,-16.12 34.25,-27.33 6.54,-7.19 13.3,-14.62 20.85,-20.23 7.69,-5.7 16.85,-10.08 25.72,-14.31 13.6,-6.49 27.66,-13.19 35.81,-24.61 8.05,-11.29 9.74,-26.03 11.53,-41.64 1.12,-9.82 2.28,-19.97 5.19,-29.2l0.25 -0.76 5.96 -0.05c-0.3,0.83 -0.58,1.67 -0.84,2.5 -2.74,8.73 -3.87,18.6 -4.97,28.16 -1.79,15.63 -3.64,31.79 -12.54,44.26 -8.99,12.6 -23.72,19.63 -37.97,26.42 -8.63,4.11 -17.55,8.37 -24.79,13.74 -7.12,5.28 -13.4,12.19 -20.05,19.5 -10.68,11.74 -21.72,23.88 -36.63,28.88 -5.28,1.77 -10.78,2.48 -16.41,2.53zm-278.42 -285.73c1.96,-4.02 3.66,-8.02 4.93,-12.05 2.74,-8.73 3.87,-18.6 4.97,-28.16 1.79,-15.63 3.64,-31.79 12.54,-44.26 8.99,-12.6 23.72,-19.63 37.97,-26.42 8.63,-4.11 17.55,-8.37 24.79,-13.74 7.12,-5.28 13.4,-12.19 20.05,-19.5 10.68,-11.74 21.72,-23.88 36.63,-28.87 14.23,-4.77 30.09,-1.86 45.43,0.95 9.61,1.76 19.55,3.58 28.96,3.5 9.41,-0.09 19.31,-2.1 28.89,-4.04 15.28,-3.1 31.08,-6.3 45.4,-1.8 15,4.71 26.27,16.65 37.16,28.18 6.79,7.19 13.2,13.98 20.41,19.12 7.34,5.24 16.34,9.33 25.04,13.28 14.37,6.52 29.22,13.27 38.45,25.71 9.13,12.3 11.28,28.42 13.36,44.02 1.27,9.53 2.58,19.38 5.49,28.06 1.34,4.01 3.12,7.97 5.15,11.96l-0 0 -6.24 0.06c-1.64,-3.39 -3.09,-6.8 -4.24,-10.23 -3.08,-9.18 -4.43,-19.31 -5.73,-29.1 -2.08,-15.57 -4.04,-30.28 -12.3,-41.41 -8.36,-11.27 -22.54,-17.71 -36.26,-23.94 -8.95,-4.06 -18.19,-8.27 -25.98,-13.82 -7.66,-5.47 -14.56,-12.77 -21.23,-19.84 -10.4,-11.02 -21.16,-22.4 -34.76,-26.68 -12.94,-4.07 -27.35,-1.15 -42.6,1.95 -9.84,1.99 -20.01,4.06 -29.96,4.15 -9.95,0.09 -20.16,-1.78 -30.03,-3.59 -15.31,-2.81 -29.77,-5.46 -42.63,-1.15 -13.52,4.53 -24.06,16.12 -34.25,27.33 -6.54,7.19 -13.3,14.62 -20.85,20.23 -7.68,5.7 -16.85,10.08 -25.72,14.31 -13.6,6.49 -27.66,13.19 -35.81,24.61 -8.05,11.29 -9.74,26.03 -11.53,41.64 -1.13,9.82 -2.29,19.97 -5.19,29.2 -1.09,3.46 -2.48,6.9 -4.05,10.31l-6.24 0.06z"/>
   <path class="fil1" d="M271.25 436.44c-89.56,0.84 -166.4,-56.26 -194.86,-136.26l14.93 -0.14c27.76,72.11 98.1,123.12 179.8,122.36 81.7,-0.76 151.07,-53.08 177.48,-125.7l14.93 -0.14c-26.96,80.52 -102.72,139.05 -192.28,139.88zm-199.04 -260c23.99,-85.4 102.15,-148.55 195.21,-149.42 93.06,-0.87 172.39,60.81 197.97,145.75l-14.67 0.14c-25.05,-77.08 -97.93,-132.63 -183.17,-131.84l0 0c-85.24,0.8 -157.06,57.7 -180.67,135.24l-14.67 0.14z"/>
   <path class="fil2" d="M270.32 336.34c-32.38,0.3 -61.51,-14.22 -80.93,-37.22l11.29 -0.11c17.68,18.03 42.38,29.15 69.57,28.89 27.19,-0.25 51.67,-11.83 69.01,-30.19l11.29 -0.11c-18.98,23.36 -47.84,38.42 -80.22,38.72zm-89.1 -160.92c18.43,-28.74 50.53,-47.96 87.15,-48.3 36.62,-0.34 69.07,18.27 88.04,46.66l-10.26 0.1c-17.76,-23.51 -46.03,-38.63 -77.69,-38.33l0 0c-31.66,0.29 -59.65,15.94 -76.96,39.78l-10.26 0.1z"/>
   <polygon class="fil3" points="267.78,64.96 273.65,76.59 286.56,78.34 277.31,87.52 279.64,100.33 268.05,94.38 256.58,100.55 258.67,87.69 249.25,78.69 262.12,76.7 "/>
   <polygon class="fil4" points="196.73,83.21 202.6,94.83 215.51,96.59 206.27,105.76 208.59,118.58 197.01,112.63 185.54,118.8 187.62,105.94 178.21,96.94 191.08,94.94 "/>
   <polygon class="fil5" points="145.8,128.26 151.67,139.89 164.58,141.64 155.33,150.82 157.66,163.63 146.07,157.68 134.6,163.85 136.69,150.99 127.27,141.99 140.14,139.99 "/>
   <polygon class="fil6" points="339.15,81.88 333.5,93.61 320.63,95.6 330.04,104.61 327.96,117.46 339.43,111.29 351.01,117.25 348.69,104.43 357.93,95.25 345.03,93.5 "/>
   <polygon class="fil7" points="390.92,125.97 385.26,137.7 372.39,139.69 381.81,148.7 379.72,161.55 391.19,155.39 402.78,161.34 400.46,148.52 409.7,139.35 396.79,137.6 "/>
   <polygon class="fil8" points="270.96,405.2 265.09,393.57 252.18,391.82 261.42,382.64 259.1,369.83 270.68,375.78 282.16,369.61 280.07,382.47 289.48,391.47 276.61,393.46 "/>
   <polygon class="fil9" points="342.01,386.95 336.13,375.32 323.23,373.57 332.47,364.39 330.15,351.58 341.73,357.53 353.2,351.36 351.12,364.22 360.53,373.22 347.66,375.22 "/>
   <polygon class="fil10" points="392.94,341.9 387.07,330.27 374.16,328.52 383.4,319.34 381.08,306.53 392.66,312.48 404.13,306.31 402.05,319.17 411.46,328.17 398.59,330.16 "/>
   <polygon class="fil11" points="199.58,388.28 205.24,376.55 218.11,374.55 208.7,365.55 210.78,352.7 199.31,358.86 187.73,352.91 190.05,365.73 180.81,374.9 193.71,376.65 "/>
   <polygon class="fil12" points="147.82,344.19 153.47,332.46 166.34,330.46 156.93,321.46 159.01,308.6 147.54,314.77 135.96,308.82 138.28,321.64 129.04,330.81 141.95,332.56 "/>
   <path class="fil13" d="M104.97 212.26c4.06,3.7 6.12,8.18 6.17,13.46 0.04,4.21 -1.43,8.28 -4.42,12.22 -1.58,2.03 -3.95,3.7 -7.11,5 -3.16,1.3 -6.9,1.98 -11.23,2.02l-9.26 0.09 -0.16 0 0.23 24.27 -11.1 0.1 -4.1 0.04 -0.58 -62.4 2.69 -0.02 14.18 -0.13 7.76 -0.07c7.23,-0.07 12.88,1.75 16.94,5.44zm329.31 2.88l0.37 39.29 6.76 -0.06c5.81,-0.05 10.35,-1.87 13.64,-5.46 3.28,-3.59 4.9,-8.37 4.84,-14.36 -0.06,-5.99 -1.76,-10.74 -5.11,-14.27 -3.35,-3.52 -7.93,-5.26 -13.74,-5.21l-6.76 0.06zm-295.22 9.34l-7.17 22.29 14.76 -0.14 -7.59 -22.15zm-45.33 6.83c1.32,-1.38 1.97,-3.18 1.95,-5.4 -0.02,-2.22 -0.72,-4.04 -2.1,-5.45 -1.38,-1.41 -3.19,-2.1 -5.44,-2.08l-9.02 0.08 -0.4 0 0.06 6.58 0.08 8.44 9.42 -0.09c2.31,-0.02 4.13,-0.72 5.45,-2.1zm14.9 37.73l21.11 -62.78 18.49 -0.17 22.19 62.38 -16.27 0.15 -3.56 -10.46 -22.4 0.21 -3.37 10.52 -16.18 0.15zm68.02 -63.04l39.41 -0.37 0.11 11.56 -17.07 0.16 0.48 50.85 -15.2 0.14 -0.47 -50.85 -9.71 0.09 -7.27 0.07 -0.07 -6.99 -0.04 -4.57 1.09 -0.01 8.74 -0.08zm42.27 -0.57l37.78 -0.35 0.11 11.56 -22.58 0.21 0.13 13.42 19.91 -0.19 0.11 11.56 -19.91 0.19 0.14 14.49 22.58 -0.21 0.11 11.56 -37.78 0.35 -0.59 -62.58zm85.26 -0.8l15.2 -0.14 0.59 62.58 -15.2 0.14 -25.79 -39.14 0.37 39.38 -15.2 0.14 -0.59 -62.58 15.2 -0.14 25.79 39.14 -0.37 -39.38zm18.17 11.57l-0.11 -11.56 39.3 -0.37 8.74 -0.08 1.21 -0.01 0.05 5.11 0.06 6.45 -7.38 0.07 -9.68 0.09 0.48 50.85 -15.2 0.14 -0.47 -50.85 -16.98 0.16zm52.58 50.36l-0.59 -62.58 37.78 -0.35 0.11 11.56 -22.58 0.21 0.13 13.42 19.91 -0.19 0.11 11.56 -19.91 0.19 0.14 14.49 22.58 -0.21 0.11 11.56 -37.78 0.35zm44.64 -0.42l-0.58 -62.4 21.96 -0.21c6.61,-0.06 12.44,1.16 17.51,3.65 2.57,1.27 4.94,2.86 7.11,4.78 4.06,3.59 6.86,7.88 8.4,12.86 0.91,2.94 1.38,6.12 1.41,9.54 0.04,4.06 -0.55,7.79 -1.76,11.2 -1.54,4.33 -4.08,8.14 -7.63,11.43 -2.53,2.34 -5.35,4.22 -8.45,5.64 -4.68,2.14 -10.01,3.24 -16,3.3l-21.96 0.21zm110.28 29.81c7.64,-0.07 11.04,-5.69 7.57,-12.5l-18.84 -36.86c-3.48,-6.8 -3.58,-17.99 -0.23,-24.85l18.15 -37.21c3.35,-6.87 -0.16,-12.43 -7.8,-12.35l-42.06 0.39 -6.24 0.06 -14.97 0.14 -14.68 0.14 -94.33 0.88 -10.26 0.1 -154.67 1.45 -10.27 0.1 -94.32 0.88 -14.68 0.14 -14.97 0.14 -6.24 0.06 -42.06 0.39c-7.64,0.07 -11.04,5.7 -7.57,12.5l18.84 36.86c3.48,6.8 3.58,17.99 0.23,24.85l-18.15 37.2c-3.35,6.87 0.16,12.43 7.8,12.35l46.23 -0.43 5.96 -0.05 14.1 -0.13 14.93 -0.14 98.07 -0.92 11.29 -0.11 138.59 -1.3 11.29 -0.1 98.07 -0.92 14.93 -0.14 14.1 -0.13 5.96 -0.05 46.24 -0.43z"/>
  </g>
 </g>
</svg>
