<svg width="21" height="20" viewBox="0 0 21 20" fill="none" xmlns="http://www.w3.org/2000/svg">
<path d="M15.0653 12.9296C16.2757 11.278 16.8178 9.23025 16.5832 7.19607C16.3486 5.1619 15.3546 3.29131 13.8 1.95855C12.2455 0.625789 10.245 -0.0708582 8.19888 0.00798323C6.15274 0.0868247 4.21182 0.93534 2.76443 2.38377C1.31703 3.8322 0.469904 5.77373 0.392527 7.81993C0.31515 9.86613 1.01323 11.8661 2.3471 13.4197C3.68097 14.9733 5.55227 15.966 7.58661 16.1991C9.62096 16.4323 11.6683 15.8887 13.3191 14.6771H13.3178C13.3553 14.7271 13.3953 14.7746 13.4403 14.8209L18.2528 19.6334C18.4872 19.8679 18.8052 19.9998 19.1368 19.9999C19.4684 20 19.7864 19.8684 20.021 19.634C20.2555 19.3996 20.3874 19.0817 20.3875 18.7501C20.3876 18.4185 20.256 18.1004 20.0216 17.8659L15.2091 13.0534C15.1644 13.0081 15.1163 12.9664 15.0653 12.9284V12.9296ZM15.3878 8.12464C15.3878 9.02748 15.21 9.92147 14.8645 10.7556C14.519 11.5897 14.0126 12.3476 13.3742 12.986C12.7358 13.6244 11.9779 14.1308 11.1438 14.4763C10.3097 14.8218 9.41568 14.9996 8.51284 14.9996C7.61 14.9996 6.71601 14.8218 5.88189 14.4763C5.04778 14.1308 4.28988 13.6244 3.65148 12.986C3.01308 12.3476 2.50667 11.5897 2.16117 10.7556C1.81567 9.92147 1.63784 9.02748 1.63784 8.12464C1.63784 6.30127 2.36217 4.55259 3.65148 3.26328C4.94079 1.97397 6.68948 1.24964 8.51284 1.24964C10.3362 1.24964 12.0849 1.97397 13.3742 3.26328C14.6635 4.55259 15.3878 6.30127 15.3878 8.12464Z" fill="#1B183B"/>
</svg>
