<?xml version="1.0" encoding="UTF-8"?>
<!DOCTYPE svg PUBLIC "-//W3C//DTD SVG 1.0//EN" "http://www.w3.org/TR/2001/REC-SVG-20010904/DTD/svg10.dtd">
<!-- Creator: CorelDRAW 2020 (64-Bit) -->
<svg xmlns="http://www.w3.org/2000/svg" xml:space="preserve" width="18.517mm" height="11.97mm" version="1.0" style="shape-rendering:geometricPrecision; text-rendering:geometricPrecision; image-rendering:optimizeQuality; fill-rule:evenodd; clip-rule:evenodd"
viewBox="0 0 208.55 134.82"
 xmlns:xlink="http://www.w3.org/1999/xlink"
 xmlns:xodm="http://www.corel.com/coreldraw/odm/2003">
 <defs>
  <style type="text/css">
   <![CDATA[
    .fil0 {fill:#4564AF}
    .fil1 {fill:white}
   ]]>
  </style>
 </defs>
 <g id="Layer_x0020_1">
  <metadata id="CorelCorpID_0Corel-Layer"/>
  <g id="_2622595000944">
   <path class="fil0" d="M166.08 49.88l-123.62 0c-23.45,0 -42.47,19.01 -42.47,42.46 0,23.45 19.01,42.47 42.47,42.47l0 0 123.62 0c23.46,0 42.47,-19.01 42.47,-42.47l0 0c0,-23.46 -19.01,-42.46 -42.47,-42.46z"/>
   <path class="fil1" d="M120.72 64.31c-0.78,0.43 -1.38,1.04 -1.8,1.85l0 0c-0.41,0.81 -0.61,1.78 -0.61,2.92l0 0 0 3.97c0,1.14 0.2,2.12 0.61,2.92l0 0c0.42,0.81 1.01,1.42 1.8,1.84l0 0c0.78,0.42 1.17,0.63 1.17,0.63l0 0 1.65 0c0.91,0 1.72,-0.19 2.44,-0.59l0 0c0.72,-0.39 1.31,-0.96 1.77,-1.71l0 0c0.47,-0.75 0.79,-1.65 0.98,-2.71l0 0 -2.83 0c-0.1,0.49 -0.26,0.9 -0.48,1.24l0 0c-0.22,0.34 -0.48,0.59 -0.81,0.77l0 0c-0.32,0.18 -0.68,0.26 -1.08,0.26l0 0c-0.51,0 -0.94,-0.1 -1.3,-0.32l0 0c-0.36,-0.21 -0.63,-0.51 -0.82,-0.91l0 0c-0.19,-0.4 -0.29,-0.88 -0.29,-1.45l0 0 0 -3.97c0,-0.57 0.09,-1.05 0.29,-1.45l0 0c0.19,-0.4 0.46,-0.71 0.82,-0.91l0 0c0.36,-0.21 0.8,-0.32 1.3,-0.32l0 0c0.39,0 0.74,0.09 1.06,0.27l0 0c0.31,0.18 0.59,0.44 0.81,0.78l0 0c0.22,0.34 0.39,0.75 0.49,1.23l0 0 2.83 0c-0.18,-1.06 -0.5,-1.96 -0.97,-2.71l0 0c-0.47,-0.75 -1.06,-1.32 -1.78,-1.71l0 0c-0.72,-0.39 -1.53,-0.59 -2.44,-0.59l0 0c-1.1,0 -2.04,0.22 -2.83,0.64zm-32.02 56.35l0 0 1.09 0c1.14,-0.01 2.11,-0.18 2.93,-0.52l0 0c0.82,-0.34 1.46,-0.85 1.89,-1.51l0 0c0.43,-0.66 0.64,-1.45 0.64,-2.37l0 0 0 -0.02c0,-0.99 -0.2,-1.76 -0.61,-2.33l0 0c-0.42,-0.57 -0.93,-0.98 -1.54,-1.23l0 0c-0.62,-0.26 -1.38,-0.47 -2.3,-0.66l0 0c-0.04,-0.01 -0.08,-0.01 -0.11,-0.02l0 0c-0.04,-0.01 -0.08,-0.02 -0.11,-0.02l0 0c-0.02,-0.01 -0.05,-0.01 -0.08,-0.02l0 0c-0.03,-0 -0.05,-0.01 -0.08,-0.01l0 0c-0.64,-0.13 -1.13,-0.25 -1.49,-0.36l0 0c-0.35,-0.11 -0.65,-0.29 -0.88,-0.53l0 0c-0.24,-0.25 -0.36,-0.58 -0.36,-0.99l0 0 0 -0.01c0,-0.5 0.23,-0.89 0.69,-1.16l0 0c0.46,-0.27 1.1,-0.41 1.94,-0.41l0 0c0.56,0 1.14,0.11 1.75,0.32l0 0c0.61,0.21 1.19,0.51 1.75,0.9l0 0 1.15 -2.31c-0.47,-0.32 -0.95,-0.59 -1.47,-0.82l0 0c-0.52,-0.23 -1.05,-0.4 -1.59,-0.52l0 0c-0.54,-0.12 -1.07,-0.18 -1.59,-0.18l0 0c-1.13,0 -2.09,0.17 -2.89,0.52 -0.8,0.35 -1.41,0.86 -1.82,1.52l0 0c-0.42,0.66 -0.63,1.46 -0.63,2.4l0 0 0 0.01c0,1.05 0.22,1.87 0.67,2.45l0 0c0.45,0.57 0.98,0.97 1.62,1.2l0 0c0.64,0.23 1.44,0.42 2.41,0.58l0 0 0.22 0.03c0.02,0 0.04,0.01 0.05,0.01l0 0c0.02,0 0.03,0.01 0.06,0.01l0 0c0.55,0.09 1,0.18 1.35,0.29l0 0c0.35,0.11 0.64,0.27 0.86,0.5l0 0c0.22,0.23 0.33,0.53 0.33,0.92l0 0 0 0.01c0,0.55 -0.25,0.98 -0.74,1.28l0 0c-0.49,0.3 -1.18,0.45 -2.07,0.45l0 0c-0.77,0 -1.52,-0.13 -2.25,-0.37l0 0c-0.73,-0.25 -1.38,-0.6 -1.93,-1.06l0 0 -1.27 2.25c0.46,0.38 0.98,0.7 1.56,0.97l0 0c0.58,0.27 1.2,0.47 1.86,0.61l0 0 0.99 0.21zm24.66 0l0 0 1.09 0c1.14,-0.01 2.11,-0.18 2.93,-0.52l0 0c0.82,-0.34 1.46,-0.85 1.89,-1.51l0 0c0.43,-0.66 0.65,-1.45 0.65,-2.37l0 0 0 -0.02c0,-0.99 -0.21,-1.76 -0.62,-2.33l0 0c-0.41,-0.57 -0.92,-0.98 -1.54,-1.23l0 0c-0.61,-0.26 -1.38,-0.47 -2.3,-0.66l0 0c-0.04,-0.01 -0.08,-0.01 -0.11,-0.02l0 0c-0.04,-0.01 -0.08,-0.02 -0.12,-0.02l0 0c-0.03,-0.01 -0.05,-0.01 -0.08,-0.02l0 0c-0.02,-0 -0.05,-0.01 -0.08,-0.01l0 0c-0.64,-0.13 -1.13,-0.25 -1.49,-0.36l0 0c-0.35,-0.11 -0.65,-0.29 -0.89,-0.53l0 0c-0.24,-0.25 -0.36,-0.58 -0.36,-0.99l0 0 0 -0.01c0,-0.5 0.23,-0.89 0.69,-1.16l0 0c0.46,-0.27 1.11,-0.41 1.94,-0.41l0 0c0.55,0 1.14,0.11 1.75,0.32l0 0c0.61,0.21 1.19,0.51 1.75,0.9l0 0 1.16 -2.31c-0.47,-0.32 -0.96,-0.59 -1.48,-0.82l0 0c-0.52,-0.23 -1.05,-0.4 -1.59,-0.52l0 0c-0.54,-0.12 -1.07,-0.18 -1.59,-0.18l0 0c-1.13,0 -2.09,0.17 -2.89,0.52 -0.8,0.35 -1.41,0.86 -1.82,1.52l0 0c-0.42,0.66 -0.63,1.46 -0.63,2.4l0 0 0 0.01c0,1.05 0.22,1.87 0.67,2.45l0 0c0.44,0.57 0.98,0.97 1.62,1.2l0 0c0.64,0.23 1.44,0.42 2.41,0.58l0 0 0.22 0.03c0.02,0 0.04,0.01 0.06,0.01l0 0c0.02,0 0.04,0.01 0.06,0.01l0 0c0.55,0.09 1,0.18 1.35,0.29l0 0c0.35,0.11 0.64,0.27 0.86,0.5l0 0c0.22,0.23 0.33,0.53 0.33,0.92l0 0 0 0.01c0,0.55 -0.25,0.98 -0.74,1.28l0 0c-0.49,0.3 -1.18,0.45 -2.07,0.45l0 0c-0.77,0 -1.52,-0.13 -2.25,-0.37l0 0c-0.73,-0.25 -1.38,-0.6 -1.93,-1.06l0 0 -1.26 2.25c0.46,0.38 0.98,0.7 1.56,0.97l0 0c0.58,0.27 1.2,0.47 1.86,0.61l0 0 0.99 0.21zm72.94 -21.26l0 -2.63 -6.97 0 0 -3.25 5.87 0 0 -2.63 -5.87 0 0 -3.35 6.97 0 0 -2.63 -6.97 0 -2.73 0 0 14.48 0.99 0 8.71 0zm-86.11 -35.07c-0.8,0.44 -1.42,1.06 -1.86,1.87l0 0c-0.44,0.81 -0.66,1.74 -0.66,2.8l0 0 0 4.11c0,1.06 0.22,2 0.66,2.81l0 0c0.44,0.81 1.06,1.43 1.86,1.87l0 0c0.8,0.44 1.73,0.66 2.78,0.66l0 0c1.05,0 1.97,-0.22 2.77,-0.66l0 0c0.8,-0.44 1.42,-1.07 1.86,-1.87l0 0c0.44,-0.81 0.66,-1.74 0.66,-2.81l0 0 0 -4.11c0,-1.06 -0.22,-1.99 -0.66,-2.8l0 0c-0.44,-0.81 -1.06,-1.43 -1.86,-1.87l0 0c-0.8,-0.44 -1.73,-0.67 -2.77,-0.67l0 0c-1.05,0 -1.97,0.22 -2.78,0.67zm1.48 11.07c-0.37,-0.21 -0.66,-0.5 -0.86,-0.89l0 0c-0.2,-0.39 -0.3,-0.83 -0.3,-1.34l0 0 0 -4.24c0,-0.5 0.1,-0.95 0.3,-1.33l0 0c0.2,-0.38 0.49,-0.68 0.86,-0.89l0 0c0.37,-0.21 0.8,-0.32 1.29,-0.32l0 0c0.49,0 0.92,0.1 1.29,0.32l0 0c0.37,0.21 0.66,0.5 0.86,0.89l0 0c0.2,0.39 0.3,0.83 0.3,1.33l0 0 0 4.24c0,0.5 -0.1,0.95 -0.3,1.34l0 0c-0.2,0.38 -0.49,0.68 -0.86,0.89l0 0c-0.37,0.21 -0.8,0.32 -1.29,0.32l0 0c-0.49,0 -0.92,-0.1 -1.29,-0.32zm33.1 -11.59l-2.73 0 0 14.49 0.99 0 8.72 0 0 -2.63 -6.97 0 0 -3.25 5.88 0 0 -2.63 -5.88 0 0 -3.35 6.97 0 0 -2.63 -6.97 0zm-23.01 14.49l2.83 0 0 -14.49 -2.83 0 0 14.49zm-19.11 -14.49l-3.08 9.66 -3.08 -9.66 -2.81 0 4.82 14.49 2.13 0 4.82 -14.49 -2.81 0zm72.61 21.6c-0.78,0.42 -1.38,1.04 -1.79,1.85l0 0c-0.41,0.81 -0.62,1.78 -0.62,2.92l0 0 0 3.97c0,1.14 0.21,2.12 0.62,2.92l0 0c0.41,0.81 1.01,1.42 1.79,1.84l0 0c0.78,0.42 1.18,0.63 1.18,0.63l0 0 1.65 0c0.91,0 1.72,-0.2 2.44,-0.59l0 0c0.71,-0.39 1.3,-0.96 1.77,-1.71l0 0c0.47,-0.75 0.8,-1.65 0.98,-2.71l0 0 -2.83 0c-0.1,0.48 -0.26,0.9 -0.48,1.24l0 0c-0.22,0.34 -0.49,0.59 -0.81,0.77l0 0c-0.32,0.18 -0.68,0.26 -1.08,0.26l0 0c-0.51,0 -0.95,-0.1 -1.3,-0.32l0 0c-0.36,-0.21 -0.63,-0.51 -0.82,-0.91l0 0c-0.19,-0.4 -0.28,-0.88 -0.28,-1.44l0 0 0 -3.97c0,-0.57 0.09,-1.05 0.28,-1.45l0 0c0.19,-0.4 0.46,-0.71 0.82,-0.91l0 0c0.36,-0.21 0.79,-0.32 1.3,-0.32l0 0c0.39,0 0.74,0.09 1.06,0.27l0 0c0.32,0.18 0.58,0.44 0.81,0.78l0 0c0.22,0.34 0.39,0.75 0.5,1.22l0 0 2.83 0c-0.18,-1.05 -0.5,-1.95 -0.97,-2.7l0 0c-0.47,-0.75 -1.06,-1.32 -1.78,-1.71l0 0c-0.72,-0.39 -1.53,-0.59 -2.44,-0.59l0 0c-1.1,0 -2.05,0.21 -2.83,0.64zm-77.88 0.03c-0.8,0.45 -1.41,1.08 -1.85,1.9l0 0c-0.43,0.82 -0.65,1.76 -0.65,2.84l0 0 0 4.27c0,1.02 0.22,1.91 0.66,2.68l0 0c0.44,0.77 1.06,1.37 1.87,1.79l0 0c0.8,0.42 1.74,0.63 2.79,0.63l0 0c1.05,0 1.97,-0.22 2.77,-0.67l0 0c0.8,-0.44 1.42,-1.08 1.85,-1.9l0 0c0.43,-0.82 0.65,-1.77 0.65,-2.85l0 0 0 -2.82 -5.02 0 0 2.63 2.19 0 0 0.24c0,0.52 -0.1,0.98 -0.3,1.36l0 0c-0.2,0.39 -0.49,0.68 -0.85,0.88l0 0c-0.37,0.2 -0.8,0.3 -1.29,0.3l0 0c-0.5,0 -0.93,-0.09 -1.31,-0.28l0 0c-0.38,-0.18 -0.67,-0.45 -0.88,-0.79l0 0c-0.21,-0.35 -0.31,-0.75 -0.31,-1.2l0 0 0 -4.27c0,-0.51 0.1,-0.96 0.3,-1.35l0 0c0.2,-0.39 0.49,-0.69 0.86,-0.91l0 0c0.37,-0.22 0.79,-0.32 1.28,-0.32l0 0c0.33,0 0.65,0.06 0.96,0.17l0 0c0.31,0.12 0.58,0.29 0.81,0.51l0 0c0.23,0.22 0.39,0.49 0.49,0.79l0 0 2.95 0c-0.17,-0.86 -0.5,-1.61 -0.99,-2.26l0 0c-0.49,-0.65 -1.1,-1.16 -1.83,-1.51l0 0c-0.73,-0.36 -1.53,-0.53 -2.39,-0.53l0 0c-1.05,0 -1.98,0.22 -2.77,0.67zm68.96 -0.52l0 10.61 -5.15 -10.61 -3.34 0 0 14.47 2.61 0 0 -10.44 5.13 10.44 3.36 0 0 -14.47 -2.61 0zm-18.57 0l-5.53 14.48 2.94 0 0.81 -2.32 5.3 0 0.81 2.32 2.94 0 -5.54 -14.48 -1.73 0zm0.87 4.59l1.73 4.94 -3.46 0 1.73 -4.94zm-16.09 -4.59l-2.73 0 0 14.48 1.38 0 3.41 0c1.24,0 2.29,-0.22 3.15,-0.64l0 0c0.86,-0.43 1.5,-1.04 1.93,-1.82l0 0c0.43,-0.77 0.64,-1.69 0.64,-2.73l0 0 0 -4.11c0,-1.1 -0.22,-2.04 -0.67,-2.81l0 0c-0.44,-0.77 -1.1,-1.37 -1.95,-1.77l0 0c-0.85,-0.4 -1.88,-0.61 -3.09,-0.61l0 0 -2.06 0zm2.12 2.63c0.9,0 1.59,0.22 2.08,0.65l0 0c0.49,0.43 0.74,1.04 0.74,1.83l0 0 0 4.26c0,0.79 -0.24,1.4 -0.74,1.83l0 0c-0.49,0.43 -1.18,0.65 -2.08,0.65l0 0 -2.12 0 0 -9.23 2.12 0zm-11.69 11.85l2.83 0 0 -14.48 -2.83 0 0 14.48zm-6.34 -14.48l0 9.31c0,0.83 -0.23,1.47 -0.67,1.94l0 0c-0.45,0.46 -1.08,0.69 -1.9,0.69l0 0c-0.81,0 -1.44,-0.23 -1.88,-0.69l0 0c-0.44,-0.46 -0.67,-1.1 -0.67,-1.94l0 0 0 -9.31 -2.73 0 0 9.24c0,1.14 0.21,2.11 0.62,2.91l0 0c0.41,0.81 1.01,1.42 1.8,1.84l0 0c0.79,0.42 1.74,0.63 2.86,0.63l0 0c1.12,0 2.07,-0.21 2.87,-0.63l0 0c0.79,-0.42 1.4,-1.04 1.81,-1.84l0 0c0.41,-0.81 0.62,-1.78 0.62,-2.91l0 0 0 -9.24 -2.73 0zm50.34 21.11l-2.76 9.76 -2.76 -9.76 -3.6 0 0 14.48 2.48 0 0 -10.1 2.67 8.48 2.41 0 2.67 -8.66 0 10.28 2.48 0 0 -14.48 -3.6 0zm-19.6 0l-2.73 0 0 14.48 0.98 0 8.72 0 0 -2.63 -6.97 0 0 -3.25 5.88 0 0 -2.63 -5.88 0 0 -3.35 6.97 0 0 -2.63 -6.97 0zm-15.96 0l0 2.63 3.94 0 0 11.85 2.73 0 0 -11.85 3.94 0 0 -2.63 -10.62 0zm-16.36 0l-2.77 6.23 -2.77 -6.23 -2.86 0 4.26 8.9 0 5.59 2.73 0 0 -5.59 4.26 -8.9 -2.86 0z"/>
   <path class="fil1" d="M45.04 58.5l-0.09 0c-0.25,0 -0.49,0.01 -0.74,0.03 -6.63,0.51 -11.77,5.4 -12,11.73l0 0c-0.26,7.16 -0.27,14.34 0,21.5l0 0c0.25,6.41 6.05,11.64 12.58,11.62l0 0c6.56,-0.02 12.26,-5.22 12.55,-11.65l0 0c0.16,-3.59 0.03,-7.2 0.03,-10.8l0 0 0.08 0c0,-3.01 0.01,-6.03 -0.01,-9.04l0 0c-0.01,-1.17 -0.06,-2.35 -0.32,-3.51l0 0c-1.26,-5.62 -6.55,-9.88 -12.09,-9.88zm-23.11 28.01c-1.67,0.19 -2.95,1.58 -2.97,3.29l0 0c-0.01,1.14 0.05,2.27 0.19,3.4l0 0c1.43,11.21 10.12,20.27 21.3,22.14l0 0c0.68,0.11 0.94,0.35 0.92,1.04l0 0c-0.04,1.81 0.06,3.61 -0.03,5.41l0 0c-0.11,2.07 0.6,3.57 2.55,4.4l0 0 1.77 0c1.94,-0.83 2.65,-2.33 2.54,-4.4l0 0c-0.1,-1.8 -0.01,-3.6 -0.03,-5.41l0 0c-0.01,-0.6 0.13,-0.92 0.81,-1.03l0 0c5.07,-0.8 9.52,-2.96 13.26,-6.46l0 0c5.51,-5.15 8.34,-11.52 8.34,-19.09 0,-1.45 -0.88,-2.62 -2.22,-3.1l0 0c-2.2,-0.79 -4.35,0.68 -4.54,3.2l0 0c-0.1,1.32 -0.15,2.64 -0.42,3.94l0 0c-1.99,9.46 -10.94,15.98 -20.67,15l0 0c-8.3,-0.84 -15.63,-7.72 -16.77,-15.97l0 0c-0.17,-1.24 -0.06,-2.5 -0.35,-3.72l0 0c-0.39,-1.58 -1.74,-2.65 -3.29,-2.65l0 0c-0.13,0 -0.26,0.01 -0.39,0.02l0 0z"/>
   <path class="fil0" d="M36.58 0.54c-11.47,1.56 -21.73,5.98 -30.74,13.25l0 0c-1.69,1.36 -3.32,2.8 -4.82,4.36l0 0c-1.15,1.18 -1.31,2.72 -0.54,4.06l0 0c0.74,1.28 2.16,1.92 3.67,1.63l0 0c1.04,-0.2 1.71,-0.95 2.44,-1.62l0 0c14.5,-13.37 31.46,-18.02 50.71,-13.92l0 0c10.11,2.16 18.8,7.16 26.19,14.39l0 0c1.61,1.58 3.72,1.62 5.1,0.19l0 0c1.41,-1.46 1.28,-3.48 -0.37,-5.08l0 0c-12.1,-11.7 -26.59,-17.58 -43.39,-17.81l0 0c-0.3,-0.01 -0.59,-0.01 -0.88,-0.01l0 0c-2.48,0 -4.93,0.21 -7.37,0.54l0 0z"/>
   <path class="fil0" d="M44.7 15.23l-0.16 0c-8.23,0 -16.05,2.12 -23.39,6.37l0 0c-3.35,1.95 -6.39,4.31 -9.16,7.03l0 0c-1.49,1.47 -1.62,3.51 -0.33,4.93l0 0c1.29,1.42 3.33,1.46 4.93,0.08l0 0c0.5,-0.43 0.98,-0.88 1.48,-1.32l0 0c9.68,-8.51 20.93,-11.69 33.62,-9.66l0 0c6.19,0.98 11.78,3.48 16.84,7.2l0 0c1.66,1.22 3.12,2.68 4.7,4l0 0c1.08,0.9 2.32,1.09 3.6,0.49l0 0c1.28,-0.6 1.93,-1.65 1.95,-3.07l0 0c0.04,-1.12 -0.51,-1.96 -1.28,-2.7l0 0c-7.72,-7.52 -16.96,-11.9 -27.65,-13.05l0 0c-1.73,-0.19 -3.45,-0.28 -5.15,-0.29z"/>
   <path class="fil0" d="M44.36 31.33l-0.12 0 -0.11 0c-2.38,0.01 -4.72,0.36 -7.02,0.96l0 0c-5.35,1.38 -9.97,4.06 -13.89,7.93l0 0c-1.38,1.36 -1.42,3.39 -0.15,4.76l0 0c1.23,1.33 3.21,1.44 4.68,0.26l0 0c0.4,-0.32 0.77,-0.68 1.16,-1.02l0 0c5.91,-5.2 12.77,-7.01 20.47,-5.64l0 0c4.77,0.85 8.77,3.2 12.28,6.49l0 0c1.51,1.42 3.53,1.31 4.83,-0.07l0 0c1.33,-1.42 1.23,-3.47 -0.28,-4.92l0 0c-6,-5.76 -13.15,-8.69 -21.46,-8.74l0 0 -0.38 -0.01z"/>
  </g>
 </g>
</svg>
