<svg width="188" height="101" viewBox="0 0 188 101" fill="none" xmlns="http://www.w3.org/2000/svg">
<g clip-path="url(#clip0_368_1606)">
<path d="M149.926 36.2355C149.926 36.2723 155.566 36.3012 162.524 36.3012C169.482 36.3012 175.123 36.2723 175.123 36.2355C175.123 36.1988 169.482 36.1699 162.524 36.1699C155.566 36.1699 149.926 36.1988 149.926 36.2355Z" fill="#E0E0E0"/>
<path d="M149.926 39.5559C149.926 39.5926 155.566 39.6215 162.524 39.6215C169.482 39.6215 175.123 39.5926 175.123 39.5559C175.123 39.5191 169.482 39.4902 162.524 39.4902C155.566 39.4902 149.926 39.5217 149.926 39.5559Z" fill="#E0E0E0"/>
<path d="M8.16514 30.7454C8.13211 28.8383 8.85692 26.996 10.1805 25.6227C11.5042 24.2494 13.3185 23.4572 15.2255 23.4199L15.2859 27.1811C14.3857 27.2154 13.5347 27.6005 12.9149 28.2541C12.295 28.9077 11.9554 29.7779 11.9688 30.6786C11.9822 31.5793 12.3474 32.439 12.9864 33.0739C13.6254 33.7088 14.4875 34.0685 15.3882 34.0761L15.4565 37.832C13.5506 37.8565 11.7128 37.1243 10.3459 35.7959C8.97912 34.4674 8.19487 32.6512 8.16514 30.7454Z" fill="#E0E0E0"/>
<path d="M54.7913 56.0605H45.668V66.9057H54.7913V56.0605Z" fill="#F5F5F5"/>
<path d="M55.064 56.3785H44.875V55.3496H55.064C55.2032 55.3496 55.3367 55.4049 55.4352 55.5034C55.5336 55.6018 55.5889 55.7353 55.5889 55.8745C55.5835 56.0101 55.5258 56.1383 55.4279 56.2322C55.3301 56.3262 55.1996 56.3786 55.064 56.3785Z" fill="#E0E0E0"/>
<path d="M55.064 67.5816H44.875V66.5527H55.064C55.2032 66.5527 55.3367 66.608 55.4352 66.7065C55.5336 66.8049 55.5889 66.9384 55.5889 67.0777C55.5835 67.2132 55.5258 67.3414 55.4279 67.4354C55.3301 67.5293 55.1996 67.5817 55.064 67.5816Z" fill="#E0E0E0"/>
<path d="M42.7425 55.3496H37.8711V67.5832H42.7425V55.3496Z" fill="#EBEBEB"/>
<path d="M54.7916 57.85C54.7916 57.8815 52.8178 57.9052 50.3821 57.9052C47.9464 57.9052 45.9727 57.8815 45.9727 57.85C45.9727 57.8185 47.9464 57.7949 50.3821 57.7949C52.8178 57.7949 54.7916 57.8212 54.7916 57.85Z" fill="#E0E0E0"/>
<path d="M54.7916 59.4789C54.7916 59.5078 52.8178 59.5314 50.3821 59.5314C47.9464 59.5314 45.9727 59.5078 45.9727 59.4789C45.9727 59.4501 47.9464 59.4238 50.3821 59.4238C52.8178 59.4238 54.7916 59.4474 54.7916 59.4789Z" fill="#E0E0E0"/>
<path d="M54.7916 61.4829C54.7916 61.5117 52.8178 61.5353 50.3821 61.5353C47.9464 61.5353 45.9727 61.5117 45.9727 61.4829C45.9727 61.454 47.9464 61.4277 50.3821 61.4277C52.8178 61.4277 54.7916 61.4566 54.7916 61.4829Z" fill="#E0E0E0"/>
<path d="M54.7916 63.4802C54.7916 63.5117 52.8178 63.5353 50.3821 63.5353C47.9464 63.5353 45.9727 63.5117 45.9727 63.4802C45.9727 63.4487 47.9464 63.4277 50.3821 63.4277C52.8178 63.4277 54.7916 63.4514 54.7916 63.4802Z" fill="#E0E0E0"/>
<path d="M54.7916 65.4841C54.7916 65.5156 52.8178 65.5393 50.3821 65.5393C47.9464 65.5393 45.9727 65.5156 45.9727 65.4841C45.9727 65.4526 47.9464 65.4316 50.3821 65.4316C52.8178 65.4316 54.7916 65.4553 54.7916 65.4841Z" fill="#E0E0E0"/>
<path d="M54.6961 67.8262H45.4336V74.4351H54.6961V67.8262Z" fill="#FAFAFA"/>
<path d="M45.25 68.0643H55.2054C55.2367 68.0643 55.2678 68.0581 55.2968 68.0461C55.3258 68.0341 55.3521 68.0165 55.3743 67.9943C55.3964 67.9722 55.414 67.9458 55.426 67.9169C55.438 67.8879 55.4442 67.8568 55.4442 67.8254C55.4442 67.7619 55.4191 67.7008 55.3744 67.6556C55.3297 67.6104 55.269 67.5847 55.2054 67.584H45.25V68.0643Z" fill="#F5F5F5"/>
<path d="M45.25 74.1934H55.334C55.3632 74.1934 55.3913 74.205 55.4119 74.2256C55.4326 74.2463 55.4442 74.2744 55.4442 74.3036V74.5661C55.4442 74.5953 55.4326 74.6233 55.4119 74.644C55.3913 74.6647 55.3632 74.6763 55.334 74.6763H45.25V74.196V74.1934Z" fill="#F5F5F5"/>
<path d="M54.6992 69.0805C54.6992 69.1094 52.6467 69.1356 50.1191 69.1356C47.5916 69.1356 45.5391 69.1094 45.5391 69.0805C45.5391 69.0516 47.5889 69.0254 50.1191 69.0254C52.6493 69.0254 54.6992 69.0516 54.6992 69.0805Z" fill="#E0E0E0"/>
<path d="M54.6992 70.3279C54.6992 70.3594 52.6467 70.383 50.1191 70.383C47.5916 70.383 45.5391 70.3594 45.5391 70.3279C45.5391 70.2964 47.5889 70.2754 50.1191 70.2754C52.6493 70.2754 54.6992 70.299 54.6992 70.3279Z" fill="#E0E0E0"/>
<path d="M54.6992 71.5805C54.6992 71.6094 52.6467 71.633 50.1191 71.633C47.5916 71.633 45.5391 71.6094 45.5391 71.5805C45.5391 71.5516 47.5889 71.5254 50.1191 71.5254C52.6493 71.5254 54.6992 71.549 54.6992 71.5805Z" fill="#E0E0E0"/>
<path d="M54.6992 72.8305C54.6992 72.8594 52.6467 72.883 50.1191 72.883C47.5916 72.883 45.5391 72.8594 45.5391 72.8305C45.5391 72.8016 47.5889 72.7754 50.1191 72.7754C52.6493 72.7754 54.6992 72.799 54.6992 72.8305Z" fill="#E0E0E0"/>
<path d="M56.1025 75.3027H46.6484V93.2161H56.1025V75.3027Z" fill="#EBEBEB"/>
<path d="M56.8404 94.0938H45.4336V92.834H56.8404C57.0073 92.8347 57.1671 92.9013 57.2851 93.0193C57.4031 93.1372 57.4696 93.2971 57.4703 93.4639C57.4703 93.5466 57.454 93.6285 57.4224 93.705C57.3907 93.7814 57.3443 93.8508 57.2858 93.9093C57.2273 93.9678 57.1579 94.0142 57.0815 94.0459C57.0051 94.0775 56.9231 94.0938 56.8404 94.0938Z" fill="#E0E0E0"/>
<path d="M45.4336 74.6738H57.1816C57.2195 74.6738 57.2571 74.6813 57.2921 74.6958C57.3271 74.7103 57.359 74.7316 57.3858 74.7584C57.4126 74.7852 57.4339 74.817 57.4484 74.8521C57.4629 74.8871 57.4703 74.9246 57.4703 74.9625V75.645C57.4703 75.7215 57.4399 75.795 57.3858 75.8491C57.3316 75.9033 57.2582 75.9337 57.1816 75.9337H45.4336V74.6738Z" fill="#E0E0E0"/>
<path d="M56.1012 77.7029C56.1012 77.7344 53.9857 77.758 51.3768 77.758C48.7678 77.758 46.6523 77.7344 46.6523 77.7029C46.6523 77.6714 48.7678 77.6504 51.3768 77.6504C53.9857 77.6504 56.1012 77.674 56.1012 77.7029Z" fill="#E0E0E0"/>
<path d="M56.1012 79.9985C56.1012 80.0273 53.9857 80.051 51.3768 80.051C48.7678 80.051 46.6523 80.0273 46.6523 79.9985C46.6523 79.9696 48.7678 79.9434 51.3768 79.9434C53.9857 79.9434 56.1012 79.967 56.1012 79.9985Z" fill="#E0E0E0"/>
<path d="M56.1012 82.2954C56.1012 82.3242 53.9857 82.3505 51.3768 82.3505C48.7678 82.3505 46.6523 82.3242 46.6523 82.2954C46.6523 82.2665 48.7678 82.2402 51.3768 82.2402C53.9857 82.2402 56.1012 82.2665 56.1012 82.2954Z" fill="#E0E0E0"/>
<path d="M56.1012 84.5935C56.1012 84.625 53.9857 84.6486 51.3768 84.6486C48.7678 84.6486 46.6523 84.625 46.6523 84.5935C46.6523 84.562 48.7678 84.541 51.3768 84.541C53.9857 84.541 56.1012 84.5646 56.1012 84.5935Z" fill="#E0E0E0"/>
<path d="M56.1012 86.8933C56.1012 86.9221 53.9857 86.9457 51.3768 86.9457C48.7678 86.9457 46.6523 86.9221 46.6523 86.8933C46.6523 86.8644 48.7678 86.8381 51.3768 86.8381C53.9857 86.8381 56.1012 86.8618 56.1012 86.8933Z" fill="#E0E0E0"/>
<path d="M56.1012 89.1899C56.1012 89.2188 53.9857 89.245 51.3768 89.245C48.7678 89.245 46.6523 89.2188 46.6523 89.1899C46.6523 89.161 48.7678 89.1348 51.3768 89.1348C53.9857 89.1348 56.1012 89.161 56.1012 89.1899Z" fill="#E0E0E0"/>
<path d="M56.1012 91.4841C56.1012 91.5156 53.9857 91.5393 51.3768 91.5393C48.7678 91.5393 46.6523 91.5156 46.6523 91.4841C46.6523 91.4526 48.7678 91.4316 51.3768 91.4316C53.9857 91.4316 56.1012 91.4553 56.1012 91.4841Z" fill="#E0E0E0"/>
<path d="M33.969 71.6107C33.9776 71.7632 33.9549 71.9158 33.9022 72.0592C33.8496 72.2026 33.7681 72.3336 33.6629 72.4443C33.5576 72.555 33.4308 72.6429 33.2902 72.7027C33.1497 72.7624 32.9984 72.7928 32.8457 72.7918C32.6902 72.808 32.5335 72.7749 32.3979 72.6972C32.2622 72.6195 32.1544 72.5011 32.0898 72.3587L31.864 73.5057H31.6016L32.1396 70.7892H32.4021L32.3391 71.1068C32.4357 70.9984 32.5548 70.9124 32.6881 70.8548C32.8214 70.7973 32.9656 70.7695 33.1107 70.7734C33.2237 70.7655 33.337 70.7816 33.4433 70.8206C33.5496 70.8596 33.6465 70.9207 33.7275 70.9997C33.8086 71.0788 33.872 71.1741 33.9136 71.2794C33.9552 71.3847 33.9741 71.4976 33.969 71.6107ZM33.7065 71.6265C33.7126 71.5406 33.6996 71.4544 33.6684 71.3741C33.6372 71.2939 33.5887 71.2215 33.5262 71.1623C33.4637 71.1031 33.3888 71.0584 33.307 71.0316C33.2252 71.0047 33.1384 70.9963 33.053 71.007C32.9323 71.0065 32.8129 71.0313 32.7023 71.0796C32.5917 71.128 32.4925 71.1989 32.4109 71.2879C32.3294 71.3769 32.2673 71.4819 32.2287 71.5962C32.1902 71.7106 32.1759 71.8317 32.1869 71.9519C32.1803 72.0376 32.1929 72.1236 32.2238 72.2038C32.2547 72.284 32.3031 72.3562 32.3654 72.4153C32.4278 72.4744 32.5026 72.5189 32.5843 72.5454C32.666 72.5719 32.7526 72.5799 32.8378 72.5687C32.9578 72.5684 33.0764 72.5433 33.1862 72.4947C33.2959 72.4462 33.3944 72.3754 33.4753 72.2868C33.5563 72.1982 33.6179 72.0938 33.6564 71.9801C33.6948 71.8664 33.7092 71.746 33.6987 71.6265H33.7065Z" fill="#E0E0E0"/>
<path d="M36.369 71.4286C36.3695 71.5044 36.3625 71.58 36.348 71.6543L36.1223 72.783H35.8598L36.0882 71.6517C36.099 71.5919 36.1051 71.5314 36.1066 71.4706C36.1066 71.1871 35.936 71.0244 35.5816 71.0244C35.3837 71.0147 35.1896 71.0815 35.0396 71.211C34.8896 71.3405 34.7952 71.5227 34.7758 71.72L34.5632 72.783H34.3008L34.8598 69.9824H35.1223L34.8992 71.0953C34.9954 70.9913 35.1131 70.9095 35.2441 70.8556C35.3751 70.8017 35.5162 70.7769 35.6577 70.783C36.1223 70.7751 36.369 71.0165 36.369 71.4286Z" fill="#E0E0E0"/>
<path d="M38.8786 70.791L37.4351 73.0325C37.1884 73.4104 37.0046 73.5259 36.7185 73.5259C36.632 73.5299 36.5455 73.5164 36.4644 73.4862C36.3832 73.456 36.3089 73.4097 36.2461 73.3501L36.3905 73.1532C36.4353 73.2004 36.4895 73.2376 36.5497 73.2625C36.6098 73.2874 36.6745 73.2993 36.7395 73.2976C36.9101 73.2976 37.0414 73.2162 37.1962 72.9747L37.338 72.7648L36.8419 70.791H37.1044L37.5138 72.4813L38.5978 70.791H38.8786Z" fill="#E0E0E0"/>
<path d="M184.49 94.0897C184.49 94.1291 143.324 94.158 92.5607 94.158C41.7969 94.158 0.621094 94.1291 0.621094 94.0897C0.621094 94.0504 41.7759 94.0215 92.5607 94.0215C143.345 94.0215 184.49 94.053 184.49 94.0897Z" fill="#263238"/>
<path d="M167.214 80.6936C167.214 80.6936 160.256 72.6883 157.631 64.6831C155.006 56.6778 156.253 57.5965 156.253 57.5965C156.253 57.5965 159.796 65.376 162.487 69.1319C165.177 72.8878 169.983 78.397 169.983 78.397L167.214 80.6936Z" fill="#78BF84"/>
<path d="M168.599 58.8263C168.553 58.7421 168.479 58.6769 168.39 58.6424C168.3 58.6079 168.202 58.6062 168.111 58.6377C168.021 58.6693 167.944 58.7319 167.896 58.8146C167.847 58.8972 167.829 58.9944 167.846 59.0888C168.268 61.9024 169.187 68.5035 169.158 72.7843C169.111 78.346 169.158 80.4956 169.158 80.4956H172.045C172.045 80.4956 171.52 68.9995 170.877 65.493C170.421 63.0415 169.457 60.3119 168.599 58.8263Z" fill="#78BF84"/>
<path d="M170.18 79.5607C171.393 76.811 172.196 73.898 172.563 70.9151C172.802 68.8678 172.374 66.1014 171.741 62.4085C171.498 61.0581 171.376 59.6887 171.377 58.3166C171.378 58.1636 171.429 58.0152 171.524 57.8948C171.618 57.7744 171.75 57.6889 171.899 57.6516C172.047 57.6144 172.204 57.6275 172.344 57.689C172.484 57.7504 172.6 57.8567 172.673 57.9912C173.022 58.6158 174.035 60.7471 174.293 62.0804C174.993 65.7261 175.786 67.5502 175.18 71.0043C174.573 74.4584 172.329 79.7917 172.329 79.7917L170.18 79.5607Z" fill="#78BF84"/>
<path d="M172.785 79.8007C172.785 79.8007 180.426 63.3834 180.956 60.9477C181.486 58.512 183.284 52.9004 183.496 53.218C183.709 53.5356 184.021 56.5015 182.649 59.8899C181.276 63.2784 175.394 80.2994 175.394 80.2994H172.785" fill="#78BF84"/>
<path d="M169.342 79.0668C169.267 79.0232 169.195 78.9741 169.127 78.9198C168.993 78.8174 168.786 78.6731 168.536 78.4684C167.821 77.8997 167.136 77.2943 166.484 76.6547C164.332 74.5374 162.468 72.1459 160.941 69.5419C159.417 66.9396 158.15 64.1952 157.158 61.3476C156.775 60.2584 156.494 59.366 156.313 58.744C156.219 58.4369 156.153 58.1928 156.109 58.03C156.081 57.9447 156.061 57.8567 156.051 57.7676C156.087 57.8464 156.117 57.9281 156.14 58.0117L156.374 58.7177C156.573 59.3319 156.87 60.219 157.266 61.3004C158.289 64.1275 159.566 66.8561 161.082 69.4526C162.605 72.0472 164.449 74.4396 166.57 76.5734C167.387 77.387 168.088 78.0038 168.581 78.4106C168.825 78.6232 169.025 78.7755 169.153 78.8857C169.221 78.9408 169.284 79.0014 169.342 79.0668Z" fill="#309D41"/>
<path d="M170.177 71.1909C170.141 71.0329 170.118 70.8723 170.109 70.7106C170.072 70.3693 170.025 69.9231 169.969 69.3982C169.849 68.2854 169.66 66.7552 169.389 65.0728C169.119 63.3903 168.817 61.8759 168.584 60.784C168.471 60.2591 168.376 59.8234 168.305 59.4901C168.263 59.3327 168.234 59.172 168.219 59.0098C168.281 59.1601 168.33 59.3155 168.366 59.4743C168.452 59.7762 168.565 60.2145 168.696 60.7578C168.959 61.8444 169.279 63.3588 169.549 65.0465C169.82 66.7342 169.99 68.2696 170.074 69.3851C170.122 69.9441 170.151 70.3956 170.164 70.6974C170.185 70.861 170.19 71.0264 170.177 71.1909Z" fill="#309D41"/>
<path d="M171.968 57.8691C172.004 57.9362 172.034 58.0065 172.057 58.0791C172.118 58.234 172.194 58.4361 172.288 58.688C172.383 58.94 172.504 59.2786 172.617 59.667C172.729 60.0555 172.879 60.4859 172.987 60.9794L173.176 61.751C173.241 62.0135 173.286 62.3048 173.344 62.5962C173.47 63.1788 173.546 63.8114 173.638 64.4754C173.986 67.3663 173.882 70.2939 173.328 73.1526C173.189 73.8088 173.065 74.4334 172.9 75.0056C172.821 75.2917 172.756 75.5725 172.672 75.835C172.588 76.0975 172.506 76.36 172.428 76.5935C172.281 77.0791 172.105 77.5017 171.963 77.877C171.821 78.2523 171.685 78.5725 171.567 78.8298L171.304 79.4203C171.276 79.491 171.241 79.5588 171.199 79.6224C171.217 79.5484 171.243 79.4763 171.275 79.4072L171.517 78.8035C171.627 78.5411 171.758 78.2235 171.887 77.8455C172.015 77.4676 172.189 77.0424 172.328 76.5568C172.401 76.3153 172.48 76.0634 172.561 75.8009C172.643 75.5384 172.703 75.2576 172.779 74.9715C172.939 74.3993 173.042 73.7773 173.191 73.1342C173.724 70.2882 173.829 67.3785 173.501 64.5017C173.412 63.8403 173.341 63.2103 173.223 62.6303C173.165 62.339 173.123 62.0555 173.063 61.7878C173.002 61.5201 172.942 61.2628 172.884 61.0161C172.782 60.5227 172.643 60.087 172.538 59.7038C172.433 59.3206 172.33 58.9899 172.239 58.7222C172.147 58.4544 172.089 58.2602 172.039 58.1027C172.007 58.0275 171.984 57.9492 171.968 57.8691Z" fill="#309D41"/>
<path d="M183.409 53.5488C183.414 53.5731 183.414 53.598 183.409 53.6223C183.409 53.6801 183.388 53.7509 183.375 53.8349C183.341 54.0213 183.299 54.2995 183.225 54.6538C183.079 55.3598 182.832 56.3756 182.438 57.6092C182.044 58.8428 181.538 60.2864 180.918 61.8769C180.299 63.4675 179.585 65.1971 178.908 67.0396C178.231 68.8822 177.687 70.6774 177.189 72.3047C176.69 73.932 176.228 75.4018 175.774 76.6092C175.424 77.5668 175.022 78.5043 174.569 79.4176C174.412 79.7431 174.27 79.9845 174.181 80.1525L174.073 80.3389C174.062 80.3618 174.048 80.383 174.031 80.4018C174.037 80.3772 174.046 80.3534 174.058 80.331L174.152 80.1368C174.233 79.9635 174.365 79.7168 174.512 79.3887C174.819 78.7378 175.233 77.7824 175.666 76.5698C176.1 75.3572 176.559 73.8953 177.047 72.2627C177.535 70.6302 178.063 68.8297 178.753 66.9845C179.443 65.1394 180.155 63.4071 180.779 61.8218C181.404 60.2365 181.937 58.7982 182.328 57.5724C182.719 56.3467 182.987 55.3389 183.152 54.6381C183.236 54.289 183.288 54.0134 183.333 53.8297C183.354 53.7457 183.37 53.6774 183.383 53.6197C183.388 53.5948 183.397 53.5709 183.409 53.5488Z" fill="#309D41"/>
<path d="M159.856 49.9224C159.75 49.8217 159.614 49.7588 159.469 49.7438C159.324 49.7287 159.178 49.7622 159.054 49.8391C158.93 49.916 158.835 50.0318 158.784 50.1685C158.733 50.3052 158.729 50.455 158.772 50.5943C159.033 51.4384 159.354 52.2629 159.732 53.0615C160.782 55.2951 163.869 63.2977 165.312 67.6993C166.756 72.1009 168.79 80.2977 168.79 80.2977L171.874 79.7991C171.874 79.7991 169.053 66.3214 166.31 61.4526C164.082 57.5602 161.866 51.9224 159.856 49.9224Z" fill="#78BF84"/>
<path d="M166.152 70.4512C166.219 70.5681 166.273 70.6923 166.312 70.8213C166.404 71.0627 166.528 71.4144 166.667 71.8554C166.95 72.7346 167.299 73.9551 167.648 75.3278C167.997 76.7005 168.289 77.9367 168.491 78.837C168.585 79.2622 168.662 79.6244 168.725 79.9052C168.758 80.035 168.779 80.1677 168.788 80.3016C168.732 80.1795 168.69 80.052 168.662 79.921C168.588 79.6401 168.494 79.2858 168.381 78.8711L167.491 75.3646C167.142 73.9997 166.811 72.7688 166.557 71.8842L166.252 70.8344C166.206 70.7102 166.173 70.5819 166.152 70.4512Z" fill="#309D41"/>
<path d="M170.339 80.0515C170.331 80.0251 170.326 79.9978 170.323 79.9702C170.323 79.9045 170.302 79.8258 170.287 79.7261C170.255 79.5135 170.226 79.2011 170.161 78.7917C170.048 77.9833 169.846 76.8153 169.515 75.3927C169.12 73.7266 168.638 72.0822 168.071 70.4662C167.439 68.629 166.646 66.6657 165.746 64.6211C163.932 60.5397 162.121 56.9203 160.93 54.2458C160.329 52.9098 159.861 51.8206 159.554 51.0594C159.397 50.6814 159.292 50.3849 159.208 50.1828C159.174 50.0883 159.145 50.0148 159.121 49.9518C159.11 49.9268 159.102 49.9003 159.098 49.873C159.098 49.873 159.113 49.8967 159.137 49.9465C159.161 49.9964 159.197 50.0804 159.239 50.1696L159.612 51.0358C159.938 51.7864 160.42 52.873 161.035 54.1854C162.25 56.8494 164.079 60.4583 165.896 64.545C166.796 66.5922 167.586 68.5712 168.213 70.4059C168.775 72.0314 169.247 73.6865 169.628 75.3639C169.883 76.4905 170.082 77.6293 170.224 78.7759C170.279 79.1828 170.297 79.5003 170.321 79.7156C170.321 79.8153 170.334 79.894 170.339 79.9597C170.343 79.9901 170.343 80.021 170.339 80.0515Z" fill="#309D41"/>
<path d="M171.873 79.7998C171.825 79.6277 171.789 79.4522 171.768 79.2749C171.707 78.9127 171.626 78.435 171.529 77.8575C171.316 76.6633 171.004 75.0176 170.526 73.2276C170.048 71.4376 169.542 69.8392 169.143 68.6948L168.671 67.3457C168.602 67.1827 168.548 67.0141 168.508 66.8418C168.594 66.996 168.669 67.1566 168.731 67.3221C168.862 67.6344 169.048 68.0911 169.256 68.6607C169.814 70.1442 170.292 71.6565 170.689 73.1909C171.086 74.725 171.406 76.2782 171.647 77.8444C171.736 78.4455 171.802 78.9337 171.836 79.2722C171.861 79.4469 171.874 79.6233 171.873 79.7998Z" fill="#309D41"/>
<path d="M178.201 79.3574H166.164V94.0215H178.201V79.3574Z" fill="#73382A"/>
<g opacity="0.3">
<path d="M178.201 79.3574H166.164V94.0215H178.201V79.3574Z" fill="#051107"/>
</g>
<path d="M174.361 79.3574H163.684V94.0215H174.361V79.3574Z" fill="#73382A"/>
<path d="M17.893 74.2626C15.8405 72.9503 13.0007 72.924 11.0059 74.3177C9.11089 75.6432 8.14763 78.0527 8.23162 80.3545C8.31561 82.6563 9.43635 85.4857 11.5282 86.7009L17.6699 86.6747C18.6569 85.9564 19.4722 85.0279 20.0568 83.9563C20.6414 82.8846 20.9808 81.6966 21.0505 80.4778C21.1424 78.0527 19.9429 75.575 17.893 74.2626Z" fill="#78BF84"/>
<path d="M14.8662 86.9311C14.8373 86.7576 14.825 86.5819 14.8294 86.4061C14.8294 86.0282 14.8032 85.5452 14.7874 84.9652C14.7559 83.7499 14.7087 82.078 14.6273 80.2171C14.546 78.3562 14.4462 76.6843 14.3649 75.4691C14.3307 74.8917 14.3019 74.4192 14.2782 74.0308C14.2614 73.8562 14.2614 73.6804 14.2782 73.5059C14.3222 73.6779 14.3503 73.8536 14.3622 74.0308C14.4042 74.3694 14.4541 74.8602 14.5118 75.4665C14.6221 76.6791 14.7428 78.3536 14.8268 80.2145C14.9108 82.0754 14.9344 83.7552 14.9292 84.973C14.9292 85.582 14.9292 86.0728 14.9082 86.414C14.9097 86.5873 14.8957 86.7603 14.8662 86.9311Z" fill="#309D41"/>
<path d="M8.85008 79.8377C8.85008 79.8902 8.5115 79.9085 8.10468 79.8744C7.69785 79.8403 7.37239 79.7694 7.37502 79.7169C7.37764 79.6644 7.7136 79.6461 8.12042 79.6776C8.52725 79.7091 8.85533 79.7825 8.85008 79.8377Z" fill="#309D41"/>
<path d="M8.96638 77.7669C8.94276 77.8168 8.65667 77.7381 8.32334 77.5885C7.99001 77.4388 7.73804 77.2814 7.75904 77.2315C7.78003 77.1816 8.06875 77.263 8.40208 77.41C8.73541 77.557 8.98738 77.7276 8.96638 77.7669Z" fill="#309D41"/>
<path d="M10.0297 76.2255C10.0008 76.2701 9.67795 76.1179 9.34199 75.8397C9.00603 75.5615 8.79343 75.2701 8.8328 75.236C8.87217 75.2019 9.13989 75.4171 9.46535 75.6874C9.79081 75.9578 10.0585 76.1783 10.0297 76.2255Z" fill="#309D41"/>
<path d="M11.104 74.7756C11.0541 74.7966 10.8992 74.5552 10.7575 74.235C10.6158 73.9148 10.5397 73.6365 10.5895 73.6129C10.6394 73.5893 10.7943 73.8334 10.936 74.1562C11.0777 74.4791 11.1512 74.7546 11.104 74.7756Z" fill="#309D41"/>
<path d="M12.7869 73.7464C12.7371 73.7674 12.5717 73.5102 12.4589 73.1532C12.346 72.7963 12.3381 72.4866 12.3906 72.4787C12.4431 72.4708 12.5402 72.7411 12.6531 73.0929C12.7659 73.4446 12.8368 73.7228 12.7869 73.7464Z" fill="#309D41"/>
<path d="M15.5929 72.5852C15.6454 72.6036 15.6139 72.824 15.5246 73.0786C15.4354 73.3332 15.3199 73.5222 15.2622 73.5038C15.2044 73.4855 15.2412 73.2676 15.3304 73.013C15.4197 72.7584 15.543 72.5668 15.5929 72.5852Z" fill="#309D41"/>
<path d="M17.6771 73.4784C17.7139 73.5178 17.58 73.7015 17.3779 73.8878C17.1758 74.0742 16.9842 74.1923 16.9475 74.1503C16.9107 74.1083 17.0446 73.9272 17.2441 73.7409C17.4435 73.5545 17.6404 73.439 17.6771 73.4784Z" fill="#309D41"/>
<path d="M19.5091 74.6619C19.5406 74.7065 19.3779 74.8692 19.1469 75.0267C18.9159 75.1842 18.7033 75.2734 18.6718 75.2288C18.6403 75.1842 18.8057 75.0215 19.0366 74.864C19.2676 74.7065 19.4802 74.6172 19.5091 74.6619Z" fill="#309D41"/>
<path d="M20.8102 76.4268C20.8312 76.4767 20.5766 76.6342 20.2381 76.7786C19.8995 76.9229 19.6081 76.999 19.5871 76.9492C19.5661 76.8993 19.8234 76.7418 20.1619 76.6001C20.5005 76.4583 20.7892 76.377 20.8102 76.4268Z" fill="#309D41"/>
<path d="M21.3246 78.3521C21.3246 78.4046 21.0621 78.4833 20.7393 78.5227C20.4164 78.5621 20.1409 78.5542 20.133 78.4991C20.1251 78.4439 20.3954 78.3705 20.7157 78.3285C21.0359 78.2865 21.3167 78.297 21.3246 78.3521Z" fill="#309D41"/>
<path d="M21.5885 80.7234C21.5675 80.7732 21.2893 80.6997 20.9691 80.5606C20.6488 80.4215 20.4021 80.2667 20.4231 80.2168C20.4441 80.1669 20.725 80.2404 21.0452 80.3795C21.3654 80.5186 21.6121 80.6735 21.5885 80.7234Z" fill="#309D41"/>
<path d="M21.3565 82.7565C21.3381 82.8064 20.9864 82.7224 20.619 82.4809C20.2515 82.2394 20.0337 81.956 20.0704 81.9166C20.1072 81.8772 20.3775 82.0898 20.7266 82.3155C21.0757 82.5413 21.3749 82.7119 21.3565 82.7565Z" fill="#309D41"/>
<path d="M20.2972 84.6066C20.2657 84.6485 19.9848 84.4858 19.7171 84.1945C19.4494 83.9031 19.305 83.6144 19.347 83.5829C19.389 83.5514 19.6095 83.785 19.872 84.0606C20.1344 84.3362 20.3339 84.5646 20.2972 84.6066Z" fill="#309D41"/>
<path d="M10.2416 84.824C10.2652 84.8712 9.97912 85.0865 9.5828 85.2754C9.18647 85.4644 8.86101 85.5983 8.82689 85.5563C8.79277 85.5143 9.08936 85.2938 9.48306 85.1022C9.87676 84.9106 10.2153 84.7767 10.2416 84.824Z" fill="#309D41"/>
<path d="M9.32297 83.1501C9.34397 83.1999 9.10775 83.3548 8.79804 83.4965C8.48832 83.6383 8.21273 83.7144 8.18911 83.6645C8.16549 83.6146 8.40434 83.4598 8.71405 83.3181C9.02376 83.1763 9.29935 83.1002 9.32297 83.1501Z" fill="#309D41"/>
<path d="M8.64983 81.6631C8.64983 81.7156 8.36637 81.8022 7.99892 81.8547C7.63146 81.9072 7.33225 81.9045 7.32437 81.8547C7.3165 81.8048 7.60784 81.7156 7.97267 81.6657C8.3375 81.6158 8.64196 81.6132 8.64983 81.6631Z" fill="#309D41"/>
<path d="M10.862 80.8468C10.8777 80.8993 10.5995 81.0305 10.2189 81.0725C9.83834 81.1145 9.53388 81.0489 9.53913 80.9964C9.54438 80.9439 9.83834 80.9203 10.1953 80.8783C10.5523 80.8363 10.8462 80.7943 10.862 80.8468Z" fill="#309D41"/>
<path d="M12.7024 79.0214C12.7182 79.0712 12.4925 79.1867 12.1775 79.2156C11.8625 79.2445 11.6316 79.1788 11.6368 79.1263C11.6421 79.0739 11.8783 79.0502 12.1617 79.0214C12.4452 78.9925 12.6867 78.9689 12.7024 79.0214Z" fill="#309D41"/>
<path d="M13.0547 77.5518C13.0363 77.6043 12.7922 77.5649 12.5088 77.4678C12.2253 77.3707 12.0101 77.25 12.0284 77.2054C12.0468 77.1607 12.2909 77.1922 12.5744 77.292C12.8578 77.3917 13.0731 77.502 13.0547 77.5518Z" fill="#309D41"/>
<path d="M13.7272 76.0707C13.6904 76.1101 13.5225 75.9999 13.4017 75.7899C13.281 75.5799 13.2705 75.3831 13.323 75.3699C13.3755 75.3568 13.4647 75.509 13.5854 75.6928C13.7062 75.8765 13.7665 76.034 13.7272 76.0707Z" fill="#309D41"/>
<path d="M12.9133 82.1398C12.9264 82.1923 12.7165 82.2894 12.4409 82.3577C12.3114 82.3919 12.1784 82.4112 12.0446 82.4154L12.0078 82.2999C12.0787 82.2999 12.1233 82.2999 12.1338 82.313C12.1443 82.3262 12.1128 82.3682 12.0551 82.4128L12.0157 82.2973C12.1374 82.2397 12.265 82.1957 12.3963 82.1661C12.6692 82.1004 12.9002 82.0873 12.9133 82.1398Z" fill="#309D41"/>
<path d="M13.2921 84.7403C13.3104 84.7901 13.0296 84.9424 12.6884 85.0815C12.3472 85.2206 12.0349 85.2915 12.0165 85.2416C11.9981 85.1917 12.2789 85.0369 12.6175 84.9004C12.9561 84.7639 13.2763 84.6904 13.2921 84.7403Z" fill="#309D41"/>
<path d="M11.2151 83.5877C11.2335 83.6376 11.0524 83.7452 10.8135 83.8266C10.5747 83.908 10.3673 83.9342 10.3489 83.8817C10.3306 83.8292 10.5117 83.7242 10.7505 83.6429C10.9894 83.5615 11.1888 83.5352 11.2151 83.5877Z" fill="#309D41"/>
<path d="M11.3735 78.296C11.3735 78.3485 11.048 78.317 10.6885 78.1884C10.3289 78.0597 10.0638 77.8865 10.0874 77.8393C10.111 77.792 10.4024 77.8786 10.7541 78.002C11.1058 78.1254 11.3866 78.2513 11.3735 78.296Z" fill="#309D41"/>
<path d="M16.4025 77.7267C16.434 77.7714 16.2582 77.9393 16.0115 78.1021C15.7647 78.2648 15.539 78.3645 15.5075 78.3147C15.476 78.2648 15.6545 78.1021 15.9012 77.9393C16.1479 77.7766 16.3737 77.6742 16.4025 77.7267Z" fill="#309D41"/>
<path d="M16.678 80.3294C16.678 80.3819 16.5022 80.4659 16.2633 80.5158C16.0245 80.5656 15.8224 80.563 15.8092 80.5158C15.7961 80.4685 15.9851 80.3793 16.2239 80.3294C16.4628 80.2795 16.6649 80.2769 16.678 80.3294Z" fill="#309D41"/>
<path d="M16.9957 83.2661C16.9721 83.3133 16.7044 83.2398 16.3999 83.0981C16.0955 82.9564 15.875 82.8015 15.875 82.7516C15.875 82.7018 16.1663 82.7779 16.4708 82.9196C16.7753 83.0614 17.0167 83.2162 16.9957 83.2661Z" fill="#309D41"/>
<path d="M16.32 86.1262C16.278 86.163 16.1048 86.0212 15.9342 85.8112C15.7636 85.6013 15.6717 85.4044 15.7006 85.3703C15.7294 85.3362 15.9132 85.4779 16.0864 85.6879C16.2596 85.8979 16.362 86.0895 16.32 86.1262Z" fill="#309D41"/>
<path d="M16.1779 75.7965C16.2121 75.8385 16.0966 75.9829 15.8997 76.08C15.7029 76.1771 15.5218 76.185 15.5087 76.1325C15.4955 76.08 15.6373 75.996 15.8131 75.9068C15.989 75.8175 16.1517 75.7545 16.1779 75.7965Z" fill="#309D41"/>
<path d="M18.6491 78.4287C18.6675 78.4785 18.4392 78.6045 18.1242 78.6491C17.8092 78.6938 17.5599 78.6334 17.5625 78.5809C17.5651 78.5284 17.8066 78.4943 18.0875 78.4549C18.3683 78.4156 18.6308 78.3788 18.6491 78.4287Z" fill="#309D41"/>
<path d="M18.1588 76.0649C18.1824 76.1121 17.9567 76.2748 17.6338 76.3772C17.311 76.4796 17.0354 76.4796 17.0275 76.4271C17.0197 76.3746 17.269 76.288 17.5735 76.1882C17.8779 76.0885 18.1325 76.015 18.1588 76.0649Z" fill="#309D41"/>
<path d="M19.1877 82.0887C19.1877 82.1412 18.7992 82.1753 18.332 82.0887C17.8648 82.0021 17.5158 81.8262 17.5446 81.7869C17.5735 81.7475 17.9305 81.8157 18.3793 81.8945C18.8281 81.9732 19.1877 82.0336 19.1877 82.0887Z" fill="#309D41"/>
<path d="M18.278 85.5227C18.2465 85.5646 17.9604 85.3967 17.6769 85.1106C17.3935 84.8245 17.2281 84.5489 17.2622 84.5069C17.2964 84.4649 17.5247 84.6959 17.8108 84.9741C18.0969 85.2523 18.3069 85.4807 18.278 85.5227Z" fill="#309D41"/>
<path d="M14.2452 73.2639C13.6184 73.6447 13.041 74.1014 12.526 74.6235C11.3315 75.9329 10.5818 77.5866 10.3843 79.3479C10.2953 80.316 10.3385 81.2917 10.5129 82.2482C10.6535 83.0331 10.8348 83.8102 11.0562 84.5763C11.2452 85.2298 11.4184 85.7547 11.5339 86.1196C11.6037 86.3057 11.659 86.497 11.6992 86.6917C11.6031 86.5178 11.524 86.335 11.463 86.1458C11.3239 85.7888 11.1297 85.2692 10.9249 84.6156C10.6806 83.8499 10.4842 83.0698 10.337 82.2797C10.1466 81.3076 10.0971 80.3131 10.19 79.3269C10.3867 77.5219 11.1726 75.832 12.4263 74.5185C12.807 74.1321 13.2378 73.7984 13.7071 73.5264C13.8335 73.4493 13.9651 73.3809 14.1008 73.3217C14.1461 73.296 14.1947 73.2766 14.2452 73.2639Z" fill="#309D41"/>
<path d="M16.9205 86.8322C16.8759 86.8086 17.3589 86.0658 17.7998 84.7325C18.3901 82.9922 18.5697 81.139 18.3247 79.3178C18.1924 78.3132 17.9111 77.3339 17.4901 76.4123C17.138 75.6714 16.6562 74.9994 16.0675 74.428C15.6512 74.0626 15.18 73.765 14.6712 73.5461C14.309 73.3965 14.0911 73.3598 14.0938 73.344C14.1468 73.3358 14.2008 73.3358 14.2539 73.344C14.4047 73.3711 14.5531 73.4106 14.6974 73.4621C15.2302 73.6575 15.7242 73.9454 16.1568 74.3125C16.7774 74.8817 17.2849 75.5629 17.6528 76.3204C18.0905 77.2501 18.3826 78.2416 18.519 79.26C18.7699 81.1103 18.5672 82.9938 17.9284 84.7482C17.8182 85.0868 17.666 85.3755 17.5688 85.638C17.4717 85.9005 17.3379 86.1104 17.2434 86.2837C17.1498 86.4744 17.0419 86.6578 16.9205 86.8322Z" fill="#309D41"/>
<path d="M9.32422 86.3691H20.1326L20.1982 88.5319H9.32422V86.3691Z" fill="#73382A"/>
<path d="M10.2422 87.4512L10.8616 94.0548H18.7645L19.3997 87.5247L10.2422 87.4512Z" fill="#73382A"/>
<path d="M20.1995 88.5561C20.1995 88.6112 17.7664 88.6532 14.7638 88.6532C11.7612 88.6532 9.32812 88.6112 9.32812 88.5561C9.32812 88.501 11.7612 88.459 14.7638 88.459C17.7664 88.459 20.1995 88.501 20.1995 88.5561Z" fill="#309D41"/>
<path d="M19.1029 90.5683C19.0466 90.7171 18.9688 90.8568 18.872 90.983C18.6281 91.3419 18.3466 91.6736 18.0321 91.9725L17.9822 92.0197L17.9349 91.9672C17.2856 91.2866 16.5758 90.6664 15.8142 90.1142H15.9349L14.9953 90.9384L13.8851 91.899L13.8247 91.9541L13.7617 91.9016L11.9586 90.3846L12.0636 90.3714C11.6909 90.8281 11.3759 91.2087 11.1292 91.5132C11.0215 91.6591 10.8983 91.7929 10.7617 91.9121C10.8482 91.7526 10.9492 91.6015 11.0636 91.4607L11.9454 90.2822L11.9927 90.2218L12.0531 90.2691L13.8903 91.7546H13.7696L14.8746 90.7835L15.8168 89.962L15.8746 89.9121L15.9376 89.9567C16.701 90.5211 17.4046 91.1622 18.0373 91.8701H17.9376C18.3613 91.4691 18.7511 91.0336 19.1029 90.5683Z" fill="#309D41"/>
<path d="M148.969 11.5254H34.5546C32.4426 11.5254 30.7305 13.2375 30.7305 15.3495V88.4204C30.7305 90.5324 32.4426 92.2446 34.5546 92.2446H148.969C151.081 92.2446 152.793 90.5324 152.793 88.4204V15.3495C152.793 13.2375 151.081 11.5254 148.969 11.5254Z" fill="#1E1E1E"/>
<path d="M26.7371 87.0293H158.981V89.4204C158.981 90.6594 158.489 91.8478 157.613 92.7239C156.737 93.6001 155.548 94.0923 154.309 94.0923H31.3985C30.1594 94.0923 28.9711 93.6001 28.0949 92.7239C27.2188 91.8478 26.7266 90.6594 26.7266 89.4204V87.0293H26.7371Z" fill="#1E1E1E"/>
<path d="M79.7305 86.2715L81.3709 88.883H104.463L105.985 86.2715H79.7305Z" fill="#263238"/>
<path d="M151.744 86.2721C151.744 86.3167 124.652 86.3508 91.2423 86.3508C57.8328 86.3508 30.7305 86.3167 30.7305 86.2721C30.7305 86.2275 57.8171 86.1934 91.2423 86.1934C124.667 86.1934 151.744 86.2275 151.744 86.2721Z" fill="#263238"/>
<path d="M147.961 16.166H35.0848C34.6108 16.166 34.2266 16.5503 34.2266 17.0243V83.2815C34.2266 83.7555 34.6108 84.1398 35.0848 84.1398H147.961C148.435 84.1398 148.82 83.7555 148.82 83.2815V17.0243C148.82 16.5503 148.435 16.166 147.961 16.166Z" fill="#EBEBEB"/>
<path d="M148.699 84.2402H34.1055L34.2288 21.248H148.699V84.2402Z" fill="#FBF4F9"/>
<path d="M43.625 18.7929C43.6265 18.9744 43.5741 19.1523 43.4744 19.3039C43.3747 19.4556 43.2322 19.5742 43.065 19.6448C42.8977 19.7153 42.7133 19.7346 42.5351 19.7001C42.3569 19.6657 42.193 19.5791 42.0641 19.4513C41.9352 19.3235 41.8471 19.1603 41.8112 18.9824C41.7752 18.8045 41.7928 18.6199 41.8619 18.4521C41.931 18.2842 42.0484 18.1407 42.1992 18.0397C42.35 17.9387 42.5274 17.8848 42.7089 17.8848C42.9507 17.8841 43.1829 17.9793 43.3547 18.1495C43.5264 18.3197 43.6236 18.5511 43.625 18.7929Z" fill="#263238"/>
<path d="M38.082 18.7929C38.0835 18.9748 38.0309 19.1529 37.9309 19.3048C37.8308 19.4566 37.6879 19.5752 37.5202 19.6456C37.3525 19.7159 37.1676 19.7347 36.9892 19.6996C36.8108 19.6645 36.6469 19.5771 36.5183 19.4485C36.3897 19.3199 36.3023 19.156 36.2672 18.9776C36.2321 18.7991 36.2509 18.6143 36.3212 18.4466C36.3915 18.2789 36.5102 18.1359 36.662 18.0359C36.8138 17.9358 36.992 17.8832 37.1739 17.8848C37.4143 17.8862 37.6445 17.9823 37.8145 18.1523C37.9845 18.3223 38.0806 18.5525 38.082 18.7929Z" fill="#263238"/>
<path d="M40.7422 18.793C40.7422 18.9741 40.6885 19.1512 40.5878 19.3019C40.4871 19.4525 40.3441 19.5699 40.1767 19.6393C40.0093 19.7086 39.8252 19.7267 39.6475 19.6914C39.4698 19.656 39.3066 19.5688 39.1784 19.4407C39.0503 19.3126 38.9631 19.1494 38.9278 18.9717C38.8924 18.794 38.9106 18.6098 38.9799 18.4424C39.0492 18.275 39.1666 18.132 39.3173 18.0313C39.4679 17.9307 39.645 17.877 39.8262 17.877C39.9466 17.8766 40.0658 17.9001 40.1771 17.946C40.2884 17.9919 40.3895 18.0593 40.4747 18.1445C40.5598 18.2296 40.6272 18.3307 40.6732 18.442C40.7191 18.5533 40.7425 18.6726 40.7422 18.793Z" fill="#263238"/>
<path d="M148.822 78.1543H34.1055V84.2383H148.822V78.1543Z" fill="#263238"/>
<path d="M38.4398 81.9007V82.0949H37.5264V81.9427L38.0172 81.4755C38.138 81.36 38.159 81.2865 38.159 81.213C38.159 81.1001 38.0802 81.0345 37.928 81.0345C37.8731 81.0315 37.8183 81.0416 37.7681 81.064C37.7179 81.0863 37.6738 81.1203 37.6393 81.1631L37.4766 81.0398C37.5341 80.9714 37.6067 80.9174 37.6887 80.8818C37.7707 80.8463 37.8598 80.8303 37.949 80.835C38.2115 80.835 38.3926 80.9689 38.3926 81.1894C38.3908 81.2662 38.3712 81.3416 38.3352 81.4095C38.2992 81.4774 38.2479 81.5359 38.1852 81.5805L37.8545 81.8954L38.4398 81.9007Z" fill="white"/>
<path d="M38.5638 81.2856C38.5638 81.2564 38.5725 81.2279 38.5888 81.2037C38.605 81.1795 38.6282 81.1607 38.6552 81.1496C38.6822 81.1386 38.7119 81.1358 38.7404 81.1417C38.769 81.1476 38.7952 81.1618 38.8157 81.1827C38.8361 81.2035 38.8499 81.2299 38.8553 81.2586C38.8606 81.2873 38.8573 81.3169 38.8458 81.3437C38.8343 81.3705 38.815 81.3933 38.7905 81.4091C38.766 81.425 38.7373 81.4331 38.7082 81.4326C38.6889 81.433 38.6697 81.4294 38.6519 81.4221C38.634 81.4148 38.6178 81.404 38.6043 81.3902C38.5908 81.3765 38.5803 81.3601 38.5733 81.3421C38.5663 81.3241 38.5631 81.3049 38.5638 81.2856ZM38.5638 81.9602C38.561 81.9394 38.5627 81.9183 38.5687 81.8982C38.5748 81.8781 38.585 81.8596 38.5988 81.8438C38.6126 81.828 38.6296 81.8154 38.6487 81.8067C38.6678 81.7981 38.6885 81.7936 38.7095 81.7936C38.7304 81.7936 38.7512 81.7981 38.7702 81.8067C38.7893 81.8154 38.8063 81.828 38.8201 81.8438C38.8339 81.8596 38.8442 81.8781 38.8502 81.8982C38.8563 81.9183 38.8579 81.9394 38.8552 81.9602C38.8579 81.9809 38.8563 82.0021 38.8502 82.0221C38.8442 82.0422 38.8339 82.0607 38.8201 82.0765C38.8063 82.0923 38.7893 82.1049 38.7702 82.1136C38.7512 82.1223 38.7304 82.1268 38.7095 82.1268C38.6885 82.1268 38.6678 82.1223 38.6487 82.1136C38.6296 82.1049 38.6126 82.0923 38.5988 82.0765C38.585 82.0607 38.5748 82.0422 38.5687 82.0221C38.5627 82.0021 38.561 81.9809 38.5638 81.9602Z" fill="white"/>
<path d="M39.4283 80.8549V82.0937H39.2V81.0438H38.9375V80.8496L39.4283 80.8549Z" fill="white"/>
<path d="M40.7835 81.814H40.563V82.0948H40.3399V81.814H39.6602V81.6644L40.2717 80.877H40.5184L39.941 81.6407H40.3478V81.3914H40.563V81.6407H40.7835V81.814Z" fill="white"/>
<path d="M136.831 81.3184H42.8047V81.7462H136.831V81.3184Z" fill="white"/>
<path d="M72.1176 80.8574H42.7344V82.0018H72.1176V80.8574Z" fill="#7459C1"/>
<path d="M73.0679 81.534C73.0679 81.8169 72.984 82.0934 72.8269 82.3287C72.6697 82.5639 72.4463 82.7473 72.1849 82.8555C71.9235 82.9638 71.6359 82.9921 71.3584 82.9369C71.0809 82.8817 70.8261 82.7455 70.626 82.5454C70.4259 82.3454 70.2897 82.0905 70.2345 81.813C70.1793 81.5355 70.2076 81.2479 70.3159 80.9866C70.4242 80.7252 70.6075 80.5018 70.8428 80.3446C71.078 80.1874 71.3546 80.1035 71.6375 80.1035C72.0169 80.1035 72.3807 80.2542 72.649 80.5225C72.9172 80.7907 73.0679 81.1546 73.0679 81.534Z" fill="#7459C1"/>
<path d="M139.199 81.5197C139.199 81.5769 139.187 81.6333 139.163 81.6854C139.14 81.7375 139.106 81.7842 139.063 81.8225C139.021 81.8607 138.971 81.8897 138.917 81.9076C138.862 81.9256 138.805 81.932 138.748 81.9265C138.409 81.9265 138.223 81.7087 138.223 81.3097C138.213 81.225 138.221 81.139 138.247 81.0578C138.273 80.9765 138.317 80.9019 138.375 80.8392C138.433 80.7766 138.504 80.7272 138.583 80.6947C138.662 80.6622 138.747 80.6473 138.832 80.6509C138.946 80.6481 139.058 80.6763 139.157 80.7323L139.071 80.9055C139.001 80.8624 138.919 80.8414 138.837 80.8452C138.604 80.8452 138.457 80.9895 138.457 81.2704C138.499 81.2261 138.551 81.1916 138.608 81.1694C138.665 81.1472 138.726 81.1378 138.787 81.1417C138.84 81.1382 138.892 81.1453 138.941 81.1626C138.991 81.1798 139.036 81.207 139.075 81.2423C139.113 81.2777 139.144 81.3205 139.165 81.3682C139.187 81.4159 139.199 81.4674 139.199 81.5197ZM138.976 81.5197C138.976 81.3911 138.879 81.3097 138.73 81.3097C138.698 81.3045 138.666 81.306 138.635 81.3142C138.604 81.3223 138.575 81.3369 138.551 81.357C138.526 81.3771 138.506 81.4022 138.491 81.4307C138.477 81.4592 138.469 81.4904 138.467 81.5223C138.467 81.6378 138.559 81.7297 138.73 81.7297C138.759 81.7345 138.789 81.7331 138.818 81.7254C138.847 81.7177 138.874 81.704 138.898 81.6852C138.921 81.6664 138.94 81.6428 138.954 81.6161C138.967 81.5894 138.975 81.5601 138.976 81.5302V81.5197Z" fill="white"/>
<path d="M139.314 81.0943C139.311 81.0735 139.313 81.0524 139.319 81.0323C139.325 81.0123 139.335 80.9937 139.349 80.978C139.363 80.9622 139.38 80.9495 139.399 80.9409C139.418 80.9322 139.439 80.9277 139.459 80.9277C139.48 80.9277 139.501 80.9322 139.52 80.9409C139.539 80.9495 139.556 80.9622 139.57 80.978C139.584 80.9937 139.594 81.0123 139.6 81.0323C139.606 81.0524 139.608 81.0735 139.605 81.0943C139.608 81.1151 139.606 81.1362 139.6 81.1563C139.594 81.1763 139.584 81.1949 139.57 81.2107C139.556 81.2264 139.539 81.2391 139.52 81.2477C139.501 81.2564 139.48 81.2609 139.459 81.2609C139.439 81.2609 139.418 81.2564 139.399 81.2477C139.38 81.2391 139.363 81.2264 139.349 81.2107C139.335 81.1949 139.325 81.1763 139.319 81.1563C139.313 81.1362 139.311 81.1151 139.314 81.0943ZM139.314 81.7689C139.311 81.7481 139.313 81.727 139.319 81.7069C139.325 81.6868 139.335 81.6683 139.349 81.6525C139.363 81.6367 139.38 81.6241 139.399 81.6154C139.418 81.6068 139.439 81.6023 139.459 81.6023C139.48 81.6023 139.501 81.6068 139.52 81.6154C139.539 81.6241 139.556 81.6367 139.57 81.6525C139.584 81.6683 139.594 81.6868 139.6 81.7069C139.606 81.727 139.608 81.7481 139.605 81.7689C139.608 81.7896 139.606 81.8107 139.6 81.8308C139.594 81.8509 139.584 81.8694 139.57 81.8852C139.556 81.901 139.539 81.9136 139.52 81.9223C139.501 81.9309 139.48 81.9354 139.459 81.9354C139.439 81.9354 139.418 81.9309 139.399 81.9223C139.38 81.9136 139.363 81.901 139.349 81.8852C139.335 81.8694 139.325 81.8509 139.319 81.8308C139.313 81.8107 139.311 81.7896 139.314 81.7689Z" fill="white"/>
<path d="M139.75 81.2843C139.75 80.8775 139.973 80.6465 140.275 80.6465C140.577 80.6465 140.8 80.8775 140.8 81.2843C140.8 81.6911 140.577 81.9221 140.275 81.9221C139.973 81.9221 139.75 81.6911 139.75 81.2843ZM140.553 81.2843C140.553 80.9851 140.438 80.8486 140.267 80.8486C140.096 80.8486 139.981 80.9851 139.981 81.2843C139.981 81.5835 140.099 81.7226 140.267 81.7226C140.435 81.7226 140.553 81.5835 140.553 81.2843Z" fill="white"/>
<path d="M140.938 81.2843C140.938 80.8775 141.161 80.6465 141.462 80.6465C141.764 80.6465 141.987 80.8775 141.987 81.2843C141.987 81.6911 141.764 81.9221 141.462 81.9221C141.161 81.9221 140.938 81.6911 140.938 81.2843ZM141.743 81.2843C141.743 80.9851 141.625 80.8486 141.455 80.8486C141.284 80.8486 141.171 80.9851 141.171 81.2843C141.171 81.5835 141.287 81.7226 141.455 81.7226C141.623 81.7226 141.743 81.5835 141.743 81.2843Z" fill="white"/>
<path d="M143.977 81.2069H143.547V79.9707H144.783V80.3985H143.977V81.2069Z" fill="white"/>
<path d="M144.783 82.8176H143.547V81.584H143.975V82.3898H144.783V82.8176Z" fill="white"/>
<path d="M146.753 82.8202H145.52V82.3924H146.323V81.584H146.753V82.8202Z" fill="white"/>
<path d="M146.752 81.2043H146.324V80.3985H145.516V79.9707H146.752V81.2043Z" fill="white"/>
<path d="M49.8226 24.9941H43.0667L39.6914 30.8445L43.0667 36.6923H49.8226L53.198 30.8445L49.8226 24.9941Z" fill="#EBEBEB"/>
<path d="M43.6153 31.986C43.3012 31.6631 43.0247 31.3056 42.7911 30.9204C42.5556 30.5316 42.4568 30.0753 42.5103 29.6238C42.5811 29.3708 42.6381 29.1141 42.6809 28.8548C42.7071 28.4926 42.5549 28.1147 42.6809 27.7761C42.8804 27.2511 43.5916 27.1645 44.0247 26.7997C44.3607 26.5136 44.526 26.0517 44.8961 25.8128C45.2398 25.6308 45.637 25.5769 46.0168 25.6606C46.3926 25.7472 46.7787 25.7807 47.1638 25.7603C47.4298 25.7034 47.6927 25.6324 47.9512 25.5477C48.2112 25.466 48.4925 25.4857 48.7386 25.6028C48.8588 25.6685 48.9486 25.7785 48.9888 25.9094C49.029 26.0404 49.0165 26.1818 48.9538 26.3036C49.3974 26.0989 49.9591 26.4454 50.0798 26.9152C50.1261 27.1557 50.1042 27.4043 50.0165 27.633C49.9289 27.8616 49.7789 28.0612 49.5838 28.2091C49.1911 28.5017 48.7305 28.6896 48.2452 28.7551C46.8882 29.0175 45.4184 28.8679 44.2504 28.133" fill="#263238"/>
<path d="M49.8788 33.4321C49.8342 32.5948 49.6006 30.8783 49.3696 29.3271C49.2502 28.5235 48.8331 27.7941 48.2011 27.2837C47.5691 26.7732 46.7683 26.5189 45.9576 26.5712H45.7896C43.9943 26.7969 43.1833 28.4478 43.4589 30.2457L43.9838 36.6893H48.367C48.367 36.6893 48.262 35.558 48.262 35.5475C48.262 35.5371 49.9733 35.1643 49.8788 33.4321Z" fill="#FFCCA9"/>
<path d="M48.2589 35.524C47.46 35.5913 46.659 35.4205 45.957 35.0332C45.957 35.0332 46.5765 36.2432 48.293 35.9728L48.2589 35.524Z" fill="#E29F76"/>
<path d="M48.8117 30.8102C48.8168 30.8742 48.7965 30.9376 48.7552 30.9867C48.714 31.0358 48.655 31.0667 48.5912 31.0727C48.5605 31.0767 48.5293 31.0746 48.4994 31.0665C48.4695 31.0583 48.4415 31.0443 48.4171 31.0253C48.3927 31.0062 48.3723 30.9825 48.3571 30.9555C48.3419 30.9285 48.3323 30.8987 48.3287 30.868C48.3243 30.8042 48.3448 30.7412 48.3859 30.6922C48.4271 30.6432 48.4856 30.6122 48.5492 30.6055C48.5799 30.6015 48.6111 30.6036 48.641 30.6117C48.6709 30.6199 48.6989 30.6339 48.7233 30.6529C48.7477 30.672 48.7681 30.6957 48.7833 30.7227C48.7984 30.7497 48.8081 30.7795 48.8117 30.8102Z" fill="#263238"/>
<path d="M49.0546 30.1968C49.0257 30.2309 48.8289 30.1049 48.5612 30.1233C48.2934 30.1417 48.1097 30.2887 48.0782 30.2572C48.0467 30.2257 48.0782 30.1837 48.1727 30.1154C48.2825 30.0286 48.4162 29.9773 48.5559 29.9685C48.6945 29.9585 48.8325 29.9935 48.9496 30.0682C49.0362 30.1259 49.0677 30.1811 49.0546 30.1968Z" fill="#263238"/>
<path d="M46.2955 30.9919C46.2963 31.0548 46.2745 31.1159 46.234 31.1641C46.1935 31.2123 46.1371 31.2443 46.075 31.2544C46.0128 31.2611 45.9505 31.2431 45.9014 31.2043C45.8523 31.1656 45.8204 31.1091 45.8125 31.047C45.8117 30.9841 45.8335 30.923 45.874 30.8748C45.9145 30.8267 45.9709 30.7946 46.033 30.7846C46.0952 30.7779 46.1575 30.7959 46.2066 30.8346C46.2557 30.8734 46.2876 30.9299 46.2955 30.9919Z" fill="#263238"/>
<path d="M46.4413 30.4224C46.4124 30.4566 46.2156 30.3306 45.9479 30.349C45.6802 30.3673 45.4964 30.5117 45.4649 30.4828C45.4334 30.4539 45.4649 30.4093 45.5594 30.3411C45.6694 30.2523 45.8041 30.1998 45.9452 30.1908C46.0862 30.1819 46.2266 30.217 46.3468 30.2912C46.4229 30.349 46.4544 30.4067 46.4413 30.4224Z" fill="#263238"/>
<path d="M47.536 32.3199C47.6734 32.266 47.8172 32.2299 47.9638 32.2123C48.032 32.2123 48.095 32.1834 48.1029 32.1362C48.104 32.0662 48.0838 31.9976 48.0451 31.9393L47.8089 31.4354C47.5939 31.0128 47.4122 30.574 47.2656 30.123C47.516 30.5309 47.7328 30.9583 47.9139 31.4013C47.9927 31.5771 48.0688 31.7477 48.1423 31.9078C48.1881 31.9872 48.2066 32.0794 48.1948 32.1703C48.1861 32.1948 48.1723 32.2171 48.1541 32.2357C48.136 32.2543 48.114 32.2687 48.0898 32.2779C48.0523 32.2901 48.0135 32.298 47.9743 32.3015C47.8296 32.3263 47.6823 32.3325 47.536 32.3199Z" fill="#263238"/>
<path d="M46.4362 29.3732C46.4152 29.4467 46.1475 29.431 45.8378 29.4913C45.5281 29.5517 45.2813 29.6514 45.2341 29.5884C45.1868 29.5254 45.2551 29.4887 45.3522 29.41C45.4815 29.314 45.6317 29.2501 45.7905 29.2236C45.9484 29.1925 46.1115 29.2006 46.2656 29.2472C46.3837 29.2866 46.4467 29.3391 46.4362 29.3732Z" fill="#263238"/>
<path d="M48.9061 29.433C48.8614 29.4959 48.6751 29.4461 48.4546 29.4566C48.2341 29.4671 48.0504 29.5248 48.0032 29.4566C47.9559 29.3883 48.0032 29.3647 48.0845 29.3017C48.1884 29.2238 48.3143 29.1806 48.4441 29.1784C48.5736 29.1726 48.7018 29.2065 48.8116 29.2755C48.8929 29.3411 48.9244 29.4015 48.9061 29.433Z" fill="#263238"/>
<path d="M43.6835 31.5309C43.652 31.5309 42.4683 31.2685 42.5864 32.4417C42.7045 33.6149 43.9854 33.2291 43.9827 33.2029C43.9801 33.1766 43.6835 31.5309 43.6835 31.5309Z" fill="#FFCCA9"/>
<path d="M43.4561 32.8043C43.4561 32.8043 43.4377 32.8201 43.4062 32.8385C43.3589 32.8645 43.3034 32.8711 43.2514 32.8568C43.1702 32.8162 43.1014 32.7547 43.052 32.6785C43.0026 32.6024 42.9745 32.5144 42.9705 32.4238C42.9569 32.3231 42.9667 32.2207 42.9994 32.1245C43.0062 32.086 43.0225 32.0498 43.0467 32.0191C43.071 31.9884 43.1026 31.9642 43.1385 31.9487C43.1614 31.9408 43.1864 31.941 43.2092 31.9491C43.2321 31.9572 43.2516 31.9728 43.2645 31.9933C43.2855 32.0248 43.2802 32.0511 43.2855 32.0511C43.2907 32.0511 43.3091 32.0301 43.2855 31.9802C43.276 31.9523 43.2575 31.9283 43.233 31.9119C43.2156 31.9009 43.1962 31.8936 43.1758 31.8904C43.1555 31.8873 43.1348 31.8884 43.1149 31.8936C43.0676 31.9085 43.0247 31.9351 42.9903 31.9708C42.956 32.0066 42.9311 32.0504 42.918 32.0983C42.8787 32.2056 42.866 32.3209 42.8813 32.4343C42.8842 32.5402 42.9191 32.6428 42.9814 32.7285C43.0437 32.8142 43.1305 32.8791 43.2304 32.9146C43.2632 32.9205 43.2969 32.9192 43.3291 32.9105C43.3613 32.9019 43.3913 32.8863 43.4167 32.8647C43.4718 32.8437 43.4718 32.8043 43.4561 32.8043Z" fill="#E29F76"/>
<path d="M49.2824 27.7046C49.201 28.1744 48.2456 28.6075 47.4451 28.5839C46.7155 28.5629 46.3533 28.2007 45.8257 27.9435C45.4897 27.7807 45.4897 27.7807 45.0383 27.8542C44.6708 27.9146 44.4792 28.3477 44.2745 28.66C44.6682 29.5183 44.5081 30.5156 44.3401 31.4448C44.3337 31.5491 44.292 31.6481 44.222 31.7256C44.1464 31.7721 44.0568 31.7905 43.969 31.7775C43.8812 31.7646 43.8007 31.7211 43.7417 31.6548C43.5475 31.4458 43.418 31.1851 43.369 30.9041C43.2037 30.2768 43.1644 29.6228 43.2535 28.9802C43.3406 28.3373 43.6143 27.7341 44.0409 27.2453C44.6033 26.6525 45.3741 26.3014 46.1905 26.2663C47.0034 26.2363 47.8052 26.4631 48.4819 26.9146C48.8047 27.1088 49.075 27.3792 49.2693 27.702" fill="#263238"/>
<path d="M47.7125 32.9304L47.1088 32.6496C47.0754 32.6305 47.0371 32.6214 46.9986 32.6233C46.9566 32.6327 46.9198 32.6581 46.8962 32.6942C46.8254 32.7783 46.7812 32.8816 46.769 32.9909C46.7569 33.1002 46.7774 33.2107 46.828 33.3083C46.8831 33.404 46.9701 33.4772 47.0738 33.5151C47.1774 33.553 47.2911 33.5532 47.3949 33.5157C47.4964 33.4599 47.5809 33.3778 47.6396 33.2781C47.6982 33.1783 47.7289 33.0645 47.7283 32.9488L47.7125 32.9304Z" fill="#E29F76"/>
<path d="M47.4081 33.5582C47.4081 33.5582 47.2821 33.6553 47.0537 33.5897C46.9204 33.5444 46.8089 33.4507 46.7414 33.3272C46.6985 33.2531 46.6727 33.1703 46.6659 33.0849C46.6591 32.9996 46.6714 32.9138 46.702 32.8338C46.7341 32.7503 46.7843 32.675 46.849 32.6133C46.8804 32.5844 46.9147 32.5589 46.9514 32.5372C46.9756 32.5243 47.0027 32.5176 47.0301 32.5176C47.0576 32.5176 47.0846 32.5243 47.1089 32.5372C47.248 32.6133 47.3398 32.6789 47.4317 32.7367C47.6075 32.8548 47.7125 32.9361 47.6942 32.9519C47.6758 32.9676 47.5629 32.9178 47.374 32.8206L47.0511 32.6527C47.0275 32.6527 47.0301 32.6527 47.0039 32.6527C46.9775 32.6704 46.9529 32.6906 46.9304 32.713C46.881 32.7617 46.8433 32.8209 46.8201 32.8863C46.7966 32.948 46.7864 33.0141 46.79 33.0801C46.7936 33.1461 46.811 33.2106 46.8411 33.2695C46.8923 33.3685 46.9756 33.4472 47.0774 33.4926C47.2742 33.5765 47.4081 33.5346 47.4081 33.5582Z" fill="#263238"/>
<path d="M47.2212 30.8395C47.2212 30.8395 47.2212 30.7319 47.1582 30.5455C47.0822 30.2854 46.9226 30.0576 46.7041 29.8972C46.5292 29.7671 46.3216 29.6883 46.1045 29.6694C45.8874 29.6505 45.6692 29.6923 45.4745 29.7901C45.2797 29.888 45.116 30.0381 45.0016 30.2236C44.8872 30.4091 44.8266 30.6228 44.8266 30.8408C44.8266 31.0587 44.8872 31.2724 45.0016 31.4579C45.116 31.6435 45.2797 31.7935 45.4745 31.8914C45.6692 31.9893 45.8874 32.0311 46.1045 32.0122C46.3216 31.9933 46.5292 31.9144 46.7041 31.7843C46.9226 31.624 47.0822 31.3962 47.1582 31.1361C47.2107 30.9497 47.2081 30.8395 47.2212 30.8395C47.2343 30.8395 47.2212 30.8683 47.2212 30.9208C47.2229 30.9976 47.2149 31.0743 47.1976 31.1492C47.1386 31.4313 46.9814 31.6833 46.754 31.8605C46.584 31.9931 46.3834 32.081 46.1706 32.1158C45.9578 32.1507 45.7396 32.1315 45.5362 32.0599C45.2844 31.9704 45.0666 31.8052 44.9125 31.5869C44.7585 31.3686 44.6758 31.108 44.6758 30.8408C44.6758 30.5736 44.7585 30.313 44.9125 30.0947C45.0666 29.8764 45.2844 29.7111 45.5362 29.6216C45.7396 29.5501 45.9578 29.5309 46.1706 29.5657C46.3834 29.6006 46.584 29.6884 46.754 29.8211C46.9814 29.9982 47.1386 30.2503 47.1976 30.5324C47.2151 30.6072 47.223 30.6839 47.2212 30.7607C47.2291 30.8132 47.2265 30.8395 47.2212 30.8395Z" fill="#263238"/>
<path d="M50.1686 30.7248C50.1554 30.7248 50.1686 30.6198 50.1056 30.4387C50.0321 30.1859 49.877 29.9644 49.6646 29.8088C49.4944 29.6824 49.2923 29.6057 49.0811 29.5874C48.8698 29.5691 48.6576 29.6098 48.4681 29.7051C48.2786 29.8004 48.1194 29.9464 48.0081 30.1269C47.8968 30.3075 47.8379 30.5154 47.8379 30.7275C47.8379 30.9395 47.8968 31.1474 48.0081 31.328C48.1194 31.5085 48.2786 31.6545 48.4681 31.7498C48.6576 31.8451 48.8698 31.8859 49.0811 31.8675C49.2923 31.8492 49.4944 31.7725 49.6646 31.6461C49.877 31.4905 50.0321 31.269 50.1056 31.0162C50.1581 30.8351 50.1554 30.7275 50.1686 30.7275C50.1817 30.7275 50.1686 30.7537 50.1686 30.8062C50.17 30.8811 50.163 30.956 50.1476 31.0293C50.089 31.3039 49.9357 31.5492 49.7145 31.7222C49.5486 31.852 49.3527 31.9378 49.1449 31.9717C48.9371 32.0057 48.724 31.9867 48.5255 31.9164C48.2803 31.8289 48.0681 31.6676 47.9181 31.4548C47.768 31.2419 47.6875 30.9879 47.6875 30.7275C47.6875 30.467 47.768 30.213 47.9181 30.0001C48.0681 29.7873 48.2803 29.626 48.5255 29.5385C48.724 29.4682 48.9371 29.4492 49.1449 29.4832C49.3527 29.5171 49.5486 29.6029 49.7145 29.7327C49.9358 29.9067 50.0891 30.1528 50.1476 30.4282C50.1632 30.5015 50.1702 30.5764 50.1686 30.6513C50.1764 30.6986 50.1738 30.7248 50.1686 30.7248Z" fill="#263238"/>
<path d="M47.7643 30.4553C47.738 30.479 47.6199 30.4028 47.4624 30.4081C47.3049 30.4133 47.2 30.4895 47.1632 30.4658C47.1265 30.4422 47.2367 30.2769 47.4598 30.2716C47.6829 30.2664 47.7984 30.4343 47.7643 30.4553Z" fill="#263238"/>
<path d="M44.8293 30.666C44.8529 30.6949 44.622 30.9049 44.3175 31.1332C44.1453 31.2903 43.9437 31.4116 43.7243 31.4902C43.7007 31.4613 43.9317 31.2513 44.2361 31.023C44.4079 30.8653 44.6096 30.7439 44.8293 30.666Z" fill="#263238"/>
<path d="M69.1932 30.7811C69.1932 30.8179 66.1565 30.8494 62.4111 30.8494C58.6657 30.8494 55.6289 30.8179 55.6289 30.7811C55.6289 30.7444 58.6657 30.7129 62.4111 30.7129C66.1565 30.7129 69.1932 30.7444 69.1932 30.7811Z" fill="#263238"/>
<path d="M62.9169 32.2017C62.9169 32.2385 61.3054 32.27 59.3159 32.27C57.3264 32.27 55.7148 32.2385 55.7148 32.2017C55.7148 32.165 57.3264 32.1309 59.3159 32.1309C61.3054 32.1309 62.9169 32.1624 62.9169 32.2017Z" fill="#263238"/>
<path d="M109.823 41.2715C111.011 41.9472 112.054 42.8519 112.89 43.9331C113.726 45.0144 114.34 46.2508 114.695 47.5707C115.962 52.1061 119.839 63.9172 119.839 63.9172C119.839 63.9172 122.054 66.5235 122.29 68.4526C122.527 70.3817 122.054 75.051 121.34 75.9224C121.134 76.1752 120.868 76.3737 120.567 76.5004C120.266 76.6271 119.939 76.6783 119.613 76.6494L110.288 75.7649L106.613 51.177L109.823 41.2715Z" fill="#AC769E"/>
<path d="M78.987 40.8402C78.987 40.8402 72.3177 42.9399 70.6562 44.7509L76.1156 70.1473L76.0185 78.163H107.64C107.64 77.7667 107.924 51.5541 107.924 51.5541L109.822 41.268L98.5906 39.2916L96.3754 37.5488L83.8741 38.184L81.9738 40.0816L78.987 40.8402Z" fill="#AC769E"/>
<g opacity="0.3">
<path d="M81.5297 62.8743C81.4326 62.6591 81.2908 62.4255 81.0599 62.3782C80.6793 62.2995 80.4247 62.7483 80.2961 63.1158C79.2878 65.9948 77.8908 68.7226 76.1439 71.2234L76.0625 75.1236C77.8998 73.5725 79.7213 71.911 80.8971 69.8087C82.073 67.7063 82.5113 65.0685 81.5297 62.8743Z" fill="black"/>
</g>
<path d="M70.656 44.752C70.656 44.752 68.4592 47.7467 67.5484 49.7021C66.6377 51.6575 59.076 68.0748 58.6245 69.773C58.1731 71.4711 56.9972 76.8097 60.4487 78.0485H67.5537L74.6823 63.6312L75.0471 46.8989L70.656 44.752Z" fill="#AC769E"/>
<path d="M68.0037 67.6355C68.0037 67.6355 67.8462 67.4964 67.5182 67.3101C67.0499 67.0589 66.5478 66.8768 66.0274 66.7694C65.6696 66.691 65.3063 66.6401 64.9407 66.6172C64.5196 66.5854 64.096 66.6155 63.6835 66.7064C62.7498 66.9462 61.9141 67.4709 61.2924 68.2077C60.6604 68.9362 60.1978 69.7959 59.9381 70.7248C59.7237 71.484 59.5814 72.2617 59.5129 73.0476C59.4447 73.7195 59.4211 74.2681 59.3974 74.6434C59.3974 74.8219 59.3764 74.9662 59.3712 75.0791C59.3713 75.1306 59.3643 75.1818 59.3502 75.2313C59.3468 75.1806 59.3468 75.1298 59.3502 75.0791C59.3502 74.9636 59.3502 74.8166 59.3502 74.6434C59.3502 74.2628 59.3659 73.7169 59.4211 73.0397C59.4765 72.241 59.6111 71.4497 59.8226 70.6775C60.0805 69.7276 60.5498 68.8483 61.1953 68.1053C61.8364 67.348 62.6996 66.8117 63.6625 66.5725C64.0835 66.4849 64.5153 66.461 64.9434 66.5017C65.3139 66.5289 65.6817 66.5859 66.0431 66.6723C66.5693 66.7893 67.0741 66.9876 67.5392 67.2602C67.6644 67.3376 67.783 67.4254 67.8935 67.5227C67.9341 67.5563 67.9711 67.5941 68.0037 67.6355Z" fill="#263238"/>
<path d="M64.6367 64.7624C64.7144 64.7398 64.7947 64.7274 64.8756 64.7257C65.0948 64.7086 65.3151 64.7086 65.5344 64.7257C65.8608 64.7448 66.185 64.7932 66.5029 64.87C67.285 65.0591 68.019 65.4096 68.6577 65.8989C68.9179 66.097 69.1595 66.3184 69.3795 66.5603C69.5286 66.7244 69.6646 66.8999 69.7863 67.0853C69.8359 67.1495 69.8765 67.2201 69.9071 67.2952C69.8861 67.311 69.6918 67.0328 69.3086 66.6338C69.0822 66.4069 68.8392 66.1973 68.5816 66.0065C68.2644 65.7756 67.9271 65.5735 67.5737 65.4029C67.2184 65.2371 66.8496 65.1019 66.4714 64.9987C66.1611 64.9187 65.8453 64.8626 65.5265 64.8307C64.9805 64.7598 64.6367 64.7887 64.6367 64.7624Z" fill="#263238"/>
<path d="M71.0548 63.9727C70.9449 63.9772 70.8349 63.9693 70.7267 63.9491C70.5168 63.9229 70.2149 63.8914 69.837 63.8625C67.8741 63.7161 65.9014 63.9523 64.0286 64.558C63.669 64.6735 63.3803 64.7759 63.1834 64.852C63.083 64.8964 62.9783 64.9307 62.8711 64.9544C62.9614 64.8916 63.0593 64.8405 63.1624 64.8021C63.354 64.7103 63.6401 64.5948 63.9971 64.4662C65.8713 63.8025 67.8697 63.564 69.8475 63.768C70.2228 63.8074 70.5273 63.852 70.7346 63.8966C70.8435 63.9117 70.9508 63.9372 71.0548 63.9727Z" fill="#263238"/>
<path d="M91.2866 49.9423C91.2578 49.9174 91.233 49.8882 91.2131 49.8557L91.0189 49.5933L90.305 48.6064C89.6934 47.7402 88.8378 46.5329 87.8325 45.1156L87.9428 45.0998C87.5596 46.2232 87.137 47.462 86.6934 48.7744L86.6645 48.8557L86.5911 48.8085L86.4441 48.714C85.8722 48.3479 85.3522 47.9065 84.8981 47.4016C84.4785 46.9316 84.1082 46.4198 83.7932 45.8741C83.2688 44.9507 82.8606 43.9659 82.5779 42.9423C82.3882 42.2509 82.2348 41.5501 82.1186 40.8426C82.0766 40.6064 82.0451 40.4148 82.0189 40.2704C82.0114 40.2214 82 40.1732 81.9848 40.1261C81.9848 40.0946 81.9664 40.0788 81.969 40.0762C81.9716 40.0736 82.0766 40.3387 82.1711 40.8347C82.2656 41.3308 82.4152 42.0447 82.6724 42.9082C82.9631 43.9223 83.3765 44.8972 83.9034 45.8111C84.2176 46.3466 84.5842 46.8495 84.9979 47.3124C85.4441 47.8052 85.9543 48.2359 86.5149 48.5933L86.6593 48.6877L86.5596 48.7245C87.0084 47.4121 87.4336 46.1812 87.822 45.0499L87.8614 44.9345L87.9323 45.0342C88.9191 46.4646 89.7695 47.6825 90.3653 48.5539C90.6514 48.9791 90.8903 49.3177 91.0504 49.5644L91.2262 49.8268C91.2504 49.8631 91.2706 49.9018 91.2866 49.9423Z" fill="#263238"/>
<g opacity="0.3">
<path d="M99.5184 62.0684C99.2353 65.0299 99.8772 68.0064 101.356 70.588C102.826 73.1445 104.983 75.4253 107.668 76.6484C107.755 74.0421 107.629 70.9713 107.715 68.365L99.5184 62.0684Z" fill="black"/>
</g>
<path d="M99.2218 58.6364C99.2218 58.6364 98.0722 58.954 98.9331 61.3083C99.794 63.6626 100.083 63.5183 100.658 65.7178C101.232 67.9172 101.902 69.9172 102.904 71.1718C103.907 72.4264 107.642 74.9514 107.642 74.9514L110.991 71.8017C110.991 71.8017 110.44 69.4395 110.571 67.849C110.702 66.2584 111.038 62.3372 110.991 61.6574C110.944 60.9776 110.224 59.3608 110.224 59.3608V58.2479L108.503 52.9514C108.503 52.9514 107.545 52.5209 107.211 54.0511L106.637 52.4264C106.637 52.4264 105.728 52.2821 105.49 54.1482C105.251 56.0143 105.681 58.597 105.681 58.597L105.201 61.849L104.484 64.0511L103.862 64.1456C103.862 64.1456 102.925 63.8831 102.413 62.1272C101.902 60.3713 100.513 58.2532 99.2218 58.6364Z" fill="#FFCCA9"/>
<path d="M109.878 66.9687C109.878 66.9687 109.878 66.9293 109.863 66.8506C109.847 66.7718 109.847 66.6432 109.839 66.4989C109.821 66.1787 109.797 65.7351 109.768 65.1865C109.716 64.0448 109.645 62.4543 109.561 60.5986L109.574 60.638C109.488 60.5491 109.38 60.4855 109.26 60.454C109.141 60.4225 109.015 60.4244 108.897 60.4595C108.768 60.4907 108.647 60.5471 108.541 60.6255C108.435 60.7039 108.345 60.8028 108.277 60.9162C107.983 61.386 107.968 62.0002 107.876 62.5907C107.695 63.9319 107.521 65.2154 107.364 66.3729C107.285 66.9556 107.201 67.5067 107.088 68.0186C106.982 68.4932 106.843 68.9598 106.671 69.4149C106.524 69.8322 106.393 70.2023 106.311 70.5514C106.239 70.8388 106.203 71.1342 106.204 71.4306C106.213 71.6857 106.257 71.9382 106.335 72.1813C106.303 72.1224 106.277 72.061 106.256 71.9976C106.194 71.8156 106.159 71.6255 106.151 71.4333C106.139 71.1289 106.168 70.8242 106.238 70.5277C106.33 70.1381 106.445 69.7543 106.582 69.3781C106.744 68.9247 106.876 68.4608 106.975 67.9897C107.083 67.4831 107.164 66.9398 107.238 66.3519C107.39 65.1865 107.561 63.911 107.739 62.5671C107.781 62.2705 107.813 61.9739 107.865 61.68C107.908 61.3829 108.008 61.0968 108.159 60.8375C108.237 60.7101 108.34 60.5995 108.461 60.5121C108.582 60.4246 108.72 60.3622 108.865 60.3283C109.007 60.2857 109.157 60.2838 109.3 60.3228C109.442 60.3618 109.571 60.4401 109.671 60.5487L109.684 60.5671V60.5881C109.75 62.4438 109.805 64.0343 109.844 65.1787C109.844 65.7325 109.868 66.176 109.878 66.491C109.878 66.6354 109.878 66.7535 109.878 66.8427C109.883 66.8846 109.883 66.9268 109.878 66.9687Z" fill="#E29F76"/>
<path d="M108.038 60.9294C107.978 60.8361 107.931 60.7355 107.896 60.6302C107.787 60.3505 107.693 60.0648 107.616 59.7746C107.503 59.3438 107.423 58.9051 107.377 58.4622C107.344 58.201 107.339 57.9371 107.361 57.6748C107.385 57.3816 107.485 57.0996 107.65 56.8559C107.797 56.6375 108.013 56.4748 108.264 56.394L108.314 56.3809L108.34 56.4255C108.825 57.2811 109.248 58.037 109.542 58.5803L109.886 59.2234C109.933 59.2987 109.97 59.3799 109.996 59.4648C109.937 59.3981 109.886 59.3251 109.844 59.247L109.466 58.625C109.151 58.1 108.713 57.3467 108.224 56.4937L108.301 56.5252C108.081 56.5986 107.892 56.7426 107.762 56.9347C107.611 57.1598 107.521 57.4202 107.5 57.6906C107.474 57.9471 107.474 58.2057 107.5 58.4622C107.54 58.9038 107.609 59.3423 107.707 59.7746C107.791 60.142 107.883 60.436 107.944 60.6381C107.985 60.7318 108.016 60.8294 108.038 60.9294Z" fill="#E29F76"/>
<path d="M107.235 61.3619C107.211 61.2613 107.201 61.1581 107.203 61.0548C107.203 60.8291 107.182 60.5509 107.169 60.2228C107.148 59.5194 107.125 58.5483 107.112 57.4748C107.072 56.557 107.086 55.6377 107.153 54.7215C107.186 54.4434 107.246 54.1692 107.332 53.9026C107.357 53.802 107.399 53.7063 107.455 53.6191C107.359 53.9845 107.29 54.3565 107.248 54.732C107.182 55.4275 107.248 56.3987 107.248 57.4722C107.248 58.5456 107.269 59.5168 107.266 60.2202C107.266 60.5509 107.266 60.8291 107.266 61.0548C107.267 61.158 107.257 61.261 107.235 61.3619Z" fill="#E29F76"/>
<path d="M104.403 70.1836C104.385 70.1679 104.595 69.9212 104.852 69.4723C105.003 69.2105 105.134 68.9376 105.243 68.6561C105.372 68.3097 105.472 67.9533 105.543 67.5904C105.604 67.2262 105.635 66.8575 105.634 66.4881C105.63 66.1865 105.604 65.8855 105.556 65.5878C105.469 65.076 105.359 64.7715 105.382 64.7637C105.424 64.8278 105.456 64.8977 105.477 64.971C105.551 65.1654 105.609 65.3656 105.65 65.5694C105.714 65.8708 105.751 66.1774 105.76 66.4855C105.783 67.2447 105.647 68.0003 105.359 68.7033C105.243 68.9884 105.101 69.2625 104.936 69.5222C104.827 69.6983 104.703 69.8651 104.566 70.0209C104.469 70.1311 104.411 70.1889 104.403 70.1836Z" fill="#E29F76"/>
<path d="M110.284 68.541L113.189 69.5489C113.189 69.5489 115.966 68.1132 117.879 69.5489C119.793 70.9846 121.454 74.7667 120.929 76.2969C120.929 76.2969 119.617 77.9295 118.604 78.1683C117.591 78.4072 113.693 77.4596 112.068 77.1184C110.444 76.7772 107.641 74.9557 107.641 74.9557L110.284 68.541Z" fill="#FFCCA9"/>
<path d="M110.639 72.8163C110.618 72.7303 110.608 72.6423 110.607 72.5539C110.607 72.357 110.584 72.1234 110.568 71.8504C110.536 71.2573 110.497 70.4384 110.484 69.5302C110.471 68.6221 110.497 67.8006 110.549 67.2074C110.576 66.9108 110.61 66.6825 110.639 66.5066C110.645 66.4165 110.665 66.328 110.699 66.2441C110.72 66.2441 110.675 66.6116 110.647 67.2048C110.618 67.7979 110.607 68.6142 110.62 69.5197C110.633 70.4252 110.652 71.2074 110.662 71.8373C110.662 72.1339 110.662 72.3754 110.662 72.5407C110.669 72.6333 110.661 72.7263 110.639 72.8163Z" fill="#E29F76"/>
<path d="M120.222 69.4283C119.921 69.1156 119.598 68.8244 119.256 68.557C118.416 67.9282 117.408 67.562 116.36 67.5046C115.312 67.4471 114.27 67.7009 113.366 68.2341C112.999 68.4627 112.649 68.7162 112.316 68.9926C112.386 68.8963 112.466 68.8083 112.555 68.7302C112.791 68.5107 113.049 68.3155 113.324 68.1475C114.237 67.5789 115.303 67.3058 116.377 67.3655C117.451 67.4251 118.48 67.8146 119.324 68.4808C119.58 68.6772 119.814 68.8997 120.022 69.1449C120.1 69.2312 120.167 69.3264 120.222 69.4283Z" fill="#263238"/>
<path d="M119.85 67.0077C119.474 66.7381 119.068 66.5143 118.64 66.341C117.587 65.9672 116.443 65.9332 115.369 66.2439C114.779 66.4096 114.21 66.6458 113.676 66.9473C113.242 67.1972 112.831 67.4871 112.451 67.8135C112.125 68.0917 111.876 68.3384 111.705 68.5038C111.622 68.5994 111.529 68.6873 111.43 68.7662C111.498 68.6603 111.577 68.5618 111.666 68.4723C111.893 68.2165 112.134 67.9738 112.388 67.7452C112.765 67.4046 113.176 67.103 113.613 66.845C114.153 66.5298 114.731 66.2854 115.333 66.1179C116.432 65.7967 117.607 65.8456 118.676 66.2571C118.996 66.3846 119.297 66.5541 119.571 66.761C119.669 66.8319 119.734 66.9001 119.784 66.9421C119.834 66.9841 119.85 67.0051 119.85 67.0077Z" fill="#263238"/>
<path d="M119.874 64.9053C119.874 64.9315 119.349 64.7767 118.514 64.6638C118.021 64.5977 117.524 64.5661 117.026 64.5693C116.416 64.576 115.808 64.6305 115.207 64.7321C114.607 64.8423 114.017 64.9985 113.441 65.1993C112.971 65.366 112.514 65.566 112.073 65.7977C111.32 66.1914 110.895 66.5116 110.879 66.488C110.968 66.4015 111.066 66.3241 111.17 66.257C111.285 66.167 111.405 66.0846 111.53 66.0103C111.674 65.9184 111.837 65.8108 112.026 65.7111C112.467 65.467 112.926 65.2565 113.399 65.0812C113.979 64.8695 114.576 64.7079 115.183 64.5982C115.79 64.4955 116.405 64.4437 117.021 64.4434C117.524 64.4459 118.027 64.4871 118.525 64.5667C118.737 64.593 118.926 64.6428 119.091 64.677C119.235 64.706 119.377 64.7428 119.517 64.7872C119.639 64.8161 119.758 64.8557 119.874 64.9053Z" fill="#263238"/>
<path d="M97.6078 39.2051C97.7166 39.4495 97.784 39.7102 97.8072 39.9767C97.8856 40.7295 97.8484 41.4898 97.697 42.2313C97.6049 42.7636 97.4796 43.2896 97.3217 43.8061C97.1148 44.4072 96.8602 44.9909 96.5605 45.5515C95.9332 46.7589 95.1458 48.0738 94.2324 49.4885L94.1274 49.6539V49.4571C94.1274 48.5279 94.1274 47.5542 94.1274 46.5437L94.2298 46.5935L91.7652 48.5594L91.7862 48.5279C91.2016 50.4438 90.8422 52.4212 90.7154 54.4203C90.4739 57.6145 90.6681 60.6696 90.8177 63.4413C90.9673 66.213 91.033 68.7143 91.1196 70.814C91.2062 72.9137 91.2771 74.6093 91.34 75.7825C91.3768 76.3652 91.403 76.8166 91.4214 77.1316C91.4214 77.2812 91.4398 77.3941 91.445 77.4833C91.4503 77.5725 91.445 77.604 91.445 77.604C91.445 77.604 91.445 77.5647 91.4267 77.4859C91.4083 77.4072 91.4057 77.2838 91.3899 77.1342C91.361 76.8271 91.3243 76.3731 91.2849 75.7851C91.2062 74.6145 91.1143 72.9164 91.0225 70.8166C90.9306 68.7169 90.8177 66.2208 90.6917 63.4465C90.5658 60.6723 90.3374 57.6145 90.5789 54.4098C90.7116 52.3988 91.0807 50.4105 91.6786 48.4859V48.4675H91.6944L94.1511 46.4964L94.2534 46.4124V46.5437C94.2534 47.5542 94.2534 48.5279 94.2534 49.4571L94.1458 49.4229C95.949 46.6277 97.4162 44.1972 97.6419 42.2313C97.7978 41.4968 97.8455 40.7434 97.7836 39.9951C97.7622 39.7985 97.7262 39.6037 97.676 39.4124C97.6235 39.2707 97.6078 39.2051 97.6078 39.2051Z" fill="#263238"/>
<path d="M92.8993 73.0605H92.8153C92.6242 73.0728 92.4453 73.1589 92.3166 73.3007C92.1878 73.4425 92.1192 73.6288 92.1254 73.8202C92.1315 74.0116 92.2119 74.1931 92.3494 74.3264C92.487 74.4596 92.671 74.5341 92.8625 74.5341C93.054 74.5341 93.2381 74.4596 93.3756 74.3264C93.5132 74.1931 93.5936 74.0116 93.5997 73.8202C93.6058 73.6288 93.5373 73.4425 93.4085 73.3007C93.2798 73.1589 93.1009 73.0728 92.9098 73.0605H92.8993Z" fill="white"/>
<path d="M92.9006 62.9473H92.8166C92.6262 62.9595 92.448 63.0454 92.3197 63.1867C92.1914 63.3279 92.1232 63.5136 92.1293 63.7043C92.1354 63.895 92.2155 64.0759 92.3526 64.2086C92.4897 64.3413 92.673 64.4156 92.8638 64.4156C93.0546 64.4156 93.238 64.3413 93.3751 64.2086C93.5121 64.0759 93.5922 63.895 93.5983 63.7043C93.6045 63.5136 93.5362 63.3279 93.4079 63.1867C93.2797 63.0454 93.1015 62.9595 92.9111 62.9473H92.9006Z" fill="white"/>
<path d="M92.8144 53.8976C93.0103 53.9105 93.2034 53.845 93.351 53.7155C93.4987 53.5861 93.5889 53.4033 93.6018 53.2073C93.6147 53.0114 93.5492 52.8183 93.4197 52.6707C93.2903 52.523 93.1074 52.4328 92.9115 52.4199H92.8144C92.6181 52.4199 92.4298 52.4979 92.291 52.6367C92.1522 52.7755 92.0742 52.9638 92.0742 53.1601C92.0742 53.3564 92.1522 53.5446 92.291 53.6834C92.4298 53.8223 92.6181 53.9002 92.8144 53.9002V53.8976Z" fill="white"/>
<path d="M81.4682 27.3532C80.5495 26.3322 79.6309 25.3034 78.9511 24.1065C78.2713 22.9097 77.8802 21.5107 78.1007 20.1695C78.2319 19.3821 78.5679 18.621 78.6257 17.8073C78.6991 16.7049 78.2372 15.5527 78.6257 14.5212C79.2346 12.9044 81.4104 12.6551 82.728 11.5396C83.7543 10.6708 84.2529 9.26138 85.3816 8.53172C86.3684 7.8913 87.6361 7.90705 88.7936 8.06978C89.9511 8.23251 91.127 8.52909 92.2923 8.37161C93.1217 8.26138 93.9039 7.92542 94.7149 7.72332C95.5259 7.52122 96.4367 7.46085 97.1585 7.8913C97.8802 8.32174 98.2897 9.33749 97.8146 10.0278C99.1637 9.40573 100.878 10.4582 101.248 11.8965C101.618 13.3349 100.878 14.8913 99.7333 15.8336C98.5889 16.7758 97.1086 17.2246 95.6519 17.5002C91.5207 18.2876 87.0351 17.8388 83.4734 15.6026" fill="#1E2325"/>
<path d="M96.003 41.2449C95.8009 39.6701 95.6356 38.3762 95.6251 38.2134C95.6251 38.2134 100.853 37.0376 100.565 31.7515C100.426 29.1951 99.7117 23.9562 99.0083 19.2239C98.6468 16.7707 97.3741 14.5438 95.4439 12.9872C93.5136 11.4306 91.0677 10.6585 88.5936 10.825L88.0686 10.8565C82.5962 11.5468 80.1211 16.5809 80.961 22.035L83.9164 40.321C83.9164 40.321 85.1763 44.3657 87.8718 45.0665L91.2839 49.9273L91.8455 47.8276L94.381 45.6176C94.8668 45.0463 95.2868 44.4221 95.633 43.7567C96.02 42.9801 96.1497 42.1003 96.003 41.2449Z" fill="#FFCCA9"/>
<path d="M95.6277 38.1413C95.6277 38.1413 92.3075 38.6347 88.6094 36.6426C88.6094 36.6426 90.4939 40.3355 95.7327 39.5087L95.6277 38.1413Z" fill="#E29F76"/>
<path d="M97.3102 23.7693C97.3249 23.966 97.2625 24.1607 97.136 24.3121C97.0096 24.4635 96.8292 24.5597 96.633 24.5803C96.5375 24.5943 96.4402 24.589 96.3468 24.5647C96.2534 24.5405 96.1658 24.4977 96.0892 24.4389C96.0126 24.3802 95.9485 24.3067 95.9009 24.2228C95.8532 24.1389 95.8228 24.0463 95.8115 23.9504C95.794 23.7521 95.8557 23.555 95.983 23.402C96.1104 23.2491 96.2931 23.1528 96.4913 23.1341C96.587 23.1205 96.6845 23.1263 96.7779 23.1511C96.8713 23.1759 96.9588 23.2192 97.0352 23.2784C97.1116 23.3376 97.1753 23.4116 97.2225 23.4959C97.2697 23.5803 97.2996 23.6732 97.3102 23.7693Z" fill="#263238"/>
<path d="M98.0477 21.8967C97.9611 22.0016 97.36 21.6158 96.549 21.6736C95.738 21.7313 95.1789 22.1749 95.0739 22.0856C95.0293 22.0463 95.1133 21.8625 95.36 21.6552C95.6943 21.3879 96.1034 21.2311 96.5306 21.2064C96.9533 21.1757 97.3747 21.2815 97.7327 21.5082C97.9952 21.6762 98.0897 21.8494 98.0477 21.8967Z" fill="#263238"/>
<path d="M89.6415 24.3192C89.6568 24.5158 89.5945 24.7105 89.4679 24.8617C89.3413 25.0128 89.1605 25.1083 88.9643 25.1276C88.8689 25.142 88.7717 25.137 88.6783 25.1131C88.5849 25.0891 88.4972 25.0466 88.4206 24.9881C88.3439 24.9295 88.2798 24.8562 88.2321 24.7724C88.1844 24.6886 88.154 24.5961 88.1428 24.5003C88.128 24.304 88.1901 24.1097 88.316 23.9583C88.4418 23.807 88.6216 23.7105 88.8173 23.6893C88.913 23.6753 89.0104 23.6806 89.104 23.7048C89.1976 23.7291 89.2854 23.7718 89.3622 23.8305C89.439 23.8892 89.5033 23.9627 89.5512 24.0466C89.5992 24.1306 89.6299 24.2232 89.6415 24.3192Z" fill="#263238"/>
<path d="M90.0801 22.5815C89.9908 22.6865 89.3924 22.3006 88.5814 22.3584C87.7704 22.4161 87.2008 22.8597 87.1063 22.7652C87.0591 22.7258 87.1431 22.5421 87.3898 22.3348C87.7253 22.0679 88.1351 21.9112 88.563 21.8859C88.9848 21.8556 89.4053 21.9614 89.7625 22.1878C90.025 22.361 90.1221 22.5342 90.0801 22.5815Z" fill="#263238"/>
<path d="M93.4264 28.4068C93.4264 28.3596 93.9198 28.2389 94.7387 28.0787C94.9435 28.0446 95.1377 27.9895 95.1639 27.8478C95.1665 27.632 95.1034 27.4205 94.9828 27.2415L94.2637 25.7034C93.2637 23.5144 92.5235 21.706 92.6128 21.6667C92.702 21.6273 93.5839 23.3701 94.5865 25.5617L95.2794 27.1102C95.4263 27.3515 95.4838 27.6367 95.4422 27.916C95.4167 27.9909 95.3747 28.059 95.3193 28.1154C95.2638 28.1717 95.1964 28.2148 95.1219 28.2415C95.0092 28.2806 94.8919 28.3053 94.7729 28.315C93.9435 28.4147 93.4343 28.4514 93.4264 28.4068Z" fill="#263238"/>
<path d="M90.0736 19.3841C90.008 19.6125 89.1917 19.56 88.2363 19.7384C87.2809 19.9169 86.5382 20.2293 86.3991 20.0403C86.3361 19.9484 86.4568 19.7332 86.7534 19.497C87.1506 19.2087 87.608 19.0141 88.0912 18.9277C88.5744 18.8413 89.0709 18.8655 89.5434 18.9983C89.9135 19.1164 90.1025 19.2791 90.0736 19.3841Z" fill="#263238"/>
<path d="M97.5904 19.5675C97.4618 19.7618 96.8896 19.6095 96.2151 19.6436C95.5405 19.6778 94.9815 19.851 94.8371 19.6673C94.7741 19.578 94.8529 19.3864 95.0996 19.1948C95.4202 18.9642 95.8019 18.8336 96.1966 18.8196C96.5913 18.8056 96.9813 18.9088 97.3174 19.1161C97.5589 19.2893 97.6481 19.4625 97.5904 19.5675Z" fill="#263238"/>
<path d="M81.6655 25.9343C81.5737 25.9028 77.9647 25.1049 78.3217 28.7085C78.6787 32.3122 82.5789 31.1364 82.5789 31.034C82.5789 30.9316 81.6655 25.9343 81.6655 25.9343Z" fill="#FFCCA9"/>
<path d="M80.9823 29.8508C80.9639 29.8508 80.9245 29.9006 80.8222 29.9584C80.6799 30.0378 80.5123 30.0585 80.355 30.0161C79.9586 29.9137 79.5676 29.3416 79.4967 28.7038C79.4575 28.3958 79.4871 28.0829 79.5833 27.7878C79.6068 27.6726 79.6578 27.5647 79.7318 27.4733C79.8058 27.382 79.9007 27.3098 80.0085 27.2628C80.079 27.2368 80.1564 27.2362 80.2273 27.2611C80.2982 27.286 80.3582 27.3349 80.397 27.3993C80.4547 27.4964 80.439 27.5699 80.4573 27.5725C80.4757 27.5752 80.5282 27.5069 80.4862 27.3599C80.4566 27.2725 80.3984 27.1975 80.3208 27.1473C80.2675 27.1115 80.2075 27.0865 80.1445 27.0739C80.0814 27.0613 80.0165 27.0613 79.9534 27.0738C79.8086 27.1182 79.6776 27.199 79.5729 27.3083C79.4681 27.4176 79.3931 27.552 79.355 27.6985C79.2319 28.0257 79.1914 28.3782 79.2369 28.7248C79.3313 29.4492 79.7618 30.0922 80.3051 30.1893C80.405 30.2083 80.5078 30.2045 80.606 30.1781C80.7042 30.1518 80.7951 30.1036 80.872 30.0371C80.9849 29.9374 81.0033 29.856 80.9823 29.8508Z" fill="#E29F76"/>
<path d="M98.7412 14.3017C98.4945 15.7374 95.5916 17.0523 93.1717 16.9815C90.9486 16.9158 89.8488 15.8135 88.2347 15.0287C87.211 14.5326 87.211 14.5326 85.8226 14.7662C84.7019 14.9473 84.1192 16.2728 83.4893 17.2177C84.6887 19.8424 84.2032 22.8765 83.694 25.7111C83.672 26.0308 83.5436 26.3339 83.3292 26.572C82.925 26.929 82.2793 26.7164 81.8698 26.3515C81.232 25.7662 80.9407 24.9001 80.7334 24.0602C80.2248 22.1499 80.1034 20.1572 80.3764 18.1993C80.6523 16.2319 81.4992 14.3885 82.8121 12.8975C84.5292 11.0881 86.8817 10.0163 89.3738 9.90797C91.8533 9.8191 94.2979 10.5134 96.3607 11.8922C97.316 12.5195 98.1979 13.2938 98.7491 14.299" fill="#1E2325"/>
<path d="M93.9586 30.2233L92.1213 29.3677C92.0206 29.3081 91.9048 29.279 91.7879 29.2837C91.6587 29.3128 91.5453 29.3897 91.4704 29.4989C91.255 29.7567 91.1207 30.0724 91.0843 30.4063C91.0478 30.7402 91.1109 31.0774 91.2656 31.3756C91.4338 31.666 91.6983 31.8885 92.0132 32.0045C92.3281 32.1205 92.6737 32.1227 92.9901 32.0107C93.641 31.7483 93.9559 30.9845 94.0084 30.2811L93.9586 30.2233Z" fill="#DB5A5C"/>
<path d="M93.0455 32.145C93.0455 32.1607 92.9588 32.2132 92.783 32.2526C92.5198 32.2998 92.249 32.28 91.9956 32.1949C91.6081 32.0644 91.2833 31.7938 91.0848 31.4363C90.9593 31.2185 90.884 30.9754 90.8645 30.7247C90.8449 30.474 90.8817 30.2222 90.972 29.9875C91.0643 29.7443 91.2096 29.5247 91.3972 29.3445C91.4882 29.2584 91.5886 29.1826 91.6964 29.1187C91.761 29.0803 91.8339 29.0578 91.909 29.0531C91.9819 29.0502 92.0545 29.0636 92.1216 29.0925C92.2196 29.1419 92.3151 29.1962 92.4077 29.2552L92.657 29.4101L93.1058 29.6883C93.6491 30.0348 93.9772 30.2657 93.9588 30.2972C93.9405 30.3287 93.5783 30.1607 93.0087 29.8563L92.5441 29.5938L92.2817 29.4495C92.1924 29.4048 92.098 29.3445 92.0192 29.313C91.9869 29.2975 91.9509 29.2912 91.9152 29.2949C91.8795 29.2986 91.8456 29.3121 91.8171 29.334C91.73 29.3889 91.649 29.4532 91.5756 29.5256C91.4199 29.6806 91.2983 29.8666 91.2187 30.0715C91.1425 30.2703 91.1101 30.4831 91.1237 30.6956C91.1373 30.908 91.1966 31.115 91.2974 31.3025C91.461 31.6166 91.7294 31.8636 92.056 32.0006C92.2819 32.0916 92.5237 32.1371 92.7672 32.1345C92.9405 32.1424 93.0376 32.1266 93.0455 32.145Z" fill="#263238"/>
<path d="M92.468 23.8632C92.4419 23.5556 92.3936 23.2504 92.3236 22.9498C92.1936 22.4472 91.96 21.9774 91.6376 21.5705C91.3153 21.1636 90.9113 20.8287 90.4518 20.5872C89.9923 20.3457 89.4874 20.203 88.9694 20.1682C88.4515 20.1335 87.932 20.2075 87.4444 20.3855C87.1082 20.5061 86.7923 20.6769 86.5073 20.892C86.2035 21.1096 85.9375 21.3756 85.7199 21.6794C85.2522 22.3119 84.9997 23.0778 84.9997 23.8645C84.9997 24.6511 85.2522 25.417 85.7199 26.0495C85.9375 26.3533 86.2035 26.6193 86.5073 26.8369C86.7923 27.0521 87.1082 27.2229 87.4444 27.3435C87.9321 27.5198 88.4512 27.5925 88.9686 27.557C89.486 27.5215 89.9904 27.3786 90.4495 27.1373C90.9085 26.896 91.3123 26.5617 91.635 26.1557C91.9577 25.7497 92.1922 25.2809 92.3236 24.7792C92.3933 24.4794 92.4416 24.175 92.468 23.8684C92.471 23.8884 92.471 23.9088 92.468 23.9288C92.468 23.976 92.468 24.0364 92.468 24.1073C92.4703 24.2048 92.4633 24.3024 92.447 24.3986C92.4323 24.5313 92.4087 24.6628 92.3761 24.7923C92.293 25.1496 92.1558 25.4921 91.9693 25.808C91.521 26.5743 90.8184 27.1592 89.9836 27.4613C89.1488 27.7634 88.2346 27.7635 87.3997 27.4616C87.0519 27.3372 86.7253 27.1602 86.4312 26.9367C86.1179 26.7122 85.8431 26.4383 85.6176 26.1256C85.1328 25.4704 84.8711 24.6769 84.8711 23.8619C84.8711 23.0468 85.1328 22.2533 85.6176 21.5981C85.8415 21.285 86.1155 21.0109 86.4286 20.7871C86.7227 20.5635 87.0493 20.3865 87.3971 20.2621C88.0403 20.0312 88.7336 19.9768 89.405 20.1046C89.9365 20.2063 90.44 20.4205 90.8819 20.7329C91.3237 21.0452 91.6936 21.4485 91.9667 21.9157C92.1532 22.2316 92.2904 22.5741 92.3735 22.9314C92.406 23.0609 92.4297 23.1924 92.4444 23.3251C92.4606 23.4213 92.4677 23.5189 92.4654 23.6164C92.4654 23.6873 92.4654 23.7477 92.4654 23.7949C92.4696 23.8174 92.4705 23.8404 92.468 23.8632Z" fill="#263238"/>
<path d="M101.454 23.5069C101.428 23.2075 101.382 22.9102 101.315 22.6172C101.104 21.8234 100.633 21.1235 99.9761 20.6303C99.5286 20.29 99.0069 20.0607 98.4538 19.961C97.8191 19.8445 97.1648 19.8998 96.5587 20.1211C96.2327 20.2391 95.9258 20.4045 95.648 20.6119C95.3557 20.8259 95.0988 21.0846 94.8868 21.3783C94.4331 21.9953 94.1885 22.7411 94.1885 23.5069C94.1885 24.2728 94.4331 25.0186 94.8868 25.6356C95.0982 25.9291 95.3551 26.187 95.648 26.3993C95.9251 26.6086 96.2321 26.7749 96.5587 26.8928C97.1651 27.1129 97.819 27.1681 98.4538 27.0529C99.0069 26.9532 99.5286 26.7239 99.9761 26.3836C100.633 25.8904 101.104 25.1905 101.315 24.3967C101.382 24.1037 101.428 23.8064 101.454 23.5069C101.46 23.5847 101.46 23.6628 101.454 23.7405C101.455 23.8363 101.448 23.932 101.433 24.0266C101.419 24.1558 101.396 24.2838 101.365 24.4098C101.197 25.0972 100.836 25.7222 100.325 26.2107C99.8129 26.6992 99.1718 27.0306 98.4774 27.1657C97.8226 27.2894 97.1466 27.2359 96.5194 27.0109C95.8257 26.7582 95.2215 26.3073 94.7818 25.7143C94.3095 25.0753 94.0547 24.3016 94.0547 23.5069C94.0547 22.7123 94.3095 21.9386 94.7818 21.2996C95.2215 20.7066 95.8257 20.2557 96.5194 20.003C97.1466 19.778 97.8226 19.7245 98.4774 19.8482C99.1718 19.9833 99.8129 20.3147 100.325 20.8032C100.836 21.2917 101.197 21.9167 101.365 22.6041C101.396 22.7301 101.419 22.8581 101.433 22.9873C101.448 23.0819 101.455 23.1776 101.454 23.2734C101.46 23.3511 101.46 23.4292 101.454 23.5069Z" fill="#263238"/>
<path d="M94.1288 22.6771C94.113 22.6903 94.0264 22.6194 93.8663 22.5433C93.6598 22.445 93.4335 22.3956 93.2049 22.3989C92.9768 22.4022 92.7527 22.4598 92.5513 22.5669C92.3938 22.6483 92.3099 22.7244 92.2889 22.7086C92.2679 22.6929 92.3361 22.5932 92.4936 22.4829C92.701 22.3417 92.9452 22.2641 93.1961 22.2599C93.447 22.2557 93.6937 22.325 93.9057 22.4593C94.0658 22.5643 94.1288 22.6666 94.1288 22.6771Z" fill="#263238"/>
<path d="M85.167 23.3262C84.6476 23.7979 84.0988 24.2362 83.5239 24.6385C82.974 25.0758 82.3972 25.4782 81.7969 25.8432C82.3157 25.3697 82.8655 24.9313 83.4425 24.5309C83.9908 24.0926 84.5668 23.6902 85.167 23.3262Z" fill="#263238"/>
<g opacity="0.3">
<path d="M82.0544 40.4082C81.6896 43.9699 83.0439 47.731 85.9022 49.8885C86.1253 50.0591 86.4061 50.2271 86.6712 50.13C86.848 50.0444 86.9891 49.8995 87.0702 49.7205C87.8706 48.3376 88.1709 46.7213 87.9206 45.1431C87.4691 46.3347 87.0807 47.5053 86.624 48.7494C84.1384 47.2376 82.5794 44.025 82.0544 40.4082Z" fill="black"/>
</g>
<path opacity="0.3" d="M91.7305 48.5092L93.8302 47.7428L94.1767 51.2887C94.1767 51.2887 96.4391 47.1654 97.3761 45.2861C98.3131 43.4068 97.8302 40.084 97.8302 40.084C97.8302 40.084 98.1635 42.9711 95.8984 46.664L94.1872 49.4462V46.5328L91.7305 48.5092Z" fill="black"/>
<g opacity="0.3">
<path d="M67.3556 66.5296C66.3984 66.123 65.3468 65.9912 64.3188 66.149C63.2234 66.2386 62.1755 66.6352 61.2952 67.2934C60.4448 67.9784 59.87 69.0598 59.9829 70.1464L60.0879 70.1595C60.8201 68.1805 62.2742 66.7474 64.1509 66.5663C66.0275 66.3852 67.8569 67.2251 69.1377 68.6031C68.9986 67.5742 68.2795 66.9679 67.3556 66.5296Z" fill="black"/>
</g>
<g opacity="0.3">
<path d="M120.36 68.5414C119.633 67.7948 118.682 67.3056 117.651 67.1477C116.754 66.9976 115.834 67.051 114.96 67.304C114.086 67.5571 113.28 68.0033 112.602 68.6097L113.001 68.2842C114.015 67.673 115.181 67.3567 116.365 67.3708C117.554 67.3912 118.695 67.8469 119.57 68.6517C120.357 69.3971 120.827 70.4076 121.276 71.3918C121.349 70.8784 121.304 70.3551 121.145 69.8614C120.987 69.3677 120.718 68.9164 120.36 68.5414Z" fill="black"/>
</g>
<path d="M106.844 52.0866C106.865 51.9881 106.897 51.8922 106.938 51.8005C107.02 51.5931 107.119 51.3385 107.235 51.0367C107.497 50.3936 107.839 49.5065 108.206 48.517C108.573 47.5275 108.891 46.6272 109.119 45.9763L109.382 45.202C109.41 45.1053 109.449 45.012 109.497 44.9238C109.489 45.0244 109.467 45.1233 109.432 45.2178C109.382 45.4068 109.303 45.6745 109.201 46.0052C108.996 46.6666 108.692 47.58 108.324 48.5642C107.957 49.5485 107.592 50.4409 107.314 51.0734C107.177 51.391 107.051 51.6456 106.975 51.8215C106.942 51.9149 106.898 52.0039 106.844 52.0866Z" fill="#263238"/>
<path d="M73.7576 52.3431C73.7208 52.3431 73.4347 51.1017 73.1198 49.5531C72.8048 48.0045 72.5791 46.7578 72.608 46.7368C72.6368 46.7158 72.9282 47.9783 73.2431 49.5268C73.5581 51.0754 73.7943 52.3353 73.7576 52.3431Z" fill="#263238"/>
<path d="M73.2614 67.958C73.3454 68 72.3008 59.7796 72.3008 59.7796C72.3008 59.7796 72.9596 53.5407 73.3297 53.252V51.0499C73.3297 51.0499 74.3507 50.4331 74.6236 51.4305C74.6236 51.4305 75.5291 50.6431 75.6735 52.5145C75.8178 54.3859 75.8651 56.2966 75.8651 56.2966L77.8782 61.3307L78.2089 61.4987C78.2089 61.4987 78.642 57.5617 78.894 56.9738C79.1459 56.3859 79.3192 54.9817 80.2719 55.1943C81.2247 55.4069 81.306 56.1943 81.1354 57.4804C80.9648 58.7664 80.7496 60.105 80.831 60.9292C80.9123 61.7533 81.2877 63.588 81.1722 65.042C81.0567 66.4961 80.2588 68.0289 79.4241 69.105C78.5895 70.1811 76.9911 72.4095 76.1249 73.0788C75.8441 73.315 73.2614 67.958 73.2614 67.958Z" fill="#FFCCA9"/>
<path d="M74.2769 61.2662C74.2637 61.1493 74.2637 61.0313 74.2769 60.9144C74.2926 60.652 74.3162 60.3423 74.3425 59.9591C74.4028 59.1533 74.4973 58.0404 74.6049 56.8095C74.6627 56.1979 74.7178 55.6152 74.7677 55.0798C74.7976 54.8331 74.7976 54.5837 74.7677 54.337C74.7397 54.1258 74.6482 53.9281 74.5052 53.7701C74.4003 53.657 74.2732 53.5666 74.1319 53.5048C73.9905 53.4429 73.838 53.4108 73.6837 53.4105C73.5682 53.416 73.4533 53.43 73.3398 53.4525C73.3656 53.4345 73.3939 53.4203 73.4238 53.4105C73.508 53.3789 73.5965 53.3604 73.6863 53.3554C73.8518 53.3459 74.0174 53.3722 74.1718 53.4325C74.3263 53.4927 74.4659 53.5855 74.5813 53.7045C74.74 53.8749 74.8418 54.0904 74.8727 54.3213C74.9056 54.5766 74.9056 54.835 74.8727 55.0903C74.8254 55.6152 74.7729 56.211 74.7204 56.8226C74.6076 58.0509 74.4973 59.1612 74.4107 59.9722L74.3031 60.9249C74.3041 61.0392 74.2954 61.1534 74.2769 61.2662Z" fill="#E29F76"/>
<path d="M75.3593 57.9048C75.2127 58.1045 75.0927 58.3224 75.0023 58.5531C74.8422 59.1342 74.7307 59.7277 74.669 60.3273C74.5587 61.0307 74.4537 61.6659 74.3698 62.1252C74.3393 62.3757 74.2848 62.6227 74.207 62.8628C74.208 62.6102 74.2309 62.3581 74.2753 62.1095C74.333 61.6475 74.4249 61.0097 74.5377 60.3063C74.6506 59.6029 74.7241 58.9599 74.9183 58.5189C74.9873 58.3461 75.084 58.1857 75.2044 58.0439C75.291 57.9389 75.354 57.8995 75.3593 57.9048Z" fill="#E29F76"/>
<path d="M74.6211 51.3223C74.6576 51.4057 74.6815 51.4942 74.692 51.5847C74.7287 51.7527 74.7733 51.9968 74.8232 52.3013C74.9229 52.9076 75.0332 53.7501 75.104 54.6871C75.1749 55.6241 75.188 56.4745 75.1775 57.0887C75.1775 57.3957 75.1644 57.6451 75.1513 57.8157C75.1535 57.9043 75.1429 57.9927 75.1198 58.0782C75.088 57.7485 75.0748 57.4172 75.0804 57.086C75.0673 56.4719 75.0358 55.6267 74.9675 54.695C74.8993 53.7632 74.8048 52.9207 74.7287 52.3118C74.6733 51.9844 74.6373 51.6539 74.6211 51.3223Z" fill="#E29F76"/>
<path d="M80.4262 59.0296C80.3266 59.0938 80.2129 59.1327 80.0948 59.1428C79.9767 59.1528 79.858 59.1338 79.749 59.0873C79.3632 58.9718 79.1847 58.6752 79.2241 58.6621C79.4048 58.7769 79.5954 58.8752 79.7937 58.9561C80.0021 58.9981 80.2137 59.0226 80.4262 59.0296Z" fill="#E29F76"/>
<path d="M73.3727 66.9316L68.0552 69.1679H64.8845C64.8845 69.1679 61.7507 70.1469 61.2678 73.0865C60.7848 76.0261 60.7166 77.5353 62.0945 77.9001C63.4725 78.265 67.3649 78.3043 69.294 77.6639C71.2231 77.0235 76.2782 72.9395 76.2782 72.9395L76.7638 69.9894L73.3727 66.9316Z" fill="#FFCCA9"/>
<path d="M74.6196 70.1829C74.6196 70.1829 74.5592 70.1383 74.4673 70.0438C74.3407 69.9066 74.2257 69.7591 74.1235 69.6029C73.7906 69.0837 73.54 68.5162 73.3807 67.9204C73.2161 67.3299 73.1063 66.7254 73.0526 66.1147C73.0173 65.8625 73.0102 65.6072 73.0316 65.3535C73.0885 65.5997 73.1271 65.8497 73.1471 66.1015C73.2281 66.7032 73.35 67.2986 73.5119 67.8837C73.6704 68.4675 73.9033 69.0286 74.2049 69.553C74.4437 69.9493 74.6379 70.1645 74.6196 70.1829Z" fill="#E29F76"/>
<path d="M76.9357 71.1162C77.0765 70.7483 77.1777 70.3664 77.2375 69.9771C77.3566 69.0274 77.1004 68.0688 76.5236 67.3051C76.2008 66.8537 75.8359 66.46 75.5289 66.0768C75.2492 65.7427 75.008 65.3782 74.8097 64.9902C74.6795 64.7254 74.591 64.4421 74.5472 64.1503C74.5311 64.0442 74.5311 63.9362 74.5472 63.8301C74.6088 64.2186 74.731 64.595 74.9094 64.9456C75.1161 65.3202 75.3616 65.672 75.6417 65.9954C75.9488 66.3681 76.3163 66.7618 76.647 67.2238C76.9687 67.657 77.195 68.1535 77.311 68.6805C77.4004 69.1124 77.412 69.5568 77.3451 69.9928C77.301 70.2837 77.2199 70.5677 77.1037 70.8379C77.0617 70.9324 77.0223 71.0033 76.996 71.0505C76.9698 71.0978 76.9383 71.1188 76.9357 71.1162Z" fill="#E29F76"/>
<path d="M68.7355 58.3065C68.2638 57.5415 67.831 56.7531 67.4389 55.9443C66.7565 54.632 66.2316 53.5401 66.2631 53.5217C66.7348 54.2868 67.1675 55.0752 67.5597 55.8839C67.9927 56.6709 68.3851 57.4795 68.7355 58.3065Z" fill="white"/>
<path d="M77.332 48.7289C77.5558 48.056 77.8232 47.3984 78.1326 46.7604C78.4011 46.1047 78.7105 45.4665 79.0591 44.8496C78.8339 45.522 78.5665 46.1794 78.2585 46.8181C77.9907 47.4741 77.6812 48.1123 77.332 48.7289Z" fill="white"/>
<path d="M85.7641 54.943C85.3286 54.524 84.925 54.073 84.5568 53.5939C84.1553 53.1431 83.7878 52.6632 83.457 52.1582C83.8929 52.5761 84.2956 53.0272 84.6618 53.5073C85.0645 53.9577 85.4329 54.4376 85.7641 54.943Z" fill="white"/>
<path d="M83.8242 63.4925C84.0905 63.0127 84.3942 62.5546 84.7324 62.1225C85.0368 61.6656 85.3783 61.2346 85.7534 60.8337C85.4877 61.314 85.1841 61.7721 84.8452 62.2038C84.5424 62.6618 84.2008 63.093 83.8242 63.4925Z" fill="white"/>
<path d="M81.2158 75.5669C81.0933 75.4045 80.9902 75.2284 80.9087 75.042C80.7355 74.706 80.5124 74.2362 80.2867 73.7087C80.0609 73.1811 79.8798 72.6903 79.7617 72.336C79.6833 72.1471 79.6269 71.9498 79.5938 71.748C79.7018 71.9222 79.7899 72.1079 79.8562 72.3018L80.4205 73.6536C80.6384 74.1549 80.8326 74.6089 81.0032 75C81.0949 75.1805 81.1662 75.3706 81.2158 75.5669Z" fill="white"/>
<path d="M88.6172 70.4338C88.0805 70.3983 87.5476 70.3184 87.024 70.195C86.4894 70.1158 85.9626 69.9911 85.4492 69.8223C86.5144 69.937 87.5681 70.1416 88.5988 70.4338H88.6172Z" fill="white"/>
<path d="M94.3906 59.1495C94.8609 58.5403 95.3675 57.9601 95.9077 57.412C96.4156 56.8312 96.9572 56.2808 97.5297 55.7637C97.0575 56.3729 96.5501 56.9539 96.0101 57.5038C95.5022 58.083 94.9615 58.6324 94.3906 59.1495Z" fill="white"/>
<path d="M100.166 74.1975C100.137 74.2237 99.2896 73.2395 98.2713 72.0059C97.2529 70.7723 96.4524 69.7486 96.4812 69.725C96.5101 69.7014 97.3579 70.683 98.3762 71.9166C99.3946 73.1502 100.19 74.1738 100.166 74.1975Z" fill="white"/>
<path d="M64.2609 67.7871C64.2793 67.8239 63.505 68.2176 62.6599 68.8659C61.8147 69.5141 61.2268 70.1546 61.1953 70.1257C61.2907 69.9595 61.4111 69.809 61.5523 69.6795C61.8666 69.3438 62.2091 69.0356 62.5759 68.7582C62.9412 68.4794 63.3292 68.2318 63.736 68.0181C63.8988 67.916 64.0757 67.8382 64.2609 67.7871Z" fill="white"/>
<path d="M66.4233 61.9785C66.2565 62.3499 66.0497 62.7019 65.8065 63.0284C65.5993 63.3799 65.3537 63.7074 65.0742 64.0048C65.2414 63.6336 65.4482 63.2816 65.691 62.9549C65.8977 62.603 66.1433 62.2754 66.4233 61.9785Z" fill="white"/>
<path d="M71.2939 67.6796C70.8736 67.0114 70.694 66.2197 70.7847 65.4355C70.824 65.4355 70.8372 65.9605 70.9815 66.572C71.1259 67.1836 71.3306 67.6613 71.2939 67.6796Z" fill="white"/>
<path d="M72.0147 49.5901C71.6883 49.704 71.3487 49.7755 71.0042 49.8027C70.6652 49.8739 70.3183 49.8995 69.9727 49.8788C70.2999 49.7651 70.6404 49.6937 70.9858 49.6662C71.324 49.5966 71.6698 49.571 72.0147 49.5901Z" fill="white"/>
<path d="M75.6732 43.0996C75.1079 43.5179 74.4902 43.8603 73.8359 44.118C74.1045 43.8902 74.4019 43.6987 74.7205 43.5484C75.0178 43.3591 75.3379 43.2083 75.6732 43.0996Z" fill="white"/>
<path d="M85.9668 45.8432C85.5959 45.4661 85.2571 45.0587 84.9537 44.6254C84.6169 44.2183 84.3149 43.7837 84.0508 43.3262C84.7609 44.1083 85.402 44.9505 85.9668 45.8432Z" fill="white"/>
<path d="M99.0293 52.3698C98.3059 51.6569 97.7617 50.7826 97.4414 49.8187C97.4808 49.8029 97.7616 50.4145 98.2026 51.1152C98.6435 51.816 99.0608 52.3436 99.0293 52.3698Z" fill="white"/>
<path d="M104.016 54.0137C103.699 54.9364 103.295 55.8267 102.809 56.6725C102.949 56.2047 103.13 55.7506 103.352 55.3155C103.532 54.8615 103.754 54.4256 104.016 54.0137Z" fill="white"/>
<path d="M104.713 47.2069C104.235 46.7436 103.792 46.2472 103.385 45.7213C102.942 45.2249 102.534 44.6987 102.164 44.1465C103.082 45.1072 103.934 46.1297 104.713 47.2069Z" fill="white"/>
<path d="M97.0969 41.6794C97.0138 41.2612 96.9742 40.8355 96.9788 40.4091C96.9392 39.9836 96.9454 39.5551 96.9972 39.1309C97.0804 39.5491 97.12 39.9748 97.1153 40.4012C97.1565 40.8266 97.1503 41.2553 97.0969 41.6794Z" fill="white"/>
<path d="M103.315 41.334C102.783 41.4734 102.24 41.5691 101.692 41.6201C101.152 41.7151 100.604 41.7652 100.055 41.7697C100.587 41.6302 101.129 41.5346 101.677 41.4836C102.218 41.3885 102.765 41.3384 103.315 41.334Z" fill="white"/>
<path d="M113.085 48.5171C112.72 47.919 112.394 47.2983 112.108 46.6589C111.784 46.0383 111.5 45.3974 111.258 44.7402C111.624 45.338 111.951 45.9587 112.237 46.5985C112.56 47.2192 112.843 47.8601 113.085 48.5171Z" fill="white"/>
<path d="M111.453 54.7243C111.563 53.7218 111.761 52.7311 112.046 51.7637C112.015 52.2673 111.938 52.767 111.818 53.2571C111.741 53.7563 111.619 54.2474 111.453 54.7243Z" fill="white"/>
<path d="M115.975 59.6198C115.669 58.9657 115.406 58.2924 115.187 57.604C114.927 56.931 114.711 56.2419 114.539 55.541C114.843 56.1967 115.106 56.8708 115.326 57.5594C115.586 58.2319 115.802 58.92 115.975 59.6198Z" fill="white"/>
<path d="M115.345 62.4815C114.876 62.411 114.426 62.2496 114.019 62.0064C113.592 61.8014 113.211 61.5121 112.898 61.156C112.925 61.1246 113.408 61.5235 114.085 61.8857C114.762 62.2479 115.358 62.4421 115.345 62.4815Z" fill="white"/>
<path d="M121.164 69.0072C120.811 68.4342 120.536 67.8162 120.348 67.1699C120.701 67.7429 120.976 68.3609 121.164 69.0072Z" fill="white"/>
<path d="M86.8353 78.109C86.7233 77.7304 86.6547 77.3404 86.6305 76.9463C86.5641 76.5572 86.5412 76.162 86.5623 75.7678C86.6822 76.1486 86.7553 76.5426 86.7801 76.9411C86.843 77.327 86.8615 77.7189 86.8353 78.109Z" fill="white"/>
<path d="M104.664 77.6601C104.676 77.2759 104.733 76.8944 104.835 76.5236C104.894 76.1438 104.997 75.7721 105.142 75.416C105.13 75.8004 105.072 76.182 104.969 76.5525C104.911 76.9324 104.809 77.3042 104.664 77.6601Z" fill="white"/>
<path d="M108.082 25.6125L110.402 21.56C108.971 19.2502 108.456 16.4888 108.958 13.8185C109.46 11.1483 110.943 8.76241 113.115 7.13006C115.287 5.49771 117.991 4.73696 120.696 4.99739C123.4 5.25782 125.91 6.52059 127.73 8.53742C129.551 10.5542 130.551 13.1792 130.535 15.8962C130.518 18.6132 129.485 21.2256 127.64 23.2199C125.795 25.2141 123.27 26.4459 120.562 26.673C117.855 26.9001 115.16 26.1061 113.009 24.4471L108.082 25.6125Z" fill="#B7DDFF"/>
<path d="M108.082 25.6118L113.009 24.4884H113.058L113.027 24.4464L112.98 24.491C113.67 25.0263 114.421 25.4791 115.216 25.8401C116.164 26.2644 117.168 26.5508 118.198 26.6905C118.768 26.7701 119.344 26.7991 119.919 26.7771C120.216 26.7614 120.515 26.7535 120.82 26.7299L121.738 26.5908C124.476 26.054 126.906 24.494 128.534 22.2286C129.438 20.9754 130.064 19.5437 130.371 18.0291C130.683 16.4267 130.639 14.7753 130.242 13.1918C129.83 11.5409 129.031 10.0116 127.911 8.72987L127.463 8.21806C127.316 8.05271 127.142 7.91885 126.985 7.76662C126.827 7.61438 126.67 7.46215 126.492 7.33617L125.967 6.94772C125.795 6.81554 125.615 6.69622 125.426 6.59076L124.875 6.25481L124.297 5.97397C124.108 5.87522 123.914 5.78758 123.715 5.7115C122.166 5.10134 120.501 4.84574 118.841 4.96347C117.275 5.06875 115.752 5.51676 114.379 6.2758C111.903 7.65283 110.052 9.9302 109.211 12.6354C108.874 13.7828 108.714 14.9751 108.738 16.1708C108.765 17.2083 108.942 18.2365 109.263 19.2233C109.534 20.0434 109.9 20.8292 110.352 21.5645V21.5304C108.898 24.1367 108.187 25.4097 108.074 25.6091C108.19 25.4123 108.919 24.1472 110.408 21.5619V21.5461V21.5304C109.966 20.7967 109.611 20.0135 109.352 19.1971C109.033 18.217 108.856 17.196 108.827 16.1656C108.81 14.9809 108.972 13.8005 109.308 12.6643C110.15 9.99563 111.983 7.75093 114.429 6.39129C115.788 5.63386 117.298 5.18577 118.851 5.07895C120.491 4.96338 122.136 5.21721 123.665 5.82173C123.861 5.8978 124.053 5.98544 124.24 6.0842L124.812 6.36242L125.363 6.70362C125.546 6.80858 125.721 6.9261 125.888 7.05533L126.413 7.44116C126.589 7.56714 126.736 7.72462 126.898 7.86635C127.061 8.00809 127.226 8.14982 127.371 8.31255L127.809 8.79286C128.916 10.0623 129.706 11.5762 130.114 13.2102C130.508 14.7736 130.552 16.4048 130.242 17.9871C129.942 19.4855 129.325 20.9023 128.431 22.1419C126.824 24.3849 124.424 25.9324 121.717 26.47L120.809 26.6118C120.507 26.6354 120.211 26.6459 119.917 26.6616C119.347 26.6849 118.776 26.6585 118.211 26.5829C117.188 26.4506 116.189 26.1731 115.245 25.7587C114.453 25.4046 113.705 24.9588 113.016 24.4307L112.814 24.2758L112.969 24.4779L112.988 24.4254L108.082 25.6118Z" fill="#263238"/>
<path d="M122.582 15.4049C122.585 15.6114 122.648 15.8125 122.765 15.9832C122.881 16.1538 123.045 16.2863 123.236 16.3641C123.428 16.442 123.638 16.4616 123.84 16.4207C124.042 16.3798 124.228 16.2801 124.374 16.134C124.52 15.988 124.62 15.8021 124.661 15.5997C124.702 15.3973 124.682 15.1873 124.604 14.996C124.527 14.8047 124.394 14.6406 124.223 14.5243C124.053 14.4079 123.852 14.3445 123.645 14.3419C123.505 14.3401 123.366 14.3664 123.236 14.4192C123.106 14.472 122.989 14.5502 122.89 14.6493C122.79 14.7484 122.712 14.8662 122.659 14.996C122.607 15.1258 122.58 15.2648 122.582 15.4049Z" fill="#263238"/>
<path d="M118.332 15.4048C118.335 15.6119 118.398 15.8135 118.515 15.9844C118.632 16.1554 118.797 16.2879 118.989 16.3653C119.181 16.4428 119.392 16.4617 119.595 16.4197C119.798 16.3778 119.983 16.2767 120.129 16.1294C120.274 15.9821 120.373 15.795 120.413 15.5917C120.452 15.3884 120.43 15.178 120.351 14.9869C120.271 14.7959 120.136 14.6327 119.964 14.5179C119.792 14.4031 119.589 14.3418 119.382 14.3418C119.243 14.3418 119.105 14.3694 118.977 14.4229C118.849 14.4765 118.733 14.555 118.635 14.6539C118.537 14.7528 118.46 14.8701 118.408 14.999C118.356 15.1279 118.33 15.2658 118.332 15.4048Z" fill="#263238"/>
<path d="M114.092 14.8724C113.991 15.0525 113.945 15.2585 113.96 15.4647C113.975 15.6709 114.051 15.868 114.177 16.0313C114.304 16.1946 114.476 16.3169 114.672 16.3828C114.868 16.4487 115.079 16.4553 115.279 16.4018C115.478 16.3483 115.658 16.237 115.795 16.0819C115.931 15.9268 116.019 15.7348 116.047 15.53C116.075 15.3252 116.042 15.1167 115.952 14.9306C115.862 14.7445 115.719 14.5891 115.541 14.4839C115.421 14.4129 115.288 14.3665 115.149 14.3476C115.011 14.3286 114.87 14.3375 114.735 14.3737C114.6 14.4099 114.474 14.4726 114.363 14.5583C114.253 14.6439 114.161 14.7507 114.092 14.8724Z" fill="#263238"/>
</g>
<defs>
<clipPath id="clip0_368_1606">
<rect width="186.614" height="100" fill="white" transform="translate(0.691406 0.298828)"/>
</clipPath>
</defs>
</svg>
