<?xml version="1.0" encoding="UTF-8"?>
<!DOCTYPE svg PUBLIC "-//W3C//DTD SVG 1.0//EN" "http://www.w3.org/TR/2001/REC-SVG-20010904/DTD/svg10.dtd">
<!-- Creator: CorelDRAW 2020 (64-Bit) -->
<svg xmlns="http://www.w3.org/2000/svg" xml:space="preserve" width="22.4043mm" height="15.8746mm" version="1.0" style="shape-rendering:geometricPrecision; text-rendering:geometricPrecision; image-rendering:optimizeQuality; fill-rule:evenodd; clip-rule:evenodd"
viewBox="0 0 3403.48 2411.54"
 xmlns:xlink="http://www.w3.org/1999/xlink"
 xmlns:xodm="http://www.corel.com/coreldraw/odm/2003">
 <defs>
  <style type="text/css">
   <![CDATA[
    .fil0 {fill:url(#id0)}
   ]]>
  </style>
  <linearGradient id="id0" gradientUnits="userSpaceOnUse" x1="-0.06" y1="1205.77" x2="3403.51" y2="1205.77">
   <stop offset="0" style="stop-opacity:1; stop-color:#7A7B7E"/>
   <stop offset="0.341176" style="stop-opacity:1; stop-color:#FEFEFE"/>
   <stop offset="0.709804" style="stop-opacity:1; stop-color:#8F9193"/>
   <stop offset="0.921569" style="stop-opacity:1; stop-color:#C6C7C8"/>
   <stop offset="1" style="stop-opacity:1; stop-color:#FEFEFE"/>
  </linearGradient>
 </defs>
 <g id="Layer_x0020_1">
  <metadata id="CorelCorpID_0Corel-Layer"/>
  <path class="fil0" d="M3027.3 1378.12c-22.5,-29.18 -64.4,-34.61 -93.59,-12.11 -29.2,22.5 -34.62,64.41 -12.11,93.59 68.6,89.01 104.86,195.6 104.86,308.29 0,36.85 29.88,66.73 66.73,66.73 36.85,0 66.73,-29.9 66.73,-66.73 0,-142.43 -45.86,-277.22 -132.63,-389.78zm-199.96 -156.76c-85.88,0 -86.04,133.45 0,133.45 85.88,0 86.03,-133.45 0,-133.45zm-24.28 -290.99c135.49,-91.45 224.77,-246.37 224.77,-421.77 0,-280.44 -228.16,-508.59 -508.59,-508.59 -280.44,0 -508.6,228.16 -508.6,508.59 0,175.31 89.2,330.18 224.59,421.65 -98.64,33.39 -190.98,84.24 -272.97,150.91 -69.36,-66.72 -162.47,-105.15 -260.51,-105.15 -98.04,0 -191.14,38.45 -260.47,105.15 -82.02,-66.67 -174.38,-117.52 -273.03,-150.91 135.4,-91.47 224.59,-246.34 224.59,-421.66 0,-280.43 -228.16,-508.59 -508.59,-508.59 -280.4,0 -508.53,228.16 -508.53,508.59 0,175.4 89.26,330.32 224.74,421.77 -348.26,118.34 -599.61,448.2 -600.37,835.81 -0.02,0.58 -0.09,1.14 -0.09,1.73 0,102.45 58.21,253.66 335.59,392.19 197.64,98.71 469.24,172.92 785.45,214.58 185.47,24.47 380.86,36.88 580.71,36.88 199.9,0 395.31,-12.41 580.78,-36.88 316.17,-41.65 587.75,-115.86 785.39,-214.58 277.35,-138.54 335.57,-289.74 335.57,-392.19 0,-388.33 -251.64,-719.02 -600.42,-837.52zm-658.93 -421.77c0,-206.84 168.27,-375.12 375.12,-375.12 206.83,0 375.1,168.27 375.1,375.12 0,206.81 -168.27,375.04 -375.1,375.04 -206.84,0 -375.12,-168.23 -375.12,-375.04zm-641.51 705.15c45.35,-65.28 119.77,-104.27 199.11,-104.27 79.4,0 153.84,39 199.19,104.27 0,0.02 0.02,0.03 0.02,0.05 28.3,40.67 43.25,88.43 43.25,138.13 0,133.68 -108.77,242.45 -242.45,242.45 -133.65,0 -242.38,-108.77 -242.38,-242.45 0,-49.78 14.93,-97.53 43.26,-138.18zm-993.43 -705.15c0,-206.84 168.24,-375.12 375.04,-375.12 206.84,0 375.12,168.27 375.12,375.12 0,206.81 -168.29,375.04 -375.12,375.04 -206.8,0 -375.04,-168.23 -375.04,-375.04zm553.86 1723.02c-269.13,-40.99 -498.85,-106.55 -667.82,-190.94 -168.3,-84.05 -261.18,-180.62 -261.73,-272 0,-0.26 0.05,-0.52 0.05,-0.79 0,-413.98 336.76,-750.76 750.69,-750.76 176.11,0 344.13,60.83 478.57,172.27 -24.23,50.37 -36.91,105.61 -36.91,162.53 0,116.18 53,220.21 136.05,289.23 -233.28,94.84 -398.28,323.69 -398.89,590.47zm1144 17.86c-162.32,18.93 -331.97,28.59 -505.32,28.59 -173.29,0 -342.93,-9.66 -505.24,-28.59l0 -16.39c0,-278.59 226.65,-505.24 505.24,-505.24 278.64,0 505.32,226.65 505.32,505.24l0 16.39zm801.21 -208.8c-168.94,84.39 -398.65,149.95 -667.74,190.94 -0.61,-266.79 -165.64,-495.63 -398.92,-590.48 83.07,-69.01 136.07,-173.03 136.07,-289.23 0,-56.86 -12.67,-112.1 -36.93,-162.53 134.38,-111.43 302.38,-172.27 478.51,-172.27 413.98,0 750.76,336.8 750.76,750.76 0,91.62 -92.96,188.49 -261.74,272.8z"/>
 </g>
</svg>
